<svg xmlns="http://www.w3.org/2000/svg" xmlns:xlink="http://www.w3.org/1999/xlink" contentStyleType="text/css" height="412.8px" preserveAspectRatio="none" style="width:2179px;height:412px;background:#FFFFFF;" version="1.1" viewBox="0 0 2179 412" width="2179.2px" zoomAndPan="magnify"><defs/><g><!--class repositoryChangeListener--><g id="elem_repositoryChangeListener"><rect codeLine="2" fill="#F1F1F1" height="28.8" id="repositoryChangeListener" rx="1.5" ry="1.5" style="stroke:#181818;stroke-width:0.3;" width="118.6588" x="222.828" y="55.8"/><ellipse cx="231.828" cy="65.4" fill="#ADD1B2" rx="6.6" ry="6.6" style="stroke:#181818;stroke-width:0.6;"/><path d="M233.4874,62.925 Q233.5811,62.7937 233.6936,62.7281 Q233.8061,62.6625 233.9374,62.6625 Q234.1624,62.6625 234.303,62.8219 Q234.4436,62.9719 234.4436,63.3375 L234.4436,64.2094 Q234.4436,64.575 234.303,64.7344 Q234.1624,64.8938 233.9374,64.8938 Q233.7311,64.8938 233.6092,64.7719 Q233.4874,64.6594 233.4217,64.35 Q233.3936,64.1344 233.2811,64.0219 Q233.0843,63.7969 232.7186,63.6656 Q232.353,63.5344 231.978,63.5344 Q231.5186,63.5344 231.1342,63.7312 Q230.7592,63.9281 230.4593,64.3781 Q230.1686,64.8281 230.1686,65.4469 L230.1686,66.1031 Q230.1686,66.8438 230.703,67.3406 Q231.2374,67.8281 232.1936,67.8281 Q232.7561,67.8281 233.1499,67.6781 Q233.3842,67.5844 233.6374,67.3219 Q233.7967,67.1625 233.8811,67.1156 Q233.9749,67.0688 234.0968,67.0688 Q234.2936,67.0688 234.4436,67.2281 Q234.603,67.3781 234.603,67.5844 Q234.603,67.7906 234.3968,68.0344 Q234.0968,68.3813 233.6186,68.5781 Q232.9718,68.85 232.1936,68.85 Q231.2843,68.85 230.5624,68.475 Q229.9718,68.175 229.5593,67.5375 Q229.1468,66.8906 229.1468,66.1219 L229.1468,65.4281 Q229.1468,64.6313 229.5124,63.9469 Q229.8874,63.2531 230.5436,62.8875 Q231.1999,62.5125 231.9405,62.5125 Q232.3811,62.5125 232.7655,62.6156 Q233.1593,62.7094 233.4874,62.925 Z " fill="#000000"/><text fill="#000000" font-family="sans-serif" font-size="8.4" lengthAdjust="spacing" textLength="99.4588" x="240.228" y="68.8781">RepositoryChangeListener</text><line style="stroke:#181818;stroke-width:0.3;" x1="223.428" x2="340.8868" y1="75" y2="75"/><line style="stroke:#181818;stroke-width:0.3;" x1="223.428" x2="340.8868" y1="79.8" y2="79.8"/></g><!--class moduleChangeListener--><g id="elem_moduleChangeListener"><rect codeLine="3" fill="#F1F1F1" height="28.8" id="moduleChangeListener" rx="1.5" ry="1.5" style="stroke:#181818;stroke-width:0.3;" width="106.0588" x="1036.128" y="55.8"/><ellipse cx="1045.128" cy="65.4" fill="#ADD1B2" rx="6.6" ry="6.6" style="stroke:#181818;stroke-width:0.6;"/><path d="M1046.7874,62.925 Q1046.8811,62.7937 1046.9936,62.7281 Q1047.1061,62.6625 1047.2374,62.6625 Q1047.4624,62.6625 1047.603,62.8219 Q1047.7436,62.9719 1047.7436,63.3375 L1047.7436,64.2094 Q1047.7436,64.575 1047.603,64.7344 Q1047.4624,64.8938 1047.2374,64.8938 Q1047.0311,64.8938 1046.9093,64.7719 Q1046.7874,64.6594 1046.7218,64.35 Q1046.6936,64.1344 1046.5811,64.0219 Q1046.3843,63.7969 1046.0186,63.6656 Q1045.653,63.5344 1045.278,63.5344 Q1044.8186,63.5344 1044.4343,63.7312 Q1044.0593,63.9281 1043.7593,64.3781 Q1043.4686,64.8281 1043.4686,65.4469 L1043.4686,66.1031 Q1043.4686,66.8438 1044.003,67.3406 Q1044.5374,67.8281 1045.4936,67.8281 Q1046.0561,67.8281 1046.4499,67.6781 Q1046.6843,67.5844 1046.9374,67.3219 Q1047.0968,67.1625 1047.1811,67.1156 Q1047.2749,67.0688 1047.3968,67.0688 Q1047.5936,67.0688 1047.7436,67.2281 Q1047.903,67.3781 1047.903,67.5844 Q1047.903,67.7906 1047.6968,68.0344 Q1047.3968,68.3813 1046.9186,68.5781 Q1046.2718,68.85 1045.4936,68.85 Q1044.5843,68.85 1043.8624,68.475 Q1043.2718,68.175 1042.8593,67.5375 Q1042.4468,66.8906 1042.4468,66.1219 L1042.4468,65.4281 Q1042.4468,64.6313 1042.8124,63.9469 Q1043.1874,63.2531 1043.8436,62.8875 Q1044.4999,62.5125 1045.2405,62.5125 Q1045.6811,62.5125 1046.0655,62.6156 Q1046.4593,62.7094 1046.7874,62.925 Z " fill="#000000"/><text fill="#000000" font-family="sans-serif" font-size="8.4" lengthAdjust="spacing" textLength="86.8588" x="1053.528" y="68.8781">ModuleChangeListener</text><line style="stroke:#181818;stroke-width:0.3;" x1="1036.728" x2="1141.5868" y1="75" y2="75"/><line style="stroke:#181818;stroke-width:0.3;" x1="1036.728" x2="1141.5868" y1="79.8" y2="79.8"/></g><!--class modelChangeListener--><g id="elem_modelChangeListener"><rect codeLine="4" fill="#F1F1F1" height="28.8" id="modelChangeListener" rx="1.5" ry="1.5" style="stroke:#181818;stroke-width:0.3;" width="101.3871" x="473.928" y="55.8"/><ellipse cx="482.928" cy="65.4" fill="#ADD1B2" rx="6.6" ry="6.6" style="stroke:#181818;stroke-width:0.6;"/><path d="M484.5874,62.925 Q484.6811,62.7937 484.7936,62.7281 Q484.9061,62.6625 485.0374,62.6625 Q485.2624,62.6625 485.403,62.8219 Q485.5436,62.9719 485.5436,63.3375 L485.5436,64.2094 Q485.5436,64.575 485.403,64.7344 Q485.2624,64.8938 485.0374,64.8938 Q484.8311,64.8938 484.7093,64.7719 Q484.5874,64.6594 484.5218,64.35 Q484.4936,64.1344 484.3811,64.0219 Q484.1842,63.7969 483.8186,63.6656 Q483.453,63.5344 483.078,63.5344 Q482.6186,63.5344 482.2343,63.7312 Q481.8593,63.9281 481.5592,64.3781 Q481.2686,64.8281 481.2686,65.4469 L481.2686,66.1031 Q481.2686,66.8438 481.803,67.3406 Q482.3374,67.8281 483.2936,67.8281 Q483.8561,67.8281 484.2499,67.6781 Q484.4843,67.5844 484.7374,67.3219 Q484.8968,67.1625 484.9811,67.1156 Q485.0749,67.0688 485.1967,67.0688 Q485.3936,67.0688 485.5436,67.2281 Q485.703,67.3781 485.703,67.5844 Q485.703,67.7906 485.4967,68.0344 Q485.1967,68.3813 484.7186,68.5781 Q484.0717,68.85 483.2936,68.85 Q482.3842,68.85 481.6624,68.475 Q481.0717,68.175 480.6593,67.5375 Q480.2467,66.8906 480.2467,66.1219 L480.2467,65.4281 Q480.2467,64.6313 480.6124,63.9469 Q480.9874,63.2531 481.6436,62.8875 Q482.2999,62.5125 483.0405,62.5125 Q483.4811,62.5125 483.8655,62.6156 Q484.2592,62.7094 484.5874,62.925 Z " fill="#000000"/><text fill="#000000" font-family="sans-serif" font-size="8.4" lengthAdjust="spacing" textLength="82.1871" x="491.328" y="68.8781">ModelChangeListener</text><line style="stroke:#181818;stroke-width:0.3;" x1="474.528" x2="574.7151" y1="75" y2="75"/><line style="stroke:#181818;stroke-width:0.3;" x1="474.528" x2="574.7151" y1="79.8" y2="79.8"/></g><!--class nodeChangeListener--><g id="elem_nodeChangeListener"><rect codeLine="5" fill="#F1F1F1" height="28.8" id="nodeChangeListener" rx="1.5" ry="1.5" style="stroke:#181818;stroke-width:0.3;" width="98.5898" x="645.828" y="55.8"/><ellipse cx="654.828" cy="65.4" fill="#ADD1B2" rx="6.6" ry="6.6" style="stroke:#181818;stroke-width:0.6;"/><path d="M656.4874,62.925 Q656.5811,62.7937 656.6936,62.7281 Q656.8061,62.6625 656.9374,62.6625 Q657.1624,62.6625 657.303,62.8219 Q657.4436,62.9719 657.4436,63.3375 L657.4436,64.2094 Q657.4436,64.575 657.303,64.7344 Q657.1624,64.8938 656.9374,64.8938 Q656.7311,64.8938 656.6093,64.7719 Q656.4874,64.6594 656.4218,64.35 Q656.3936,64.1344 656.2811,64.0219 Q656.0843,63.7969 655.7186,63.6656 Q655.353,63.5344 654.978,63.5344 Q654.5186,63.5344 654.1343,63.7312 Q653.7593,63.9281 653.4593,64.3781 Q653.1686,64.8281 653.1686,65.4469 L653.1686,66.1031 Q653.1686,66.8438 653.703,67.3406 Q654.2374,67.8281 655.1936,67.8281 Q655.7561,67.8281 656.1499,67.6781 Q656.3843,67.5844 656.6374,67.3219 Q656.7968,67.1625 656.8811,67.1156 Q656.9749,67.0688 657.0968,67.0688 Q657.2936,67.0688 657.4436,67.2281 Q657.603,67.3781 657.603,67.5844 Q657.603,67.7906 657.3968,68.0344 Q657.0968,68.3813 656.6186,68.5781 Q655.9718,68.85 655.1936,68.85 Q654.2843,68.85 653.5624,68.475 Q652.9718,68.175 652.5593,67.5375 Q652.1468,66.8906 652.1468,66.1219 L652.1468,65.4281 Q652.1468,64.6313 652.5124,63.9469 Q652.8874,63.2531 653.5436,62.8875 Q654.1999,62.5125 654.9405,62.5125 Q655.3811,62.5125 655.7655,62.6156 Q656.1593,62.7094 656.4874,62.925 Z " fill="#000000"/><text fill="#000000" font-family="sans-serif" font-size="8.4" lengthAdjust="spacing" textLength="79.3898" x="663.228" y="68.8781">NodeChangeListener</text><line style="stroke:#181818;stroke-width:0.3;" x1="646.428" x2="743.8178" y1="75" y2="75"/><line style="stroke:#181818;stroke-width:0.3;" x1="646.428" x2="743.8178" y1="79.8" y2="79.8"/></g><!--class iBinding--><g id="elem_iBinding"><rect codeLine="7" fill="#F1F1F1" height="28.8" id="iBinding" rx="1.5" ry="1.5" style="stroke:#181818;stroke-width:0.3;" width="49.5557" x="794.328" y="315"/><ellipse cx="803.328" cy="324.6" fill="#B4A7E5" rx="6.6" ry="6.6" style="stroke:#181818;stroke-width:0.6;"/><path d="M803.8999,322.5844 L803.8999,326.5781 L804.9311,326.5781 Q805.2968,326.5781 805.4561,326.7188 Q805.6155,326.8594 805.6155,327.0938 Q805.6155,327.3187 805.4561,327.4594 Q805.2968,327.6 804.9311,327.6 L801.8468,327.6 Q801.4811,327.6 801.3218,327.4594 Q801.1624,327.3187 801.1624,327.0844 Q801.1624,326.8594 801.3218,326.7188 Q801.4811,326.5781 801.8468,326.5781 L802.878,326.5781 L802.878,322.5844 L801.8468,322.5844 Q801.4811,322.5844 801.3218,322.4437 Q801.1624,322.3031 801.1624,322.0687 Q801.1624,321.8438 801.3218,321.7031 Q801.4811,321.5625 801.8468,321.5625 L804.9311,321.5625 Q805.2968,321.5625 805.4561,321.7031 Q805.6155,321.8438 805.6155,322.0687 Q805.6155,322.3031 805.4561,322.4437 Q805.2968,322.5844 804.9311,322.5844 L803.8999,322.5844 Z " fill="#000000"/><text fill="#000000" font-family="sans-serif" font-size="8.4" font-style="italic" lengthAdjust="spacing" textLength="30.3557" x="811.728" y="328.0781">IBinding</text><line style="stroke:#181818;stroke-width:0.3;" x1="794.928" x2="843.2837" y1="334.2" y2="334.2"/><line style="stroke:#181818;stroke-width:0.3;" x1="794.928" x2="843.2837" y1="339" y2="339"/></g><!--class modelBinding--><g id="elem_modelBinding"><rect codeLine="8" fill="#F1F1F1" height="28.8" id="modelBinding" rx="1.5" ry="1.5" style="stroke:#181818;stroke-width:0.3;" width="70.1004" x="600.528" y="379.8"/><ellipse cx="609.528" cy="389.4" fill="#ADD1B2" rx="6.6" ry="6.6" style="stroke:#181818;stroke-width:0.6;"/><path d="M611.1874,386.925 Q611.2811,386.7938 611.3936,386.7281 Q611.5061,386.6625 611.6374,386.6625 Q611.8624,386.6625 612.003,386.8219 Q612.1436,386.9719 612.1436,387.3375 L612.1436,388.2094 Q612.1436,388.575 612.003,388.7344 Q611.8624,388.8938 611.6374,388.8938 Q611.4311,388.8938 611.3093,388.7719 Q611.1874,388.6594 611.1218,388.35 Q611.0936,388.1344 610.9811,388.0219 Q610.7842,387.7969 610.4186,387.6656 Q610.053,387.5344 609.678,387.5344 Q609.2186,387.5344 608.8343,387.7313 Q608.4593,387.9281 608.1592,388.3781 Q607.8686,388.8281 607.8686,389.4469 L607.8686,390.1031 Q607.8686,390.8438 608.403,391.3406 Q608.9374,391.8281 609.8936,391.8281 Q610.4561,391.8281 610.8499,391.6781 Q611.0843,391.5844 611.3374,391.3219 Q611.4968,391.1625 611.5811,391.1156 Q611.6749,391.0687 611.7968,391.0687 Q611.9936,391.0687 612.1436,391.2281 Q612.303,391.3781 612.303,391.5844 Q612.303,391.7906 612.0967,392.0344 Q611.7968,392.3812 611.3186,392.5781 Q610.6718,392.85 609.8936,392.85 Q608.9843,392.85 608.2624,392.475 Q607.6718,392.175 607.2593,391.5375 Q606.8467,390.8906 606.8467,390.1219 L606.8467,389.4281 Q606.8467,388.6312 607.2124,387.9469 Q607.5874,387.2531 608.2436,386.8875 Q608.8999,386.5125 609.6405,386.5125 Q610.0811,386.5125 610.4655,386.6156 Q610.8593,386.7094 611.1874,386.925 Z " fill="#000000"/><text fill="#000000" font-family="sans-serif" font-size="8.4" lengthAdjust="spacing" textLength="50.9004" x="617.928" y="392.8781">ModelBinding</text><line style="stroke:#181818;stroke-width:0.3;" x1="601.128" x2="670.0284" y1="399" y2="399"/><line style="stroke:#181818;stroke-width:0.3;" x1="601.128" x2="670.0284" y1="403.8" y2="403.8"/></g><!--class moduleBinding--><g id="elem_moduleBinding"><rect codeLine="9" fill="#F1F1F1" height="28.8" id="moduleBinding" rx="1.5" ry="1.5" style="stroke:#181818;stroke-width:0.3;" width="74.7721" x="335.328" y="379.8"/><ellipse cx="344.328" cy="389.4" fill="#ADD1B2" rx="6.6" ry="6.6" style="stroke:#181818;stroke-width:0.6;"/><path d="M345.9874,386.925 Q346.0811,386.7938 346.1936,386.7281 Q346.3061,386.6625 346.4374,386.6625 Q346.6624,386.6625 346.803,386.8219 Q346.9436,386.9719 346.9436,387.3375 L346.9436,388.2094 Q346.9436,388.575 346.803,388.7344 Q346.6624,388.8938 346.4374,388.8938 Q346.2311,388.8938 346.1093,388.7719 Q345.9874,388.6594 345.9218,388.35 Q345.8936,388.1344 345.7811,388.0219 Q345.5843,387.7969 345.2186,387.6656 Q344.853,387.5344 344.478,387.5344 Q344.0186,387.5344 343.6343,387.7313 Q343.2593,387.9281 342.9593,388.3781 Q342.6686,388.8281 342.6686,389.4469 L342.6686,390.1031 Q342.6686,390.8438 343.203,391.3406 Q343.7374,391.8281 344.6936,391.8281 Q345.2561,391.8281 345.6499,391.6781 Q345.8843,391.5844 346.1374,391.3219 Q346.2968,391.1625 346.3811,391.1156 Q346.4749,391.0687 346.5968,391.0687 Q346.7936,391.0687 346.9436,391.2281 Q347.103,391.3781 347.103,391.5844 Q347.103,391.7906 346.8968,392.0344 Q346.5968,392.3812 346.1186,392.5781 Q345.4718,392.85 344.6936,392.85 Q343.7843,392.85 343.0624,392.475 Q342.4718,392.175 342.0592,391.5375 Q341.6468,390.8906 341.6468,390.1219 L341.6468,389.4281 Q341.6468,388.6312 342.0124,387.9469 Q342.3874,387.2531 343.0436,386.8875 Q343.6999,386.5125 344.4405,386.5125 Q344.8811,386.5125 345.2655,386.6156 Q345.6593,386.7094 345.9874,386.925 Z " fill="#000000"/><text fill="#000000" font-family="sans-serif" font-size="8.4" lengthAdjust="spacing" textLength="55.5721" x="352.728" y="392.8781">ModuleBinding</text><line style="stroke:#181818;stroke-width:0.3;" x1="335.928" x2="409.5001" y1="399" y2="399"/><line style="stroke:#181818;stroke-width:0.3;" x1="335.928" x2="409.5001" y1="403.8" y2="403.8"/></g><!--class injectableService--><g id="elem_injectableService"><rect codeLine="11" fill="#F1F1F1" height="28.8" id="injectableService" rx="1.5" ry="1.5" style="stroke:#181818;stroke-width:0.3;" width="83.168" x="505.728" y="250.2"/><ellipse cx="514.728" cy="259.8" fill="#B4A7E5" rx="6.6" ry="6.6" style="stroke:#181818;stroke-width:0.6;"/><path d="M515.2999,257.7844 L515.2999,261.7781 L516.3311,261.7781 Q516.6968,261.7781 516.8561,261.9188 Q517.0155,262.0594 517.0155,262.2938 Q517.0155,262.5188 516.8561,262.6594 Q516.6968,262.8 516.3311,262.8 L513.2468,262.8 Q512.8811,262.8 512.7217,262.6594 Q512.5624,262.5188 512.5624,262.2844 Q512.5624,262.0594 512.7217,261.9188 Q512.8811,261.7781 513.2468,261.7781 L514.278,261.7781 L514.278,257.7844 L513.2468,257.7844 Q512.8811,257.7844 512.7217,257.6438 Q512.5624,257.5031 512.5624,257.2688 Q512.5624,257.0438 512.7217,256.9031 Q512.8811,256.7625 513.2468,256.7625 L516.3311,256.7625 Q516.6968,256.7625 516.8561,256.9031 Q517.0155,257.0438 517.0155,257.2688 Q517.0155,257.5031 516.8561,257.6438 Q516.6968,257.7844 516.3311,257.7844 L515.2999,257.7844 Z " fill="#000000"/><text fill="#000000" font-family="sans-serif" font-size="8.4" font-style="italic" lengthAdjust="spacing" textLength="63.968" x="523.128" y="263.2781">InjectableService</text><line style="stroke:#181818;stroke-width:0.3;" x1="506.328" x2="588.296" y1="269.4" y2="269.4"/><line style="stroke:#181818;stroke-width:0.3;" x1="506.328" x2="588.296" y1="274.2" y2="274.2"/></g><!--class serviceLocator--><g id="elem_serviceLocator"><rect codeLine="12" fill="#F1F1F1" height="28.8" id="serviceLocator" rx="1.5" ry="1.5" style="stroke:#181818;stroke-width:0.3;" width="75.2273" x="641.928" y="185.4"/><ellipse cx="650.928" cy="195" fill="#ADD1B2" rx="6.6" ry="6.6" style="stroke:#181818;stroke-width:0.6;"/><path d="M652.5874,192.525 Q652.6811,192.3937 652.7936,192.3281 Q652.9061,192.2625 653.0374,192.2625 Q653.2624,192.2625 653.403,192.4219 Q653.5436,192.5719 653.5436,192.9375 L653.5436,193.8094 Q653.5436,194.175 653.403,194.3344 Q653.2624,194.4938 653.0374,194.4938 Q652.8311,194.4938 652.7093,194.3719 Q652.5874,194.2594 652.5218,193.95 Q652.4936,193.7344 652.3811,193.6219 Q652.1843,193.3969 651.8186,193.2656 Q651.453,193.1344 651.078,193.1344 Q650.6186,193.1344 650.2343,193.3312 Q649.8593,193.5281 649.5593,193.9781 Q649.2686,194.4281 649.2686,195.0469 L649.2686,195.7031 Q649.2686,196.4438 649.803,196.9406 Q650.3374,197.4281 651.2936,197.4281 Q651.8561,197.4281 652.2499,197.2781 Q652.4843,197.1844 652.7374,196.9219 Q652.8968,196.7625 652.9811,196.7156 Q653.0749,196.6688 653.1968,196.6688 Q653.3936,196.6688 653.5436,196.8281 Q653.703,196.9781 653.703,197.1844 Q653.703,197.3906 653.4968,197.6344 Q653.1968,197.9813 652.7186,198.1781 Q652.0718,198.45 651.2936,198.45 Q650.3843,198.45 649.6624,198.075 Q649.0718,197.775 648.6593,197.1375 Q648.2468,196.4906 648.2468,195.7219 L648.2468,195.0281 Q648.2468,194.2313 648.6124,193.5469 Q648.9874,192.8531 649.6436,192.4875 Q650.2999,192.1125 651.0405,192.1125 Q651.4811,192.1125 651.8655,192.2156 Q652.2593,192.3094 652.5874,192.525 Z " fill="#000000"/><text fill="#000000" font-family="sans-serif" font-size="8.4" lengthAdjust="spacing" textLength="56.0273" x="659.328" y="198.4781">ServiceLocator</text><line style="stroke:#181818;stroke-width:0.3;" x1="642.528" x2="716.5553" y1="204.6" y2="204.6"/><line style="stroke:#181818;stroke-width:0.3;" x1="642.528" x2="716.5553" y1="209.4" y2="209.4"/></g><!--class bindingsRegistry--><g id="elem_bindingsRegistry"><rect codeLine="13" fill="#F1F1F1" height="28.8" id="bindingsRegistry" rx="1.5" ry="1.5" style="stroke:#181818;stroke-width:0.3;" width="82.2287" x="331.728" y="315"/><ellipse cx="340.728" cy="324.6" fill="#ADD1B2" rx="6.6" ry="6.6" style="stroke:#181818;stroke-width:0.6;"/><path d="M342.3874,322.125 Q342.4811,321.9938 342.5936,321.9281 Q342.7061,321.8625 342.8374,321.8625 Q343.0624,321.8625 343.203,322.0219 Q343.3436,322.1719 343.3436,322.5375 L343.3436,323.4094 Q343.3436,323.775 343.203,323.9344 Q343.0624,324.0938 342.8374,324.0938 Q342.6311,324.0938 342.5093,323.9719 Q342.3874,323.8594 342.3218,323.55 Q342.2936,323.3344 342.1811,323.2219 Q341.9843,322.9969 341.6186,322.8656 Q341.253,322.7344 340.878,322.7344 Q340.4186,322.7344 340.0343,322.9313 Q339.6593,323.1281 339.3593,323.5781 Q339.0686,324.0281 339.0686,324.6469 L339.0686,325.3031 Q339.0686,326.0438 339.603,326.5406 Q340.1374,327.0281 341.0936,327.0281 Q341.6561,327.0281 342.0499,326.8781 Q342.2843,326.7844 342.5374,326.5219 Q342.6968,326.3625 342.7811,326.3156 Q342.8749,326.2688 342.9967,326.2688 Q343.1936,326.2688 343.3436,326.4281 Q343.503,326.5781 343.503,326.7844 Q343.503,326.9906 343.2968,327.2344 Q342.9967,327.5813 342.5186,327.7781 Q341.8717,328.05 341.0936,328.05 Q340.1842,328.05 339.4624,327.675 Q338.8717,327.375 338.4593,326.7375 Q338.0468,326.0906 338.0468,325.3219 L338.0468,324.6281 Q338.0468,323.8313 338.4124,323.1469 Q338.7874,322.4531 339.4436,322.0875 Q340.0999,321.7125 340.8405,321.7125 Q341.2811,321.7125 341.6655,321.8156 Q342.0592,321.9094 342.3874,322.125 Z " fill="#000000"/><text fill="#000000" font-family="sans-serif" font-size="8.4" lengthAdjust="spacing" textLength="63.0287" x="349.128" y="328.0781">BindingsRegistry</text><line style="stroke:#181818;stroke-width:0.3;" x1="332.328" x2="413.3567" y1="334.2" y2="334.2"/><line style="stroke:#181818;stroke-width:0.3;" x1="332.328" x2="413.3567" y1="339" y2="339"/></g><!--class syncQueue--><g id="elem_syncQueue"><rect codeLine="14" fill="#F1F1F1" height="28.8" id="syncQueue" rx="1.5" ry="1.5" style="stroke:#181818;stroke-width:0.3;" width="63.0949" x="1242.528" y="315"/><ellipse cx="1251.528" cy="324.6" fill="#ADD1B2" rx="6.6" ry="6.6" style="stroke:#181818;stroke-width:0.6;"/><path d="M1253.1874,322.125 Q1253.2811,321.9938 1253.3936,321.9281 Q1253.5061,321.8625 1253.6374,321.8625 Q1253.8624,321.8625 1254.003,322.0219 Q1254.1436,322.1719 1254.1436,322.5375 L1254.1436,323.4094 Q1254.1436,323.775 1254.003,323.9344 Q1253.8624,324.0938 1253.6374,324.0938 Q1253.4311,324.0938 1253.3093,323.9719 Q1253.1874,323.8594 1253.1218,323.55 Q1253.0936,323.3344 1252.9811,323.2219 Q1252.7843,322.9969 1252.4186,322.8656 Q1252.053,322.7344 1251.678,322.7344 Q1251.2186,322.7344 1250.8343,322.9313 Q1250.4593,323.1281 1250.1593,323.5781 Q1249.8686,324.0281 1249.8686,324.6469 L1249.8686,325.3031 Q1249.8686,326.0438 1250.403,326.5406 Q1250.9374,327.0281 1251.8936,327.0281 Q1252.4561,327.0281 1252.8499,326.8781 Q1253.0843,326.7844 1253.3374,326.5219 Q1253.4968,326.3625 1253.5811,326.3156 Q1253.6749,326.2688 1253.7968,326.2688 Q1253.9936,326.2688 1254.1436,326.4281 Q1254.303,326.5781 1254.303,326.7844 Q1254.303,326.9906 1254.0968,327.2344 Q1253.7968,327.5813 1253.3186,327.7781 Q1252.6718,328.05 1251.8936,328.05 Q1250.9843,328.05 1250.2624,327.675 Q1249.6718,327.375 1249.2593,326.7375 Q1248.8468,326.0906 1248.8468,325.3219 L1248.8468,324.6281 Q1248.8468,323.8313 1249.2124,323.1469 Q1249.5874,322.4531 1250.2436,322.0875 Q1250.8999,321.7125 1251.6405,321.7125 Q1252.0811,321.7125 1252.4655,321.8156 Q1252.8593,321.9094 1253.1874,322.125 Z " fill="#000000"/><text fill="#000000" font-family="sans-serif" font-size="8.4" lengthAdjust="spacing" textLength="43.8949" x="1259.928" y="328.0781">SyncQueue</text><line style="stroke:#181818;stroke-width:0.3;" x1="1243.128" x2="1305.0229" y1="334.2" y2="334.2"/><line style="stroke:#181818;stroke-width:0.3;" x1="1243.128" x2="1305.0229" y1="339" y2="339"/></g><!--class futuresWaitQueue--><g id="elem_futuresWaitQueue"><rect codeLine="15" fill="#F1F1F1" height="28.8" id="futuresWaitQueue" rx="1.5" ry="1.5" style="stroke:#181818;stroke-width:0.3;" width="89.6977" x="917.328" y="379.8"/><ellipse cx="926.328" cy="389.4" fill="#ADD1B2" rx="6.6" ry="6.6" style="stroke:#181818;stroke-width:0.6;"/><path d="M927.9874,386.925 Q928.0811,386.7938 928.1936,386.7281 Q928.3061,386.6625 928.4374,386.6625 Q928.6624,386.6625 928.803,386.8219 Q928.9436,386.9719 928.9436,387.3375 L928.9436,388.2094 Q928.9436,388.575 928.803,388.7344 Q928.6624,388.8938 928.4374,388.8938 Q928.2311,388.8938 928.1093,388.7719 Q927.9874,388.6594 927.9218,388.35 Q927.8936,388.1344 927.7811,388.0219 Q927.5843,387.7969 927.2186,387.6656 Q926.853,387.5344 926.478,387.5344 Q926.0186,387.5344 925.6343,387.7313 Q925.2593,387.9281 924.9593,388.3781 Q924.6686,388.8281 924.6686,389.4469 L924.6686,390.1031 Q924.6686,390.8438 925.203,391.3406 Q925.7374,391.8281 926.6936,391.8281 Q927.2561,391.8281 927.6499,391.6781 Q927.8843,391.5844 928.1374,391.3219 Q928.2968,391.1625 928.3811,391.1156 Q928.4749,391.0687 928.5968,391.0687 Q928.7936,391.0687 928.9436,391.2281 Q929.103,391.3781 929.103,391.5844 Q929.103,391.7906 928.8968,392.0344 Q928.5968,392.3812 928.1186,392.5781 Q927.4718,392.85 926.6936,392.85 Q925.7843,392.85 925.0624,392.475 Q924.4718,392.175 924.0593,391.5375 Q923.6468,390.8906 923.6468,390.1219 L923.6468,389.4281 Q923.6468,388.6312 924.0124,387.9469 Q924.3874,387.2531 925.0436,386.8875 Q925.6999,386.5125 926.4405,386.5125 Q926.8811,386.5125 927.2655,386.6156 Q927.6593,386.7094 927.9874,386.925 Z " fill="#000000"/><text fill="#000000" font-family="sans-serif" font-size="8.4" lengthAdjust="spacing" textLength="70.4977" x="934.728" y="392.8781">FuturesWaitQueue</text><line style="stroke:#181818;stroke-width:0.3;" x1="917.928" x2="1006.4257" y1="399" y2="399"/><line style="stroke:#181818;stroke-width:0.3;" x1="917.928" x2="1006.4257" y1="403.8" y2="403.8"/></g><!--class nodeMap--><g id="elem_nodeMap"><rect codeLine="16" fill="#F1F1F1" height="28.8" id="nodeMap" rx="1.5" ry="1.5" style="stroke:#181818;stroke-width:0.3;" width="90.157" x="683.028" y="315"/><ellipse cx="692.028" cy="324.6" fill="#ADD1B2" rx="6.6" ry="6.6" style="stroke:#181818;stroke-width:0.6;"/><path d="M693.6874,322.125 Q693.7811,321.9938 693.8936,321.9281 Q694.0061,321.8625 694.1374,321.8625 Q694.3624,321.8625 694.503,322.0219 Q694.6436,322.1719 694.6436,322.5375 L694.6436,323.4094 Q694.6436,323.775 694.503,323.9344 Q694.3624,324.0938 694.1374,324.0938 Q693.9311,324.0938 693.8093,323.9719 Q693.6874,323.8594 693.6218,323.55 Q693.5936,323.3344 693.4811,323.2219 Q693.2843,322.9969 692.9186,322.8656 Q692.553,322.7344 692.178,322.7344 Q691.7186,322.7344 691.3343,322.9313 Q690.9593,323.1281 690.6593,323.5781 Q690.3686,324.0281 690.3686,324.6469 L690.3686,325.3031 Q690.3686,326.0438 690.903,326.5406 Q691.4374,327.0281 692.3936,327.0281 Q692.9561,327.0281 693.3499,326.8781 Q693.5843,326.7844 693.8374,326.5219 Q693.9968,326.3625 694.0811,326.3156 Q694.1749,326.2688 694.2968,326.2688 Q694.4936,326.2688 694.6436,326.4281 Q694.803,326.5781 694.803,326.7844 Q694.803,326.9906 694.5968,327.2344 Q694.2968,327.5813 693.8186,327.7781 Q693.1718,328.05 692.3936,328.05 Q691.4843,328.05 690.7624,327.675 Q690.1718,327.375 689.7593,326.7375 Q689.3468,326.0906 689.3468,325.3219 L689.3468,324.6281 Q689.3468,323.8313 689.7124,323.1469 Q690.0874,322.4531 690.7436,322.0875 Q691.3999,321.7125 692.1405,321.7125 Q692.5811,321.7125 692.9655,321.8156 Q693.3593,321.9094 693.6874,322.125 Z " fill="#000000"/><text fill="#000000" font-family="sans-serif" font-size="8.4" lengthAdjust="spacing" textLength="70.957" x="700.428" y="328.0781">MpsToModelixMap</text><line style="stroke:#181818;stroke-width:0.3;" x1="683.628" x2="772.585" y1="334.2" y2="334.2"/><line style="stroke:#181818;stroke-width:0.3;" x1="683.628" x2="772.585" y1="339" y2="339"/></g><!--class moduleSynchronizer--><g id="elem_moduleSynchronizer"><rect codeLine="18" fill="#F1F1F1" height="28.8" id="moduleSynchronizer" rx="1.5" ry="1.5" style="stroke:#181818;stroke-width:0.3;" width="95.7721" x="871.428" y="120.6"/><ellipse cx="880.428" cy="130.2" fill="#ADD1B2" rx="6.6" ry="6.6" style="stroke:#181818;stroke-width:0.6;"/><path d="M882.0874,127.725 Q882.1811,127.5938 882.2936,127.5281 Q882.4061,127.4625 882.5374,127.4625 Q882.7624,127.4625 882.903,127.6219 Q883.0436,127.7719 883.0436,128.1375 L883.0436,129.0094 Q883.0436,129.375 882.903,129.5344 Q882.7624,129.6938 882.5374,129.6938 Q882.3311,129.6938 882.2093,129.5719 Q882.0874,129.4594 882.0218,129.15 Q881.9936,128.9344 881.8811,128.8219 Q881.6843,128.5969 881.3186,128.4656 Q880.953,128.3344 880.578,128.3344 Q880.1186,128.3344 879.7343,128.5313 Q879.3593,128.7281 879.0593,129.1781 Q878.7686,129.6281 878.7686,130.2469 L878.7686,130.9031 Q878.7686,131.6437 879.303,132.1406 Q879.8374,132.6281 880.7936,132.6281 Q881.3561,132.6281 881.7499,132.4781 Q881.9843,132.3844 882.2374,132.1219 Q882.3968,131.9625 882.4811,131.9156 Q882.5749,131.8688 882.6968,131.8688 Q882.8936,131.8688 883.0436,132.0281 Q883.203,132.1781 883.203,132.3844 Q883.203,132.5906 882.9968,132.8344 Q882.6968,133.1813 882.2186,133.3781 Q881.5718,133.65 880.7936,133.65 Q879.8843,133.65 879.1624,133.275 Q878.5718,132.975 878.1593,132.3375 Q877.7468,131.6906 877.7468,130.9219 L877.7468,130.2281 Q877.7468,129.4313 878.1124,128.7469 Q878.4874,128.0531 879.1436,127.6875 Q879.7999,127.3125 880.5405,127.3125 Q880.9811,127.3125 881.3655,127.4156 Q881.7593,127.5094 882.0874,127.725 Z " fill="#000000"/><text fill="#000000" font-family="sans-serif" font-size="8.4" lengthAdjust="spacing" textLength="76.5721" x="888.828" y="133.6781">ModuleSynchronizer</text><line style="stroke:#181818;stroke-width:0.3;" x1="872.028" x2="966.6001" y1="139.8" y2="139.8"/><line style="stroke:#181818;stroke-width:0.3;" x1="872.028" x2="966.6001" y1="144.6" y2="144.6"/></g><!--class modelSynchronizer--><g id="elem_modelSynchronizer"><rect codeLine="19" fill="#F1F1F1" height="28.8" id="modelSynchronizer" rx="1.5" ry="1.5" style="stroke:#181818;stroke-width:0.3;" width="91.1004" x="988.428" y="120.6"/><ellipse cx="997.428" cy="130.2" fill="#ADD1B2" rx="6.6" ry="6.6" style="stroke:#181818;stroke-width:0.6;"/><path d="M999.0874,127.725 Q999.1811,127.5938 999.2936,127.5281 Q999.4061,127.4625 999.5374,127.4625 Q999.7624,127.4625 999.903,127.6219 Q1000.0436,127.7719 1000.0436,128.1375 L1000.0436,129.0094 Q1000.0436,129.375 999.903,129.5344 Q999.7624,129.6938 999.5374,129.6938 Q999.3311,129.6938 999.2093,129.5719 Q999.0874,129.4594 999.0218,129.15 Q998.9936,128.9344 998.8811,128.8219 Q998.6843,128.5969 998.3186,128.4656 Q997.953,128.3344 997.578,128.3344 Q997.1186,128.3344 996.7343,128.5313 Q996.3593,128.7281 996.0593,129.1781 Q995.7686,129.6281 995.7686,130.2469 L995.7686,130.9031 Q995.7686,131.6437 996.303,132.1406 Q996.8374,132.6281 997.7936,132.6281 Q998.3561,132.6281 998.7499,132.4781 Q998.9843,132.3844 999.2374,132.1219 Q999.3968,131.9625 999.4811,131.9156 Q999.5749,131.8688 999.6968,131.8688 Q999.8936,131.8688 1000.0436,132.0281 Q1000.203,132.1781 1000.203,132.3844 Q1000.203,132.5906 999.9968,132.8344 Q999.6968,133.1813 999.2186,133.3781 Q998.5718,133.65 997.7936,133.65 Q996.8843,133.65 996.1624,133.275 Q995.5718,132.975 995.1593,132.3375 Q994.7468,131.6906 994.7468,130.9219 L994.7468,130.2281 Q994.7468,129.4313 995.1124,128.7469 Q995.4874,128.0531 996.1436,127.6875 Q996.7999,127.3125 997.5405,127.3125 Q997.9811,127.3125 998.3655,127.4156 Q998.7593,127.5094 999.0874,127.725 Z " fill="#000000"/><text fill="#000000" font-family="sans-serif" font-size="8.4" lengthAdjust="spacing" textLength="71.9004" x="1005.828" y="133.6781">ModelSynchronizer</text><line style="stroke:#181818;stroke-width:0.3;" x1="989.028" x2="1078.9284" y1="139.8" y2="139.8"/><line style="stroke:#181818;stroke-width:0.3;" x1="989.028" x2="1078.9284" y1="144.6" y2="144.6"/></g><!--class nodeSynchronizer--><g id="elem_nodeSynchronizer"><rect codeLine="20" fill="#F1F1F1" height="28.8" id="nodeSynchronizer" rx="1.5" ry="1.5" style="stroke:#181818;stroke-width:0.3;" width="88.3031" x="1100.928" y="120.6"/><ellipse cx="1109.928" cy="130.2" fill="#ADD1B2" rx="6.6" ry="6.6" style="stroke:#181818;stroke-width:0.6;"/><path d="M1111.5874,127.725 Q1111.6811,127.5938 1111.7936,127.5281 Q1111.9061,127.4625 1112.0374,127.4625 Q1112.2624,127.4625 1112.403,127.6219 Q1112.5436,127.7719 1112.5436,128.1375 L1112.5436,129.0094 Q1112.5436,129.375 1112.403,129.5344 Q1112.2624,129.6938 1112.0374,129.6938 Q1111.8311,129.6938 1111.7093,129.5719 Q1111.5874,129.4594 1111.5218,129.15 Q1111.4936,128.9344 1111.3811,128.8219 Q1111.1843,128.5969 1110.8186,128.4656 Q1110.453,128.3344 1110.078,128.3344 Q1109.6186,128.3344 1109.2343,128.5313 Q1108.8593,128.7281 1108.5593,129.1781 Q1108.2686,129.6281 1108.2686,130.2469 L1108.2686,130.9031 Q1108.2686,131.6437 1108.803,132.1406 Q1109.3374,132.6281 1110.2936,132.6281 Q1110.8561,132.6281 1111.2499,132.4781 Q1111.4843,132.3844 1111.7374,132.1219 Q1111.8968,131.9625 1111.9811,131.9156 Q1112.0749,131.8688 1112.1968,131.8688 Q1112.3936,131.8688 1112.5436,132.0281 Q1112.703,132.1781 1112.703,132.3844 Q1112.703,132.5906 1112.4968,132.8344 Q1112.1968,133.1813 1111.7186,133.3781 Q1111.0718,133.65 1110.2936,133.65 Q1109.3843,133.65 1108.6624,133.275 Q1108.0718,132.975 1107.6593,132.3375 Q1107.2468,131.6906 1107.2468,130.9219 L1107.2468,130.2281 Q1107.2468,129.4313 1107.6124,128.7469 Q1107.9874,128.0531 1108.6436,127.6875 Q1109.2999,127.3125 1110.0405,127.3125 Q1110.4811,127.3125 1110.8655,127.4156 Q1111.2593,127.5094 1111.5874,127.725 Z " fill="#000000"/><text fill="#000000" font-family="sans-serif" font-size="8.4" lengthAdjust="spacing" textLength="69.1031" x="1118.328" y="133.6781">NodeSynchronizer</text><line style="stroke:#181818;stroke-width:0.3;" x1="1101.528" x2="1188.6311" y1="139.8" y2="139.8"/><line style="stroke:#181818;stroke-width:0.3;" x1="1101.528" x2="1188.6311" y1="144.6" y2="144.6"/></g><!--class cloudResolvableModelImport--><g id="elem_cloudResolvableModelImport"><rect codeLine="22" fill="#F1F1F1" height="28.8" id="cloudResolvableModelImport" rx="1.5" ry="1.5" style="stroke:#181818;stroke-width:0.3;" width="129.3885" x="1352.628" y="120.6"/><ellipse cx="1361.628" cy="130.2" fill="#ADD1B2" rx="6.6" ry="6.6" style="stroke:#181818;stroke-width:0.6;"/><path d="M1363.2874,127.725 Q1363.3811,127.5938 1363.4936,127.5281 Q1363.6061,127.4625 1363.7374,127.4625 Q1363.9624,127.4625 1364.103,127.6219 Q1364.2436,127.7719 1364.2436,128.1375 L1364.2436,129.0094 Q1364.2436,129.375 1364.103,129.5344 Q1363.9624,129.6938 1363.7374,129.6938 Q1363.5311,129.6938 1363.4093,129.5719 Q1363.2874,129.4594 1363.2218,129.15 Q1363.1936,128.9344 1363.0811,128.8219 Q1362.8843,128.5969 1362.5186,128.4656 Q1362.153,128.3344 1361.778,128.3344 Q1361.3186,128.3344 1360.9343,128.5313 Q1360.5593,128.7281 1360.2593,129.1781 Q1359.9686,129.6281 1359.9686,130.2469 L1359.9686,130.9031 Q1359.9686,131.6437 1360.503,132.1406 Q1361.0374,132.6281 1361.9936,132.6281 Q1362.5561,132.6281 1362.9499,132.4781 Q1363.1843,132.3844 1363.4374,132.1219 Q1363.5968,131.9625 1363.6811,131.9156 Q1363.7749,131.8688 1363.8968,131.8688 Q1364.0936,131.8688 1364.2436,132.0281 Q1364.403,132.1781 1364.403,132.3844 Q1364.403,132.5906 1364.1968,132.8344 Q1363.8968,133.1813 1363.4186,133.3781 Q1362.7718,133.65 1361.9936,133.65 Q1361.0843,133.65 1360.3624,133.275 Q1359.7718,132.975 1359.3593,132.3375 Q1358.9468,131.6906 1358.9468,130.9219 L1358.9468,130.2281 Q1358.9468,129.4313 1359.3124,128.7469 Q1359.6874,128.0531 1360.3436,127.6875 Q1360.9999,127.3125 1361.7405,127.3125 Q1362.1811,127.3125 1362.5655,127.4156 Q1362.9593,127.5094 1363.2874,127.725 Z " fill="#000000"/><text fill="#000000" font-family="sans-serif" font-size="8.4" lengthAdjust="spacing" textLength="110.1885" x="1370.028" y="133.6781">CloudResolvableModelImport</text><line style="stroke:#181818;stroke-width:0.3;" x1="1353.228" x2="1481.4165" y1="139.8" y2="139.8"/><line style="stroke:#181818;stroke-width:0.3;" x1="1353.228" x2="1481.4165" y1="144.6" y2="144.6"/></g><!--class cloudResolvableReference--><g id="elem_cloudResolvableReference"><rect codeLine="23" fill="#F1F1F1" height="28.8" id="cloudResolvableReference" rx="1.5" ry="1.5" style="stroke:#181818;stroke-width:0.3;" width="121.4602" x="1210.428" y="120.6"/><ellipse cx="1219.428" cy="130.2" fill="#ADD1B2" rx="6.6" ry="6.6" style="stroke:#181818;stroke-width:0.6;"/><path d="M1221.0874,127.725 Q1221.1811,127.5938 1221.2936,127.5281 Q1221.4061,127.4625 1221.5374,127.4625 Q1221.7624,127.4625 1221.903,127.6219 Q1222.0436,127.7719 1222.0436,128.1375 L1222.0436,129.0094 Q1222.0436,129.375 1221.903,129.5344 Q1221.7624,129.6938 1221.5374,129.6938 Q1221.3311,129.6938 1221.2093,129.5719 Q1221.0874,129.4594 1221.0218,129.15 Q1220.9936,128.9344 1220.8811,128.8219 Q1220.6843,128.5969 1220.3186,128.4656 Q1219.953,128.3344 1219.578,128.3344 Q1219.1186,128.3344 1218.7343,128.5313 Q1218.3593,128.7281 1218.0593,129.1781 Q1217.7686,129.6281 1217.7686,130.2469 L1217.7686,130.9031 Q1217.7686,131.6437 1218.303,132.1406 Q1218.8374,132.6281 1219.7936,132.6281 Q1220.3561,132.6281 1220.7499,132.4781 Q1220.9843,132.3844 1221.2374,132.1219 Q1221.3968,131.9625 1221.4811,131.9156 Q1221.5749,131.8688 1221.6968,131.8688 Q1221.8936,131.8688 1222.0436,132.0281 Q1222.203,132.1781 1222.203,132.3844 Q1222.203,132.5906 1221.9968,132.8344 Q1221.6968,133.1813 1221.2186,133.3781 Q1220.5718,133.65 1219.7936,133.65 Q1218.8843,133.65 1218.1624,133.275 Q1217.5718,132.975 1217.1593,132.3375 Q1216.7468,131.6906 1216.7468,130.9219 L1216.7468,130.2281 Q1216.7468,129.4313 1217.1124,128.7469 Q1217.4874,128.0531 1218.1436,127.6875 Q1218.7999,127.3125 1219.5405,127.3125 Q1219.9811,127.3125 1220.3655,127.4156 Q1220.7593,127.5094 1221.0874,127.725 Z " fill="#000000"/><text fill="#000000" font-family="sans-serif" font-size="8.4" lengthAdjust="spacing" textLength="102.2602" x="1227.828" y="133.6781">CloudResolvableReference</text><line style="stroke:#181818;stroke-width:0.3;" x1="1211.028" x2="1331.2882" y1="139.8" y2="139.8"/><line style="stroke:#181818;stroke-width:0.3;" x1="1211.028" x2="1331.2882" y1="144.6" y2="144.6"/></g><!--class itemAlreadySynchronized--><g id="elem_itemAlreadySynchronized"><rect codeLine="25" fill="#F1F1F1" height="28.8" id="itemAlreadySynchronized" rx="1.5" ry="1.5" style="stroke:#181818;stroke-width:0.3;" width="114.9141" x="1904.028" y="120.6"/><ellipse cx="1913.028" cy="130.2" fill="#A9DCDF" rx="6.6" ry="6.6" style="stroke:#181818;stroke-width:0.6;"/><path d="M1914.3405,131.2594 L1911.8561,131.2594 L1911.603,131.8781 L1911.8561,131.8781 Q1912.2218,131.8781 1912.3811,132.0187 Q1912.5405,132.1594 1912.5405,132.3937 Q1912.5405,132.6188 1912.3811,132.7594 Q1912.2218,132.9 1911.8561,132.9 L1910.478,132.9 Q1910.1124,132.9 1909.9624,132.7594 Q1909.803,132.6188 1909.803,132.3844 Q1909.803,132.1594 1909.9718,132.0187 Q1910.1311,131.8688 1910.5061,131.8781 L1912.1093,127.8844 L1911.4436,127.8844 Q1911.078,127.8844 1910.9186,127.7437 Q1910.7593,127.6031 1910.7593,127.3687 Q1910.7593,127.1438 1910.9186,127.0031 Q1911.078,126.8625 1911.4436,126.8625 L1913.6467,126.8625 L1915.6811,131.8781 Q1916.0374,131.8781 1916.1499,131.9625 Q1916.3843,132.1219 1916.3843,132.3937 Q1916.3843,132.6188 1916.2249,132.7594 Q1916.0749,132.9 1915.7092,132.9 L1914.3311,132.9 Q1913.9655,132.9 1913.8061,132.7594 Q1913.6467,132.6188 1913.6467,132.3844 Q1913.6467,132.1594 1913.8061,132.0187 Q1913.9655,131.8781 1914.3311,131.8781 L1914.5842,131.8781 L1914.3405,131.2594 Z M1913.9093,130.2375 L1913.0936,128.2125 L1912.2686,130.2375 L1913.9093,130.2375 Z " fill="#000000"/><text fill="#000000" font-family="sans-serif" font-size="8.4" font-style="italic" lengthAdjust="spacing" textLength="95.7141" x="1921.428" y="133.6781">ItemAlreadySynchronized</text><line style="stroke:#181818;stroke-width:0.3;" x1="1904.628" x2="2018.3421" y1="139.8" y2="139.8"/><line style="stroke:#181818;stroke-width:0.3;" x1="1904.628" x2="2018.3421" y1="144.6" y2="144.6"/></g><!--class modelAlreadySynchronized--><g id="elem_modelAlreadySynchronized"><rect codeLine="26" fill="#F1F1F1" height="28.8" id="modelAlreadySynchronized" rx="1.5" ry="1.5" style="stroke:#181818;stroke-width:0.3;" width="121.4561" x="1937.028" y="185.4"/><ellipse cx="1946.028" cy="195" fill="#ADD1B2" rx="6.6" ry="6.6" style="stroke:#181818;stroke-width:0.6;"/><path d="M1947.6874,192.525 Q1947.7811,192.3937 1947.8936,192.3281 Q1948.0061,192.2625 1948.1374,192.2625 Q1948.3624,192.2625 1948.503,192.4219 Q1948.6436,192.5719 1948.6436,192.9375 L1948.6436,193.8094 Q1948.6436,194.175 1948.503,194.3344 Q1948.3624,194.4938 1948.1374,194.4938 Q1947.9311,194.4938 1947.8093,194.3719 Q1947.6874,194.2594 1947.6218,193.95 Q1947.5936,193.7344 1947.4811,193.6219 Q1947.2843,193.3969 1946.9186,193.2656 Q1946.553,193.1344 1946.178,193.1344 Q1945.7186,193.1344 1945.3342,193.3312 Q1944.9592,193.5281 1944.6593,193.9781 Q1944.3686,194.4281 1944.3686,195.0469 L1944.3686,195.7031 Q1944.3686,196.4438 1944.903,196.9406 Q1945.4374,197.4281 1946.3936,197.4281 Q1946.9561,197.4281 1947.3499,197.2781 Q1947.5842,197.1844 1947.8374,196.9219 Q1947.9968,196.7625 1948.0811,196.7156 Q1948.1749,196.6688 1948.2968,196.6688 Q1948.4936,196.6688 1948.6436,196.8281 Q1948.803,196.9781 1948.803,197.1844 Q1948.803,197.3906 1948.5968,197.6344 Q1948.2968,197.9813 1947.8186,198.1781 Q1947.1718,198.45 1946.3936,198.45 Q1945.4843,198.45 1944.7624,198.075 Q1944.1718,197.775 1943.7593,197.1375 Q1943.3468,196.4906 1943.3468,195.7219 L1943.3468,195.0281 Q1943.3468,194.2313 1943.7124,193.5469 Q1944.0874,192.8531 1944.7436,192.4875 Q1945.3999,192.1125 1946.1405,192.1125 Q1946.5811,192.1125 1946.9655,192.2156 Q1947.3593,192.3094 1947.6874,192.525 Z " fill="#000000"/><text fill="#000000" font-family="sans-serif" font-size="8.4" lengthAdjust="spacing" textLength="102.2561" x="1954.428" y="198.4781">ModelAlreadySynchronized</text><line style="stroke:#181818;stroke-width:0.3;" x1="1937.628" x2="2057.8841" y1="204.6" y2="204.6"/><line style="stroke:#181818;stroke-width:0.3;" x1="1937.628" x2="2057.8841" y1="209.4" y2="209.4"/></g><!--class moduleAlreadySynchronized--><g id="elem_moduleAlreadySynchronized"><rect codeLine="27" fill="#F1F1F1" height="28.8" id="moduleAlreadySynchronized" rx="1.5" ry="1.5" style="stroke:#181818;stroke-width:0.3;" width="126.1277" x="1263.228" y="185.4"/><ellipse cx="1272.228" cy="195" fill="#ADD1B2" rx="6.6" ry="6.6" style="stroke:#181818;stroke-width:0.6;"/><path d="M1273.8874,192.525 Q1273.9811,192.3937 1274.0936,192.3281 Q1274.2061,192.2625 1274.3374,192.2625 Q1274.5624,192.2625 1274.703,192.4219 Q1274.8436,192.5719 1274.8436,192.9375 L1274.8436,193.8094 Q1274.8436,194.175 1274.703,194.3344 Q1274.5624,194.4938 1274.3374,194.4938 Q1274.1311,194.4938 1274.0093,194.3719 Q1273.8874,194.2594 1273.8218,193.95 Q1273.7936,193.7344 1273.6811,193.6219 Q1273.4843,193.3969 1273.1186,193.2656 Q1272.753,193.1344 1272.378,193.1344 Q1271.9186,193.1344 1271.5343,193.3312 Q1271.1593,193.5281 1270.8593,193.9781 Q1270.5686,194.4281 1270.5686,195.0469 L1270.5686,195.7031 Q1270.5686,196.4438 1271.103,196.9406 Q1271.6374,197.4281 1272.5936,197.4281 Q1273.1561,197.4281 1273.5499,197.2781 Q1273.7843,197.1844 1274.0374,196.9219 Q1274.1968,196.7625 1274.2811,196.7156 Q1274.3749,196.6688 1274.4968,196.6688 Q1274.6936,196.6688 1274.8436,196.8281 Q1275.003,196.9781 1275.003,197.1844 Q1275.003,197.3906 1274.7968,197.6344 Q1274.4968,197.9813 1274.0186,198.1781 Q1273.3718,198.45 1272.5936,198.45 Q1271.6843,198.45 1270.9624,198.075 Q1270.3718,197.775 1269.9593,197.1375 Q1269.5468,196.4906 1269.5468,195.7219 L1269.5468,195.0281 Q1269.5468,194.2313 1269.9124,193.5469 Q1270.2874,192.8531 1270.9436,192.4875 Q1271.5999,192.1125 1272.3405,192.1125 Q1272.7811,192.1125 1273.1655,192.2156 Q1273.5593,192.3094 1273.8874,192.525 Z " fill="#000000"/><text fill="#000000" font-family="sans-serif" font-size="8.4" lengthAdjust="spacing" textLength="106.9277" x="1280.628" y="198.4781">ModuleAlreadySynchronized</text><line style="stroke:#181818;stroke-width:0.3;" x1="1263.828" x2="1388.7557" y1="204.6" y2="204.6"/><line style="stroke:#181818;stroke-width:0.3;" x1="1263.828" x2="1388.7557" y1="209.4" y2="209.4"/></g><!--class itemAlreadySynchronizedException--><g id="elem_itemAlreadySynchronizedException"><rect codeLine="29" fill="#F1F1F1" height="28.8" id="itemAlreadySynchronizedException" rx="1.5" ry="1.5" style="stroke:#181818;stroke-width:0.3;" width="151.8035" x="1694.928" y="120.6"/><ellipse cx="1703.928" cy="130.2" fill="#A9DCDF" rx="6.6" ry="6.6" style="stroke:#181818;stroke-width:0.6;"/><path d="M1705.2405,131.2594 L1702.7561,131.2594 L1702.503,131.8781 L1702.7561,131.8781 Q1703.1218,131.8781 1703.2811,132.0187 Q1703.4405,132.1594 1703.4405,132.3937 Q1703.4405,132.6188 1703.2811,132.7594 Q1703.1218,132.9 1702.7561,132.9 L1701.378,132.9 Q1701.0124,132.9 1700.8624,132.7594 Q1700.703,132.6188 1700.703,132.3844 Q1700.703,132.1594 1700.8718,132.0187 Q1701.0311,131.8688 1701.4061,131.8781 L1703.0093,127.8844 L1702.3436,127.8844 Q1701.978,127.8844 1701.8186,127.7437 Q1701.6593,127.6031 1701.6593,127.3687 Q1701.6593,127.1438 1701.8186,127.0031 Q1701.978,126.8625 1702.3436,126.8625 L1704.5468,126.8625 L1706.5811,131.8781 Q1706.9374,131.8781 1707.0499,131.9625 Q1707.2843,132.1219 1707.2843,132.3937 Q1707.2843,132.6188 1707.1249,132.7594 Q1706.9749,132.9 1706.6093,132.9 L1705.2311,132.9 Q1704.8655,132.9 1704.7061,132.7594 Q1704.5468,132.6188 1704.5468,132.3844 Q1704.5468,132.1594 1704.7061,132.0187 Q1704.8655,131.8781 1705.2311,131.8781 L1705.4843,131.8781 L1705.2405,131.2594 Z M1704.8093,130.2375 L1703.9936,128.2125 L1703.1686,130.2375 L1704.8093,130.2375 Z " fill="#000000"/><text fill="#000000" font-family="sans-serif" font-size="8.4" font-style="italic" lengthAdjust="spacing" textLength="132.6035" x="1712.328" y="133.6781">ItemAlreadySynchronizedException</text><line style="stroke:#181818;stroke-width:0.3;" x1="1695.528" x2="1846.1315" y1="139.8" y2="139.8"/><line style="stroke:#181818;stroke-width:0.3;" x1="1695.528" x2="1846.1315" y1="144.6" y2="144.6"/></g><!--class modelAlreadySynchronizedException--><g id="elem_modelAlreadySynchronizedException"><rect codeLine="30" fill="#F1F1F1" height="28.8" id="modelAlreadySynchronizedException" rx="1.5" ry="1.5" style="stroke:#181818;stroke-width:0.3;" width="158.3455" x="1538.028" y="185.4"/><ellipse cx="1547.028" cy="195" fill="#ADD1B2" rx="6.6" ry="6.6" style="stroke:#181818;stroke-width:0.6;"/><path d="M1548.6874,192.525 Q1548.7811,192.3937 1548.8936,192.3281 Q1549.0061,192.2625 1549.1374,192.2625 Q1549.3624,192.2625 1549.503,192.4219 Q1549.6436,192.5719 1549.6436,192.9375 L1549.6436,193.8094 Q1549.6436,194.175 1549.503,194.3344 Q1549.3624,194.4938 1549.1374,194.4938 Q1548.9311,194.4938 1548.8093,194.3719 Q1548.6874,194.2594 1548.6218,193.95 Q1548.5936,193.7344 1548.4811,193.6219 Q1548.2843,193.3969 1547.9186,193.2656 Q1547.553,193.1344 1547.178,193.1344 Q1546.7186,193.1344 1546.3343,193.3312 Q1545.9593,193.5281 1545.6593,193.9781 Q1545.3686,194.4281 1545.3686,195.0469 L1545.3686,195.7031 Q1545.3686,196.4438 1545.903,196.9406 Q1546.4374,197.4281 1547.3936,197.4281 Q1547.9561,197.4281 1548.3499,197.2781 Q1548.5843,197.1844 1548.8374,196.9219 Q1548.9968,196.7625 1549.0811,196.7156 Q1549.1749,196.6688 1549.2968,196.6688 Q1549.4936,196.6688 1549.6436,196.8281 Q1549.803,196.9781 1549.803,197.1844 Q1549.803,197.3906 1549.5968,197.6344 Q1549.2968,197.9813 1548.8186,198.1781 Q1548.1718,198.45 1547.3936,198.45 Q1546.4843,198.45 1545.7624,198.075 Q1545.1718,197.775 1544.7593,197.1375 Q1544.3468,196.4906 1544.3468,195.7219 L1544.3468,195.0281 Q1544.3468,194.2313 1544.7124,193.5469 Q1545.0874,192.8531 1545.7436,192.4875 Q1546.3999,192.1125 1547.1405,192.1125 Q1547.5811,192.1125 1547.9655,192.2156 Q1548.3593,192.3094 1548.6874,192.525 Z " fill="#000000"/><text fill="#000000" font-family="sans-serif" font-size="8.4" lengthAdjust="spacing" textLength="139.1455" x="1555.428" y="198.4781">ModelAlreadySynchronizedException</text><line style="stroke:#181818;stroke-width:0.3;" x1="1538.628" x2="1695.7735" y1="204.6" y2="204.6"/><line style="stroke:#181818;stroke-width:0.3;" x1="1538.628" x2="1695.7735" y1="209.4" y2="209.4"/></g><!--class moduleAlreadySynchronizedException--><g id="elem_moduleAlreadySynchronizedException"><rect codeLine="31" fill="#F1F1F1" height="28.8" id="moduleAlreadySynchronizedException" rx="1.5" ry="1.5" style="stroke:#181818;stroke-width:0.3;" width="163.0172" x="1036.428" y="185.4"/><ellipse cx="1045.428" cy="195" fill="#ADD1B2" rx="6.6" ry="6.6" style="stroke:#181818;stroke-width:0.6;"/><path d="M1047.0874,192.525 Q1047.1811,192.3937 1047.2936,192.3281 Q1047.4061,192.2625 1047.5374,192.2625 Q1047.7624,192.2625 1047.903,192.4219 Q1048.0436,192.5719 1048.0436,192.9375 L1048.0436,193.8094 Q1048.0436,194.175 1047.903,194.3344 Q1047.7624,194.4938 1047.5374,194.4938 Q1047.3311,194.4938 1047.2093,194.3719 Q1047.0874,194.2594 1047.0218,193.95 Q1046.9936,193.7344 1046.8811,193.6219 Q1046.6843,193.3969 1046.3186,193.2656 Q1045.953,193.1344 1045.578,193.1344 Q1045.1186,193.1344 1044.7343,193.3312 Q1044.3593,193.5281 1044.0593,193.9781 Q1043.7686,194.4281 1043.7686,195.0469 L1043.7686,195.7031 Q1043.7686,196.4438 1044.303,196.9406 Q1044.8374,197.4281 1045.7936,197.4281 Q1046.3561,197.4281 1046.7499,197.2781 Q1046.9843,197.1844 1047.2374,196.9219 Q1047.3968,196.7625 1047.4811,196.7156 Q1047.5749,196.6688 1047.6968,196.6688 Q1047.8936,196.6688 1048.0436,196.8281 Q1048.203,196.9781 1048.203,197.1844 Q1048.203,197.3906 1047.9968,197.6344 Q1047.6968,197.9813 1047.2186,198.1781 Q1046.5718,198.45 1045.7936,198.45 Q1044.8843,198.45 1044.1624,198.075 Q1043.5718,197.775 1043.1593,197.1375 Q1042.7468,196.4906 1042.7468,195.7219 L1042.7468,195.0281 Q1042.7468,194.2313 1043.1124,193.5469 Q1043.4874,192.8531 1044.1436,192.4875 Q1044.7999,192.1125 1045.5405,192.1125 Q1045.9811,192.1125 1046.3655,192.2156 Q1046.7593,192.3094 1047.0874,192.525 Z " fill="#000000"/><text fill="#000000" font-family="sans-serif" font-size="8.4" lengthAdjust="spacing" textLength="143.8172" x="1053.828" y="198.4781">ModuleAlreadySynchronizedException</text><line style="stroke:#181818;stroke-width:0.3;" x1="1037.028" x2="1198.8452" y1="204.6" y2="204.6"/><line style="stroke:#181818;stroke-width:0.3;" x1="1037.028" x2="1198.8452" y1="209.4" y2="209.4"/></g><!--class nodeAlreadySynchronizedException--><g id="elem_nodeAlreadySynchronizedException"><rect codeLine="32" fill="#F1F1F1" height="28.8" id="nodeAlreadySynchronizedException" rx="1.5" ry="1.5" style="stroke:#181818;stroke-width:0.3;" width="155.5482" x="1760.328" y="185.4"/><ellipse cx="1769.328" cy="195" fill="#ADD1B2" rx="6.6" ry="6.6" style="stroke:#181818;stroke-width:0.6;"/><path d="M1770.9874,192.525 Q1771.0811,192.3937 1771.1936,192.3281 Q1771.3061,192.2625 1771.4374,192.2625 Q1771.6624,192.2625 1771.803,192.4219 Q1771.9436,192.5719 1771.9436,192.9375 L1771.9436,193.8094 Q1771.9436,194.175 1771.803,194.3344 Q1771.6624,194.4938 1771.4374,194.4938 Q1771.2311,194.4938 1771.1093,194.3719 Q1770.9874,194.2594 1770.9218,193.95 Q1770.8936,193.7344 1770.7811,193.6219 Q1770.5843,193.3969 1770.2186,193.2656 Q1769.853,193.1344 1769.478,193.1344 Q1769.0186,193.1344 1768.6343,193.3312 Q1768.2593,193.5281 1767.9593,193.9781 Q1767.6686,194.4281 1767.6686,195.0469 L1767.6686,195.7031 Q1767.6686,196.4438 1768.203,196.9406 Q1768.7374,197.4281 1769.6936,197.4281 Q1770.2561,197.4281 1770.6499,197.2781 Q1770.8843,197.1844 1771.1374,196.9219 Q1771.2968,196.7625 1771.3811,196.7156 Q1771.4749,196.6688 1771.5968,196.6688 Q1771.7936,196.6688 1771.9436,196.8281 Q1772.103,196.9781 1772.103,197.1844 Q1772.103,197.3906 1771.8968,197.6344 Q1771.5968,197.9813 1771.1186,198.1781 Q1770.4718,198.45 1769.6936,198.45 Q1768.7843,198.45 1768.0624,198.075 Q1767.4718,197.775 1767.0593,197.1375 Q1766.6468,196.4906 1766.6468,195.7219 L1766.6468,195.0281 Q1766.6468,194.2313 1767.0124,193.5469 Q1767.3874,192.8531 1768.0436,192.4875 Q1768.6999,192.1125 1769.4405,192.1125 Q1769.8811,192.1125 1770.2655,192.2156 Q1770.6593,192.3094 1770.9874,192.525 Z " fill="#000000"/><text fill="#000000" font-family="sans-serif" font-size="8.4" lengthAdjust="spacing" textLength="136.3482" x="1777.728" y="198.4781">NodeAlreadySynchronizedException</text><line style="stroke:#181818;stroke-width:0.3;" x1="1760.928" x2="1915.2762" y1="204.6" y2="204.6"/><line style="stroke:#181818;stroke-width:0.3;" x1="1760.928" x2="1915.2762" y1="209.4" y2="209.4"/></g><!--class projectLifecycleTracker--><g id="elem_projectLifecycleTracker"><rect codeLine="34" fill="#F1F1F1" height="28.8" id="projectLifecycleTracker" rx="1.5" ry="1.5" style="stroke:#181818;stroke-width:0.3;" width="106.4936" x="164.928" y="315"/><ellipse cx="173.928" cy="324.6" fill="#ADD1B2" rx="6.6" ry="6.6" style="stroke:#181818;stroke-width:0.6;"/><path d="M175.5874,322.125 Q175.6811,321.9938 175.7936,321.9281 Q175.9061,321.8625 176.0374,321.8625 Q176.2624,321.8625 176.403,322.0219 Q176.5436,322.1719 176.5436,322.5375 L176.5436,323.4094 Q176.5436,323.775 176.403,323.9344 Q176.2624,324.0938 176.0374,324.0938 Q175.8311,324.0938 175.7093,323.9719 Q175.5874,323.8594 175.5218,323.55 Q175.4936,323.3344 175.3811,323.2219 Q175.1843,322.9969 174.8186,322.8656 Q174.453,322.7344 174.078,322.7344 Q173.6186,322.7344 173.2343,322.9313 Q172.8593,323.1281 172.5593,323.5781 Q172.2686,324.0281 172.2686,324.6469 L172.2686,325.3031 Q172.2686,326.0438 172.803,326.5406 Q173.3374,327.0281 174.2936,327.0281 Q174.8561,327.0281 175.2499,326.8781 Q175.4843,326.7844 175.7374,326.5219 Q175.8968,326.3625 175.9811,326.3156 Q176.0749,326.2688 176.1967,326.2688 Q176.3936,326.2688 176.5436,326.4281 Q176.703,326.5781 176.703,326.7844 Q176.703,326.9906 176.4968,327.2344 Q176.1967,327.5813 175.7186,327.7781 Q175.0717,328.05 174.2936,328.05 Q173.3842,328.05 172.6624,327.675 Q172.0717,327.375 171.6593,326.7375 Q171.2468,326.0906 171.2468,325.3219 L171.2468,324.6281 Q171.2468,323.8313 171.6124,323.1469 Q171.9874,322.4531 172.6436,322.0875 Q173.2999,321.7125 174.0405,321.7125 Q174.4811,321.7125 174.8655,321.8156 Q175.2592,321.9094 175.5874,322.125 Z " fill="#000000"/><text fill="#000000" font-family="sans-serif" font-size="8.4" lengthAdjust="spacing" textLength="87.2936" x="182.328" y="328.0781">ProjectLifecycleTracker</text><line style="stroke:#181818;stroke-width:0.3;" x1="165.528" x2="270.8216" y1="334.2" y2="334.2"/><line style="stroke:#181818;stroke-width:0.3;" x1="165.528" x2="270.8216" y1="339" y2="339"/></g><!--class mpsToModelixSynchronizationException--><g id="elem_mpsToModelixSynchronizationException"><rect codeLine="36" fill="#F1F1F1" height="28.8" id="mpsToModelixSynchronizationException" rx="1.5" ry="1.5" style="stroke:#181818;stroke-width:0.3;" width="170.4738" x="1503.228" y="120.6"/><ellipse cx="1512.228" cy="130.2" fill="#ADD1B2" rx="6.6" ry="6.6" style="stroke:#181818;stroke-width:0.6;"/><path d="M1513.8874,127.725 Q1513.9811,127.5938 1514.0936,127.5281 Q1514.2061,127.4625 1514.3374,127.4625 Q1514.5624,127.4625 1514.703,127.6219 Q1514.8436,127.7719 1514.8436,128.1375 L1514.8436,129.0094 Q1514.8436,129.375 1514.703,129.5344 Q1514.5624,129.6938 1514.3374,129.6938 Q1514.1311,129.6938 1514.0093,129.5719 Q1513.8874,129.4594 1513.8218,129.15 Q1513.7936,128.9344 1513.6811,128.8219 Q1513.4843,128.5969 1513.1186,128.4656 Q1512.753,128.3344 1512.378,128.3344 Q1511.9186,128.3344 1511.5343,128.5313 Q1511.1593,128.7281 1510.8593,129.1781 Q1510.5686,129.6281 1510.5686,130.2469 L1510.5686,130.9031 Q1510.5686,131.6437 1511.103,132.1406 Q1511.6374,132.6281 1512.5936,132.6281 Q1513.1561,132.6281 1513.5499,132.4781 Q1513.7843,132.3844 1514.0374,132.1219 Q1514.1968,131.9625 1514.2811,131.9156 Q1514.3749,131.8688 1514.4968,131.8688 Q1514.6936,131.8688 1514.8436,132.0281 Q1515.003,132.1781 1515.003,132.3844 Q1515.003,132.5906 1514.7968,132.8344 Q1514.4968,133.1813 1514.0186,133.3781 Q1513.3718,133.65 1512.5936,133.65 Q1511.6843,133.65 1510.9624,133.275 Q1510.3718,132.975 1509.9593,132.3375 Q1509.5468,131.6906 1509.5468,130.9219 L1509.5468,130.2281 Q1509.5468,129.4313 1509.9124,128.7469 Q1510.2874,128.0531 1510.9436,127.6875 Q1511.5999,127.3125 1512.3405,127.3125 Q1512.7811,127.3125 1513.1655,127.4156 Q1513.5593,127.5094 1513.8874,127.725 Z " fill="#000000"/><text fill="#000000" font-family="sans-serif" font-size="8.4" lengthAdjust="spacing" textLength="151.2738" x="1520.628" y="133.6781">MpsToModelixSynchronizationException</text><line style="stroke:#181818;stroke-width:0.3;" x1="1503.828" x2="1673.1018" y1="139.8" y2="139.8"/><line style="stroke:#181818;stroke-width:0.3;" x1="1503.828" x2="1673.1018" y1="144.6" y2="144.6"/></g><g id="elem_GMN100"><path d="M268.428,3.6 L268.428,19.9746 A0,0 0 0 0 268.428,19.9746 L279.828,19.9746 L282.228,55.632 L284.628,19.9746 L296.1976,19.9746 A0,0 0 0 0 296.1976,19.9746 L296.1976,9.6 L290.1976,3.6 L268.428,3.6 A0,0 0 0 0 268.428,3.6 " fill="#FEFFDD" style="stroke:#181818;stroke-width:0.3;"/><path d="M290.1976,3.6 L290.1976,9.6 L296.1976,9.6 L290.1976,3.6 " fill="#FEFFDD" style="stroke:#181818;stroke-width:0.3;"/><text fill="#000000" font-family="sans-serif" font-size="7.8" lengthAdjust="spacing" textLength="15.1696" x="272.028" y="15.017">start</text></g><g id="elem_GMN103"><path d="M1075.428,3.6 L1075.428,19.9746 A0,0 0 0 0 1075.428,19.9746 L1086.828,19.9746 L1089.228,55.632 L1091.628,19.9746 L1103.1976,19.9746 A0,0 0 0 0 1103.1976,19.9746 L1103.1976,9.6 L1097.1976,3.6 L1075.428,3.6 A0,0 0 0 0 1075.428,3.6 " fill="#FEFFDD" style="stroke:#181818;stroke-width:0.3;"/><path d="M1097.1976,3.6 L1097.1976,9.6 L1103.1976,9.6 L1097.1976,3.6 " fill="#FEFFDD" style="stroke:#181818;stroke-width:0.3;"/><text fill="#000000" font-family="sans-serif" font-size="7.8" lengthAdjust="spacing" textLength="15.1696" x="1079.028" y="15.017">start</text></g><g id="elem_GMN106"><path d="M510.828,3.6 L510.828,19.9746 A0,0 0 0 0 510.828,19.9746 L522.228,19.9746 L524.628,55.632 L527.028,19.9746 L538.5976,19.9746 A0,0 0 0 0 538.5976,19.9746 L538.5976,9.6 L532.5976,3.6 L510.828,3.6 A0,0 0 0 0 510.828,3.6 " fill="#FEFFDD" style="stroke:#181818;stroke-width:0.3;"/><path d="M532.5976,3.6 L532.5976,9.6 L538.5976,9.6 L532.5976,3.6 " fill="#FEFFDD" style="stroke:#181818;stroke-width:0.3;"/><text fill="#000000" font-family="sans-serif" font-size="7.8" lengthAdjust="spacing" textLength="15.1696" x="514.428" y="15.017">start</text></g><g id="elem_GMN109"><path d="M681.228,3.6 L681.228,19.9746 A0,0 0 0 0 681.228,19.9746 L692.628,19.9746 L695.028,55.632 L697.428,19.9746 L708.9976,19.9746 A0,0 0 0 0 708.9976,19.9746 L708.9976,9.6 L702.9976,3.6 L681.228,3.6 A0,0 0 0 0 681.228,3.6 " fill="#FEFFDD" style="stroke:#181818;stroke-width:0.3;"/><path d="M702.9976,3.6 L702.9976,9.6 L708.9976,9.6 L702.9976,3.6 " fill="#FEFFDD" style="stroke:#181818;stroke-width:0.3;"/><text fill="#000000" font-family="sans-serif" font-size="7.8" lengthAdjust="spacing" textLength="15.1696" x="684.828" y="15.017">start</text></g><!--reverse link injectableService to bindingsRegistry--><g id="link_injectableService_bindingsRegistry"><path codeLine="39" d="M499.3962,282.6963 C470.1582,293.3463 440.046,304.314 410.79,314.97 " fill="none" id="injectableService-backto-bindingsRegistry" style="stroke:#181818;stroke-width:0.6;stroke-dasharray:7.0,7.0;"/><polygon fill="none" points="509.544,279,498.1641,279.3138,500.6284,286.0789,509.544,279" style="stroke:#181818;stroke-width:0.6;"/></g><!--reverse link injectableService to syncQueue--><g id="link_injectableService_syncQueue"><path codeLine="40" d="M600.1269,269.8135 C732.0429,281.3575 1125.9,315.834 1242.36,326.028 " fill="none" id="injectableService-backto-syncQueue" style="stroke:#181818;stroke-width:0.6;stroke-dasharray:7.0,7.0;"/><polygon fill="none" points="589.368,268.872,599.813,273.3998,600.4407,266.2272,589.368,268.872" style="stroke:#181818;stroke-width:0.6;"/></g><!--reverse link injectableService to futuresWaitQueue--><g id="link_injectableService_futuresWaitQueue"><path codeLine="41" d="M572.9592,285.6475 C595.9512,303.5515 630.39,327.756 672.228,343.8 C755.046,375.552 858.942,387.144 917.154,391.314 " fill="none" id="injectableService-backto-futuresWaitQueue" style="stroke:#181818;stroke-width:0.6;stroke-dasharray:7.0,7.0;"/><polygon fill="none" points="564.438,279.012,570.7473,288.4879,575.171,282.8071,564.438,279.012" style="stroke:#181818;stroke-width:0.6;"/></g><!--reverse link injectableService to nodeMap--><g id="link_injectableService_nodeMap"><path codeLine="42" d="M596.8007,282.5876 C627.0407,293.2376 658.5,304.314 688.758,314.97 " fill="none" id="injectableService-backto-nodeMap" style="stroke:#181818;stroke-width:0.6;stroke-dasharray:7.0,7.0;"/><polygon fill="none" points="586.614,279,595.6049,285.9832,597.9966,279.192,586.614,279" style="stroke:#181818;stroke-width:0.6;"/></g><!--reverse link injectableService to projectLifecycleTracker--><g id="link_injectableService_projectLifecycleTracker"><path codeLine="43" d="M495.1059,275.3 C435.5499,286.802 336.762,305.874 271.386,318.498 " fill="none" id="injectableService-backto-projectLifecycleTracker" style="stroke:#181818;stroke-width:0.6;stroke-dasharray:7.0,7.0;"/><polygon fill="none" points="505.71,273.252,494.4233,271.7653,495.7886,278.8346,505.71,273.252" style="stroke:#181818;stroke-width:0.6;"/></g><!--reverse link iBinding to modelBinding--><g id="link_iBinding_modelBinding"><path codeLine="45" d="M784.1884,343.5235 C780.4864,344.9215 786.816,342.51 783.228,343.8 C745.062,357.546 700.944,372.282 670.956,382.128 " fill="none" id="iBinding-backto-modelBinding" style="stroke:#181818;stroke-width:0.6;stroke-dasharray:7.0,7.0;"/><polygon fill="none" points="794.292,339.708,782.9166,340.1556,785.4602,346.8913,794.292,339.708" style="stroke:#181818;stroke-width:0.6;"/></g><!--reverse link iBinding to moduleBinding--><g id="link_iBinding_moduleBinding"><path codeLine="46" d="M784.1041,344.002 C780.4321,345.28 786.864,342.894 783.228,343.8 C648.618,377.226 483.372,388.566 410.448,392.118 " fill="none" id="iBinding-backto-moduleBinding" style="stroke:#181818;stroke-width:0.6;stroke-dasharray:7.0,7.0;"/><polygon fill="none" points="794.304,340.452,782.9208,340.602,785.2874,347.4019,794.304,340.452" style="stroke:#181818;stroke-width:0.6;"/></g><!--link serviceLocator to bindingsRegistry--><g id="link_serviceLocator_bindingsRegistry"><path codeLine="48" d="M634.537,204.1992 C570.457,210.1632 450.99,224.256 415.428,250.2 C393.486,266.208 382.6576,293.608 377.3536,311.53 " fill="none" id="serviceLocator-bindingsRegistry" style="stroke:#181818;stroke-width:0.6;"/><polygon fill="#181818" points="641.706,203.532,637.8991,201.4759,634.537,204.1992,638.3439,206.2553,641.706,203.532" style="stroke:#181818;stroke-width:0.6;"/><polygon fill="#181818" points="376.332,314.982,380.1658,310.4851,377.1833,312.1053,375.5631,309.1229,376.332,314.982" style="stroke:#181818;stroke-width:0.6;"/></g><!--link serviceLocator to syncQueue--><g id="link_serviceLocator_syncQueue"><path codeLine="49" d="M724.1098,210.0498 C833.2438,233.6178 1137.8611,299.3962 1238.9251,321.2182 " fill="none" id="serviceLocator-syncQueue" style="stroke:#181818;stroke-width:0.6;"/><polygon fill="#181818" points="717.072,208.53,720.0843,211.6358,724.1098,210.0498,721.0975,206.944,717.072,208.53" style="stroke:#181818;stroke-width:0.6;"/><polygon fill="#181818" points="1242.444,321.978,1237.6722,318.4923,1239.5116,321.3448,1236.6591,323.1842,1242.444,321.978" style="stroke:#181818;stroke-width:0.6;"/></g><!--link serviceLocator to futuresWaitQueue--><g id="link_serviceLocator_futuresWaitQueue"><path codeLine="50" d="M634.6075,202.588 C571.5055,206.998 461.592,222.342 495.228,279 C525.93,330.72 556.95,324.84 614.028,343.8 C719.004,378.678 846.1839,388.9629 913.5999,392.0949 " fill="none" id="serviceLocator-futuresWaitQueue" style="stroke:#181818;stroke-width:0.6;"/><polygon fill="#181818" points="641.79,202.086,638.0314,199.9428,634.6075,202.588,638.3661,204.7311,641.79,202.086" style="stroke:#181818;stroke-width:0.6;"/><polygon fill="#181818" points="917.196,392.262,911.9132,389.614,914.1992,392.1228,911.6904,394.4088,917.196,392.262" style="stroke:#181818;stroke-width:0.6;"/></g><!--link serviceLocator to nodeMap--><g id="link_serviceLocator_nodeMap"><path codeLine="51" d="M700.8666,219.3704 C710.3166,228.5204 716.292,236.322 722.028,250.2 C730.812,271.446 730.9054,295.0651 729.7534,311.2651 " fill="none" id="serviceLocator-nodeMap" style="stroke:#181818;stroke-width:0.6;"/><polygon fill="#181818" points="695.694,214.362,696.6108,218.5904,700.8666,219.3704,699.9498,215.142,695.694,214.362" style="stroke:#181818;stroke-width:0.6;"/><polygon fill="#181818" points="729.498,314.856,732.275,309.6398,729.7108,311.8636,727.4871,309.2994,729.498,314.856" style="stroke:#181818;stroke-width:0.6;"/></g><!--link serviceLocator to projectLifecycleTracker--><g id="link_serviceLocator_projectLifecycleTracker"><path codeLine="52" d="M634.6965,204.3199 C578.4465,209.8459 476.598,222.612 387.828,250.2 C333.852,266.976 277.9637,295.5292 245.6777,313.2052 " fill="none" id="serviceLocator-projectLifecycleTracker" style="stroke:#181818;stroke-width:0.6;"/><polygon fill="#181818" points="641.862,203.616,638.0446,201.5795,634.6965,204.3199,638.5139,206.3565,641.862,203.616" style="stroke:#181818;stroke-width:0.6;"/><polygon fill="#181818" points="242.52,314.934,248.4091,314.446,245.1514,313.4933,246.1041,310.2356,242.52,314.934" style="stroke:#181818;stroke-width:0.6;"/></g><!--link serviceLocator to injectableService--><g id="link_serviceLocator_injectableService"><path codeLine="53" d="M650.784,214.2 C628.722,224.832 598.35,239.466 576.24,250.116 " fill="none" id="serviceLocator-injectableService" style="stroke:#181818;stroke-width:0.6;stroke-dasharray:7.0,7.0;"/></g><!--link bindingsRegistry to modelBinding--><g id="link_bindingsRegistry_modelBinding"><path codeLine="55" d="M421.1779,341.7018 C472.4899,354.1218 548.609,372.5392 596.903,384.2272 " fill="none" id="bindingsRegistry-modelBinding" style="stroke:#181818;stroke-width:0.6;"/><polygon fill="#181818" points="414.18,340.008,417.1143,343.1876,421.1779,341.7018,418.2436,338.5223,414.18,340.008" style="stroke:#181818;stroke-width:0.6;"/><polygon fill="#181818" points="600.402,385.074,595.7181,381.4711,597.4862,384.3683,594.589,386.1364,600.402,385.074" style="stroke:#181818;stroke-width:0.6;"/></g><!--link bindingsRegistry to moduleBinding--><g id="link_bindingsRegistry_moduleBinding"><path codeLine="56" d="M372.828,351 C372.828,361.596 372.828,365.364 372.828,376.008 " fill="none" id="bindingsRegistry-moduleBinding" style="stroke:#181818;stroke-width:0.6;"/><polygon fill="#181818" points="372.828,343.8,370.428,347.4,372.828,351,375.228,347.4,372.828,343.8" style="stroke:#181818;stroke-width:0.6;"/><polygon fill="#181818" points="372.828,379.608,375.228,374.208,372.828,376.608,370.428,374.208,372.828,379.608" style="stroke:#181818;stroke-width:0.6;"/></g><!--reverse link itemAlreadySynchronized to modelAlreadySynchronized--><g id="link_itemAlreadySynchronized_modelAlreadySynchronized"><path codeLine="58" d="M1974.7576,158.8002 C1980.7516,169.3962 1983.684,174.564 1989.708,185.208 " fill="none" id="itemAlreadySynchronized-backto-modelAlreadySynchronized" style="stroke:#181818;stroke-width:0.6;"/><polygon fill="none" points="1969.44,149.4,1971.6242,160.5727,1977.8909,157.0277,1969.44,149.4" style="stroke:#181818;stroke-width:0.6;"/></g><!--reverse link itemAlreadySynchronized to moduleAlreadySynchronized--><g id="link_itemAlreadySynchronized_moduleAlreadySynchronized"><path codeLine="59" d="M1893.2602,145.0303 C1878.0682,147.0283 1872.396,147.684 1857.228,149.4 C1688.394,168.468 1488.774,185.79 1389.246,194.07 " fill="none" id="itemAlreadySynchronized-backto-moduleAlreadySynchronized" style="stroke:#181818;stroke-width:0.6;"/><polygon fill="none" points="1903.968,143.622,1892.7908,141.461,1893.7296,148.5995,1903.968,143.622" style="stroke:#181818;stroke-width:0.6;"/></g><!--reverse link itemAlreadySynchronizedException to modelAlreadySynchronizedException--><g id="link_itemAlreadySynchronizedException_modelAlreadySynchronizedException"><path codeLine="61" d="M1727.5198,153.5321 C1701.8458,164.1641 1676.484,174.666 1650.756,185.316 " fill="none" id="itemAlreadySynchronizedException-backto-modelAlreadySynchronizedException" style="stroke:#181818;stroke-width:0.6;"/><polygon fill="none" points="1737.498,149.4,1726.1424,150.2061,1728.8971,156.8582,1737.498,149.4" style="stroke:#181818;stroke-width:0.6;"/></g><!--reverse link itemAlreadySynchronizedException to moduleAlreadySynchronizedException--><g id="link_itemAlreadySynchronizedException_moduleAlreadySynchronizedException"><path codeLine="62" d="M1684.0133,149.4399 C1680.3353,149.9319 1687.398,148.968 1683.828,149.4 C1492.818,172.488 1444.002,167.574 1252.428,185.4 C1235.376,186.984 1217.124,188.79 1199.736,190.56 " fill="none" id="itemAlreadySynchronizedException-backto-moduleAlreadySynchronizedException" style="stroke:#181818;stroke-width:0.6;"/><polygon fill="none" points="1694.718,148.008,1683.536,145.8717,1684.4907,153.0082,1694.718,148.008" style="stroke:#181818;stroke-width:0.6;"/></g><!--reverse link itemAlreadySynchronizedException to nodeAlreadySynchronizedException--><g id="link_itemAlreadySynchronizedException_nodeAlreadySynchronizedException"><path codeLine="63" d="M1793.252,156.8237 C1804.448,167.4197 1812,174.564 1823.244,185.208 " fill="none" id="itemAlreadySynchronizedException-backto-nodeAlreadySynchronizedException" style="stroke:#181818;stroke-width:0.6;"/><polygon fill="none" points="1785.408,149.4,1790.7775,159.4384,1795.7266,154.209,1785.408,149.4" style="stroke:#181818;stroke-width:0.6;"/></g><!--link moduleSynchronizer to serviceLocator--><g id="link_moduleSynchronizer_serviceLocator"><path codeLine="65" d="M871.146,148.392 C825.702,160.434 762.0599,177.3019 720.4859,188.3179 " fill="none" id="moduleSynchronizer-to-serviceLocator" style="stroke:#181818;stroke-width:0.6;"/><polygon fill="#181818" points="717.006,189.24,722.8406,190.1768,719.9059,188.4716,721.6111,185.5369,717.006,189.24" style="stroke:#181818;stroke-width:0.6;"/></g><!--link moduleSynchronizer to modelSynchronizer--><g id="link_moduleSynchronizer_modelSynchronizer"><path codeLine="66" d="M974.748,135 C981.678,135 977.802,135 984.726,135 " fill="none" id="moduleSynchronizer-modelSynchronizer" style="stroke:#181818;stroke-width:0.6;"/><polygon fill="#181818" points="967.548,135,971.148,137.4,974.748,135,971.148,132.6,967.548,135" style="stroke:#181818;stroke-width:0.6;"/><polygon fill="#181818" points="988.326,135,982.926,132.6,985.326,135,982.926,137.4,988.326,135" style="stroke:#181818;stroke-width:0.6;"/></g><!--link moduleSynchronizer to syncQueue--><g id="link_moduleSynchronizer_syncQueue"><path codeLine="67" d="M935.97,149.526 C956.25,166.188 992.076,194.328 1025.628,214.2 C1099.998,258.246 1190.826,296.2647 1239.054,315.3267 " fill="none" id="moduleSynchronizer-to-syncQueue" style="stroke:#181818;stroke-width:0.6;"/><polygon fill="#181818" points="1242.402,316.65,1238.2622,312.4331,1239.612,315.5473,1236.4979,316.8971,1242.402,316.65" style="stroke:#181818;stroke-width:0.6;"/></g><!--link moduleSynchronizer to futuresWaitQueue--><g id="link_moduleSynchronizer_futuresWaitQueue"><path codeLine="68" d="M921.72,149.472 C929.112,194.268 951.7278,331.212 959.1378,376.11 " fill="none" id="moduleSynchronizer-to-futuresWaitQueue" style="stroke:#181818;stroke-width:0.6;"/><polygon fill="#181818" points="959.724,379.662,961.2126,373.9433,959.2355,376.702,956.4767,374.7249,959.724,379.662" style="stroke:#181818;stroke-width:0.6;"/></g><!--link moduleSynchronizer to bindingsRegistry--><g id="link_moduleSynchronizer_bindingsRegistry"><path codeLine="69" d="M871.992,149.43 C843.594,158.358 807.102,170.976 776.028,185.4 C753.252,195.972 751.062,205.722 727.428,214.2 C629.124,249.456 592.878,213.186 495.228,250.2 C453.9,265.866 414.6826,294.5894 392.2306,312.6254 " fill="none" id="moduleSynchronizer-to-bindingsRegistry" style="stroke:#181818;stroke-width:0.6;"/><polygon fill="#181818" points="389.424,314.88,395.1369,313.3692,391.7628,313.0012,392.1308,309.6271,389.424,314.88" style="stroke:#181818;stroke-width:0.6;"/></g><!--link moduleSynchronizer to nodeMap--><g id="link_moduleSynchronizer_nodeMap"><path codeLine="70" d="M902.166,149.49 C890.346,159.21 874.464,172.692 861.228,185.4 C814.164,230.58 765.1341,285.9355 742.3761,312.1495 " fill="none" id="moduleSynchronizer-to-nodeMap" style="stroke:#181818;stroke-width:0.6;"/><polygon fill="#181818" points="740.016,314.868,745.3684,312.3637,741.9827,312.6026,741.7438,309.2169,740.016,314.868" style="stroke:#181818;stroke-width:0.6;"/></g><!--link moduleSynchronizer to iBinding--><g id="link_moduleSynchronizer_iBinding"><path codeLine="71" d="M913.248,149.472 C901.608,175.338 875.298,232.53 849.828,279 C843.048,291.366 836.5425,301.9512 830.2485,311.8152 " fill="none" id="moduleSynchronizer-to-iBinding" style="stroke:#181818;stroke-width:0.6;stroke-dasharray:7.0,7.0;"/><polygon fill="#181818" points="828.312,314.85,833.2399,311.5887,829.9257,312.321,829.1935,309.0068,828.312,314.85" style="stroke:#181818;stroke-width:0.6;"/></g><!--link moduleSynchronizer to moduleAlreadySynchronized--><g id="link_moduleSynchronizer_moduleAlreadySynchronized"><path codeLine="72" d="M967.47,147.354 C970.902,148.08 974.31,148.77 977.628,149.4 C1076.808,168.204 1189.502,183.0358 1259.552,191.5078 " fill="none" id="moduleSynchronizer-to-moduleAlreadySynchronized" style="stroke:#181818;stroke-width:0.6;stroke-dasharray:7.0,7.0;"/><polygon fill="#181818" points="1263.126,191.94,1258.0532,188.909,1260.1477,191.5798,1257.4769,193.6743,1263.126,191.94" style="stroke:#181818;stroke-width:0.6;"/></g><!--link moduleSynchronizer to moduleAlreadySynchronizedException--><g id="link_moduleSynchronizer_moduleAlreadySynchronizedException"><path codeLine="73" d="M962.52,149.4 C995.778,160.05 1038.1415,173.6161 1071.4175,184.2721 " fill="none" id="moduleSynchronizer-to-moduleAlreadySynchronizedException" style="stroke:#181818;stroke-width:0.6;stroke-dasharray:7.0,7.0;"/><polygon fill="#181818" points="1074.846,185.37,1070.4352,181.4375,1071.9889,184.4551,1068.9713,186.0088,1074.846,185.37" style="stroke:#181818;stroke-width:0.6;"/></g><!--link modelSynchronizer to nodeSynchronizer--><g id="link_modelSynchronizer_nodeSynchronizer"><path codeLine="75" d="M1086.972,135 C1093.938,135 1090.104,135 1097.076,135 " fill="none" id="modelSynchronizer-nodeSynchronizer" style="stroke:#181818;stroke-width:0.6;"/><polygon fill="#181818" points="1079.772,135,1083.372,137.4,1086.972,135,1083.372,132.6,1079.772,135" style="stroke:#181818;stroke-width:0.6;"/><polygon fill="#181818" points="1100.676,135,1095.276,132.6,1097.676,135,1095.276,137.4,1100.676,135" style="stroke:#181818;stroke-width:0.6;"/></g><!--link modelSynchronizer to serviceLocator--><g id="link_modelSynchronizer_serviceLocator"><path codeLine="76" d="M988.38,147.072 C984.75,147.894 981.132,148.68 977.628,149.4 C884.442,168.552 777.2921,185.0292 720.5801,193.3212 " fill="none" id="modelSynchronizer-to-serviceLocator" style="stroke:#181818;stroke-width:0.6;"/><polygon fill="#181818" points="717.018,193.842,722.7084,195.4355,719.9864,193.408,722.014,190.686,717.018,193.842" style="stroke:#181818;stroke-width:0.6;"/></g><!--link modelSynchronizer to syncQueue--><g id="link_modelSynchronizer_syncQueue"><path codeLine="77" d="M1079.634,147.27 C1083.276,148.044 1086.906,148.764 1090.428,149.4 C1158.468,161.64 1353.462,133.764 1399.428,185.4 C1441.482,232.644 1353.8977,287.6515 1305.2917,313.3075 " fill="none" id="modelSynchronizer-to-syncQueue" style="stroke:#181818;stroke-width:0.6;"/><polygon fill="#181818" points="1302.108,314.988,1308.0039,314.5898,1304.7611,313.5876,1305.7632,310.3448,1302.108,314.988" style="stroke:#181818;stroke-width:0.6;"/></g><!--link modelSynchronizer to futuresWaitQueue--><g id="link_modelSynchronizer_futuresWaitQueue"><path codeLine="78" d="M1079.628,147.294 C1083.27,148.068 1086.9,148.782 1090.428,149.4 C1163.208,162.21 1371.678,130.386 1421.028,185.4 C1429.572,194.928 1423.734,201.69 1421.028,214.2 C1405.356,286.656 1383.588,313.29 1316.028,343.8 C1261.656,368.352 1092.8954,383.8385 1010.4254,390.1685 " fill="none" id="modelSynchronizer-to-futuresWaitQueue" style="stroke:#181818;stroke-width:0.6;"/><polygon fill="#181818" points="1006.836,390.444,1012.4038,392.4237,1009.8272,390.2144,1012.0365,387.6378,1006.836,390.444" style="stroke:#181818;stroke-width:0.6;"/></g><!--link modelSynchronizer to bindingsRegistry--><g id="link_modelSynchronizer_bindingsRegistry"><path codeLine="79" d="M996.366,149.49 C921.516,176.766 748.416,238.224 599.628,279 C535.476,296.58 463.338,311.4997 417.642,320.3737 " fill="none" id="modelSynchronizer-to-bindingsRegistry" style="stroke:#181818;stroke-width:0.6;"/><polygon fill="#181818" points="414.108,321.06,419.8665,322.3866,417.053,320.4881,418.9514,317.6746,414.108,321.06" style="stroke:#181818;stroke-width:0.6;"/></g><!--link modelSynchronizer to nodeMap--><g id="link_modelSynchronizer_nodeMap"><path codeLine="80" d="M1012.02,149.496 C955.632,185.1 809.4799,277.3719 753.0859,312.9819 " fill="none" id="modelSynchronizer-to-nodeMap" style="stroke:#181818;stroke-width:0.6;"/><polygon fill="#181818" points="750.042,314.904,755.8893,314.0501,752.5786,313.3023,753.3265,309.9916,750.042,314.904" style="stroke:#181818;stroke-width:0.6;"/></g><!--link modelSynchronizer to modelBinding--><g id="link_modelSynchronizer_modelBinding"><path codeLine="81" d="M1079.736,147.096 C1130.466,160.062 1205.784,180.054 1209.828,185.4 C1217.544,195.612 1217.166,203.712 1209.828,214.2 C1145.58,306.036 789.0212,369.4117 674.2952,387.6877 " fill="none" id="modelSynchronizer-to-modelBinding" style="stroke:#181818;stroke-width:0.6;stroke-dasharray:7.0,7.0;"/><polygon fill="#181818" points="670.74,388.254,676.4503,389.7746,673.7026,387.782,675.6952,385.0344,670.74,388.254" style="stroke:#181818;stroke-width:0.6;"/></g><!--link modelSynchronizer to cloudResolvableModelImport--><g id="link_modelSynchronizer_cloudResolvableModelImport"><path codeLine="82" d="M1063.5076,117.0645 C1075.9636,110.1525 1085.58,106.122 1100.928,102.6 C1200.732,79.704 1230.582,84.27 1331.328,102.6 C1350.498,106.086 1367.6426,112.1931 1383.8006,119.1111 " fill="none" id="modelSynchronizer-cloudResolvableModelImport" style="stroke:#181818;stroke-width:0.6;"/><polygon fill="#181818" points="1057.212,120.558,1061.5243,120.9098,1063.5076,117.0645,1059.1953,116.7127,1057.212,120.558" style="stroke:#181818;stroke-width:0.6;"/><polygon fill="#181818" points="1387.11,120.528,1383.0905,116.1963,1384.3521,119.3472,1381.2012,120.6089,1387.11,120.528" style="stroke:#181818;stroke-width:0.6;"/></g><!--link modelSynchronizer to modelAlreadySynchronized--><g id="link_modelSynchronizer_modelAlreadySynchronized"><path codeLine="83" d="M1079.742,147.582 C1083.342,148.284 1086.936,148.902 1090.428,149.4 C1458.522,201.84 1556.958,142.002 1926.228,185.4 C1929.738,185.814 1929.7774,185.7686 1933.3954,186.3086 " fill="none" id="modelSynchronizer-to-modelAlreadySynchronized" style="stroke:#181818;stroke-width:0.6;stroke-dasharray:7.0,7.0;"/><polygon fill="#181818" points="1936.956,186.84,1931.9694,183.6692,1933.9889,186.3971,1931.2609,188.4166,1936.956,186.84" style="stroke:#181818;stroke-width:0.6;"/></g><!--link modelSynchronizer to modelAlreadySynchronizedException--><g id="link_modelSynchronizer_modelAlreadySynchronizedException"><path codeLine="84" d="M1079.766,147.426 C1083.36,148.164 1086.948,148.83 1090.428,149.4 C1280.322,180.36 1330.662,163.62 1521.828,185.4 C1527.066,185.994 1528.8892,186.1963 1534.3192,186.8923 " fill="none" id="modelSynchronizer-to-modelAlreadySynchronizedException" style="stroke:#181818;stroke-width:0.6;stroke-dasharray:7.0,7.0;"/><polygon fill="#181818" points="1537.89,187.35,1532.8389,184.2829,1534.9143,186.9686,1532.2287,189.044,1537.89,187.35" style="stroke:#181818;stroke-width:0.6;"/></g><!--link nodeSynchronizer to serviceLocator--><g id="link_nodeSynchronizer_serviceLocator"><path codeLine="86" d="M1100.844,147.162 C1097.13,147.972 1093.422,148.734 1089.828,149.4 C953.616,174.588 793.1093,189.8018 720.5993,195.9098 " fill="none" id="nodeSynchronizer-to-serviceLocator" style="stroke:#181818;stroke-width:0.6;stroke-dasharray:7.0,7.0;"/><polygon fill="#181818" points="717.012,196.212,722.5944,198.1503,720.0014,195.9602,722.1915,193.3672,717.012,196.212" style="stroke:#181818;stroke-width:0.6;"/></g><!--link nodeSynchronizer to syncQueue--><g id="link_nodeSynchronizer_syncQueue"><path codeLine="87" d="M1189.29,147.486 C1192.776,148.206 1196.25,148.86 1199.628,149.4 C1255.386,158.352 1668.132,144.078 1706.628,185.4 C1824.804,312.264 1427.3217,326.9628 1309.3257,328.5768 " fill="none" id="nodeSynchronizer-to-syncQueue" style="stroke:#181818;stroke-width:0.6;"/><polygon fill="#181818" points="1305.726,328.626,1311.1583,330.9519,1308.7257,328.585,1311.0927,326.1524,1305.726,328.626" style="stroke:#181818;stroke-width:0.6;"/></g><!--link nodeSynchronizer to nodeMap--><g id="link_nodeSynchronizer_nodeMap"><path codeLine="88" d="M1189.368,147.078 C1192.83,147.894 1196.28,148.674 1199.628,149.4 C1290.87,169.128 1460.028,143.19 1399.428,214.2 C1366.386,252.918 1223.466,242.022 1173.228,250.2 C1000.062,278.388 955.65,279.51 783.828,315 C780.306,315.726 780.1864,315.7259 776.5444,316.5539 " fill="none" id="nodeSynchronizer-to-nodeMap" style="stroke:#181818;stroke-width:0.6;"/><polygon fill="#181818" points="773.034,317.352,778.8317,318.4952,775.9594,316.6869,777.7676,313.8146,773.034,317.352" style="stroke:#181818;stroke-width:0.6;"/></g><!--link nodeSynchronizer to cloudResolvableReference--><g id="link_nodeSynchronizer_cloudResolvableReference"><path codeLine="89" d="M1196.526,135 C1203.546,135 1199.766,135 1206.786,135 " fill="none" id="nodeSynchronizer-cloudResolvableReference" style="stroke:#181818;stroke-width:0.6;"/><polygon fill="#181818" points="1189.326,135,1192.926,137.4,1196.526,135,1192.926,132.6,1189.326,135" style="stroke:#181818;stroke-width:0.6;"/><polygon fill="#181818" points="1210.386,135,1204.986,132.6,1207.386,135,1204.986,137.4,1210.386,135" style="stroke:#181818;stroke-width:0.6;"/></g><!--link nodeSynchronizer to nodeAlreadySynchronizedException--><g id="link_nodeSynchronizer_nodeAlreadySynchronizedException"><path codeLine="90" d="M1189.29,147.504 C1192.77,148.218 1196.25,148.866 1199.628,149.4 C1439.046,187.254 1502.784,159.81 1743.828,185.4 C1749.168,185.97 1751.098,186.1636 1756.642,186.8596 " fill="none" id="nodeSynchronizer-to-nodeAlreadySynchronizedException" style="stroke:#181818;stroke-width:0.6;stroke-dasharray:7.0,7.0;"/><polygon fill="#181818" points="1760.214,187.308,1755.155,184.254,1757.2374,186.9343,1754.5571,189.0167,1760.214,187.308" style="stroke:#181818;stroke-width:0.6;"/></g><!--link syncQueue to futuresWaitQueue--><g id="link_syncQueue_futuresWaitQueue"><path codeLine="92" d="M1242.396,336.45 C1186.62,347.82 1074.1975,370.7349 1010.2675,383.7669 " fill="none" id="syncQueue-to-futuresWaitQueue" style="stroke:#181818;stroke-width:0.6;"/><polygon fill="#181818" points="1006.74,384.486,1012.5106,385.759,1009.6795,383.8868,1011.5518,381.0558,1006.74,384.486" style="stroke:#181818;stroke-width:0.6;"/></g><!--link repositoryChangeListener to serviceLocator--><g id="link_repositoryChangeListener_serviceLocator"><path codeLine="94" d="M324.924,84.6 C402.966,109.83 564.0065,161.8887 638.2325,185.8827 " fill="none" id="repositoryChangeListener-to-serviceLocator" style="stroke:#181818;stroke-width:0.6;stroke-dasharray:7.0,7.0;"/><polygon fill="#181818" points="641.658,186.99,637.258,183.0454,638.8034,186.0672,635.7816,187.6127,641.658,186.99" style="stroke:#181818;stroke-width:0.6;"/></g><!--link repositoryChangeListener to projectLifecycleTracker--><g id="link_repositoryChangeListener_projectLifecycleTracker"><path codeLine="95" d="M268.068,84.72 C240.582,112.884 180.852,179.946 159.828,250.2 C156.156,262.464 154.476,267.372 159.828,279 C166.806,294.162 177.9533,304.4013 190.5413,312.9633 " fill="none" id="repositoryChangeListener-to-projectLifecycleTracker" style="stroke:#181818;stroke-width:0.6;"/><polygon fill="#181818" points="193.518,314.988,190.4027,309.9665,191.0374,313.3008,187.7032,313.9355,193.518,314.988" style="stroke:#181818;stroke-width:0.6;"/></g><!--link repositoryChangeListener to bindingsRegistry--><g id="link_repositoryChangeListener_bindingsRegistry"><path codeLine="96" d="M282.144,84.852 C282.294,100.68 283.272,127.116 287.628,149.4 C299.262,208.908 300.492,226.164 330.228,279 C337.758,292.386 346.6874,302.918 355.8134,312.326 " fill="none" id="repositoryChangeListener-to-bindingsRegistry" style="stroke:#181818;stroke-width:0.6;"/><polygon fill="#181818" points="358.32,314.91,356.2828,309.3629,356.2312,312.7567,352.8375,312.705,358.32,314.91" style="stroke:#181818;stroke-width:0.6;"/></g><!--link repositoryChangeListener to nodeSynchronizer--><g id="link_repositoryChangeListener_nodeSynchronizer"><path codeLine="97" d="M341.784,75.618 C377.124,78.402 422.82,81.888 463.428,84.6 C741.666,103.188 814.152,78.6 1089.828,120.6 C1093.44,121.152 1093.633,121.1087 1097.359,121.8707 " fill="none" id="repositoryChangeListener-to-nodeSynchronizer" style="stroke:#181818;stroke-width:0.6;"/><polygon fill="#181818" points="1100.886,122.592,1096.0764,119.1587,1097.9468,121.9909,1095.1146,123.8614,1100.886,122.592" style="stroke:#181818;stroke-width:0.6;"/></g><!--link repositoryChangeListener to moduleBinding--><g id="link_repositoryChangeListener_moduleBinding"><path codeLine="98" d="M222.63,75.846 C157.86,82.488 59.874,96.264 32.028,120.6 C4.212,144.906 5.028,162.264 5.028,199.2 C5.028,199.2 5.028,199.2 5.028,265.2 C5.028,302.136 3.6,320.214 32.028,343.8 C77.586,381.594 252.9434,390.6137 331.6934,392.8097 " fill="none" id="repositoryChangeListener-to-moduleBinding" style="stroke:#181818;stroke-width:0.6;stroke-dasharray:7.0,7.0;"/><polygon fill="#181818" points="335.292,392.91,329.961,390.3604,332.2932,392.8264,329.8272,395.1585,335.292,392.91" style="stroke:#181818;stroke-width:0.6;"/></g><!--link repositoryChangeListener to nodeMap--><g id="link_repositoryChangeListener_nodeMap"><path codeLine="99" d="M307.536,84.624 C361.59,114.246 492.144,186.36 599.628,250.2 C620.43,262.554 625.212,266.328 645.828,279 C665.73,291.234 685.363,303.1212 701.863,313.0692 " fill="none" id="repositoryChangeListener-to-nodeMap" style="stroke:#181818;stroke-width:0.6;stroke-dasharray:7.0,7.0;"/><polygon fill="#181818" points="704.946,314.928,701.5607,310.0845,702.3768,313.379,699.0823,314.1952,704.946,314.928" style="stroke:#181818;stroke-width:0.6;"/></g><!--link moduleChangeListener to serviceLocator--><g id="link_moduleChangeListener_serviceLocator"><path codeLine="101" d="M1036.02,79.356 C989.19,87.606 919.488,101.622 860.628,120.6 C804.33,138.75 744.858,166.5322 709.944,183.7702 " fill="none" id="moduleChangeListener-to-serviceLocator" style="stroke:#181818;stroke-width:0.6;stroke-dasharray:7.0,7.0;"/><polygon fill="#181818" points="706.716,185.364,712.6205,185.1254,709.406,184.0359,710.4955,180.8214,706.716,185.364" style="stroke:#181818;stroke-width:0.6;"/></g><!--link moduleChangeListener to nodeMap--><g id="link_moduleChangeListener_nodeMap"><path codeLine="102" d="M1142.46,70.734 C1330.152,70.89 1953.918,74.88 2030.028,120.6 C2068.662,143.808 2099.622,181.11 2069.028,214.2 C2044.716,240.492 819.18,309.282 783.828,315 C780.33,315.564 780.2569,315.5202 776.6509,316.2582 " fill="none" id="moduleChangeListener-to-nodeMap" style="stroke:#181818;stroke-width:0.6;"/><polygon fill="#181818" points="773.124,316.98,778.8955,318.2485,776.0631,316.3785,777.9331,313.546,773.124,316.98" style="stroke:#181818;stroke-width:0.6;"/></g><!--link moduleChangeListener to syncQueue--><g id="link_moduleChangeListener_syncQueue"><path codeLine="103" d="M1142.406,71.394 C1346.808,73.944 2072.154,85.446 2105.628,120.6 C2134.314,150.726 2132.526,182.466 2105.628,214.2 C2052.654,276.702 1454.663,317.6018 1309.163,326.6798 " fill="none" id="moduleChangeListener-to-syncQueue" style="stroke:#181818;stroke-width:0.6;"/><polygon fill="#181818" points="1305.57,326.904,1311.109,328.9631,1308.5642,326.7172,1310.8101,324.1724,1305.57,326.904" style="stroke:#181818;stroke-width:0.6;"/></g><!--link moduleChangeListener to futuresWaitQueue--><g id="link_moduleChangeListener_futuresWaitQueue"><path codeLine="104" d="M1142.502,71.934 C1349.07,76.506 2087.778,94.614 2130.228,120.6 C2164.56,141.618 2175.228,158.946 2175.228,199.2 C2175.228,199.2 2175.228,199.2 2175.228,265.2 C2175.228,385.098 1229.646,393.343 1010.424,393.649 " fill="none" id="moduleChangeListener-to-futuresWaitQueue" style="stroke:#181818;stroke-width:0.6;"/><polygon fill="#181818" points="1006.824,393.654,1012.2273,396.0465,1009.824,393.6498,1012.2206,391.2465,1006.824,393.654" style="stroke:#181818;stroke-width:0.6;"/></g><!--link moduleChangeListener to bindingsRegistry--><g id="link_moduleChangeListener_bindingsRegistry"><path codeLine="105" d="M1035.978,77.004 C974.856,84.708 871.86,99.456 785.028,120.6 C604.608,164.526 510.546,110.838 387.828,250.2 C372.036,268.134 370.5212,293.8541 371.3432,311.1641 " fill="none" id="moduleChangeListener-to-bindingsRegistry" style="stroke:#181818;stroke-width:0.6;"/><polygon fill="#181818" points="371.514,314.76,373.6552,309.2522,371.3717,311.7634,368.8606,309.4799,371.514,314.76" style="stroke:#181818;stroke-width:0.6;"/></g><!--link moduleChangeListener to projectLifecycleTracker--><g id="link_moduleChangeListener_projectLifecycleTracker"><path codeLine="106" d="M1036.038,73.824 C905.412,83.142 561.336,119.292 311.628,250.2 C279.018,267.294 250.1114,294.7193 233.2574,312.2993 " fill="none" id="moduleChangeListener-to-projectLifecycleTracker" style="stroke:#181818;stroke-width:0.6;"/><polygon fill="#181818" points="230.766,314.898,236.2355,312.6609,232.8421,312.7324,232.7706,309.3391,230.766,314.898" style="stroke:#181818;stroke-width:0.6;"/></g><!--link moduleChangeListener to moduleSynchronizer--><g id="link_moduleChangeListener_moduleSynchronizer"><path codeLine="107" d="M1052.382,84.6 C1024.002,95.232 988.3014,108.6035 959.8614,119.2535 " fill="none" id="moduleChangeListener-to-moduleSynchronizer" style="stroke:#181818;stroke-width:0.6;"/><polygon fill="#181818" points="956.49,120.516,962.3887,120.8699,959.2995,119.4639,960.7054,116.3747,956.49,120.516" style="stroke:#181818;stroke-width:0.6;"/></g><!--link moduleChangeListener to modelSynchronizer--><g id="link_moduleChangeListener_modelSynchronizer"><path codeLine="108" d="M1077.252,84.6 C1068.054,95.196 1057.772,107.0454 1048.532,117.6894 " fill="none" id="moduleChangeListener-to-modelSynchronizer" style="stroke:#181818;stroke-width:0.6;"/><polygon fill="#181818" points="1046.172,120.408,1051.5243,117.9035,1048.1386,118.1425,1047.8996,114.7569,1046.172,120.408" style="stroke:#181818;stroke-width:0.6;"/></g><!--link moduleChangeListener to nodeSynchronizer--><g id="link_moduleChangeListener_nodeSynchronizer"><path codeLine="109" d="M1101.336,84.6 C1110.63,95.196 1121.0421,107.0576 1130.3781,117.7016 " fill="none" id="moduleChangeListener-to-nodeSynchronizer" style="stroke:#181818;stroke-width:0.6;"/><polygon fill="#181818" points="1132.752,120.408,1130.9955,114.7658,1130.7738,118.1526,1127.3869,117.9309,1132.752,120.408" style="stroke:#181818;stroke-width:0.6;"/></g><!--link moduleChangeListener to mpsToModelixSynchronizationException--><g id="link_moduleChangeListener_mpsToModelixSynchronizationException"><path codeLine="110" d="M1142.43,77.028 C1219.608,86.142 1367.112,103.854 1492.428,120.6 C1495.932,121.068 1495.9409,121.0681 1499.5529,121.5601 " fill="none" id="moduleChangeListener-to-mpsToModelixSynchronizationException" style="stroke:#181818;stroke-width:0.6;stroke-dasharray:7.0,7.0;"/><polygon fill="#181818" points="1503.12,122.046,1498.0933,118.9391,1500.1474,121.6411,1497.4455,123.6952,1503.12,122.046" style="stroke:#181818;stroke-width:0.6;"/></g><!--link modelChangeListener to serviceLocator--><g id="link_modelChangeListener_serviceLocator"><path codeLine="112" d="M541.488,84.786 C571.266,109.482 630.0551,158.2497 659.8151,182.9337 " fill="none" id="modelChangeListener-to-serviceLocator" style="stroke:#181818;stroke-width:0.6;stroke-dasharray:7.0,7.0;"/><polygon fill="#181818" points="662.586,185.232,659.9618,179.9373,660.2769,183.3168,656.8975,183.6318,662.586,185.232" style="stroke:#181818;stroke-width:0.6;"/></g><!--link modelChangeListener to modelBinding--><g id="link_modelChangeListener_modelBinding"><path codeLine="113" d="M473.802,74.964 C359.334,84.54 90.066,108.24 74.628,120.6 C45.792,143.682 47.628,162.264 47.628,199.2 C47.628,199.2 47.628,199.2 47.628,265.2 C47.628,302.136 45.546,321.03 74.628,343.8 C85.044,351.954 475.486,381.6681 596.836,390.7221 " fill="none" id="modelChangeListener-to-modelBinding" style="stroke:#181818;stroke-width:0.6;"/><polygon fill="#181818" points="600.426,390.99,595.2195,388.1949,597.4343,390.7668,594.8624,392.9816,600.426,390.99" style="stroke:#181818;stroke-width:0.6;"/></g><!--link modelChangeListener to nodeMap--><g id="link_modelChangeListener_nodeMap"><path codeLine="114" d="M533.076,84.642 C549.15,110.694 585.678,168.516 620.628,214.2 C643.824,244.524 650.814,251.238 677.028,279 C688.836,291.504 700.2474,302.6331 710.5974,312.4611 " fill="none" id="modelChangeListener-to-nodeMap" style="stroke:#181818;stroke-width:0.6;stroke-dasharray:7.0,7.0;"/><polygon fill="#181818" points="713.208,314.94,710.9448,309.4813,711.0325,312.8742,707.6396,312.962,713.208,314.94" style="stroke:#181818;stroke-width:0.6;"/></g><!--link modelChangeListener to futuresWaitQueue--><g id="link_modelChangeListener_futuresWaitQueue"><path codeLine="115" d="M473.73,75.03 C359.022,85.956 90.228,120.018 90.228,199.2 C90.228,199.2 90.228,199.2 90.228,265.2 C90.228,310.308 114.288,323.22 154.428,343.8 C171.528,352.566 746.1407,382.5619 913.4867,391.1299 " fill="none" id="modelChangeListener-to-futuresWaitQueue" style="stroke:#181818;stroke-width:0.6;"/><polygon fill="#181818" points="917.082,391.314,911.8118,388.641,914.0859,391.1606,911.5663,393.4347,917.082,391.314" style="stroke:#181818;stroke-width:0.6;"/></g><!--link modelChangeListener to projectLifecycleTracker--><g id="link_modelChangeListener_projectLifecycleTracker"><path codeLine="116" d="M473.892,81.6 C398.478,100.734 259.566,148.554 202.428,250.2 C190.908,270.696 199.7497,295.1845 208.2097,311.6365 " fill="none" id="modelChangeListener-to-projectLifecycleTracker" style="stroke:#181818;stroke-width:0.6;"/><polygon fill="#181818" points="209.856,314.838,209.5209,308.9382,208.4841,312.1701,205.2522,311.1333,209.856,314.838" style="stroke:#181818;stroke-width:0.6;"/></g><!--link modelChangeListener to modelSynchronizer--><g id="link_modelChangeListener_modelSynchronizer"><path codeLine="117" d="M575.442,77.364 C594.162,79.728 615.552,82.362 635.028,84.6 C787.128,102.096 826.788,94.344 977.628,120.6 C981.15,121.212 981.2635,121.1772 984.9055,121.9452 " fill="none" id="modelChangeListener-to-modelSynchronizer" style="stroke:#181818;stroke-width:0.6;"/><polygon fill="#181818" points="988.428,122.688,983.6394,119.2254,985.4926,122.069,982.649,123.9221,988.428,122.688" style="stroke:#181818;stroke-width:0.6;"/></g><!--link modelChangeListener to nodeSynchronizer--><g id="link_modelChangeListener_nodeSynchronizer"><path codeLine="118" d="M575.412,77.64 C594.132,80.028 615.522,82.608 635.028,84.6 C836.748,105.18 889.716,87.9 1089.828,120.6 C1093.434,121.188 1093.6306,121.1572 1097.3506,121.9372 " fill="none" id="modelChangeListener-to-nodeSynchronizer" style="stroke:#181818;stroke-width:0.6;"/><polygon fill="#181818" points="1100.874,122.676,1096.0814,119.2189,1097.9378,122.0604,1095.0964,123.9168,1100.874,122.676" style="stroke:#181818;stroke-width:0.6;"/></g><!--link nodeChangeListener to serviceLocator--><g id="link_nodeChangeListener_serviceLocator"><path codeLine="120" d="M693.33,84.786 C690.33,109.482 684.5603,156.9743 681.5603,181.6583 " fill="none" id="nodeChangeListener-to-serviceLocator" style="stroke:#181818;stroke-width:0.6;stroke-dasharray:7.0,7.0;"/><polygon fill="#181818" points="681.126,185.232,684.16,180.161,681.4879,182.2539,679.395,179.5819,681.126,185.232" style="stroke:#181818;stroke-width:0.6;"/></g><!--link nodeChangeListener to nodeSynchronizer--><g id="link_nodeChangeListener_nodeSynchronizer"><path codeLine="121" d="M744.252,75.102 C819.24,82.086 966.414,97.476 1089.828,120.6 C1093.422,121.272 1093.6091,121.2621 1097.3231,122.0841 " fill="none" id="nodeChangeListener-to-nodeSynchronizer" style="stroke:#181818;stroke-width:0.6;"/><polygon fill="#181818" points="1100.838,122.862,1096.0842,119.3518,1097.9089,122.2137,1095.047,124.0384,1100.838,122.862" style="stroke:#181818;stroke-width:0.6;"/></g><!--link nodeChangeListener to nodeMap--><g id="link_nodeChangeListener_nodeMap"><path codeLine="122" d="M680.508,84.636 C655.266,110.448 608.106,167.55 631.428,214.2 C643.35,238.05 661.434,230.52 679.428,250.2 C697.83,270.33 711.6133,295.1644 719.8813,311.7424 " fill="none" id="nodeChangeListener-to-nodeMap" style="stroke:#181818;stroke-width:0.6;stroke-dasharray:7.0,7.0;"/><polygon fill="#181818" points="721.488,314.964,721.2257,309.0605,720.1491,312.2794,716.9302,311.2028,721.488,314.964" style="stroke:#181818;stroke-width:0.6;"/></g><!--SRC=[bLZ1Rjim3BtxAunS0XH8Fc0O2cn51mH8YoqhiBFYCAasMp8afMY6VVmSnx8jaPJTKnloaH8VgMVPoqVbf9DWbrbH2clpnGvgRQNJvlBmAjG9jj8wK60MkR2vOPm- -4aVpYKGWHNX60L1ISV4TX_otBY828NCMIQL0tCK1UIBpLUf3bATMgpiVWIx60EgaI6iBq8Dbd0rzHiA9_Ob_0Jp9WkuBHjRVUhkvrONek6tnTh0v87TMdO7fwP8SscX-yZOPxseuiSPphV5hV_btT_Excp0_XBI3QXZPEoBh-sBRccIxq-YxXbl_iz2WgwhlXgjvD-W_MDpG3k53wtZnYEqYepzRXvAVJximEhoxSfukzQcghLnRLp1kfa4EpY20TMric2SMIRsJGz4uV8kpSP1zQKq80wNqJuFju6WVG4_N6p5ECDk9A9fx-m27jyBg9tKAbL93vegASnMJQ4cYqJv9c3Z6PjCfoP0_Gn-D_fwuhVo2CMbAE6buVLFDxWrxSke4pUi8gxve-9c0BDikOEojJLgZtGe__nllSOwmk069M40I4GOd1SGniqovENx1Wkq6hd60XrgQdwtMjtZeYdGK37bHULI85yhvUCAZR1DGVW9aiK5t586fB2GuEb5d-26oDMA5vkfA4vaflGYlUmmrxFpJ9t_UOccJpv-skNj18MFSm9rvxiMFCsuTFr0CW0qammEZJ-3y-DBkDVh- -52nVZvIVXeG4Xro5RB8ReGO1ZT40eqffdmKomJC8fa0ZRYEF9sZ0mdcYuzSQT9v6IwyW7ug2Sn-srSn3N2X5IJRiyDSX9r3vSnSZVJPxZV2ztaZ7iJeefbiIdXJmQXQKgYqN58RZvy9YIX_UsVUhsZc21nM5i8GAns18JHkpdqiKYkEsm0yQQJmf9IFwU5BEFpheB4kpNJBmH3LmikLw1bC_j50XDDu7U7zNyEhHd-XC39rvnqJBR-t2oVjRj-Ur7DdzpfEjT7zXlBfzmwqSZu64jD0OEBwwTWUBiUzHy0]--></g></svg>
