<svg xmlns="http://www.w3.org/2000/svg" xmlns:xlink="http://www.w3.org/1999/xlink" contentStyleType="text/css" height="602px" preserveAspectRatio="none" style="width:1562px;height:602px;background:#FFFFFF;" version="1.1" viewBox="0 0 1562 602" width="1562px" zoomAndPan="magnify"><defs/><g><!--class injectableService--><g id="elem_injectableService"><rect codeLine="2" fill="#F1F1F1" height="48" id="injectableService" rx="2.5" ry="2.5" style="stroke:#181818;stroke-width:0.5;" width="138.6133" x="64.54" y="115"/><ellipse cx="79.54" cy="131" fill="#B4A7E5" rx="11" ry="11" style="stroke:#181818;stroke-width:1.0;"/><path d="M80.4931,127.6406 L80.4931,134.2969 L82.2119,134.2969 Q82.8212,134.2969 83.0869,134.5313 Q83.3525,134.7656 83.3525,135.1563 Q83.3525,135.5313 83.0869,135.7656 Q82.8212,136 82.2119,136 L77.0712,136 Q76.4619,136 76.1962,135.7656 Q75.9306,135.5313 75.9306,135.1406 Q75.9306,134.7656 76.1962,134.5313 Q76.4619,134.2969 77.0712,134.2969 L78.79,134.2969 L78.79,127.6406 L77.0712,127.6406 Q76.4619,127.6406 76.1962,127.4063 Q75.9306,127.1719 75.9306,126.7813 Q75.9306,126.4063 76.1962,126.1719 Q76.4619,125.9375 77.0712,125.9375 L82.2119,125.9375 Q82.8212,125.9375 83.0869,126.1719 Q83.3525,126.4063 83.3525,126.7813 Q83.3525,127.1719 83.0869,127.4063 Q82.8212,127.6406 82.2119,127.6406 L80.4931,127.6406 Z " fill="#000000"/><text fill="#000000" font-family="sans-serif" font-size="14" font-style="italic" lengthAdjust="spacing" textLength="106.6133" x="93.54" y="136.7969">InjectableService</text><line style="stroke:#181818;stroke-width:0.5;" x1="65.54" x2="202.1533" y1="147" y2="147"/><line style="stroke:#181818;stroke-width:0.5;" x1="65.54" x2="202.1533" y1="155" y2="155"/></g><!--class serviceLocator--><g id="elem_serviceLocator"><rect codeLine="3" fill="#F1F1F1" height="48" id="serviceLocator" rx="2.5" ry="2.5" style="stroke:#181818;stroke-width:0.5;" width="125.3789" x="132.54" y="7"/><ellipse cx="147.54" cy="23" fill="#ADD1B2" rx="11" ry="11" style="stroke:#181818;stroke-width:1.0;"/><path d="M150.3056,18.875 Q150.4619,18.6563 150.6494,18.5469 Q150.8369,18.4375 151.0556,18.4375 Q151.4306,18.4375 151.665,18.7031 Q151.8994,18.9531 151.8994,19.5625 L151.8994,21.0156 Q151.8994,21.625 151.665,21.8906 Q151.4306,22.1563 151.0556,22.1563 Q150.7119,22.1563 150.5088,21.9531 Q150.3056,21.7656 150.1963,21.25 Q150.1494,20.8906 149.9619,20.7031 Q149.6338,20.3281 149.0244,20.1094 Q148.415,19.8906 147.79,19.8906 Q147.0244,19.8906 146.3838,20.2188 Q145.7588,20.5469 145.2588,21.2969 Q144.7744,22.0469 144.7744,23.0781 L144.7744,24.1719 Q144.7744,25.4063 145.665,26.2344 Q146.5556,27.0469 148.1494,27.0469 Q149.0869,27.0469 149.7431,26.7969 Q150.1338,26.6406 150.5556,26.2031 Q150.8213,25.9375 150.9619,25.8594 Q151.1181,25.7813 151.3213,25.7813 Q151.6494,25.7813 151.8994,26.0469 Q152.165,26.2969 152.165,26.6406 Q152.165,26.9844 151.8213,27.3906 Q151.3213,27.9688 150.5244,28.2969 Q149.4463,28.75 148.1494,28.75 Q146.6338,28.75 145.4306,28.125 Q144.4463,27.625 143.7588,26.5625 Q143.0713,25.4844 143.0713,24.2031 L143.0713,23.0469 Q143.0713,21.7188 143.6806,20.5781 Q144.3056,19.4219 145.3994,18.8125 Q146.4931,18.1875 147.7275,18.1875 Q148.4619,18.1875 149.1025,18.3594 Q149.7588,18.5156 150.3056,18.875 Z " fill="#000000"/><text fill="#000000" font-family="sans-serif" font-size="14" lengthAdjust="spacing" textLength="93.3789" x="161.54" y="28.7969">ServiceLocator</text><line style="stroke:#181818;stroke-width:0.5;" x1="133.54" x2="256.9189" y1="39" y2="39"/><line style="stroke:#181818;stroke-width:0.5;" x1="133.54" x2="256.9189" y1="47" y2="47"/></g><!--class syncQueue--><g id="elem_syncQueue"><rect codeLine="4" fill="#F1F1F1" height="48" id="syncQueue" rx="2.5" ry="2.5" style="stroke:#181818;stroke-width:0.5;" width="105.1582" x="496.54" y="223"/><ellipse cx="511.54" cy="239" fill="#ADD1B2" rx="11" ry="11" style="stroke:#181818;stroke-width:1.0;"/><path d="M514.3056,234.875 Q514.4619,234.6563 514.6494,234.5469 Q514.8369,234.4375 515.0556,234.4375 Q515.4306,234.4375 515.665,234.7031 Q515.8994,234.9531 515.8994,235.5625 L515.8994,237.0156 Q515.8994,237.625 515.665,237.8906 Q515.4306,238.1563 515.0556,238.1563 Q514.7119,238.1563 514.5088,237.9531 Q514.3056,237.7656 514.1963,237.25 Q514.1494,236.8906 513.9619,236.7031 Q513.6338,236.3281 513.0244,236.1094 Q512.415,235.8906 511.79,235.8906 Q511.0244,235.8906 510.3838,236.2188 Q509.7588,236.5469 509.2588,237.2969 Q508.7744,238.0469 508.7744,239.0781 L508.7744,240.1719 Q508.7744,241.4063 509.665,242.2344 Q510.5556,243.0469 512.1494,243.0469 Q513.0869,243.0469 513.7431,242.7969 Q514.1338,242.6406 514.5556,242.2031 Q514.8213,241.9375 514.9619,241.8594 Q515.1181,241.7813 515.3213,241.7813 Q515.6494,241.7813 515.8994,242.0469 Q516.165,242.2969 516.165,242.6406 Q516.165,242.9844 515.8213,243.3906 Q515.3213,243.9688 514.5244,244.2969 Q513.4463,244.75 512.1494,244.75 Q510.6338,244.75 509.4306,244.125 Q508.4463,243.625 507.7588,242.5625 Q507.0713,241.4844 507.0713,240.2031 L507.0713,239.0469 Q507.0713,237.7188 507.6806,236.5781 Q508.3056,235.4219 509.3994,234.8125 Q510.4931,234.1875 511.7275,234.1875 Q512.4619,234.1875 513.1025,234.3594 Q513.7588,234.5156 514.3056,234.875 Z " fill="#000000"/><text fill="#000000" font-family="sans-serif" font-size="14" lengthAdjust="spacing" textLength="73.1582" x="525.54" y="244.7969">SyncQueue</text><line style="stroke:#181818;stroke-width:0.5;" x1="497.54" x2="600.6982" y1="255" y2="255"/><line style="stroke:#181818;stroke-width:0.5;" x1="497.54" x2="600.6982" y1="263" y2="263"/></g><!--class futuresWaitQueue--><g id="elem_futuresWaitQueue"><rect codeLine="5" fill="#F1F1F1" height="48" id="futuresWaitQueue" rx="2.5" ry="2.5" style="stroke:#181818;stroke-width:0.5;" width="149.4961" x="182.54" y="331"/><ellipse cx="197.54" cy="347" fill="#ADD1B2" rx="11" ry="11" style="stroke:#181818;stroke-width:1.0;"/><path d="M200.3056,342.875 Q200.4619,342.6563 200.6494,342.5469 Q200.8369,342.4375 201.0556,342.4375 Q201.4306,342.4375 201.665,342.7031 Q201.8994,342.9531 201.8994,343.5625 L201.8994,345.0156 Q201.8994,345.625 201.665,345.8906 Q201.4306,346.1563 201.0556,346.1563 Q200.7119,346.1563 200.5088,345.9531 Q200.3056,345.7656 200.1963,345.25 Q200.1494,344.8906 199.9619,344.7031 Q199.6338,344.3281 199.0244,344.1094 Q198.415,343.8906 197.79,343.8906 Q197.0244,343.8906 196.3838,344.2188 Q195.7588,344.5469 195.2588,345.2969 Q194.7744,346.0469 194.7744,347.0781 L194.7744,348.1719 Q194.7744,349.4063 195.665,350.2344 Q196.5556,351.0469 198.1494,351.0469 Q199.0869,351.0469 199.7431,350.7969 Q200.1338,350.6406 200.5556,350.2031 Q200.8213,349.9375 200.9619,349.8594 Q201.1181,349.7813 201.3213,349.7813 Q201.6494,349.7813 201.8994,350.0469 Q202.165,350.2969 202.165,350.6406 Q202.165,350.9844 201.8213,351.3906 Q201.3213,351.9688 200.5244,352.2969 Q199.4463,352.75 198.1494,352.75 Q196.6338,352.75 195.4306,352.125 Q194.4463,351.625 193.7588,350.5625 Q193.0713,349.4844 193.0713,348.2031 L193.0713,347.0469 Q193.0713,345.7188 193.6806,344.5781 Q194.3056,343.4219 195.3994,342.8125 Q196.4931,342.1875 197.7275,342.1875 Q198.4619,342.1875 199.1025,342.3594 Q199.7588,342.5156 200.3056,342.875 Z " fill="#000000"/><text fill="#000000" font-family="sans-serif" font-size="14" lengthAdjust="spacing" textLength="117.4961" x="211.54" y="352.7969">FuturesWaitQueue</text><line style="stroke:#181818;stroke-width:0.5;" x1="183.54" x2="331.0361" y1="363" y2="363"/><line style="stroke:#181818;stroke-width:0.5;" x1="183.54" x2="331.0361" y1="371" y2="371"/></g><!--class branchRegistry--><g id="elem_branchRegistry"><rect codeLine="6" fill="#F1F1F1" height="48" id="branchRegistry" rx="2.5" ry="2.5" style="stroke:#181818;stroke-width:0.5;" width="127.7031" x="19.04" y="331"/><ellipse cx="34.04" cy="347" fill="#ADD1B2" rx="11" ry="11" style="stroke:#181818;stroke-width:1.0;"/><path d="M36.8056,342.875 Q36.9619,342.6563 37.1494,342.5469 Q37.3369,342.4375 37.5556,342.4375 Q37.9306,342.4375 38.165,342.7031 Q38.3994,342.9531 38.3994,343.5625 L38.3994,345.0156 Q38.3994,345.625 38.165,345.8906 Q37.9306,346.1563 37.5556,346.1563 Q37.2119,346.1563 37.0088,345.9531 Q36.8056,345.7656 36.6963,345.25 Q36.6494,344.8906 36.4619,344.7031 Q36.1338,344.3281 35.5244,344.1094 Q34.915,343.8906 34.29,343.8906 Q33.5244,343.8906 32.8838,344.2188 Q32.2588,344.5469 31.7588,345.2969 Q31.2744,346.0469 31.2744,347.0781 L31.2744,348.1719 Q31.2744,349.4063 32.165,350.2344 Q33.0556,351.0469 34.6494,351.0469 Q35.5869,351.0469 36.2431,350.7969 Q36.6338,350.6406 37.0556,350.2031 Q37.3213,349.9375 37.4619,349.8594 Q37.6181,349.7813 37.8213,349.7813 Q38.1494,349.7813 38.3994,350.0469 Q38.665,350.2969 38.665,350.6406 Q38.665,350.9844 38.3213,351.3906 Q37.8213,351.9688 37.0244,352.2969 Q35.9463,352.75 34.6494,352.75 Q33.1338,352.75 31.9306,352.125 Q30.9463,351.625 30.2588,350.5625 Q29.5713,349.4844 29.5713,348.2031 L29.5713,347.0469 Q29.5713,345.7188 30.1806,344.5781 Q30.8056,343.4219 31.8994,342.8125 Q32.9931,342.1875 34.2275,342.1875 Q34.9619,342.1875 35.6025,342.3594 Q36.2588,342.5156 36.8056,342.875 Z " fill="#000000"/><text fill="#000000" font-family="sans-serif" font-size="14" lengthAdjust="spacing" textLength="95.7031" x="48.04" y="352.7969">BranchRegistry</text><line style="stroke:#181818;stroke-width:0.5;" x1="20.04" x2="145.7431" y1="363" y2="363"/><line style="stroke:#181818;stroke-width:0.5;" x1="20.04" x2="145.7431" y1="371" y2="371"/></g><!--class syncTask--><g id="elem_syncTask"><rect codeLine="8" fill="#F1F1F1" height="48" id="syncTask" rx="2.5" ry="2.5" style="stroke:#181818;stroke-width:0.5;" width="93.4619" x="623.54" y="331"/><ellipse cx="638.54" cy="347" fill="#ADD1B2" rx="11" ry="11" style="stroke:#181818;stroke-width:1.0;"/><path d="M641.3056,342.875 Q641.4619,342.6563 641.6494,342.5469 Q641.8369,342.4375 642.0556,342.4375 Q642.4306,342.4375 642.665,342.7031 Q642.8994,342.9531 642.8994,343.5625 L642.8994,345.0156 Q642.8994,345.625 642.665,345.8906 Q642.4306,346.1563 642.0556,346.1563 Q641.7119,346.1563 641.5088,345.9531 Q641.3056,345.7656 641.1963,345.25 Q641.1494,344.8906 640.9619,344.7031 Q640.6338,344.3281 640.0244,344.1094 Q639.415,343.8906 638.79,343.8906 Q638.0244,343.8906 637.3838,344.2188 Q636.7588,344.5469 636.2588,345.2969 Q635.7744,346.0469 635.7744,347.0781 L635.7744,348.1719 Q635.7744,349.4063 636.665,350.2344 Q637.5556,351.0469 639.1494,351.0469 Q640.0869,351.0469 640.7431,350.7969 Q641.1338,350.6406 641.5556,350.2031 Q641.8213,349.9375 641.9619,349.8594 Q642.1181,349.7813 642.3213,349.7813 Q642.6494,349.7813 642.8994,350.0469 Q643.165,350.2969 643.165,350.6406 Q643.165,350.9844 642.8213,351.3906 Q642.3213,351.9688 641.5244,352.2969 Q640.4463,352.75 639.1494,352.75 Q637.6338,352.75 636.4306,352.125 Q635.4463,351.625 634.7588,350.5625 Q634.0713,349.4844 634.0713,348.2031 L634.0713,347.0469 Q634.0713,345.7188 634.6806,344.5781 Q635.3056,343.4219 636.3994,342.8125 Q637.4931,342.1875 638.7275,342.1875 Q639.4619,342.1875 640.1025,342.3594 Q640.7588,342.5156 641.3056,342.875 Z " fill="#000000"/><text fill="#000000" font-family="sans-serif" font-size="14" lengthAdjust="spacing" textLength="61.4619" x="652.54" y="352.7969">SyncTask</text><line style="stroke:#181818;stroke-width:0.5;" x1="624.54" x2="716.0019" y1="363" y2="363"/><line style="stroke:#181818;stroke-width:0.5;" x1="624.54" x2="716.0019" y1="371" y2="371"/></g><!--class continuableSyncTask--><g id="elem_continuableSyncTask"><rect codeLine="9" fill="#F1F1F1" height="48" id="continuableSyncTask" rx="2.5" ry="2.5" style="stroke:#181818;stroke-width:0.5;" width="168.1855" x="586.04" y="115"/><ellipse cx="601.04" cy="131" fill="#ADD1B2" rx="11" ry="11" style="stroke:#181818;stroke-width:1.0;"/><path d="M603.8056,126.875 Q603.9619,126.6563 604.1494,126.5469 Q604.3369,126.4375 604.5556,126.4375 Q604.9306,126.4375 605.165,126.7031 Q605.3994,126.9531 605.3994,127.5625 L605.3994,129.0156 Q605.3994,129.625 605.165,129.8906 Q604.9306,130.1563 604.5556,130.1563 Q604.2119,130.1563 604.0088,129.9531 Q603.8056,129.7656 603.6963,129.25 Q603.6494,128.8906 603.4619,128.7031 Q603.1338,128.3281 602.5244,128.1094 Q601.915,127.8906 601.29,127.8906 Q600.5244,127.8906 599.8838,128.2188 Q599.2588,128.5469 598.7588,129.2969 Q598.2744,130.0469 598.2744,131.0781 L598.2744,132.1719 Q598.2744,133.4063 599.165,134.2344 Q600.0556,135.0469 601.6494,135.0469 Q602.5869,135.0469 603.2431,134.7969 Q603.6338,134.6406 604.0556,134.2031 Q604.3213,133.9375 604.4619,133.8594 Q604.6181,133.7813 604.8213,133.7813 Q605.1494,133.7813 605.3994,134.0469 Q605.665,134.2969 605.665,134.6406 Q605.665,134.9844 605.3213,135.3906 Q604.8213,135.9688 604.0244,136.2969 Q602.9463,136.75 601.6494,136.75 Q600.1338,136.75 598.9306,136.125 Q597.9463,135.625 597.2588,134.5625 Q596.5713,133.4844 596.5713,132.2031 L596.5713,131.0469 Q596.5713,129.7188 597.1806,128.5781 Q597.8056,127.4219 598.8994,126.8125 Q599.9931,126.1875 601.2275,126.1875 Q601.9619,126.1875 602.6025,126.3594 Q603.2588,126.5156 603.8056,126.875 Z " fill="#000000"/><text fill="#000000" font-family="sans-serif" font-size="14" lengthAdjust="spacing" textLength="136.1855" x="615.04" y="136.7969">ContinuableSyncTask</text><line style="stroke:#181818;stroke-width:0.5;" x1="587.04" x2="753.2255" y1="147" y2="147"/><line style="stroke:#181818;stroke-width:0.5;" x1="587.04" x2="753.2255" y1="155" y2="155"/></g><!--class syncDirection--><g id="elem_syncDirection"><rect codeLine="11" fill="#F1F1F1" height="48" id="syncDirection" rx="2.5" ry="2.5" style="stroke:#181818;stroke-width:0.5;" width="118.3652" x="438.04" y="439"/><ellipse cx="453.04" cy="455" fill="#EB937F" rx="11" ry="11" style="stroke:#181818;stroke-width:1.0;"/><path d="M451.8994,455.7969 L451.8994,458.2969 L456.2275,458.2969 L456.2275,457.375 Q456.2275,456.7656 456.4619,456.5 Q456.7119,456.2344 457.0869,456.2344 Q457.4619,456.2344 457.6963,456.5 Q457.9306,456.7656 457.9306,457.375 L457.9306,460 L449.9306,460 Q449.3056,460 449.04,459.7656 Q448.79,459.5313 448.79,459.1406 Q448.79,458.7656 449.0556,458.5313 Q449.3213,458.2969 449.9306,458.2969 L450.1963,458.2969 L450.1963,451.6406 L449.9306,451.6406 Q449.3056,451.6406 449.04,451.4063 Q448.79,451.1719 448.79,450.7813 Q448.79,450.4063 449.04,450.1719 Q449.3056,449.9375 449.9306,449.9375 L457.5556,449.9375 L457.5556,452.5313 Q457.5556,453.1406 457.3213,453.4063 Q457.1025,453.6563 456.7119,453.6563 Q456.3369,453.6563 456.1025,453.4063 Q455.8681,453.1406 455.8681,452.5313 L455.8681,451.6406 L451.8994,451.6406 L451.8994,454.0938 L453.3838,454.0938 Q453.3838,453.4375 453.5088,453.25 Q453.7744,452.8438 454.2431,452.8438 Q454.6181,452.8438 454.8525,453.1094 Q455.0869,453.3594 455.0869,453.9688 L455.0869,455.9375 Q455.0869,456.4844 454.9619,456.6719 Q454.6963,457.0625 454.2431,457.0625 Q453.7744,457.0625 453.5088,456.6563 Q453.3838,456.4688 453.3838,455.7969 L451.8994,455.7969 Z " fill="#000000"/><text fill="#000000" font-family="sans-serif" font-size="14" lengthAdjust="spacing" textLength="86.3652" x="467.04" y="460.7969">SyncDirection</text><line style="stroke:#181818;stroke-width:0.5;" x1="439.04" x2="555.4052" y1="471" y2="471"/><line style="stroke:#181818;stroke-width:0.5;" x1="439.04" x2="555.4052" y1="479" y2="479"/></g><!--class syncLock--><g id="elem_syncLock"><rect codeLine="12" fill="#F1F1F1" height="48" id="syncLock" rx="2.5" ry="2.5" style="stroke:#181818;stroke-width:0.5;" width="92.6963" x="696.54" y="547"/><ellipse cx="711.54" cy="563" fill="#EB937F" rx="11" ry="11" style="stroke:#181818;stroke-width:1.0;"/><path d="M710.3994,563.7969 L710.3994,566.2969 L714.7275,566.2969 L714.7275,565.375 Q714.7275,564.7656 714.9619,564.5 Q715.2119,564.2344 715.5869,564.2344 Q715.9619,564.2344 716.1963,564.5 Q716.4306,564.7656 716.4306,565.375 L716.4306,568 L708.4306,568 Q707.8056,568 707.54,567.7656 Q707.29,567.5313 707.29,567.1406 Q707.29,566.7656 707.5556,566.5313 Q707.8213,566.2969 708.4306,566.2969 L708.6963,566.2969 L708.6963,559.6406 L708.4306,559.6406 Q707.8056,559.6406 707.54,559.4063 Q707.29,559.1719 707.29,558.7813 Q707.29,558.4063 707.54,558.1719 Q707.8056,557.9375 708.4306,557.9375 L716.0556,557.9375 L716.0556,560.5313 Q716.0556,561.1406 715.8213,561.4063 Q715.6025,561.6563 715.2119,561.6563 Q714.8369,561.6563 714.6025,561.4063 Q714.3681,561.1406 714.3681,560.5313 L714.3681,559.6406 L710.3994,559.6406 L710.3994,562.0938 L711.8838,562.0938 Q711.8838,561.4375 712.0088,561.25 Q712.2744,560.8438 712.7431,560.8438 Q713.1181,560.8438 713.3525,561.1094 Q713.5869,561.3594 713.5869,561.9688 L713.5869,563.9375 Q713.5869,564.4844 713.4619,564.6719 Q713.1963,565.0625 712.7431,565.0625 Q712.2744,565.0625 712.0088,564.6563 Q711.8838,564.4688 711.8838,563.7969 L710.3994,563.7969 Z " fill="#000000"/><text fill="#000000" font-family="sans-serif" font-size="14" lengthAdjust="spacing" textLength="60.6963" x="725.54" y="568.7969">SyncLock</text><line style="stroke:#181818;stroke-width:0.5;" x1="697.54" x2="788.2363" y1="579" y2="579"/><line style="stroke:#181818;stroke-width:0.5;" x1="697.54" x2="788.2363" y1="587" y2="587"/></g><!--class syncLockComparator--><g id="elem_syncLockComparator"><rect codeLine="13" fill="#F1F1F1" height="48" id="syncLockComparator" rx="2.5" ry="2.5" style="stroke:#181818;stroke-width:0.5;" width="166.6133" x="591.54" y="439"/><ellipse cx="606.54" cy="455" fill="#ADD1B2" rx="11" ry="11" style="stroke:#181818;stroke-width:1.0;"/><path d="M609.3056,450.875 Q609.4619,450.6563 609.6494,450.5469 Q609.8369,450.4375 610.0556,450.4375 Q610.4306,450.4375 610.665,450.7031 Q610.8994,450.9531 610.8994,451.5625 L610.8994,453.0156 Q610.8994,453.625 610.665,453.8906 Q610.4306,454.1563 610.0556,454.1563 Q609.7119,454.1563 609.5088,453.9531 Q609.3056,453.7656 609.1963,453.25 Q609.1494,452.8906 608.9619,452.7031 Q608.6338,452.3281 608.0244,452.1094 Q607.415,451.8906 606.79,451.8906 Q606.0244,451.8906 605.3838,452.2188 Q604.7588,452.5469 604.2588,453.2969 Q603.7744,454.0469 603.7744,455.0781 L603.7744,456.1719 Q603.7744,457.4063 604.665,458.2344 Q605.5556,459.0469 607.1494,459.0469 Q608.0869,459.0469 608.7431,458.7969 Q609.1338,458.6406 609.5556,458.2031 Q609.8213,457.9375 609.9619,457.8594 Q610.1181,457.7813 610.3213,457.7813 Q610.6494,457.7813 610.8994,458.0469 Q611.165,458.2969 611.165,458.6406 Q611.165,458.9844 610.8213,459.3906 Q610.3213,459.9688 609.5244,460.2969 Q608.4463,460.75 607.1494,460.75 Q605.6338,460.75 604.4306,460.125 Q603.4463,459.625 602.7588,458.5625 Q602.0713,457.4844 602.0713,456.2031 L602.0713,455.0469 Q602.0713,453.7188 602.6806,452.5781 Q603.3056,451.4219 604.3994,450.8125 Q605.4931,450.1875 606.7275,450.1875 Q607.4619,450.1875 608.1025,450.3594 Q608.7588,450.5156 609.3056,450.875 Z " fill="#000000"/><text fill="#000000" font-family="sans-serif" font-size="14" lengthAdjust="spacing" textLength="134.6133" x="620.54" y="460.7969">SyncLockComparator</text><line style="stroke:#181818;stroke-width:0.5;" x1="592.54" x2="757.1533" y1="471" y2="471"/><line style="stroke:#181818;stroke-width:0.5;" x1="592.54" x2="757.1533" y1="479" y2="479"/></g><!--class synchronizationException--><g id="elem_synchronizationException"><rect codeLine="15" fill="#F1F1F1" height="48" id="synchronizationException" rx="2.5" ry="2.5" style="stroke:#181818;stroke-width:0.5;" width="193.0957" x="956.54" y="223"/><ellipse cx="971.54" cy="239" fill="#A9DCDF" rx="11" ry="11" style="stroke:#181818;stroke-width:1.0;"/><path d="M973.7275,240.7656 L969.5869,240.7656 L969.165,241.7969 L969.5869,241.7969 Q970.1963,241.7969 970.4619,242.0313 Q970.7275,242.2656 970.7275,242.6563 Q970.7275,243.0313 970.4619,243.2656 Q970.1963,243.5 969.5869,243.5 L967.29,243.5 Q966.6806,243.5 966.4306,243.2656 Q966.165,243.0313 966.165,242.6406 Q966.165,242.2656 966.4463,242.0313 Q966.7119,241.7813 967.3369,241.7969 L970.0088,235.1406 L968.8994,235.1406 Q968.29,235.1406 968.0244,234.9063 Q967.7588,234.6719 967.7588,234.2813 Q967.7588,233.9063 968.0244,233.6719 Q968.29,233.4375 968.8994,233.4375 L972.5713,233.4375 L975.9619,241.7969 Q976.5556,241.7969 976.7431,241.9375 Q977.1338,242.2031 977.1338,242.6563 Q977.1338,243.0313 976.8681,243.2656 Q976.6181,243.5 976.0088,243.5 L973.7119,243.5 Q973.1025,243.5 972.8369,243.2656 Q972.5713,243.0313 972.5713,242.6406 Q972.5713,242.2656 972.8369,242.0313 Q973.1025,241.7969 973.7119,241.7969 L974.1338,241.7969 L973.7275,240.7656 Z M973.0088,239.0625 L971.6494,235.6875 L970.2744,239.0625 L973.0088,239.0625 Z " fill="#000000"/><text fill="#000000" font-family="sans-serif" font-size="14" font-style="italic" lengthAdjust="spacing" textLength="161.0957" x="985.54" y="244.7969">SynchronizationException</text><line style="stroke:#181818;stroke-width:0.5;" x1="957.54" x2="1148.6357" y1="255" y2="255"/><line style="stroke:#181818;stroke-width:0.5;" x1="957.54" x2="1148.6357" y1="263" y2="263"/></g><!--class mpsToModelixSynchronizationException--><g id="elem_mpsToModelixSynchronizationException"><rect codeLine="16" fill="#F1F1F1" height="48" id="mpsToModelixSynchronizationException" rx="2.5" ry="2.5" style="stroke:#181818;stroke-width:0.5;" width="284.123" x="1071.04" y="331"/><ellipse cx="1086.04" cy="347" fill="#ADD1B2" rx="11" ry="11" style="stroke:#181818;stroke-width:1.0;"/><path d="M1088.8056,342.875 Q1088.9619,342.6563 1089.1494,342.5469 Q1089.3369,342.4375 1089.5556,342.4375 Q1089.9306,342.4375 1090.165,342.7031 Q1090.3994,342.9531 1090.3994,343.5625 L1090.3994,345.0156 Q1090.3994,345.625 1090.165,345.8906 Q1089.9306,346.1563 1089.5556,346.1563 Q1089.2119,346.1563 1089.0088,345.9531 Q1088.8056,345.7656 1088.6963,345.25 Q1088.6494,344.8906 1088.4619,344.7031 Q1088.1338,344.3281 1087.5244,344.1094 Q1086.915,343.8906 1086.29,343.8906 Q1085.5244,343.8906 1084.8838,344.2188 Q1084.2588,344.5469 1083.7588,345.2969 Q1083.2744,346.0469 1083.2744,347.0781 L1083.2744,348.1719 Q1083.2744,349.4063 1084.165,350.2344 Q1085.0556,351.0469 1086.6494,351.0469 Q1087.5869,351.0469 1088.2431,350.7969 Q1088.6338,350.6406 1089.0556,350.2031 Q1089.3213,349.9375 1089.4619,349.8594 Q1089.6181,349.7813 1089.8213,349.7813 Q1090.1494,349.7813 1090.3994,350.0469 Q1090.665,350.2969 1090.665,350.6406 Q1090.665,350.9844 1090.3213,351.3906 Q1089.8213,351.9688 1089.0244,352.2969 Q1087.9463,352.75 1086.6494,352.75 Q1085.1338,352.75 1083.9306,352.125 Q1082.9463,351.625 1082.2588,350.5625 Q1081.5713,349.4844 1081.5713,348.2031 L1081.5713,347.0469 Q1081.5713,345.7188 1082.1806,344.5781 Q1082.8056,343.4219 1083.8994,342.8125 Q1084.9931,342.1875 1086.2275,342.1875 Q1086.9619,342.1875 1087.6025,342.3594 Q1088.2588,342.5156 1088.8056,342.875 Z " fill="#000000"/><text fill="#000000" font-family="sans-serif" font-size="14" lengthAdjust="spacing" textLength="252.123" x="1100.04" y="352.7969">MpsToModelixSynchronizationException</text><line style="stroke:#181818;stroke-width:0.5;" x1="1072.04" x2="1354.163" y1="363" y2="363"/><line style="stroke:#181818;stroke-width:0.5;" x1="1072.04" x2="1354.163" y1="371" y2="371"/></g><!--class modelixToMpsSynchronizationException--><g id="elem_modelixToMpsSynchronizationException"><rect codeLine="17" fill="#F1F1F1" height="48" id="modelixToMpsSynchronizationException" rx="2.5" ry="2.5" style="stroke:#181818;stroke-width:0.5;" width="284.123" x="752.04" y="331"/><ellipse cx="767.04" cy="347" fill="#ADD1B2" rx="11" ry="11" style="stroke:#181818;stroke-width:1.0;"/><path d="M769.8056,342.875 Q769.9619,342.6563 770.1494,342.5469 Q770.3369,342.4375 770.5556,342.4375 Q770.9306,342.4375 771.165,342.7031 Q771.3994,342.9531 771.3994,343.5625 L771.3994,345.0156 Q771.3994,345.625 771.165,345.8906 Q770.9306,346.1563 770.5556,346.1563 Q770.2119,346.1563 770.0088,345.9531 Q769.8056,345.7656 769.6963,345.25 Q769.6494,344.8906 769.4619,344.7031 Q769.1338,344.3281 768.5244,344.1094 Q767.915,343.8906 767.29,343.8906 Q766.5244,343.8906 765.8838,344.2188 Q765.2588,344.5469 764.7588,345.2969 Q764.2744,346.0469 764.2744,347.0781 L764.2744,348.1719 Q764.2744,349.4063 765.165,350.2344 Q766.0556,351.0469 767.6494,351.0469 Q768.5869,351.0469 769.2431,350.7969 Q769.6338,350.6406 770.0556,350.2031 Q770.3213,349.9375 770.4619,349.8594 Q770.6181,349.7813 770.8213,349.7813 Q771.1494,349.7813 771.3994,350.0469 Q771.665,350.2969 771.665,350.6406 Q771.665,350.9844 771.3213,351.3906 Q770.8213,351.9688 770.0244,352.2969 Q768.9463,352.75 767.6494,352.75 Q766.1338,352.75 764.9306,352.125 Q763.9463,351.625 763.2588,350.5625 Q762.5713,349.4844 762.5713,348.2031 L762.5713,347.0469 Q762.5713,345.7188 763.1806,344.5781 Q763.8056,343.4219 764.8994,342.8125 Q765.9931,342.1875 767.2275,342.1875 Q767.9619,342.1875 768.6025,342.3594 Q769.2588,342.5156 769.8056,342.875 Z " fill="#000000"/><text fill="#000000" font-family="sans-serif" font-size="14" lengthAdjust="spacing" textLength="252.123" x="781.04" y="352.7969">ModelixToMpsSynchronizationException</text><line style="stroke:#181818;stroke-width:0.5;" x1="753.04" x2="1035.163" y1="363" y2="363"/><line style="stroke:#181818;stroke-width:0.5;" x1="753.04" x2="1035.163" y1="371" y2="371"/></g><!--class futureWithPredecessors--><g id="elem_futureWithPredecessors"><rect codeLine="19" fill="#F1F1F1" height="48" id="futureWithPredecessors" rx="2.5" ry="2.5" style="stroke:#181818;stroke-width:0.5;" width="186.0547" x="146.04" y="439"/><ellipse cx="161.04" cy="455" fill="#ADD1B2" rx="11" ry="11" style="stroke:#181818;stroke-width:1.0;"/><path d="M163.8056,450.875 Q163.9619,450.6563 164.1494,450.5469 Q164.3369,450.4375 164.5556,450.4375 Q164.9306,450.4375 165.165,450.7031 Q165.3994,450.9531 165.3994,451.5625 L165.3994,453.0156 Q165.3994,453.625 165.165,453.8906 Q164.9306,454.1563 164.5556,454.1563 Q164.2119,454.1563 164.0088,453.9531 Q163.8056,453.7656 163.6963,453.25 Q163.6494,452.8906 163.4619,452.7031 Q163.1338,452.3281 162.5244,452.1094 Q161.915,451.8906 161.29,451.8906 Q160.5244,451.8906 159.8838,452.2188 Q159.2588,452.5469 158.7588,453.2969 Q158.2744,454.0469 158.2744,455.0781 L158.2744,456.1719 Q158.2744,457.4063 159.165,458.2344 Q160.0556,459.0469 161.6494,459.0469 Q162.5869,459.0469 163.2431,458.7969 Q163.6338,458.6406 164.0556,458.2031 Q164.3213,457.9375 164.4619,457.8594 Q164.6181,457.7813 164.8213,457.7813 Q165.1494,457.7813 165.3994,458.0469 Q165.665,458.2969 165.665,458.6406 Q165.665,458.9844 165.3213,459.3906 Q164.8213,459.9688 164.0244,460.2969 Q162.9463,460.75 161.6494,460.75 Q160.1338,460.75 158.9306,460.125 Q157.9463,459.625 157.2588,458.5625 Q156.5713,457.4844 156.5713,456.2031 L156.5713,455.0469 Q156.5713,453.7188 157.1806,452.5781 Q157.8056,451.4219 158.8994,450.8125 Q159.9931,450.1875 161.2275,450.1875 Q161.9619,450.1875 162.6025,450.3594 Q163.2588,450.5156 163.8056,450.875 Z " fill="#000000"/><text fill="#000000" font-family="sans-serif" font-size="14" lengthAdjust="spacing" textLength="154.0547" x="175.04" y="460.7969">FutureWithPredecessors</text><line style="stroke:#181818;stroke-width:0.5;" x1="147.04" x2="331.0947" y1="471" y2="471"/><line style="stroke:#181818;stroke-width:0.5;" x1="147.04" x2="331.0947" y1="479" y2="479"/></g><!--class fillableFuture--><g id="elem_fillableFuture"><rect codeLine="20" fill="#F1F1F1" height="48" id="fillableFuture" rx="2.5" ry="2.5" style="stroke:#181818;stroke-width:0.5;" width="116.8135" x="180.54" y="547"/><ellipse cx="195.54" cy="563" fill="#ADD1B2" rx="11" ry="11" style="stroke:#181818;stroke-width:1.0;"/><path d="M198.3056,558.875 Q198.4619,558.6563 198.6494,558.5469 Q198.8369,558.4375 199.0556,558.4375 Q199.4306,558.4375 199.665,558.7031 Q199.8994,558.9531 199.8994,559.5625 L199.8994,561.0156 Q199.8994,561.625 199.665,561.8906 Q199.4306,562.1563 199.0556,562.1563 Q198.7119,562.1563 198.5088,561.9531 Q198.3056,561.7656 198.1963,561.25 Q198.1494,560.8906 197.9619,560.7031 Q197.6338,560.3281 197.0244,560.1094 Q196.415,559.8906 195.79,559.8906 Q195.0244,559.8906 194.3838,560.2188 Q193.7588,560.5469 193.2588,561.2969 Q192.7744,562.0469 192.7744,563.0781 L192.7744,564.1719 Q192.7744,565.4063 193.665,566.2344 Q194.5556,567.0469 196.1494,567.0469 Q197.0869,567.0469 197.7431,566.7969 Q198.1338,566.6406 198.5556,566.2031 Q198.8213,565.9375 198.9619,565.8594 Q199.1181,565.7813 199.3213,565.7813 Q199.6494,565.7813 199.8994,566.0469 Q200.165,566.2969 200.165,566.6406 Q200.165,566.9844 199.8213,567.3906 Q199.3213,567.9688 198.5244,568.2969 Q197.4463,568.75 196.1494,568.75 Q194.6338,568.75 193.4306,568.125 Q192.4463,567.625 191.7588,566.5625 Q191.0713,565.4844 191.0713,564.2031 L191.0713,563.0469 Q191.0713,561.7188 191.6806,560.5781 Q192.3056,559.4219 193.3994,558.8125 Q194.4931,558.1875 195.7275,558.1875 Q196.4619,558.1875 197.1025,558.3594 Q197.7588,558.5156 198.3056,558.875 Z " fill="#000000"/><text fill="#000000" font-family="sans-serif" font-size="14" lengthAdjust="spacing" textLength="84.8135" x="209.54" y="568.7969">FillableFuture</text><line style="stroke:#181818;stroke-width:0.5;" x1="181.54" x2="296.3535" y1="579" y2="579"/><line style="stroke:#181818;stroke-width:0.5;" x1="181.54" x2="296.3535" y1="587" y2="587"/></g><g id="elem_GMN45"><path d="M310.54,233.5 L310.54,260.791 A0,0 0 0 0 310.54,260.791 L389.3418,260.791 A0,0 0 0 0 389.3418,260.791 L389.3418,251.5 L496.44,247 L389.3418,243.5 L389.3418,243.5 L379.3418,233.5 L310.54,233.5 A0,0 0 0 0 310.54,233.5 " fill="#FEFFDD" style="stroke:#181818;stroke-width:0.5;"/><path d="M379.3418,233.5 L379.3418,243.5 L389.3418,243.5 L379.3418,233.5 " fill="#FEFFDD" style="stroke:#181818;stroke-width:0.5;"/><text fill="#000000" font-family="sans-serif" font-size="13" lengthAdjust="spacing" textLength="57.8018" x="316.54" y="252.5283">is in focus</text></g><g id="elem_GMN48"><path d="M509.54,341.5 L509.54,368.791 A0,0 0 0 0 509.54,368.791 L588.3418,368.791 A0,0 0 0 0 588.3418,368.791 L588.3418,359.5 L623.36,355 L588.3418,351.5 L588.3418,351.5 L578.3418,341.5 L509.54,341.5 A0,0 0 0 0 509.54,341.5 " fill="#FEFFDD" style="stroke:#181818;stroke-width:0.5;"/><path d="M578.3418,341.5 L578.3418,351.5 L588.3418,351.5 L578.3418,341.5 " fill="#FEFFDD" style="stroke:#181818;stroke-width:0.5;"/><text fill="#000000" font-family="sans-serif" font-size="13" lengthAdjust="spacing" textLength="57.8018" x="515.54" y="360.5283">is in focus</text></g><g id="elem_GMN51"><path d="M400.54,125.5 L400.54,152.791 A0,0 0 0 0 400.54,152.791 L479.3418,152.791 A0,0 0 0 0 479.3418,152.791 L479.3418,143.5 L585.97,139 L479.3418,135.5 L479.3418,135.5 L469.3418,125.5 L400.54,125.5 A0,0 0 0 0 400.54,125.5 " fill="#FEFFDD" style="stroke:#181818;stroke-width:0.5;"/><path d="M469.3418,125.5 L469.3418,135.5 L479.3418,135.5 L469.3418,125.5 " fill="#FEFFDD" style="stroke:#181818;stroke-width:0.5;"/><text fill="#000000" font-family="sans-serif" font-size="13" lengthAdjust="spacing" textLength="57.8018" x="406.54" y="144.5283">is in focus</text></g><!--reverse link injectableService to syncQueue--><g id="link_injectableService_syncQueue"><path codeLine="23" d="M221.4102,162.314 C303.9902,183.404 422.05,213.56 496.3,232.53 " fill="none" id="injectableService-backto-syncQueue" style="stroke:#181818;stroke-width:1.0;stroke-dasharray:7.0,7.0;"/><polygon fill="none" points="203.97,157.86,219.9255,168.1274,222.8949,156.5006,203.97,157.86" style="stroke:#181818;stroke-width:1.0;"/></g><!--reverse link injectableService to futuresWaitQueue--><g id="link_injectableService_futuresWaitQueue"><path codeLine="24" d="M156.4105,178.9155 C180.0705,220.0755 220.01,289.58 243.66,330.72 " fill="none" id="injectableService-backto-futuresWaitQueue" style="stroke:#181818;stroke-width:1.0;stroke-dasharray:7.0,7.0;"/><polygon fill="none" points="147.44,163.31,151.2087,181.9056,161.6123,175.9253,147.44,163.31" style="stroke:#181818;stroke-width:1.0;"/></g><!--reverse link injectableService to branchRegistry--><g id="link_injectableService_branchRegistry"><path codeLine="25" d="M124.3128,180.8186 C114.4928,221.9786 98.39,289.58 88.59,330.72 " fill="none" id="injectableService-backto-branchRegistry" style="stroke:#181818;stroke-width:1.0;stroke-dasharray:7.0,7.0;"/><polygon fill="none" points="128.49,163.31,118.4766,179.4262,130.149,182.211,128.49,163.31" style="stroke:#181818;stroke-width:1.0;"/></g><!--reverse link synchronizationException to mpsToModelixSynchronizationException--><g id="link_synchronizationException_mpsToModelixSynchronizationException"><path codeLine="27" d="M1102.7645,280.9431 C1129.5045,298.6631 1151.32,313.11 1178.11,330.86 " fill="none" id="synchronizationException-backto-mpsToModelixSynchronizationException" style="stroke:#181818;stroke-width:1.0;"/><polygon fill="none" points="1087.76,271,1099.4501,285.9446,1106.0788,275.9416,1087.76,271" style="stroke:#181818;stroke-width:1.0;"/></g><!--reverse link synchronizationException to modelixToMpsSynchronizationException--><g id="link_synchronizationException_modelixToMpsSynchronizationException"><path codeLine="28" d="M1003.5631,280.9846 C976.9831,298.7046 955.38,313.11 928.75,330.86 " fill="none" id="synchronizationException-backto-modelixToMpsSynchronizationException" style="stroke:#181818;stroke-width:1.0;"/><polygon fill="none" points="1018.54,271,1000.2349,275.9923,1006.8913,285.9769,1018.54,271" style="stroke:#181818;stroke-width:1.0;"/></g><!--link serviceLocator to syncQueue--><g id="link_serviceLocator_syncQueue"><path codeLine="30" d="M269.6406,34.1991 C336.6906,38.8991 430.42,55.31 497.04,115 C528.66,143.33 540.3179,187.5109 545.1879,216.8609 " fill="none" id="serviceLocator-syncQueue" style="stroke:#181818;stroke-width:1.0;"/><polygon fill="#181818" points="257.67,33.36,263.3756,37.7698,269.6406,34.1991,263.935,29.7893,257.67,33.36" style="stroke:#181818;stroke-width:1.0;"/><polygon fill="#181818" points="546.17,222.78,548.6428,213.2466,545.3515,217.8474,540.7507,214.5562,546.17,222.78" style="stroke:#181818;stroke-width:1.0;"/></g><!--link serviceLocator to futuresWaitQueue--><g id="link_serviceLocator_futuresWaitQueue"><path codeLine="31" d="M207.3058,66.7 C212.9658,83.19 216.33,94.55 221.04,115 C239.04,193.1 249.5929,281.7329 254.1129,324.7429 " fill="none" id="serviceLocator-futuresWaitQueue" style="stroke:#181818;stroke-width:1.0;"/><polygon fill="#181818" points="203.41,55.35,201.5745,62.3236,207.3058,66.7,209.1412,59.7264,203.41,55.35" style="stroke:#181818;stroke-width:1.0;"/><polygon fill="#181818" points="254.74,330.71,257.7774,321.3412,254.2174,325.7374,249.8213,322.1774,254.74,330.71" style="stroke:#181818;stroke-width:1.0;"/></g><!--link serviceLocator to branchRegistry--><g id="link_serviceLocator_branchRegistry"><path codeLine="32" d="M121.173,54.7932 C89.673,67.5132 65.5,83.48 47.04,115 C6,185.06 44.8634,280.4052 67.6034,325.3952 " fill="none" id="serviceLocator-branchRegistry" style="stroke:#181818;stroke-width:1.0;"/><polygon fill="#181818" points="132.3,50.3,125.2387,48.8376,121.173,54.7932,128.2342,56.2556,132.3,50.3" style="stroke:#181818;stroke-width:1.0;"/><polygon fill="#181818" points="70.31,330.75,69.82,320.9133,68.0545,326.2876,62.6802,324.5221,70.31,330.75" style="stroke:#181818;stroke-width:1.0;"/></g><!--link serviceLocator to injectableService--><g id="link_serviceLocator_injectableService"><path codeLine="33" d="M181.8,55 C171.64,72.66 157.67,96.94 147.46,114.68 " fill="none" id="serviceLocator-injectableService" style="stroke:#181818;stroke-width:1.0;stroke-dasharray:7.0,7.0;"/></g><!--link syncQueue to futuresWaitQueue--><g id="link_syncQueue_futuresWaitQueue"><path codeLine="35" d="M496.25,263.75 C443.26,281.55 368.2107,308.5078 315.2807,328.8478 " fill="none" id="syncQueue-to-futuresWaitQueue" style="stroke:#181818;stroke-width:1.0;"/><polygon fill="#181818" points="309.68,331,319.5159,331.5054,314.3473,329.2065,316.6462,324.0378,309.68,331" style="stroke:#181818;stroke-width:1.0;"/></g><!--link syncQueue to futuresWaitQueue--><g id="link_syncQueue_futuresWaitQueue"><path codeLine="39" d="M497.04,271 C450.92,288.78 389.1158,311.3344 337.3058,329.0944 " fill="none" id="syncQueue-to-futuresWaitQueue-1" style="stroke:#181818;stroke-width:1.0;"/><polygon fill="#181818" points="331.63,331.04,341.4408,331.9054,336.3598,329.4187,338.8466,324.3377,331.63,331.04" style="stroke:#181818;stroke-width:1.0;"/></g><!--link syncQueue to syncDirection--><g id="link_syncQueue_syncDirection"><path codeLine="36" d="M527.27,271.34 C514.27,286.94 498.98,308.63 492.04,331 C480.78,367.3 485.1879,406.1016 490.4079,432.7816 " fill="none" id="syncQueue-to-syncDirection" style="stroke:#181818;stroke-width:1.0;"/><polygon fill="#181818" points="491.56,438.67,493.7575,429.0694,490.5999,433.763,485.9063,430.6055,491.56,438.67" style="stroke:#181818;stroke-width:1.0;"/></g><!--link syncQueue to syncTask--><g id="link_syncQueue_syncTask"><path codeLine="37" d="M584.3245,278.9093 C604.4745,296.5693 618.6569,308.9863 638.9069,326.7263 " fill="none" id="syncQueue-syncTask" style="stroke:#181818;stroke-width:1.0;"/><polygon fill="#181818" points="575.3,271,577.1758,277.9629,584.3245,278.9093,582.4487,271.9465,575.3,271" style="stroke:#181818;stroke-width:1.0;"/><polygon fill="#181818" points="643.42,330.68,639.2861,321.7407,639.6591,327.3852,634.0145,327.7582,643.42,330.68" style="stroke:#181818;stroke-width:1.0;"/></g><!--link syncQueue to branchRegistry--><g id="link_syncQueue_branchRegistry"><path codeLine="38" d="M496.32,258.34 C422.1,273.14 282.71,301.81 165.04,331 C159.3,332.42 159.1466,332.411 153.1966,334.001 " fill="none" id="syncQueue-to-branchRegistry" style="stroke:#181818;stroke-width:1.0;"/><polygon fill="#181818" points="147.4,335.55,157.1276,337.0909,152.2305,334.2592,155.0622,329.3621,147.4,335.55" style="stroke:#181818;stroke-width:1.0;"/></g><!--link syncQueue to syncLock--><g id="link_syncQueue_syncLock"><path codeLine="40" d="M519.32,271.23 C465.91,315.76 364.27,415.09 420.04,487 C453.75,530.46 609.3836,554.4079 690.4636,564.2379 " fill="none" id="syncQueue-to-syncLock" style="stroke:#181818;stroke-width:1.0;stroke-dasharray:7.0,7.0;"/><polygon fill="#181818" points="696.42,564.96,687.9669,559.9059,691.4563,564.3582,687.004,567.8477,696.42,564.96" style="stroke:#181818;stroke-width:1.0;"/></g><!--link syncQueue to mpsToModelixSynchronizationException--><g id="link_syncQueue_mpsToModelixSynchronizationException"><path codeLine="41" d="M601.7,256.41 C702.08,272.43 917.965,306.8941 1064.975,330.3641 " fill="none" id="syncQueue-to-mpsToModelixSynchronizationException" style="stroke:#181818;stroke-width:1.0;stroke-dasharray:7.0,7.0;"/><polygon fill="#181818" points="1070.9,331.31,1062.6432,325.9411,1065.9625,330.5217,1061.3819,333.8411,1070.9,331.31" style="stroke:#181818;stroke-width:1.0;"/></g><!--link syncQueue to modelixToMpsSynchronizationException--><g id="link_syncQueue_modelixToMpsSynchronizationException"><path codeLine="42" d="M601.81,264.21 C659.76,282.02 747.5447,308.9875 813.1447,329.1475 " fill="none" id="syncQueue-to-modelixToMpsSynchronizationException" style="stroke:#181818;stroke-width:1.0;stroke-dasharray:7.0,7.0;"/><polygon fill="#181818" points="818.88,330.91,811.4521,324.4427,814.1006,329.4412,809.102,332.0897,818.88,330.91" style="stroke:#181818;stroke-width:1.0;"/></g><!--link syncTask to syncLock--><g id="link_syncTask_syncLock"><path codeLine="44" d="M726.1478,385.325 C748.6878,399.305 763.45,413.15 776.04,439 C793.29,474.42 776.6809,514.5686 761.1609,541.5586 " fill="none" id="syncTask-syncLock" style="stroke:#181818;stroke-width:1.0;"/><polygon fill="#181818" points="715.95,379,718.9406,385.5617,726.1478,385.325,723.1572,378.7632,715.95,379" style="stroke:#181818;stroke-width:1.0;"/><polygon fill="#181818" points="758.17,546.76,766.124,540.9519,760.6624,542.4255,759.1888,536.964,758.17,546.76" style="stroke:#181818;stroke-width:1.0;"/></g><!--link syncTask to syncLockComparator--><g id="link_syncTask_syncLockComparator"><path codeLine="45" d="M671.12,379 C671.96,396.66 672.8162,414.9467 673.6562,432.6867 " fill="none" id="syncTask-to-syncLockComparator" style="stroke:#181818;stroke-width:1.0;stroke-dasharray:7.0,7.0;"/><polygon fill="#181818" points="673.94,438.68,677.5098,429.5009,673.7035,433.6856,669.5188,429.8793,673.94,438.68" style="stroke:#181818;stroke-width:1.0;"/></g><!--link syncTask to syncDirection--><g id="link_syncTask_syncDirection"><path codeLine="46" d="M622.268,385.2694 C593.348,402.9894 568.8965,417.9762 539.9165,435.7262 " fill="none" id="syncTask-syncDirection" style="stroke:#181818;stroke-width:1.0;"/><polygon fill="#181818" points="632.5,379,625.2942,378.724,622.268,385.2694,629.4738,385.5454,632.5,379" style="stroke:#181818;stroke-width:1.0;"/><polygon fill="#181818" points="534.8,438.86,544.564,437.5703,539.0638,436.2485,540.3856,430.7482,534.8,438.86" style="stroke:#181818;stroke-width:1.0;"/></g><!--link syncLockComparator to syncLock--><g id="link_syncLockComparator_syncLock"><path codeLine="48" d="M689.79,487 C701.12,504.66 713.4603,523.8898 724.8403,541.6298 " fill="none" id="syncLockComparator-to-syncLock" style="stroke:#181818;stroke-width:1.0;stroke-dasharray:7.0,7.0;"/><polygon fill="#181818" points="728.08,546.68,726.5873,536.9449,725.3803,542.4715,719.8537,541.2644,728.08,546.68" style="stroke:#181818;stroke-width:1.0;"/></g><!--link continuableSyncTask to syncTask--><g id="link_continuableSyncTask_syncTask"><path codeLine="50" d="M670.04,163.31 C670.04,204.47 670.04,283.58 670.04,324.72 " fill="none" id="continuableSyncTask-to-syncTask" style="stroke:#181818;stroke-width:1.0;"/><polygon fill="#181818" points="670.04,330.72,674.04,321.72,670.04,325.72,666.04,321.72,670.04,330.72" style="stroke:#181818;stroke-width:1.0;"/></g><!--link continuableSyncTask to syncQueue--><g id="link_continuableSyncTask_syncQueue"><path codeLine="51" d="M643.78,163 C623.63,180.66 600.4231,200.9863 580.1731,218.7263 " fill="none" id="continuableSyncTask-to-syncQueue" style="stroke:#181818;stroke-width:1.0;"/><polygon fill="#181818" points="575.66,222.68,585.0655,219.7582,579.4209,219.3852,579.7939,213.7407,575.66,222.68" style="stroke:#181818;stroke-width:1.0;"/></g><!--link continuableSyncTask to futuresWaitQueue--><g id="link_continuableSyncTask_futuresWaitQueue"><path codeLine="52" d="M609.37,163.13 C571.17,178.49 521.26,199.99 479.04,223 C445.27,241.4 439.89,251.01 407.04,271 C371.95,292.35 336.4002,311.9692 306.2002,328.1292 " fill="none" id="continuableSyncTask-to-futuresWaitQueue" style="stroke:#181818;stroke-width:1.0;"/><polygon fill="#181818" points="300.91,330.96,310.7326,330.2406,305.3185,328.601,306.9581,323.187,300.91,330.96" style="stroke:#181818;stroke-width:1.0;"/></g><!--link continuableSyncTask to syncLock--><g id="link_continuableSyncTask_syncLock"><path codeLine="53" d="M754.27,144.35 C933.59,154.38 1340.58,181.49 1387.04,223 C1423.78,255.83 1406.45,282.05 1412.04,331 C1414.46,352.2 1424.89,361.97 1412.04,379 C1335.11,480.97 934.604,544.0023 795.624,563.1223 " fill="none" id="continuableSyncTask-to-syncLock" style="stroke:#181818;stroke-width:1.0;stroke-dasharray:7.0,7.0;"/><polygon fill="#181818" points="789.68,563.94,799.1412,566.6761,794.6333,563.2585,798.0509,558.7507,789.68,563.94" style="stroke:#181818;stroke-width:1.0;"/></g><!--link continuableSyncTask to syncDirection--><g id="link_continuableSyncTask_syncDirection"><path codeLine="54" d="M754.15,141.32 C977.34,147.51 1555.4,182.43 1373.04,379 C1312.49,444.27 661.59,422.83 574.04,439 C568.28,440.06 568.1503,439.9425 562.2403,441.4225 " fill="none" id="continuableSyncTask-to-syncDirection" style="stroke:#181818;stroke-width:1.0;stroke-dasharray:7.0,7.0;"/><polygon fill="#181818" points="556.42,442.88,566.1221,444.5739,561.2702,441.6654,564.1787,436.8135,556.42,442.88" style="stroke:#181818;stroke-width:1.0;"/></g><!--link futuresWaitQueue to futureWithPredecessors--><g id="link_futuresWaitQueue_futureWithPredecessors"><path codeLine="56" d="M251.1268,390.8316 C248.1368,408.4916 247.0137,415.0245 244.0037,432.7645 " fill="none" id="futuresWaitQueue-futureWithPredecessors" style="stroke:#181818;stroke-width:1.0;"/><polygon fill="#181818" points="253.13,379,248.1845,384.2481,251.1268,390.8316,256.0723,385.5835,253.13,379" style="stroke:#181818;stroke-width:1.0;"/><polygon fill="#181818" points="243,438.68,248.4492,430.4759,243.8364,433.7505,240.5619,429.1377,243,438.68" style="stroke:#181818;stroke-width:1.0;"/></g><!--link futureWithPredecessors to fillableFuture--><g id="link_futureWithPredecessors_fillableFuture"><path codeLine="58" d="M239.04,499 C239.04,516.66 239.04,522.94 239.04,540.68 " fill="none" id="futureWithPredecessors-fillableFuture" style="stroke:#181818;stroke-width:1.0;"/><polygon fill="#181818" points="239.04,487,235.04,493,239.04,499,243.04,493,239.04,487" style="stroke:#181818;stroke-width:1.0;"/><polygon fill="#181818" points="239.04,546.68,243.04,537.68,239.04,541.68,235.04,537.68,239.04,546.68" style="stroke:#181818;stroke-width:1.0;"/></g><!--SRC=[ZLN9JiCm4BtxAwnUAY6b7u1G3vGY8L44fLBFhZkXXjIER0UrY8ydgzSav1JvpPlbZSUJ-PfhfXceEM9SWqm91Jnxufz0DJbay0xocr6OOQ8m2r54Cw8KdhN7Pq695hBcAWyon2kdRmKKJJpLdJhpOw4B2MfFcBQiD00xyhqad9wsyC6KbjUQUl0Wv6RT4VLbabQ7phWIPGDuKQjoUJJ64G9Ud9ju3qoMlM22cw06SLYbV9krEhWbLUULEET4sgv5C4BaK8eXL6F7zIG5Pp-aohQ-KCYzGlgCNTvDhdPY8uwGiSjeeFC4eWdQq4f-hiQ3JY0YVnZsJ9zU9Ho1Wb92AcSaGfDnP5bMNLiJe77m88JcMyZgjFNO1rEDxtuN2sSu1mZHN0xmmg4SkgAIdIJJ-lvFY4bTzXyelacIfQEvpne9xYC5QWDAsOvuYI2J5lUdySp-KxCs8w1-gRvFMDJKV8l5qhvS7vvyJuxBj7jf9LX19diDkpKvQo9siqr2CT-NXdgM7VRwEKPej_808rxVFKIlcZ628oeCx0vfj1fGFzxwXDlXHUZgXyZB3yuWrLYaLkajPjMl4AU25YhcLEMEK7h4-Um_]--></g></svg>
