<svg xmlns="http://www.w3.org/2000/svg" xmlns:xlink="http://www.w3.org/1999/xlink" contentStyleType="text/css" height="818px" preserveAspectRatio="none" style="width:914px;height:818px;background:#FFFFFF;" version="1.1" viewBox="0 0 914 818" width="914px" zoomAndPan="magnify"><defs/><g><!--class iBinding--><g id="elem_iBinding"><rect codeLine="2" fill="#F1F1F1" height="48" id="iBinding" rx="2.5" ry="2.5" style="stroke:#181818;stroke-width:0.5;" width="82.5928" x="304.5" y="7"/><ellipse cx="319.5" cy="23" fill="#B4A7E5" rx="11" ry="11" style="stroke:#181818;stroke-width:1.0;"/><path d="M320.4531,19.6406 L320.4531,26.2969 L322.1719,26.2969 Q322.7813,26.2969 323.0469,26.5313 Q323.3125,26.7656 323.3125,27.1563 Q323.3125,27.5313 323.0469,27.7656 Q322.7813,28 322.1719,28 L317.0313,28 Q316.4219,28 316.1563,27.7656 Q315.8906,27.5313 315.8906,27.1406 Q315.8906,26.7656 316.1563,26.5313 Q316.4219,26.2969 317.0313,26.2969 L318.75,26.2969 L318.75,19.6406 L317.0313,19.6406 Q316.4219,19.6406 316.1563,19.4063 Q315.8906,19.1719 315.8906,18.7813 Q315.8906,18.4063 316.1563,18.1719 Q316.4219,17.9375 317.0313,17.9375 L322.1719,17.9375 Q322.7813,17.9375 323.0469,18.1719 Q323.3125,18.4063 323.3125,18.7813 Q323.3125,19.1719 323.0469,19.4063 Q322.7813,19.6406 322.1719,19.6406 L320.4531,19.6406 Z " fill="#000000"/><text fill="#000000" font-family="sans-serif" font-size="14" font-style="italic" lengthAdjust="spacing" textLength="50.5928" x="333.5" y="28.7969">IBinding</text><line style="stroke:#181818;stroke-width:0.5;" x1="305.5" x2="386.0928" y1="39" y2="39"/><line style="stroke:#181818;stroke-width:0.5;" x1="305.5" x2="386.0928" y1="47" y2="47"/></g><!--class modelBinding--><g id="elem_modelBinding"><rect codeLine="3" fill="#F1F1F1" height="48" id="modelBinding" rx="2.5" ry="2.5" style="stroke:#181818;stroke-width:0.5;" width="116.834" x="407.5" y="223"/><ellipse cx="422.5" cy="239" fill="#ADD1B2" rx="11" ry="11" style="stroke:#181818;stroke-width:1.0;"/><path d="M425.2656,234.875 Q425.4219,234.6563 425.6094,234.5469 Q425.7969,234.4375 426.0156,234.4375 Q426.3906,234.4375 426.625,234.7031 Q426.8594,234.9531 426.8594,235.5625 L426.8594,237.0156 Q426.8594,237.625 426.625,237.8906 Q426.3906,238.1563 426.0156,238.1563 Q425.6719,238.1563 425.4688,237.9531 Q425.2656,237.7656 425.1563,237.25 Q425.1094,236.8906 424.9219,236.7031 Q424.5938,236.3281 423.9844,236.1094 Q423.375,235.8906 422.75,235.8906 Q421.9844,235.8906 421.3438,236.2188 Q420.7188,236.5469 420.2188,237.2969 Q419.7344,238.0469 419.7344,239.0781 L419.7344,240.1719 Q419.7344,241.4063 420.625,242.2344 Q421.5156,243.0469 423.1094,243.0469 Q424.0469,243.0469 424.7031,242.7969 Q425.0938,242.6406 425.5156,242.2031 Q425.7813,241.9375 425.9219,241.8594 Q426.0781,241.7813 426.2813,241.7813 Q426.6094,241.7813 426.8594,242.0469 Q427.125,242.2969 427.125,242.6406 Q427.125,242.9844 426.7813,243.3906 Q426.2813,243.9688 425.4844,244.2969 Q424.4063,244.75 423.1094,244.75 Q421.5938,244.75 420.3906,244.125 Q419.4063,243.625 418.7188,242.5625 Q418.0313,241.4844 418.0313,240.2031 L418.0313,239.0469 Q418.0313,237.7188 418.6406,236.5781 Q419.2656,235.4219 420.3594,234.8125 Q421.4531,234.1875 422.6875,234.1875 Q423.4219,234.1875 424.0625,234.3594 Q424.7188,234.5156 425.2656,234.875 Z " fill="#000000"/><text fill="#000000" font-family="sans-serif" font-size="14" lengthAdjust="spacing" textLength="84.834" x="436.5" y="244.7969">ModelBinding</text><line style="stroke:#181818;stroke-width:0.5;" x1="408.5" x2="523.334" y1="255" y2="255"/><line style="stroke:#181818;stroke-width:0.5;" x1="408.5" x2="523.334" y1="263" y2="263"/></g><!--class moduleBinding--><g id="elem_moduleBinding"><rect codeLine="4" fill="#F1F1F1" height="48" id="moduleBinding" rx="2.5" ry="2.5" style="stroke:#181818;stroke-width:0.5;" width="124.6201" x="225.5" y="115"/><ellipse cx="240.5" cy="131" fill="#ADD1B2" rx="11" ry="11" style="stroke:#181818;stroke-width:1.0;"/><path d="M243.2656,126.875 Q243.4219,126.6563 243.6094,126.5469 Q243.7969,126.4375 244.0156,126.4375 Q244.3906,126.4375 244.625,126.7031 Q244.8594,126.9531 244.8594,127.5625 L244.8594,129.0156 Q244.8594,129.625 244.625,129.8906 Q244.3906,130.1563 244.0156,130.1563 Q243.6719,130.1563 243.4688,129.9531 Q243.2656,129.7656 243.1563,129.25 Q243.1094,128.8906 242.9219,128.7031 Q242.5938,128.3281 241.9844,128.1094 Q241.375,127.8906 240.75,127.8906 Q239.9844,127.8906 239.3438,128.2188 Q238.7188,128.5469 238.2188,129.2969 Q237.7344,130.0469 237.7344,131.0781 L237.7344,132.1719 Q237.7344,133.4063 238.625,134.2344 Q239.5156,135.0469 241.1094,135.0469 Q242.0469,135.0469 242.7031,134.7969 Q243.0938,134.6406 243.5156,134.2031 Q243.7813,133.9375 243.9219,133.8594 Q244.0781,133.7813 244.2813,133.7813 Q244.6094,133.7813 244.8594,134.0469 Q245.125,134.2969 245.125,134.6406 Q245.125,134.9844 244.7813,135.3906 Q244.2813,135.9688 243.4844,136.2969 Q242.4063,136.75 241.1094,136.75 Q239.5938,136.75 238.3906,136.125 Q237.4063,135.625 236.7188,134.5625 Q236.0313,133.4844 236.0313,132.2031 L236.0313,131.0469 Q236.0313,129.7188 236.6406,128.5781 Q237.2656,127.4219 238.3594,126.8125 Q239.4531,126.1875 240.6875,126.1875 Q241.4219,126.1875 242.0625,126.3594 Q242.7188,126.5156 243.2656,126.875 Z " fill="#000000"/><text fill="#000000" font-family="sans-serif" font-size="14" lengthAdjust="spacing" textLength="92.6201" x="254.5" y="136.7969">ModuleBinding</text><line style="stroke:#181818;stroke-width:0.5;" x1="226.5" x2="349.1201" y1="147" y2="147"/><line style="stroke:#181818;stroke-width:0.5;" x1="226.5" x2="349.1201" y1="155" y2="155"/></g><!--class injectableService--><g id="elem_injectableService"><rect codeLine="6" fill="#F1F1F1" height="48" id="injectableService" rx="2.5" ry="2.5" style="stroke:#181818;stroke-width:0.5;" width="138.6133" x="485.5" y="547"/><ellipse cx="500.5" cy="563" fill="#B4A7E5" rx="11" ry="11" style="stroke:#181818;stroke-width:1.0;"/><path d="M501.4531,559.6406 L501.4531,566.2969 L503.1719,566.2969 Q503.7813,566.2969 504.0469,566.5313 Q504.3125,566.7656 504.3125,567.1563 Q504.3125,567.5313 504.0469,567.7656 Q503.7813,568 503.1719,568 L498.0313,568 Q497.4219,568 497.1563,567.7656 Q496.8906,567.5313 496.8906,567.1406 Q496.8906,566.7656 497.1563,566.5313 Q497.4219,566.2969 498.0313,566.2969 L499.75,566.2969 L499.75,559.6406 L498.0313,559.6406 Q497.4219,559.6406 497.1563,559.4063 Q496.8906,559.1719 496.8906,558.7813 Q496.8906,558.4063 497.1563,558.1719 Q497.4219,557.9375 498.0313,557.9375 L503.1719,557.9375 Q503.7813,557.9375 504.0469,558.1719 Q504.3125,558.4063 504.3125,558.7813 Q504.3125,559.1719 504.0469,559.4063 Q503.7813,559.6406 503.1719,559.6406 L501.4531,559.6406 Z " fill="#000000"/><text fill="#000000" font-family="sans-serif" font-size="14" font-style="italic" lengthAdjust="spacing" textLength="106.6133" x="514.5" y="568.7969">InjectableService</text><line style="stroke:#181818;stroke-width:0.5;" x1="486.5" x2="623.1133" y1="579" y2="579"/><line style="stroke:#181818;stroke-width:0.5;" x1="486.5" x2="623.1133" y1="587" y2="587"/></g><!--class serviceLocator--><g id="elem_serviceLocator"><rect codeLine="7" fill="#F1F1F1" height="48" id="serviceLocator" rx="2.5" ry="2.5" style="stroke:#181818;stroke-width:0.5;" width="125.3789" x="365.5" y="439"/><ellipse cx="380.5" cy="455" fill="#ADD1B2" rx="11" ry="11" style="stroke:#181818;stroke-width:1.0;"/><path d="M383.2656,450.875 Q383.4219,450.6563 383.6094,450.5469 Q383.7969,450.4375 384.0156,450.4375 Q384.3906,450.4375 384.625,450.7031 Q384.8594,450.9531 384.8594,451.5625 L384.8594,453.0156 Q384.8594,453.625 384.625,453.8906 Q384.3906,454.1563 384.0156,454.1563 Q383.6719,454.1563 383.4688,453.9531 Q383.2656,453.7656 383.1563,453.25 Q383.1094,452.8906 382.9219,452.7031 Q382.5938,452.3281 381.9844,452.1094 Q381.375,451.8906 380.75,451.8906 Q379.9844,451.8906 379.3438,452.2188 Q378.7188,452.5469 378.2188,453.2969 Q377.7344,454.0469 377.7344,455.0781 L377.7344,456.1719 Q377.7344,457.4063 378.625,458.2344 Q379.5156,459.0469 381.1094,459.0469 Q382.0469,459.0469 382.7031,458.7969 Q383.0938,458.6406 383.5156,458.2031 Q383.7813,457.9375 383.9219,457.8594 Q384.0781,457.7813 384.2813,457.7813 Q384.6094,457.7813 384.8594,458.0469 Q385.125,458.2969 385.125,458.6406 Q385.125,458.9844 384.7813,459.3906 Q384.2813,459.9688 383.4844,460.2969 Q382.4063,460.75 381.1094,460.75 Q379.5938,460.75 378.3906,460.125 Q377.4063,459.625 376.7188,458.5625 Q376.0313,457.4844 376.0313,456.2031 L376.0313,455.0469 Q376.0313,453.7188 376.6406,452.5781 Q377.2656,451.4219 378.3594,450.8125 Q379.4531,450.1875 380.6875,450.1875 Q381.4219,450.1875 382.0625,450.3594 Q382.7188,450.5156 383.2656,450.875 Z " fill="#000000"/><text fill="#000000" font-family="sans-serif" font-size="14" lengthAdjust="spacing" textLength="93.3789" x="394.5" y="460.7969">ServiceLocator</text><line style="stroke:#181818;stroke-width:0.5;" x1="366.5" x2="489.8789" y1="471" y2="471"/><line style="stroke:#181818;stroke-width:0.5;" x1="366.5" x2="489.8789" y1="479" y2="479"/></g><!--class bindingsRegistry--><g id="elem_bindingsRegistry"><rect codeLine="8" fill="#F1F1F1" height="48" id="bindingsRegistry" rx="2.5" ry="2.5" style="stroke:#181818;stroke-width:0.5;" width="137.0479" x="160.5" y="655"/><ellipse cx="175.5" cy="671" fill="#ADD1B2" rx="11" ry="11" style="stroke:#181818;stroke-width:1.0;"/><path d="M178.2656,666.875 Q178.4219,666.6563 178.6094,666.5469 Q178.7969,666.4375 179.0156,666.4375 Q179.3906,666.4375 179.625,666.7031 Q179.8594,666.9531 179.8594,667.5625 L179.8594,669.0156 Q179.8594,669.625 179.625,669.8906 Q179.3906,670.1563 179.0156,670.1563 Q178.6719,670.1563 178.4688,669.9531 Q178.2656,669.7656 178.1563,669.25 Q178.1094,668.8906 177.9219,668.7031 Q177.5938,668.3281 176.9844,668.1094 Q176.375,667.8906 175.75,667.8906 Q174.9844,667.8906 174.3438,668.2188 Q173.7188,668.5469 173.2188,669.2969 Q172.7344,670.0469 172.7344,671.0781 L172.7344,672.1719 Q172.7344,673.4063 173.625,674.2344 Q174.5156,675.0469 176.1094,675.0469 Q177.0469,675.0469 177.7031,674.7969 Q178.0938,674.6406 178.5156,674.2031 Q178.7813,673.9375 178.9219,673.8594 Q179.0781,673.7813 179.2813,673.7813 Q179.6094,673.7813 179.8594,674.0469 Q180.125,674.2969 180.125,674.6406 Q180.125,674.9844 179.7813,675.3906 Q179.2813,675.9688 178.4844,676.2969 Q177.4063,676.75 176.1094,676.75 Q174.5938,676.75 173.3906,676.125 Q172.4063,675.625 171.7188,674.5625 Q171.0313,673.4844 171.0313,672.2031 L171.0313,671.0469 Q171.0313,669.7188 171.6406,668.5781 Q172.2656,667.4219 173.3594,666.8125 Q174.4531,666.1875 175.6875,666.1875 Q176.4219,666.1875 177.0625,666.3594 Q177.7188,666.5156 178.2656,666.875 Z " fill="#000000"/><text fill="#000000" font-family="sans-serif" font-size="14" lengthAdjust="spacing" textLength="105.0479" x="189.5" y="676.7969">BindingsRegistry</text><line style="stroke:#181818;stroke-width:0.5;" x1="161.5" x2="296.5479" y1="687" y2="687"/><line style="stroke:#181818;stroke-width:0.5;" x1="161.5" x2="296.5479" y1="695" y2="695"/></g><!--class syncQueue--><g id="elem_syncQueue"><rect codeLine="9" fill="#F1F1F1" height="48" id="syncQueue" rx="2.5" ry="2.5" style="stroke:#181818;stroke-width:0.5;" width="105.1582" x="670.5" y="655"/><ellipse cx="685.5" cy="671" fill="#ADD1B2" rx="11" ry="11" style="stroke:#181818;stroke-width:1.0;"/><path d="M688.2656,666.875 Q688.4219,666.6563 688.6094,666.5469 Q688.7969,666.4375 689.0156,666.4375 Q689.3906,666.4375 689.625,666.7031 Q689.8594,666.9531 689.8594,667.5625 L689.8594,669.0156 Q689.8594,669.625 689.625,669.8906 Q689.3906,670.1563 689.0156,670.1563 Q688.6719,670.1563 688.4688,669.9531 Q688.2656,669.7656 688.1563,669.25 Q688.1094,668.8906 687.9219,668.7031 Q687.5938,668.3281 686.9844,668.1094 Q686.375,667.8906 685.75,667.8906 Q684.9844,667.8906 684.3438,668.2188 Q683.7188,668.5469 683.2188,669.2969 Q682.7344,670.0469 682.7344,671.0781 L682.7344,672.1719 Q682.7344,673.4063 683.625,674.2344 Q684.5156,675.0469 686.1094,675.0469 Q687.0469,675.0469 687.7031,674.7969 Q688.0938,674.6406 688.5156,674.2031 Q688.7813,673.9375 688.9219,673.8594 Q689.0781,673.7813 689.2813,673.7813 Q689.6094,673.7813 689.8594,674.0469 Q690.125,674.2969 690.125,674.6406 Q690.125,674.9844 689.7813,675.3906 Q689.2813,675.9688 688.4844,676.2969 Q687.4063,676.75 686.1094,676.75 Q684.5938,676.75 683.3906,676.125 Q682.4063,675.625 681.7188,674.5625 Q681.0313,673.4844 681.0313,672.2031 L681.0313,671.0469 Q681.0313,669.7188 681.6406,668.5781 Q682.2656,667.4219 683.3594,666.8125 Q684.4531,666.1875 685.6875,666.1875 Q686.4219,666.1875 687.0625,666.3594 Q687.7188,666.5156 688.2656,666.875 Z " fill="#000000"/><text fill="#000000" font-family="sans-serif" font-size="14" lengthAdjust="spacing" textLength="73.1582" x="699.5" y="676.7969">SyncQueue</text><line style="stroke:#181818;stroke-width:0.5;" x1="671.5" x2="774.6582" y1="687" y2="687"/><line style="stroke:#181818;stroke-width:0.5;" x1="671.5" x2="774.6582" y1="695" y2="695"/></g><!--class nodeMap--><g id="elem_nodeMap"><rect codeLine="10" fill="#F1F1F1" height="48" id="nodeMap" rx="2.5" ry="2.5" style="stroke:#181818;stroke-width:0.5;" width="150.2617" x="414" y="655"/><ellipse cx="429" cy="671" fill="#ADD1B2" rx="11" ry="11" style="stroke:#181818;stroke-width:1.0;"/><path d="M431.7656,666.875 Q431.9219,666.6563 432.1094,666.5469 Q432.2969,666.4375 432.5156,666.4375 Q432.8906,666.4375 433.125,666.7031 Q433.3594,666.9531 433.3594,667.5625 L433.3594,669.0156 Q433.3594,669.625 433.125,669.8906 Q432.8906,670.1563 432.5156,670.1563 Q432.1719,670.1563 431.9688,669.9531 Q431.7656,669.7656 431.6563,669.25 Q431.6094,668.8906 431.4219,668.7031 Q431.0938,668.3281 430.4844,668.1094 Q429.875,667.8906 429.25,667.8906 Q428.4844,667.8906 427.8438,668.2188 Q427.2188,668.5469 426.7188,669.2969 Q426.2344,670.0469 426.2344,671.0781 L426.2344,672.1719 Q426.2344,673.4063 427.125,674.2344 Q428.0156,675.0469 429.6094,675.0469 Q430.5469,675.0469 431.2031,674.7969 Q431.5938,674.6406 432.0156,674.2031 Q432.2813,673.9375 432.4219,673.8594 Q432.5781,673.7813 432.7813,673.7813 Q433.1094,673.7813 433.3594,674.0469 Q433.625,674.2969 433.625,674.6406 Q433.625,674.9844 433.2813,675.3906 Q432.7813,675.9688 431.9844,676.2969 Q430.9063,676.75 429.6094,676.75 Q428.0938,676.75 426.8906,676.125 Q425.9063,675.625 425.2188,674.5625 Q424.5313,673.4844 424.5313,672.2031 L424.5313,671.0469 Q424.5313,669.7188 425.1406,668.5781 Q425.7656,667.4219 426.8594,666.8125 Q427.9531,666.1875 429.1875,666.1875 Q429.9219,666.1875 430.5625,666.3594 Q431.2188,666.5156 431.7656,666.875 Z " fill="#000000"/><text fill="#000000" font-family="sans-serif" font-size="14" lengthAdjust="spacing" textLength="118.2617" x="443" y="676.7969">MpsToModelixMap</text><line style="stroke:#181818;stroke-width:0.5;" x1="415" x2="563.2617" y1="687" y2="687"/><line style="stroke:#181818;stroke-width:0.5;" x1="415" x2="563.2617" y1="695" y2="695"/></g><!--class futuresWaitQueue--><g id="elem_futuresWaitQueue"><rect codeLine="11" fill="#F1F1F1" height="48" id="futuresWaitQueue" rx="2.5" ry="2.5" style="stroke:#181818;stroke-width:0.5;" width="149.4961" x="414.5" y="763"/><ellipse cx="429.5" cy="779" fill="#ADD1B2" rx="11" ry="11" style="stroke:#181818;stroke-width:1.0;"/><path d="M432.2656,774.875 Q432.4219,774.6563 432.6094,774.5469 Q432.7969,774.4375 433.0156,774.4375 Q433.3906,774.4375 433.625,774.7031 Q433.8594,774.9531 433.8594,775.5625 L433.8594,777.0156 Q433.8594,777.625 433.625,777.8906 Q433.3906,778.1563 433.0156,778.1563 Q432.6719,778.1563 432.4688,777.9531 Q432.2656,777.7656 432.1563,777.25 Q432.1094,776.8906 431.9219,776.7031 Q431.5938,776.3281 430.9844,776.1094 Q430.375,775.8906 429.75,775.8906 Q428.9844,775.8906 428.3438,776.2188 Q427.7188,776.5469 427.2188,777.2969 Q426.7344,778.0469 426.7344,779.0781 L426.7344,780.1719 Q426.7344,781.4063 427.625,782.2344 Q428.5156,783.0469 430.1094,783.0469 Q431.0469,783.0469 431.7031,782.7969 Q432.0938,782.6406 432.5156,782.2031 Q432.7813,781.9375 432.9219,781.8594 Q433.0781,781.7813 433.2813,781.7813 Q433.6094,781.7813 433.8594,782.0469 Q434.125,782.2969 434.125,782.6406 Q434.125,782.9844 433.7813,783.3906 Q433.2813,783.9688 432.4844,784.2969 Q431.4063,784.75 430.1094,784.75 Q428.5938,784.75 427.3906,784.125 Q426.4063,783.625 425.7188,782.5625 Q425.0313,781.4844 425.0313,780.2031 L425.0313,779.0469 Q425.0313,777.7188 425.6406,776.5781 Q426.2656,775.4219 427.3594,774.8125 Q428.4531,774.1875 429.6875,774.1875 Q430.4219,774.1875 431.0625,774.3594 Q431.7188,774.5156 432.2656,774.875 Z " fill="#000000"/><text fill="#000000" font-family="sans-serif" font-size="14" lengthAdjust="spacing" textLength="117.4961" x="443.5" y="784.7969">FuturesWaitQueue</text><line style="stroke:#181818;stroke-width:0.5;" x1="415.5" x2="562.9961" y1="795" y2="795"/><line style="stroke:#181818;stroke-width:0.5;" x1="415.5" x2="562.9961" y1="803" y2="803"/></g><!--class nodeChangeListener--><g id="elem_nodeChangeListener"><rect codeLine="13" fill="#F1F1F1" height="48" id="nodeChangeListener" rx="2.5" ry="2.5" style="stroke:#181818;stroke-width:0.5;" width="164.3164" x="343" y="331"/><ellipse cx="358" cy="347" fill="#ADD1B2" rx="11" ry="11" style="stroke:#181818;stroke-width:1.0;"/><path d="M360.7656,342.875 Q360.9219,342.6563 361.1094,342.5469 Q361.2969,342.4375 361.5156,342.4375 Q361.8906,342.4375 362.125,342.7031 Q362.3594,342.9531 362.3594,343.5625 L362.3594,345.0156 Q362.3594,345.625 362.125,345.8906 Q361.8906,346.1563 361.5156,346.1563 Q361.1719,346.1563 360.9688,345.9531 Q360.7656,345.7656 360.6563,345.25 Q360.6094,344.8906 360.4219,344.7031 Q360.0938,344.3281 359.4844,344.1094 Q358.875,343.8906 358.25,343.8906 Q357.4844,343.8906 356.8438,344.2188 Q356.2188,344.5469 355.7188,345.2969 Q355.2344,346.0469 355.2344,347.0781 L355.2344,348.1719 Q355.2344,349.4063 356.125,350.2344 Q357.0156,351.0469 358.6094,351.0469 Q359.5469,351.0469 360.2031,350.7969 Q360.5938,350.6406 361.0156,350.2031 Q361.2813,349.9375 361.4219,349.8594 Q361.5781,349.7813 361.7813,349.7813 Q362.1094,349.7813 362.3594,350.0469 Q362.625,350.2969 362.625,350.6406 Q362.625,350.9844 362.2813,351.3906 Q361.7813,351.9688 360.9844,352.2969 Q359.9063,352.75 358.6094,352.75 Q357.0938,352.75 355.8906,352.125 Q354.9063,351.625 354.2188,350.5625 Q353.5313,349.4844 353.5313,348.2031 L353.5313,347.0469 Q353.5313,345.7188 354.1406,344.5781 Q354.7656,343.4219 355.8594,342.8125 Q356.9531,342.1875 358.1875,342.1875 Q358.9219,342.1875 359.5625,342.3594 Q360.2188,342.5156 360.7656,342.875 Z " fill="#000000"/><text fill="#000000" font-family="sans-serif" font-size="14" lengthAdjust="spacing" textLength="132.3164" x="372" y="352.7969">NodeChangeListener</text><line style="stroke:#181818;stroke-width:0.5;" x1="344" x2="506.3164" y1="363" y2="363"/><line style="stroke:#181818;stroke-width:0.5;" x1="344" x2="506.3164" y1="371" y2="371"/></g><!--class modelChangeListener--><g id="elem_modelChangeListener"><rect codeLine="14" fill="#F1F1F1" height="48" id="modelChangeListener" rx="2.5" ry="2.5" style="stroke:#181818;stroke-width:0.5;" width="168.9785" x="542.5" y="331"/><ellipse cx="557.5" cy="347" fill="#ADD1B2" rx="11" ry="11" style="stroke:#181818;stroke-width:1.0;"/><path d="M560.2656,342.875 Q560.4219,342.6563 560.6094,342.5469 Q560.7969,342.4375 561.0156,342.4375 Q561.3906,342.4375 561.625,342.7031 Q561.8594,342.9531 561.8594,343.5625 L561.8594,345.0156 Q561.8594,345.625 561.625,345.8906 Q561.3906,346.1563 561.0156,346.1563 Q560.6719,346.1563 560.4688,345.9531 Q560.2656,345.7656 560.1563,345.25 Q560.1094,344.8906 559.9219,344.7031 Q559.5938,344.3281 558.9844,344.1094 Q558.375,343.8906 557.75,343.8906 Q556.9844,343.8906 556.3438,344.2188 Q555.7188,344.5469 555.2188,345.2969 Q554.7344,346.0469 554.7344,347.0781 L554.7344,348.1719 Q554.7344,349.4063 555.625,350.2344 Q556.5156,351.0469 558.1094,351.0469 Q559.0469,351.0469 559.7031,350.7969 Q560.0938,350.6406 560.5156,350.2031 Q560.7813,349.9375 560.9219,349.8594 Q561.0781,349.7813 561.2813,349.7813 Q561.6094,349.7813 561.8594,350.0469 Q562.125,350.2969 562.125,350.6406 Q562.125,350.9844 561.7813,351.3906 Q561.2813,351.9688 560.4844,352.2969 Q559.4063,352.75 558.1094,352.75 Q556.5938,352.75 555.3906,352.125 Q554.4063,351.625 553.7188,350.5625 Q553.0313,349.4844 553.0313,348.2031 L553.0313,347.0469 Q553.0313,345.7188 553.6406,344.5781 Q554.2656,343.4219 555.3594,342.8125 Q556.4531,342.1875 557.6875,342.1875 Q558.4219,342.1875 559.0625,342.3594 Q559.7188,342.5156 560.2656,342.875 Z " fill="#000000"/><text fill="#000000" font-family="sans-serif" font-size="14" lengthAdjust="spacing" textLength="136.9785" x="571.5" y="352.7969">ModelChangeListener</text><line style="stroke:#181818;stroke-width:0.5;" x1="543.5" x2="710.4785" y1="363" y2="363"/><line style="stroke:#181818;stroke-width:0.5;" x1="543.5" x2="710.4785" y1="371" y2="371"/></g><!--class moduleChangeListener--><g id="elem_moduleChangeListener"><rect codeLine="15" fill="#F1F1F1" height="48" id="moduleChangeListener" rx="2.5" ry="2.5" style="stroke:#181818;stroke-width:0.5;" width="168.9785" x="203.5" y="223"/><ellipse cx="218.5" cy="239" fill="#ADD1B2" rx="11" ry="11" style="stroke:#181818;stroke-width:1.0;"/><path d="M221.2656,234.875 Q221.4219,234.6563 221.6094,234.5469 Q221.7969,234.4375 222.0156,234.4375 Q222.3906,234.4375 222.625,234.7031 Q222.8594,234.9531 222.8594,235.5625 L222.8594,237.0156 Q222.8594,237.625 222.625,237.8906 Q222.3906,238.1563 222.0156,238.1563 Q221.6719,238.1563 221.4688,237.9531 Q221.2656,237.7656 221.1563,237.25 Q221.1094,236.8906 220.9219,236.7031 Q220.5938,236.3281 219.9844,236.1094 Q219.375,235.8906 218.75,235.8906 Q217.9844,235.8906 217.3438,236.2188 Q216.7188,236.5469 216.2188,237.2969 Q215.7344,238.0469 215.7344,239.0781 L215.7344,240.1719 Q215.7344,241.4063 216.625,242.2344 Q217.5156,243.0469 219.1094,243.0469 Q220.0469,243.0469 220.7031,242.7969 Q221.0938,242.6406 221.5156,242.2031 Q221.7813,241.9375 221.9219,241.8594 Q222.0781,241.7813 222.2813,241.7813 Q222.6094,241.7813 222.8594,242.0469 Q223.125,242.2969 223.125,242.6406 Q223.125,242.9844 222.7813,243.3906 Q222.2813,243.9688 221.4844,244.2969 Q220.4063,244.75 219.1094,244.75 Q217.5938,244.75 216.3906,244.125 Q215.4063,243.625 214.7188,242.5625 Q214.0313,241.4844 214.0313,240.2031 L214.0313,239.0469 Q214.0313,237.7188 214.6406,236.5781 Q215.2656,235.4219 216.3594,234.8125 Q217.4531,234.1875 218.6875,234.1875 Q219.4219,234.1875 220.0625,234.3594 Q220.7188,234.5156 221.2656,234.875 Z " fill="#000000"/><text fill="#000000" font-family="sans-serif" font-size="14" lengthAdjust="spacing" textLength="136.9785" x="232.5" y="244.7969">ModuleChageListener</text><line style="stroke:#181818;stroke-width:0.5;" x1="204.5" x2="371.4785" y1="255" y2="255"/><line style="stroke:#181818;stroke-width:0.5;" x1="204.5" x2="371.4785" y1="263" y2="263"/></g><!--reverse link iBinding to modelBinding--><g id="link_iBinding_modelBinding"><path codeLine="18" d="M367.8737,71.0102 C390.9537,112.1702 429.87,181.58 452.95,222.72 " fill="none" id="iBinding-backto-modelBinding" style="stroke:#181818;stroke-width:1.0;stroke-dasharray:7.0,7.0;"/><polygon fill="none" points="359.07,55.31,362.6403,73.9447,373.1071,68.0756,359.07,55.31" style="stroke:#181818;stroke-width:1.0;"/></g><!--reverse link iBinding to moduleBinding--><g id="link_iBinding_moduleBinding"><path codeLine="19" d="M324.7719,70.7919 C315.1119,88.4519 310.47,96.94 300.76,114.68 " fill="none" id="iBinding-backto-moduleBinding" style="stroke:#181818;stroke-width:1.0;stroke-dasharray:7.0,7.0;"/><polygon fill="none" points="333.41,55,319.5079,67.9125,330.0358,73.6712,333.41,55" style="stroke:#181818;stroke-width:1.0;"/></g><!--link serviceLocator to bindingsRegistry--><g id="link_serviceLocator_bindingsRegistry"><path codeLine="21" d="M390.483,494.9637 C371.483,511.0137 355.45,525.54 335,547 C301.1,582.58 269.6268,623.0702 249.5368,650.0102 " fill="none" id="serviceLocator-bindingsRegistry" style="stroke:#181818;stroke-width:1.0;"/><polygon fill="#181818" points="399.65,487.22,392.4852,488.0362,390.483,494.9637,397.6477,494.1475,399.65,487.22" style="stroke:#181818;stroke-width:1.0;"/><polygon fill="#181818" points="245.95,654.82,254.5368,649.9965,248.939,650.8118,248.1237,645.214,245.95,654.82" style="stroke:#181818;stroke-width:1.0;"/></g><!--link serviceLocator to syncQueue--><g id="link_serviceLocator_syncQueue"><path codeLine="22" d="M502.2701,479.9841 C548.1501,491.9741 598.18,510.57 642,547 C677.57,576.57 699.739,620.4671 711.879,649.4071 " fill="none" id="serviceLocator-syncQueue" style="stroke:#181818;stroke-width:1.0;"/><polygon fill="#181818" points="490.66,476.95,495.4537,482.3371,502.2701,479.9841,497.4764,474.597,490.66,476.95" style="stroke:#181818;stroke-width:1.0;"/><polygon fill="#181818" points="714.2,654.94,714.4071,645.0933,712.2658,650.3292,707.0299,648.188,714.2,654.94" style="stroke:#181818;stroke-width:1.0;"/></g><!--link serviceLocator to nodeMap--><g id="link_serviceLocator_nodeMap"><path codeLine="23" d="M437.9315,498.8498 C449.6715,540.0098 468.9961,607.8096 480.7161,648.9496 " fill="none" id="serviceLocator-nodeMap" style="stroke:#181818;stroke-width:1.0;"/><polygon fill="#181818" points="434.64,487.31,432.4391,494.177,437.9315,498.8498,440.1323,491.9827,434.64,487.31" style="stroke:#181818;stroke-width:1.0;"/><polygon fill="#181818" points="482.36,654.72,483.7411,644.9685,480.9901,649.9113,476.0472,647.1603,482.36,654.72" style="stroke:#181818;stroke-width:1.0;"/></g><!--link serviceLocator to futuresWaitQueue--><g id="link_serviceLocator_futuresWaitQueue"><path codeLine="24" d="M412.1942,498.24 C392.9542,542.37 363.06,629.45 396,703 C407.15,727.89 424.966,744.8949 445.146,759.2949 " fill="none" id="serviceLocator-futuresWaitQueue" style="stroke:#181818;stroke-width:1.0;"/><polygon fill="#181818" points="416.99,487.24,410.9254,491.1414,412.1942,498.24,418.2588,494.3386,416.99,487.24" style="stroke:#181818;stroke-width:1.0;"/><polygon fill="#181818" points="450.03,762.78,445.0274,754.2963,445.96,759.8757,440.3805,760.8083,450.03,762.78" style="stroke:#181818;stroke-width:1.0;"/></g><!--link serviceLocator to injectableService--><g id="link_serviceLocator_injectableService"><path codeLine="25" d="M455.56,487 C476.71,504.66 505.81,528.94 527.06,546.68 " fill="none" id="serviceLocator-injectableService" style="stroke:#181818;stroke-width:1.0;stroke-dasharray:7.0,7.0;"/></g><!--reverse link injectableService to bindingsRegistry--><g id="link_injectableService_bindingsRegistry"><path codeLine="27" d="M468.3425,600.1769 C412.9025,618.2069 352.78,637.75 297.59,655.7 " fill="none" id="injectableService-backto-bindingsRegistry" style="stroke:#181818;stroke-width:1.0;stroke-dasharray:7.0,7.0;"/><polygon fill="none" points="485.46,594.61,466.4868,594.4711,470.1981,605.8827,485.46,594.61" style="stroke:#181818;stroke-width:1.0;"/></g><!--reverse link injectableService to syncQueue--><g id="link_injectableService_syncQueue"><path codeLine="28" d="M606.6739,604.6037 C634.7639,622.3237 658.19,637.11 686.33,654.86 " fill="none" id="injectableService-backto-syncQueue" style="stroke:#181818;stroke-width:1.0;stroke-dasharray:7.0,7.0;"/><polygon fill="none" points="591.45,595,603.4727,609.6784,609.8752,599.5291,591.45,595" style="stroke:#181818;stroke-width:1.0;"/></g><!--reverse link injectableService to nodeMap--><g id="link_injectableService_nodeMap"><path codeLine="29" d="M531.1634,610.2785 C520.1634,627.9385 514.57,636.94 503.52,654.68 " fill="none" id="injectableService-backto-nodeMap" style="stroke:#181818;stroke-width:1.0;stroke-dasharray:7.0,7.0;"/><polygon fill="none" points="540.68,595,526.0705,607.1063,536.2562,613.4507,540.68,595" style="stroke:#181818;stroke-width:1.0;"/></g><!--reverse link injectableService to futuresWaitQueue--><g id="link_injectableService_futuresWaitQueue"><path codeLine="30" d="M576.0006,611.319 C589.3006,638.249 597.95,667.4 582,703 C570.85,727.89 548.15,748.38 527.97,762.78 " fill="none" id="injectableService-backto-futuresWaitQueue" style="stroke:#181818;stroke-width:1.0;stroke-dasharray:7.0,7.0;"/><polygon fill="none" points="568.03,595.18,570.621,613.9759,581.3803,608.6622,568.03,595.18" style="stroke:#181818;stroke-width:1.0;"/></g><!--link modelBinding to serviceLocator--><g id="link_modelBinding_serviceLocator"><path codeLine="32" d="M524.86,254.77 C618.93,268.01 786.95,302.91 729,379 C700.26,416.73 576.0927,440.764 496.6327,452.764 " fill="none" id="modelBinding-to-serviceLocator" style="stroke:#181818;stroke-width:1.0;stroke-dasharray:7.0,7.0;"/><polygon fill="#181818" points="490.7,453.66,500.1964,456.2712,495.6439,452.9134,499.0018,448.3609,490.7,453.66" style="stroke:#181818;stroke-width:1.0;"/></g><!--link modelBinding to nodeChangeListener--><g id="link_modelBinding_nodeChangeListener"><path codeLine="33" d="M457.1,271 C450.27,288.66 443.044,307.3438 436.184,325.0838 " fill="none" id="modelBinding-to-nodeChangeListener" style="stroke:#181818;stroke-width:1.0;"/><polygon fill="#181818" points="434.02,330.68,440.9968,323.7284,435.8233,326.0165,433.5353,320.8431,434.02,330.68" style="stroke:#181818;stroke-width:1.0;"/></g><!--link modelBinding to modelChangeListener--><g id="link_modelBinding_modelChangeListener"><path codeLine="34" d="M500.93,271 C527.85,288.72 564.89,313.11 591.86,330.86 " fill="none" id="modelBinding-modelChangeListener" style="stroke:#181818;stroke-width:1.0;"/></g><!--link modelBinding to bindingsRegistry--><g id="link_modelBinding_bindingsRegistry"><path codeLine="35" d="M407.17,270.15 C378.56,283.69 345.92,303.73 325,331 C246.82,432.92 232.5691,588.816 229.8791,648.726 " fill="none" id="modelBinding-to-bindingsRegistry" style="stroke:#181818;stroke-width:1.0;"/><polygon fill="#181818" points="229.61,654.72,234.0097,645.9085,229.8343,649.725,226.0177,645.5496,229.61,654.72" style="stroke:#181818;stroke-width:1.0;"/></g><!--link modelBinding to syncQueue--><g id="link_modelBinding_syncQueue"><path codeLine="36" d="M524.62,256.14 C601.97,268.22 731.68,293.57 760,331 C835.31,430.52 768.1443,589.194 737.9843,649.484 " fill="none" id="modelBinding-to-syncQueue" style="stroke:#181818;stroke-width:1.0;"/><polygon fill="#181818" points="735.3,654.85,742.9039,648.5905,737.537,650.3783,735.7492,645.0114,735.3,654.85" style="stroke:#181818;stroke-width:1.0;"/></g><!--link moduleBinding to serviceLocator--><g id="link_moduleBinding_serviceLocator"><path codeLine="38" d="M244.31,163.05 C222.47,177.16 198.16,197.43 186,223 C176.84,242.27 177.75,251.33 186,271 C220.69,353.67 308.1767,407.3214 368.2667,436.3314 " fill="none" id="moduleBinding-to-serviceLocator" style="stroke:#181818;stroke-width:1.0;stroke-dasharray:7.0,7.0;"/><polygon fill="#181818" points="373.67,438.94,367.3041,431.425,369.1673,436.7662,363.826,438.6293,373.67,438.94" style="stroke:#181818;stroke-width:1.0;"/></g><!--link moduleBinding to moduleChangeListener--><g id="link_moduleBinding_moduleChangeListener"><path codeLine="39" d="M288,163 C288,180.66 288,198.94 288,216.68 " fill="none" id="moduleBinding-to-moduleChangeListener" style="stroke:#181818;stroke-width:1.0;"/><polygon fill="#181818" points="288,222.68,292,213.68,288,217.68,284,213.68,288,222.68" style="stroke:#181818;stroke-width:1.0;"/></g><!--link moduleBinding to modelBinding--><g id="link_moduleBinding_modelBinding"><path codeLine="40" d="M326.62,163 C356.38,180.72 392.1742,202.0411 421.9942,219.7911 " fill="none" id="moduleBinding-to-modelBinding" style="stroke:#181818;stroke-width:1.0;stroke-dasharray:7.0,7.0;"/><polygon fill="#181818" points="427.15,222.86,421.4623,214.8195,422.8535,220.3026,417.3704,221.6938,427.15,222.86" style="stroke:#181818;stroke-width:1.0;"/></g><!--link moduleBinding to bindingsRegistry--><g id="link_moduleBinding_bindingsRegistry"><path codeLine="41" d="M238.53,163.01 C176.16,195.84 77,262.43 77,354 C77,354 77,354 77,464 C77,546.48 148.293,615.564 192.823,651.154 " fill="none" id="moduleBinding-to-bindingsRegistry" style="stroke:#181818;stroke-width:1.0;"/><polygon fill="#181818" points="197.51,654.9,192.9769,646.1564,193.6042,651.7783,187.9822,652.4057,197.51,654.9" style="stroke:#181818;stroke-width:1.0;"/></g><!--link moduleBinding to syncQueue--><g id="link_moduleBinding_syncQueue"><path codeLine="42" d="M350.76,148.06 C508.13,170.01 907,237.17 907,354 C907,354 907,354 907,464 C907,551.22 823.1147,617.4088 768.9147,651.5988 " fill="none" id="moduleBinding-to-syncQueue" style="stroke:#181818;stroke-width:1.0;"/><polygon fill="#181818" points="763.84,654.8,773.5862,653.3814,768.0689,652.1324,769.3179,646.6151,763.84,654.8" style="stroke:#181818;stroke-width:1.0;"/></g><!--link moduleBinding to futuresWaitQueue--><g id="link_moduleBinding_futuresWaitQueue"><path codeLine="43" d="M225.42,157.03 C142.34,183.88 6,244.6 6,354 C6,354 6,354 6,572 C6,748.44 272.7542,780.3262 408.3342,785.3862 " fill="none" id="moduleBinding-to-futuresWaitQueue" style="stroke:#181818;stroke-width:1.0;"/><polygon fill="#181818" points="414.33,785.61,405.4854,781.2771,409.3335,785.4235,405.1871,789.2716,414.33,785.61" style="stroke:#181818;stroke-width:1.0;"/></g><!--link nodeChangeListener to serviceLocator--><g id="link_nodeChangeListener_serviceLocator"><path codeLine="45" d="M425.65,379 C426.15,396.66 426.671,414.9424 427.171,432.6824 " fill="none" id="nodeChangeListener-to-serviceLocator" style="stroke:#181818;stroke-width:1.0;stroke-dasharray:7.0,7.0;"/><polygon fill="#181818" points="427.34,438.68,431.0848,429.5709,427.1991,433.682,423.088,429.7963,427.34,438.68" style="stroke:#181818;stroke-width:1.0;"/></g><!--link modelChangeListener to serviceLocator--><g id="link_modelChangeListener_serviceLocator"><path codeLine="46" d="M583.82,379 C550.56,396.72 510.0658,418.2897 476.7358,436.0397 " fill="none" id="modelChangeListener-to-serviceLocator" style="stroke:#181818;stroke-width:1.0;stroke-dasharray:7.0,7.0;"/><polygon fill="#181818" points="471.44,438.86,481.264,438.1601,475.8532,436.5097,477.5035,431.099,471.44,438.86" style="stroke:#181818;stroke-width:1.0;"/></g><!--link moduleChangeListener to serviceLocator--><g id="link_moduleChangeListener_serviceLocator"><path codeLine="47" d="M290.22,271.07 C293.8,298.71 302.85,345.48 325,379 C341.21,403.53 361.9836,420.928 383.6736,435.538 " fill="none" id="moduleChangeListener-to-serviceLocator" style="stroke:#181818;stroke-width:1.0;stroke-dasharray:7.0,7.0;"/><polygon fill="#181818" points="388.65,438.89,383.4201,430.5444,384.503,436.0967,378.9508,437.1796,388.65,438.89" style="stroke:#181818;stroke-width:1.0;"/></g><!--link syncQueue to futuresWaitQueue--><g id="link_syncQueue_futuresWaitQueue"><path codeLine="49" d="M672.23,703 C633.11,720.72 584.7355,742.6345 545.5455,760.3845 " fill="none" id="syncQueue-to-futuresWaitQueue" style="stroke:#181818;stroke-width:1.0;stroke-dasharray:7.0,7.0;"/><polygon fill="#181818" points="540.08,762.86,549.9286,762.7905,544.6346,760.7971,546.628,755.5031,540.08,762.86" style="stroke:#181818;stroke-width:1.0;"/></g><!--SRC=[ZLJBQiCm4BphAuGlXaBo1IM7bXOAIQ1feMT5sRWgZXGakJJGZw_yaFLO6NgpPcTtPsSNrq_I2Yl0r4H82_hCED3gvK78av1DHPcXOdeGtZ9ZQBLJ9sXZmYK28bBNGiOA24cwoI_WbXrRU0FzBJYCRNFKbvwUMyMPLNhWcWJonAcNEK0ZZDMtWNhCmBdgJVBN3hgnkV6lUPwhULV3vE9dnwu3IRgd-_QKvyvs6im74pOKEcSWyUozItxyPBA1hTC14lHSCuKJsmiP5uodIt0nd3BYSGwf3z0oAvJiRs7oZjx_hjVfWb4etcgw27gtMcsmuoLICBmKzKwNOiZXZEH4ubCY21h7GLeNU47k0i4hNWZZiuWzTfet-KqdSUz9jiACKpmDL0UDZ1XXM9AiUq5cHEYpYyU6woGtXgkKL6QK81F7iD_OlaNN_qL3CvPuPDOuHB6gUgzi_o_-0m00]--></g></svg>
