<svg xmlns="http://www.w3.org/2000/svg" xmlns:xlink="http://www.w3.org/1999/xlink" contentStyleType="text/css" height="710px" preserveAspectRatio="none" style="width:843px;height:710px;background:#FFFFFF;" version="1.1" viewBox="0 0 843 710" width="843px" zoomAndPan="magnify"><defs/><g><!--class iBinding--><g id="elem_iBinding"><rect codeLine="2" fill="#F1F1F1" height="48" id="iBinding" rx="2.5" ry="2.5" style="stroke:#181818;stroke-width:0.5;" width="82.5928" x="266.5" y="7"/><ellipse cx="281.5" cy="23" fill="#B4A7E5" rx="11" ry="11" style="stroke:#181818;stroke-width:1.0;"/><path d="M282.4531,19.6406 L282.4531,26.2969 L284.1719,26.2969 Q284.7813,26.2969 285.0469,26.5313 Q285.3125,26.7656 285.3125,27.1563 Q285.3125,27.5313 285.0469,27.7656 Q284.7813,28 284.1719,28 L279.0313,28 Q278.4219,28 278.1563,27.7656 Q277.8906,27.5313 277.8906,27.1406 Q277.8906,26.7656 278.1563,26.5313 Q278.4219,26.2969 279.0313,26.2969 L280.75,26.2969 L280.75,19.6406 L279.0313,19.6406 Q278.4219,19.6406 278.1563,19.4063 Q277.8906,19.1719 277.8906,18.7813 Q277.8906,18.4063 278.1563,18.1719 Q278.4219,17.9375 279.0313,17.9375 L284.1719,17.9375 Q284.7813,17.9375 285.0469,18.1719 Q285.3125,18.4063 285.3125,18.7813 Q285.3125,19.1719 285.0469,19.4063 Q284.7813,19.6406 284.1719,19.6406 L282.4531,19.6406 Z " fill="#000000"/><text fill="#000000" font-family="sans-serif" font-size="14" font-style="italic" lengthAdjust="spacing" textLength="50.5928" x="295.5" y="28.7969">IBinding</text><line style="stroke:#181818;stroke-width:0.5;" x1="267.5" x2="348.0928" y1="39" y2="39"/><line style="stroke:#181818;stroke-width:0.5;" x1="267.5" x2="348.0928" y1="47" y2="47"/></g><!--class modelBinding--><g id="elem_modelBinding"><rect codeLine="3" fill="#F1F1F1" height="48" id="modelBinding" rx="2.5" ry="2.5" style="stroke:#181818;stroke-width:0.5;" width="116.834" x="338.5" y="223"/><ellipse cx="353.5" cy="239" fill="#ADD1B2" rx="11" ry="11" style="stroke:#181818;stroke-width:1.0;"/><path d="M356.2656,234.875 Q356.4219,234.6563 356.6094,234.5469 Q356.7969,234.4375 357.0156,234.4375 Q357.3906,234.4375 357.625,234.7031 Q357.8594,234.9531 357.8594,235.5625 L357.8594,237.0156 Q357.8594,237.625 357.625,237.8906 Q357.3906,238.1563 357.0156,238.1563 Q356.6719,238.1563 356.4688,237.9531 Q356.2656,237.7656 356.1563,237.25 Q356.1094,236.8906 355.9219,236.7031 Q355.5938,236.3281 354.9844,236.1094 Q354.375,235.8906 353.75,235.8906 Q352.9844,235.8906 352.3438,236.2188 Q351.7188,236.5469 351.2188,237.2969 Q350.7344,238.0469 350.7344,239.0781 L350.7344,240.1719 Q350.7344,241.4063 351.625,242.2344 Q352.5156,243.0469 354.1094,243.0469 Q355.0469,243.0469 355.7031,242.7969 Q356.0938,242.6406 356.5156,242.2031 Q356.7813,241.9375 356.9219,241.8594 Q357.0781,241.7813 357.2813,241.7813 Q357.6094,241.7813 357.8594,242.0469 Q358.125,242.2969 358.125,242.6406 Q358.125,242.9844 357.7813,243.3906 Q357.2813,243.9688 356.4844,244.2969 Q355.4063,244.75 354.1094,244.75 Q352.5938,244.75 351.3906,244.125 Q350.4063,243.625 349.7188,242.5625 Q349.0313,241.4844 349.0313,240.2031 L349.0313,239.0469 Q349.0313,237.7188 349.6406,236.5781 Q350.2656,235.4219 351.3594,234.8125 Q352.4531,234.1875 353.6875,234.1875 Q354.4219,234.1875 355.0625,234.3594 Q355.7188,234.5156 356.2656,234.875 Z " fill="#000000"/><text fill="#000000" font-family="sans-serif" font-size="14" lengthAdjust="spacing" textLength="84.834" x="367.5" y="244.7969">ModelBinding</text><line style="stroke:#181818;stroke-width:0.5;" x1="339.5" x2="454.334" y1="255" y2="255"/><line style="stroke:#181818;stroke-width:0.5;" x1="339.5" x2="454.334" y1="263" y2="263"/></g><!--class moduleBinding--><g id="elem_moduleBinding"><rect codeLine="4" fill="#F1F1F1" height="48" id="moduleBinding" rx="2.5" ry="2.5" style="stroke:#181818;stroke-width:0.5;" width="124.6201" x="187.5" y="115"/><ellipse cx="202.5" cy="131" fill="#ADD1B2" rx="11" ry="11" style="stroke:#181818;stroke-width:1.0;"/><path d="M205.2656,126.875 Q205.4219,126.6563 205.6094,126.5469 Q205.7969,126.4375 206.0156,126.4375 Q206.3906,126.4375 206.625,126.7031 Q206.8594,126.9531 206.8594,127.5625 L206.8594,129.0156 Q206.8594,129.625 206.625,129.8906 Q206.3906,130.1563 206.0156,130.1563 Q205.6719,130.1563 205.4688,129.9531 Q205.2656,129.7656 205.1563,129.25 Q205.1094,128.8906 204.9219,128.7031 Q204.5938,128.3281 203.9844,128.1094 Q203.375,127.8906 202.75,127.8906 Q201.9844,127.8906 201.3438,128.2188 Q200.7188,128.5469 200.2188,129.2969 Q199.7344,130.0469 199.7344,131.0781 L199.7344,132.1719 Q199.7344,133.4063 200.625,134.2344 Q201.5156,135.0469 203.1094,135.0469 Q204.0469,135.0469 204.7031,134.7969 Q205.0938,134.6406 205.5156,134.2031 Q205.7813,133.9375 205.9219,133.8594 Q206.0781,133.7813 206.2813,133.7813 Q206.6094,133.7813 206.8594,134.0469 Q207.125,134.2969 207.125,134.6406 Q207.125,134.9844 206.7813,135.3906 Q206.2813,135.9688 205.4844,136.2969 Q204.4063,136.75 203.1094,136.75 Q201.5938,136.75 200.3906,136.125 Q199.4063,135.625 198.7188,134.5625 Q198.0313,133.4844 198.0313,132.2031 L198.0313,131.0469 Q198.0313,129.7188 198.6406,128.5781 Q199.2656,127.4219 200.3594,126.8125 Q201.4531,126.1875 202.6875,126.1875 Q203.4219,126.1875 204.0625,126.3594 Q204.7188,126.5156 205.2656,126.875 Z " fill="#000000"/><text fill="#000000" font-family="sans-serif" font-size="14" lengthAdjust="spacing" textLength="92.6201" x="216.5" y="136.7969">ModuleBinding</text><line style="stroke:#181818;stroke-width:0.5;" x1="188.5" x2="311.1201" y1="147" y2="147"/><line style="stroke:#181818;stroke-width:0.5;" x1="188.5" x2="311.1201" y1="155" y2="155"/></g><!--class injectableService--><g id="elem_injectableService"><rect codeLine="6" fill="#F1F1F1" height="48" id="injectableService" rx="2.5" ry="2.5" style="stroke:#181818;stroke-width:0.5;" width="138.6133" x="284.5" y="547"/><ellipse cx="299.5" cy="563" fill="#B4A7E5" rx="11" ry="11" style="stroke:#181818;stroke-width:1.0;"/><path d="M300.4531,559.6406 L300.4531,566.2969 L302.1719,566.2969 Q302.7813,566.2969 303.0469,566.5313 Q303.3125,566.7656 303.3125,567.1563 Q303.3125,567.5313 303.0469,567.7656 Q302.7813,568 302.1719,568 L297.0313,568 Q296.4219,568 296.1563,567.7656 Q295.8906,567.5313 295.8906,567.1406 Q295.8906,566.7656 296.1563,566.5313 Q296.4219,566.2969 297.0313,566.2969 L298.75,566.2969 L298.75,559.6406 L297.0313,559.6406 Q296.4219,559.6406 296.1563,559.4063 Q295.8906,559.1719 295.8906,558.7813 Q295.8906,558.4063 296.1563,558.1719 Q296.4219,557.9375 297.0313,557.9375 L302.1719,557.9375 Q302.7813,557.9375 303.0469,558.1719 Q303.3125,558.4063 303.3125,558.7813 Q303.3125,559.1719 303.0469,559.4063 Q302.7813,559.6406 302.1719,559.6406 L300.4531,559.6406 Z " fill="#000000"/><text fill="#000000" font-family="sans-serif" font-size="14" font-style="italic" lengthAdjust="spacing" textLength="106.6133" x="313.5" y="568.7969">InjectableService</text><line style="stroke:#181818;stroke-width:0.5;" x1="285.5" x2="422.1133" y1="579" y2="579"/><line style="stroke:#181818;stroke-width:0.5;" x1="285.5" x2="422.1133" y1="587" y2="587"/></g><!--class serviceLocator--><g id="elem_serviceLocator"><rect codeLine="7" fill="#F1F1F1" height="48" id="serviceLocator" rx="2.5" ry="2.5" style="stroke:#181818;stroke-width:0.5;" width="125.3789" x="291.5" y="439"/><ellipse cx="306.5" cy="455" fill="#ADD1B2" rx="11" ry="11" style="stroke:#181818;stroke-width:1.0;"/><path d="M309.2656,450.875 Q309.4219,450.6563 309.6094,450.5469 Q309.7969,450.4375 310.0156,450.4375 Q310.3906,450.4375 310.625,450.7031 Q310.8594,450.9531 310.8594,451.5625 L310.8594,453.0156 Q310.8594,453.625 310.625,453.8906 Q310.3906,454.1563 310.0156,454.1563 Q309.6719,454.1563 309.4688,453.9531 Q309.2656,453.7656 309.1563,453.25 Q309.1094,452.8906 308.9219,452.7031 Q308.5938,452.3281 307.9844,452.1094 Q307.375,451.8906 306.75,451.8906 Q305.9844,451.8906 305.3438,452.2188 Q304.7188,452.5469 304.2188,453.2969 Q303.7344,454.0469 303.7344,455.0781 L303.7344,456.1719 Q303.7344,457.4063 304.625,458.2344 Q305.5156,459.0469 307.1094,459.0469 Q308.0469,459.0469 308.7031,458.7969 Q309.0938,458.6406 309.5156,458.2031 Q309.7813,457.9375 309.9219,457.8594 Q310.0781,457.7813 310.2813,457.7813 Q310.6094,457.7813 310.8594,458.0469 Q311.125,458.2969 311.125,458.6406 Q311.125,458.9844 310.7813,459.3906 Q310.2813,459.9688 309.4844,460.2969 Q308.4063,460.75 307.1094,460.75 Q305.5938,460.75 304.3906,460.125 Q303.4063,459.625 302.7188,458.5625 Q302.0313,457.4844 302.0313,456.2031 L302.0313,455.0469 Q302.0313,453.7188 302.6406,452.5781 Q303.2656,451.4219 304.3594,450.8125 Q305.4531,450.1875 306.6875,450.1875 Q307.4219,450.1875 308.0625,450.3594 Q308.7188,450.5156 309.2656,450.875 Z " fill="#000000"/><text fill="#000000" font-family="sans-serif" font-size="14" lengthAdjust="spacing" textLength="93.3789" x="320.5" y="460.7969">ServiceLocator</text><line style="stroke:#181818;stroke-width:0.5;" x1="292.5" x2="415.8789" y1="471" y2="471"/><line style="stroke:#181818;stroke-width:0.5;" x1="292.5" x2="415.8789" y1="479" y2="479"/></g><!--class wrappedNotifier--><g id="elem_wrappedNotifier"><rect codeLine="8" fill="#F1F1F1" height="48" id="wrappedNotifier" rx="2.5" ry="2.5" style="stroke:#181818;stroke-width:0.5;" width="133.1514" x="608.5" y="655"/><ellipse cx="623.5" cy="671" fill="#ADD1B2" rx="11" ry="11" style="stroke:#181818;stroke-width:1.0;"/><path d="M626.2656,666.875 Q626.4219,666.6563 626.6094,666.5469 Q626.7969,666.4375 627.0156,666.4375 Q627.3906,666.4375 627.625,666.7031 Q627.8594,666.9531 627.8594,667.5625 L627.8594,669.0156 Q627.8594,669.625 627.625,669.8906 Q627.3906,670.1563 627.0156,670.1563 Q626.6719,670.1563 626.4688,669.9531 Q626.2656,669.7656 626.1563,669.25 Q626.1094,668.8906 625.9219,668.7031 Q625.5938,668.3281 624.9844,668.1094 Q624.375,667.8906 623.75,667.8906 Q622.9844,667.8906 622.3438,668.2188 Q621.7188,668.5469 621.2188,669.2969 Q620.7344,670.0469 620.7344,671.0781 L620.7344,672.1719 Q620.7344,673.4063 621.625,674.2344 Q622.5156,675.0469 624.1094,675.0469 Q625.0469,675.0469 625.7031,674.7969 Q626.0938,674.6406 626.5156,674.2031 Q626.7813,673.9375 626.9219,673.8594 Q627.0781,673.7813 627.2813,673.7813 Q627.6094,673.7813 627.8594,674.0469 Q628.125,674.2969 628.125,674.6406 Q628.125,674.9844 627.7813,675.3906 Q627.2813,675.9688 626.4844,676.2969 Q625.4063,676.75 624.1094,676.75 Q622.5938,676.75 621.3906,676.125 Q620.4063,675.625 619.7188,674.5625 Q619.0313,673.4844 619.0313,672.2031 L619.0313,671.0469 Q619.0313,669.7188 619.6406,668.5781 Q620.2656,667.4219 621.3594,666.8125 Q622.4531,666.1875 623.6875,666.1875 Q624.4219,666.1875 625.0625,666.3594 Q625.7188,666.5156 626.2656,666.875 Z " fill="#000000"/><text fill="#000000" font-family="sans-serif" font-size="14" lengthAdjust="spacing" textLength="101.1514" x="637.5" y="676.7969">WrappedNotifier</text><line style="stroke:#181818;stroke-width:0.5;" x1="609.5" x2="740.6514" y1="687" y2="687"/><line style="stroke:#181818;stroke-width:0.5;" x1="609.5" x2="740.6514" y1="695" y2="695"/></g><!--class bindingsRegistry--><g id="elem_bindingsRegistry"><rect codeLine="9" fill="#F1F1F1" height="48" id="bindingsRegistry" rx="2.5" ry="2.5" style="stroke:#181818;stroke-width:0.5;" width="137.0479" x="118.5" y="655"/><ellipse cx="133.5" cy="671" fill="#ADD1B2" rx="11" ry="11" style="stroke:#181818;stroke-width:1.0;"/><path d="M136.2656,666.875 Q136.4219,666.6563 136.6094,666.5469 Q136.7969,666.4375 137.0156,666.4375 Q137.3906,666.4375 137.625,666.7031 Q137.8594,666.9531 137.8594,667.5625 L137.8594,669.0156 Q137.8594,669.625 137.625,669.8906 Q137.3906,670.1563 137.0156,670.1563 Q136.6719,670.1563 136.4688,669.9531 Q136.2656,669.7656 136.1563,669.25 Q136.1094,668.8906 135.9219,668.7031 Q135.5938,668.3281 134.9844,668.1094 Q134.375,667.8906 133.75,667.8906 Q132.9844,667.8906 132.3438,668.2188 Q131.7188,668.5469 131.2188,669.2969 Q130.7344,670.0469 130.7344,671.0781 L130.7344,672.1719 Q130.7344,673.4063 131.625,674.2344 Q132.5156,675.0469 134.1094,675.0469 Q135.0469,675.0469 135.7031,674.7969 Q136.0938,674.6406 136.5156,674.2031 Q136.7813,673.9375 136.9219,673.8594 Q137.0781,673.7813 137.2813,673.7813 Q137.6094,673.7813 137.8594,674.0469 Q138.125,674.2969 138.125,674.6406 Q138.125,674.9844 137.7813,675.3906 Q137.2813,675.9688 136.4844,676.2969 Q135.4063,676.75 134.1094,676.75 Q132.5938,676.75 131.3906,676.125 Q130.4063,675.625 129.7188,674.5625 Q129.0313,673.4844 129.0313,672.2031 L129.0313,671.0469 Q129.0313,669.7188 129.6406,668.5781 Q130.2656,667.4219 131.3594,666.8125 Q132.4531,666.1875 133.6875,666.1875 Q134.4219,666.1875 135.0625,666.3594 Q135.7188,666.5156 136.2656,666.875 Z " fill="#000000"/><text fill="#000000" font-family="sans-serif" font-size="14" lengthAdjust="spacing" textLength="105.0479" x="147.5" y="676.7969">BindingsRegistry</text><line style="stroke:#181818;stroke-width:0.5;" x1="119.5" x2="254.5479" y1="687" y2="687"/><line style="stroke:#181818;stroke-width:0.5;" x1="119.5" x2="254.5479" y1="695" y2="695"/></g><!--class nodeChangeListener--><g id="elem_nodeChangeListener"><rect codeLine="11" fill="#F1F1F1" height="48" id="nodeChangeListener" rx="2.5" ry="2.5" style="stroke:#181818;stroke-width:0.5;" width="164.3164" x="272" y="331"/><ellipse cx="287" cy="347" fill="#ADD1B2" rx="11" ry="11" style="stroke:#181818;stroke-width:1.0;"/><path d="M289.7656,342.875 Q289.9219,342.6563 290.1094,342.5469 Q290.2969,342.4375 290.5156,342.4375 Q290.8906,342.4375 291.125,342.7031 Q291.3594,342.9531 291.3594,343.5625 L291.3594,345.0156 Q291.3594,345.625 291.125,345.8906 Q290.8906,346.1563 290.5156,346.1563 Q290.1719,346.1563 289.9688,345.9531 Q289.7656,345.7656 289.6563,345.25 Q289.6094,344.8906 289.4219,344.7031 Q289.0938,344.3281 288.4844,344.1094 Q287.875,343.8906 287.25,343.8906 Q286.4844,343.8906 285.8438,344.2188 Q285.2188,344.5469 284.7188,345.2969 Q284.2344,346.0469 284.2344,347.0781 L284.2344,348.1719 Q284.2344,349.4063 285.125,350.2344 Q286.0156,351.0469 287.6094,351.0469 Q288.5469,351.0469 289.2031,350.7969 Q289.5938,350.6406 290.0156,350.2031 Q290.2813,349.9375 290.4219,349.8594 Q290.5781,349.7813 290.7813,349.7813 Q291.1094,349.7813 291.3594,350.0469 Q291.625,350.2969 291.625,350.6406 Q291.625,350.9844 291.2813,351.3906 Q290.7813,351.9688 289.9844,352.2969 Q288.9063,352.75 287.6094,352.75 Q286.0938,352.75 284.8906,352.125 Q283.9063,351.625 283.2188,350.5625 Q282.5313,349.4844 282.5313,348.2031 L282.5313,347.0469 Q282.5313,345.7188 283.1406,344.5781 Q283.7656,343.4219 284.8594,342.8125 Q285.9531,342.1875 287.1875,342.1875 Q287.9219,342.1875 288.5625,342.3594 Q289.2188,342.5156 289.7656,342.875 Z " fill="#000000"/><text fill="#000000" font-family="sans-serif" font-size="14" lengthAdjust="spacing" textLength="132.3164" x="301" y="352.7969">NodeChangeListener</text><line style="stroke:#181818;stroke-width:0.5;" x1="273" x2="435.3164" y1="363" y2="363"/><line style="stroke:#181818;stroke-width:0.5;" x1="273" x2="435.3164" y1="371" y2="371"/></g><!--class modelChangeListener--><g id="elem_modelChangeListener"><rect codeLine="12" fill="#F1F1F1" height="48" id="modelChangeListener" rx="2.5" ry="2.5" style="stroke:#181818;stroke-width:0.5;" width="168.9785" x="471.5" y="331"/><ellipse cx="486.5" cy="347" fill="#ADD1B2" rx="11" ry="11" style="stroke:#181818;stroke-width:1.0;"/><path d="M489.2656,342.875 Q489.4219,342.6563 489.6094,342.5469 Q489.7969,342.4375 490.0156,342.4375 Q490.3906,342.4375 490.625,342.7031 Q490.8594,342.9531 490.8594,343.5625 L490.8594,345.0156 Q490.8594,345.625 490.625,345.8906 Q490.3906,346.1563 490.0156,346.1563 Q489.6719,346.1563 489.4688,345.9531 Q489.2656,345.7656 489.1563,345.25 Q489.1094,344.8906 488.9219,344.7031 Q488.5938,344.3281 487.9844,344.1094 Q487.375,343.8906 486.75,343.8906 Q485.9844,343.8906 485.3438,344.2188 Q484.7188,344.5469 484.2188,345.2969 Q483.7344,346.0469 483.7344,347.0781 L483.7344,348.1719 Q483.7344,349.4063 484.625,350.2344 Q485.5156,351.0469 487.1094,351.0469 Q488.0469,351.0469 488.7031,350.7969 Q489.0938,350.6406 489.5156,350.2031 Q489.7813,349.9375 489.9219,349.8594 Q490.0781,349.7813 490.2813,349.7813 Q490.6094,349.7813 490.8594,350.0469 Q491.125,350.2969 491.125,350.6406 Q491.125,350.9844 490.7813,351.3906 Q490.2813,351.9688 489.4844,352.2969 Q488.4063,352.75 487.1094,352.75 Q485.5938,352.75 484.3906,352.125 Q483.4063,351.625 482.7188,350.5625 Q482.0313,349.4844 482.0313,348.2031 L482.0313,347.0469 Q482.0313,345.7188 482.6406,344.5781 Q483.2656,343.4219 484.3594,342.8125 Q485.4531,342.1875 486.6875,342.1875 Q487.4219,342.1875 488.0625,342.3594 Q488.7188,342.5156 489.2656,342.875 Z " fill="#000000"/><text fill="#000000" font-family="sans-serif" font-size="14" lengthAdjust="spacing" textLength="136.9785" x="500.5" y="352.7969">ModelChangeListener</text><line style="stroke:#181818;stroke-width:0.5;" x1="472.5" x2="639.4785" y1="363" y2="363"/><line style="stroke:#181818;stroke-width:0.5;" x1="472.5" x2="639.4785" y1="371" y2="371"/></g><!--class moduleChangeListener--><g id="elem_moduleChangeListener"><rect codeLine="13" fill="#F1F1F1" height="48" id="moduleChangeListener" rx="2.5" ry="2.5" style="stroke:#181818;stroke-width:0.5;" width="168.9785" x="134.5" y="223"/><ellipse cx="149.5" cy="239" fill="#ADD1B2" rx="11" ry="11" style="stroke:#181818;stroke-width:1.0;"/><path d="M152.2656,234.875 Q152.4219,234.6563 152.6094,234.5469 Q152.7969,234.4375 153.0156,234.4375 Q153.3906,234.4375 153.625,234.7031 Q153.8594,234.9531 153.8594,235.5625 L153.8594,237.0156 Q153.8594,237.625 153.625,237.8906 Q153.3906,238.1563 153.0156,238.1563 Q152.6719,238.1563 152.4688,237.9531 Q152.2656,237.7656 152.1563,237.25 Q152.1094,236.8906 151.9219,236.7031 Q151.5938,236.3281 150.9844,236.1094 Q150.375,235.8906 149.75,235.8906 Q148.9844,235.8906 148.3438,236.2188 Q147.7188,236.5469 147.2188,237.2969 Q146.7344,238.0469 146.7344,239.0781 L146.7344,240.1719 Q146.7344,241.4063 147.625,242.2344 Q148.5156,243.0469 150.1094,243.0469 Q151.0469,243.0469 151.7031,242.7969 Q152.0938,242.6406 152.5156,242.2031 Q152.7813,241.9375 152.9219,241.8594 Q153.0781,241.7813 153.2813,241.7813 Q153.6094,241.7813 153.8594,242.0469 Q154.125,242.2969 154.125,242.6406 Q154.125,242.9844 153.7813,243.3906 Q153.2813,243.9688 152.4844,244.2969 Q151.4063,244.75 150.1094,244.75 Q148.5938,244.75 147.3906,244.125 Q146.4063,243.625 145.7188,242.5625 Q145.0313,241.4844 145.0313,240.2031 L145.0313,239.0469 Q145.0313,237.7188 145.6406,236.5781 Q146.2656,235.4219 147.3594,234.8125 Q148.4531,234.1875 149.6875,234.1875 Q150.4219,234.1875 151.0625,234.3594 Q151.7188,234.5156 152.2656,234.875 Z " fill="#000000"/><text fill="#000000" font-family="sans-serif" font-size="14" lengthAdjust="spacing" textLength="136.9785" x="163.5" y="244.7969">ModuleChageListener</text><line style="stroke:#181818;stroke-width:0.5;" x1="135.5" x2="302.4785" y1="255" y2="255"/><line style="stroke:#181818;stroke-width:0.5;" x1="135.5" x2="302.4785" y1="263" y2="263"/></g><!--reverse link iBinding to modelBinding--><g id="link_iBinding_modelBinding"><path codeLine="16" d="M324.6028,71.9297 C341.7228,113.0897 370.21,181.58 387.32,222.72 " fill="none" id="iBinding-backto-modelBinding" style="stroke:#181818;stroke-width:1.0;stroke-dasharray:7.0,7.0;"/><polygon fill="none" points="317.69,55.31,319.0629,74.2339,330.1426,69.6254,317.69,55.31" style="stroke:#181818;stroke-width:1.0;"/></g><!--reverse link iBinding to moduleBinding--><g id="link_iBinding_moduleBinding"><path codeLine="17" d="M286.7719,70.7919 C277.1119,88.4519 272.47,96.94 262.76,114.68 " fill="none" id="iBinding-backto-moduleBinding" style="stroke:#181818;stroke-width:1.0;stroke-dasharray:7.0,7.0;"/><polygon fill="none" points="295.41,55,281.5079,67.9125,292.0358,73.6712,295.41,55" style="stroke:#181818;stroke-width:1.0;"/></g><!--link serviceLocator to wrappedNotifier--><g id="link_serviceLocator_wrappedNotifier"><path codeLine="19" d="M398.6449,493.766 C460.4049,534.936 573.8378,610.5516 635.4978,651.6616 " fill="none" id="serviceLocator-wrappedNotifier" style="stroke:#181818;stroke-width:1.0;"/><polygon fill="#181818" points="388.66,487.11,391.4337,493.7663,398.6449,493.766,395.8711,487.1097,388.66,487.11" style="stroke:#181818;stroke-width:1.0;"/><polygon fill="#181818" points="640.49,654.99,635.2207,646.6693,636.3299,652.2163,630.7828,653.3255,640.49,654.99" style="stroke:#181818;stroke-width:1.0;"/></g><!--link serviceLocator to bindingsRegistry--><g id="link_serviceLocator_bindingsRegistry"><path codeLine="20" d="M317.2909,494.9542 C299.2309,510.7642 284.82,524.9 267,547 C238.9,581.85 216.0283,622.0725 201.6983,649.2525 " fill="none" id="serviceLocator-bindingsRegistry" style="stroke:#181818;stroke-width:1.0;"/><polygon fill="#181818" points="326.32,487.05,319.1707,487.9924,317.2909,494.9542,324.4402,494.0118,326.32,487.05" style="stroke:#181818;stroke-width:1.0;"/><polygon fill="#181818" points="198.9,654.56,206.6357,648.4642,201.2319,650.1371,199.559,644.7332,198.9,654.56" style="stroke:#181818;stroke-width:1.0;"/></g><!--link serviceLocator to injectableService--><g id="link_serviceLocator_injectableService"><path codeLine="21" d="M354,487 C354,504.66 354,528.94 354,546.68 " fill="none" id="serviceLocator-injectableService" style="stroke:#181818;stroke-width:1.0;stroke-dasharray:7.0,7.0;"/></g><!--reverse link injectableService to wrappedNotifier--><g id="link_injectableService_wrappedNotifier"><path codeLine="23" d="M440.7428,600.6425 C495.5128,618.7225 554.22,638.12 608.23,655.95 " fill="none" id="injectableService-backto-wrappedNotifier" style="stroke:#181818;stroke-width:1.0;stroke-dasharray:7.0,7.0;"/><polygon fill="none" points="423.65,595,438.8619,606.34,442.6236,594.9449,423.65,595" style="stroke:#181818;stroke-width:1.0;"/></g><!--reverse link injectableService to bindingsRegistry--><g id="link_injectableService_bindingsRegistry"><path codeLine="24" d="M302.564,604.6479 C274.654,622.3679 251.42,637.11 223.45,654.86 " fill="none" id="injectableService-backto-bindingsRegistry" style="stroke:#181818;stroke-width:1.0;stroke-dasharray:7.0,7.0;"/><polygon fill="none" points="317.76,595,299.348,599.5826,305.78,609.7132,317.76,595" style="stroke:#181818;stroke-width:1.0;"/></g><!--link modelBinding to serviceLocator--><g id="link_modelBinding_serviceLocator"><path codeLine="26" d="M455.83,254.94 C549.31,268.39 715.61,303.55 658,379 C628.86,417.16 502.7354,441.1219 422.5654,452.9819 " fill="none" id="modelBinding-to-serviceLocator" style="stroke:#181818;stroke-width:1.0;stroke-dasharray:7.0,7.0;"/><polygon fill="#181818" points="416.63,453.86,426.1185,456.4998,421.5762,453.1283,424.9477,448.586,416.63,453.86" style="stroke:#181818;stroke-width:1.0;"/></g><!--link modelBinding to nodeChangeListener--><g id="link_modelBinding_nodeChangeListener"><path codeLine="27" d="M387.67,271 C380.51,288.66 372.9164,307.3804 365.7164,325.1204 " fill="none" id="modelBinding-to-nodeChangeListener" style="stroke:#181818;stroke-width:1.0;"/><polygon fill="#181818" points="363.46,330.68,370.551,323.8449,365.3403,326.047,363.1383,320.8364,363.46,330.68" style="stroke:#181818;stroke-width:1.0;"/></g><!--link modelBinding to modelChangeListener--><g id="link_modelBinding_modelChangeListener"><path codeLine="28" d="M431.5,271 C458.08,288.72 494.66,313.11 521.29,330.86 " fill="none" id="modelBinding-modelChangeListener" style="stroke:#181818;stroke-width:1.0;"/></g><!--link modelBinding to wrappedNotifier--><g id="link_modelBinding_wrappedNotifier"><path codeLine="29" d="M455.55,256.25 C532.42,268.42 660.93,293.84 689,331 C763.86,430.11 711.4131,588.831 687.1931,649.231 " fill="none" id="modelBinding-to-wrappedNotifier" style="stroke:#181818;stroke-width:1.0;"/><polygon fill="#181818" points="684.96,654.8,692.0223,647.9353,686.8209,650.1592,684.597,644.9578,684.96,654.8" style="stroke:#181818;stroke-width:1.0;"/></g><!--link modelBinding to bindingsRegistry--><g id="link_modelBinding_bindingsRegistry"><path codeLine="30" d="M338.23,268.46 C308.54,281.77 274.54,302.1 254,331 C180.96,433.78 181.6827,589.1589 184.9427,648.8289 " fill="none" id="modelBinding-to-bindingsRegistry" style="stroke:#181818;stroke-width:1.0;"/><polygon fill="#181818" points="185.27,654.82,188.7731,645.6152,184.9972,649.8274,180.785,646.0516,185.27,654.82" style="stroke:#181818;stroke-width:1.0;"/></g><!--link moduleBinding to serviceLocator--><g id="link_moduleBinding_serviceLocator"><path codeLine="32" d="M187.22,162.89 C160.56,176.1 132.18,195.63 117,223 C106.65,241.66 108.79,251.31 117,271 C151.21,353.06 237.4576,407.0884 296.2376,436.3184 " fill="none" id="moduleBinding-to-serviceLocator" style="stroke:#181818;stroke-width:1.0;stroke-dasharray:7.0,7.0;"/><polygon fill="#181818" points="301.61,438.99,295.3325,431.401,297.133,436.7637,291.7703,438.5642,301.61,438.99" style="stroke:#181818;stroke-width:1.0;"/></g><!--link moduleBinding to moduleChangeListener--><g id="link_moduleBinding_moduleChangeListener"><path codeLine="33" d="M243.27,163 C238.11,180.66 232.6947,199.1814 227.5047,216.9214 " fill="none" id="moduleBinding-to-moduleChangeListener" style="stroke:#181818;stroke-width:1.0;"/><polygon fill="#181818" points="225.82,222.68,232.1862,215.1652,227.2239,217.8812,224.508,212.9189,225.82,222.68" style="stroke:#181818;stroke-width:1.0;"/></g><!--link moduleBinding to modelBinding--><g id="link_moduleBinding_modelBinding"><path codeLine="34" d="M281.9,163 C306.47,180.72 335.423,201.6011 360.043,219.3511 " fill="none" id="moduleBinding-to-modelBinding" style="stroke:#181818;stroke-width:1.0;stroke-dasharray:7.0,7.0;"/><polygon fill="#181818" points="364.91,222.86,359.9488,214.352,360.8542,219.9359,355.2702,220.8413,364.91,222.86" style="stroke:#181818;stroke-width:1.0;"/></g><!--link moduleBinding to wrappedNotifier--><g id="link_moduleBinding_wrappedNotifier"><path codeLine="35" d="M312.71,149.23 C463.88,173.23 836,243.53 836,354 C836,354 836,354 836,464 C836,547.69 761.2095,615.9027 713.9495,651.1527 " fill="none" id="moduleBinding-to-wrappedNotifier" style="stroke:#181818;stroke-width:1.0;"/><polygon fill="#181818" points="709.14,654.74,718.7458,652.5654,713.1479,651.7506,713.9627,646.1527,709.14,654.74" style="stroke:#181818;stroke-width:1.0;"/></g><!--link moduleBinding to bindingsRegistry--><g id="link_moduleBinding_bindingsRegistry"><path codeLine="36" d="M187.48,163.11 C115.19,194.35 6,257.51 6,354 C6,354 6,354 6,464 C6,550.86 88.9546,617.3829 142.2346,651.6729 " fill="none" id="moduleBinding-to-bindingsRegistry" style="stroke:#181818;stroke-width:1.0;"/><polygon fill="#181818" points="147.28,654.92,141.8766,646.6857,143.0755,652.2141,137.5471,653.4129,147.28,654.92" style="stroke:#181818;stroke-width:1.0;"/></g><!--link nodeChangeListener to serviceLocator--><g id="link_nodeChangeListener_serviceLocator"><path codeLine="38" d="M354,379 C354,396.66 354,414.94 354,432.68 " fill="none" id="nodeChangeListener-to-serviceLocator" style="stroke:#181818;stroke-width:1.0;stroke-dasharray:7.0,7.0;"/><polygon fill="#181818" points="354,438.68,358,429.68,354,433.68,350,429.68,354,438.68" style="stroke:#181818;stroke-width:1.0;"/></g><!--link modelChangeListener to serviceLocator--><g id="link_modelChangeListener_serviceLocator"><path codeLine="39" d="M512.17,379 C478.4,396.72 437.2434,418.323 403.4034,436.073 " fill="none" id="modelChangeListener-to-serviceLocator" style="stroke:#181818;stroke-width:1.0;stroke-dasharray:7.0,7.0;"/><polygon fill="#181818" points="398.09,438.86,407.9182,438.2217,402.5179,436.5375,404.2021,431.1372,398.09,438.86" style="stroke:#181818;stroke-width:1.0;"/></g><!--link moduleChangeListener to serviceLocator--><g id="link_moduleChangeListener_serviceLocator"><path codeLine="40" d="M220.89,271.01 C224.07,298.59 232.42,345.3 254,379 C269.57,403.32 289.6429,420.646 310.7529,435.316 " fill="none" id="moduleChangeListener-to-serviceLocator" style="stroke:#181818;stroke-width:1.0;stroke-dasharray:7.0,7.0;"/><polygon fill="#181818" points="315.68,438.74,310.572,430.3193,311.5741,435.8867,306.0067,436.8887,315.68,438.74" style="stroke:#181818;stroke-width:1.0;"/></g><!--SRC=[ZPInRiCW48PtdW9viHGfUO8gGwCCbT8CwT2Pu8jp5O48QAj8UVZY62l0OQaZFnzt_zrlkTrgZnx1jGor1tiI4dZpzegwGzqtN3YEyS2a4ixnvjrqe5BWaWW9zAsWe9uAoxhfBv1U71LyWFr12MFRKfrAn-FEIE6DVR0kaoRmquhh5RgzyNX26CdVN9lGQCiTe4VdxUt17WkHJVG-3Bmv2zt3Bbo0ZhKraRELLLvSg9ulCDpH9wEUlc7j0PJmQFIGOno6lznNgpmSSfKcaY-HBvRBDLbNZI5hAg3GYMR9Y3HwAXlEO3IQTCxGSbr-4zdzOBkILi5Kuo5rIiS4g7fzBdx6R08CHQgnqpfPshHAnMj1KBDqJxFh_HT6ngXnh0qUXv_I7m00]--></g></svg>
