<svg xmlns="http://www.w3.org/2000/svg" xmlns:xlink="http://www.w3.org/1999/xlink" contentStyleType="text/css" height="729px" preserveAspectRatio="none" style="width:1893px;height:729px;background:#FFFFFF;" version="1.1" viewBox="0 0 1893 729" width="1893px" zoomAndPan="magnify"><defs/><g><!--class ModelixBranchListener--><g id="elem_ModelixBranchListener"><rect codeLine="2" fill="#F1F1F1" height="66.6211" id="ModelixBranchListener" rx="2.5" ry="2.5" style="stroke:#181818;stroke-width:0.5;" width="347.3643" x="743.63" y="7"/><ellipse cx="841.859" cy="23" fill="#ADD1B2" rx="11" ry="11" style="stroke:#181818;stroke-width:1.0;"/><path d="M844.6246,18.875 Q844.7809,18.6563 844.9684,18.5469 Q845.1559,18.4375 845.3746,18.4375 Q845.7496,18.4375 845.984,18.7031 Q846.2184,18.9531 846.2184,19.5625 L846.2184,21.0156 Q846.2184,21.625 845.984,21.8906 Q845.7496,22.1563 845.3746,22.1563 Q845.0309,22.1563 844.8278,21.9531 Q844.6246,21.7656 844.5153,21.25 Q844.4684,20.8906 844.2809,20.7031 Q843.9528,20.3281 843.3434,20.1094 Q842.734,19.8906 842.109,19.8906 Q841.3434,19.8906 840.7028,20.2188 Q840.0778,20.5469 839.5778,21.2969 Q839.0934,22.0469 839.0934,23.0781 L839.0934,24.1719 Q839.0934,25.4063 839.984,26.2344 Q840.8746,27.0469 842.4684,27.0469 Q843.4059,27.0469 844.0621,26.7969 Q844.4528,26.6406 844.8746,26.2031 Q845.1403,25.9375 845.2809,25.8594 Q845.4371,25.7813 845.6403,25.7813 Q845.9684,25.7813 846.2184,26.0469 Q846.484,26.2969 846.484,26.6406 Q846.484,26.9844 846.1403,27.3906 Q845.6403,27.9688 844.8434,28.2969 Q843.7653,28.75 842.4684,28.75 Q840.9528,28.75 839.7496,28.125 Q838.7653,27.625 838.0778,26.5625 Q837.3903,25.4844 837.3903,24.2031 L837.3903,23.0469 Q837.3903,21.7188 837.9996,20.5781 Q838.6246,19.4219 839.7184,18.8125 Q840.8121,18.1875 842.0465,18.1875 Q842.7809,18.1875 843.4215,18.3594 Q844.0778,18.5156 844.6246,18.875 Z " fill="#000000"/><text fill="#000000" font-family="sans-serif" font-size="14" lengthAdjust="spacing" textLength="142.4063" x="862.359" y="28.7969">ModelixBranchListener</text><line style="stroke:#181818;stroke-width:0.5;" x1="744.63" x2="1089.9943" y1="39" y2="39"/><line style="stroke:#181818;stroke-width:0.5;" x1="744.63" x2="1089.9943" y1="47" y2="47"/><ellipse cx="754.63" cy="61.8105" fill="#84BE84" rx="3" ry="3" style="stroke:#038048;stroke-width:1.0;"/><text fill="#000000" font-family="sans-serif" font-size="14" lengthAdjust="spacing" textLength="321.3643" x="763.63" y="66.1074">treeChanged(oldTree: ITree?, newTree: ITree): Unit</text></g><!--class modelixTreeChangeVisitor--><g id="elem_modelixTreeChangeVisitor"><rect codeLine="6" fill="#F1F1F1" height="48" id="modelixTreeChangeVisitor" rx="2.5" ry="2.5" style="stroke:#181818;stroke-width:0.5;" width="196.9648" x="1125.63" y="16.5"/><ellipse cx="1140.63" cy="32.5" fill="#ADD1B2" rx="11" ry="11" style="stroke:#181818;stroke-width:1.0;"/><path d="M1143.3956,28.375 Q1143.5519,28.1563 1143.7394,28.0469 Q1143.9269,27.9375 1144.1456,27.9375 Q1144.5206,27.9375 1144.755,28.2031 Q1144.9894,28.4531 1144.9894,29.0625 L1144.9894,30.5156 Q1144.9894,31.125 1144.755,31.3906 Q1144.5206,31.6563 1144.1456,31.6563 Q1143.8019,31.6563 1143.5988,31.4531 Q1143.3956,31.2656 1143.2863,30.75 Q1143.2394,30.3906 1143.0519,30.2031 Q1142.7238,29.8281 1142.1144,29.6094 Q1141.505,29.3906 1140.88,29.3906 Q1140.1144,29.3906 1139.4738,29.7188 Q1138.8488,30.0469 1138.3488,30.7969 Q1137.8644,31.5469 1137.8644,32.5781 L1137.8644,33.6719 Q1137.8644,34.9063 1138.755,35.7344 Q1139.6456,36.5469 1141.2394,36.5469 Q1142.1769,36.5469 1142.8331,36.2969 Q1143.2238,36.1406 1143.6456,35.7031 Q1143.9113,35.4375 1144.0519,35.3594 Q1144.2081,35.2813 1144.4113,35.2813 Q1144.7394,35.2813 1144.9894,35.5469 Q1145.255,35.7969 1145.255,36.1406 Q1145.255,36.4844 1144.9113,36.8906 Q1144.4113,37.4688 1143.6144,37.7969 Q1142.5363,38.25 1141.2394,38.25 Q1139.7238,38.25 1138.5206,37.625 Q1137.5363,37.125 1136.8488,36.0625 Q1136.1613,34.9844 1136.1613,33.7031 L1136.1613,32.5469 Q1136.1613,31.2188 1136.7706,30.0781 Q1137.3956,28.9219 1138.4894,28.3125 Q1139.5831,27.6875 1140.8175,27.6875 Q1141.5519,27.6875 1142.1925,27.8594 Q1142.8488,28.0156 1143.3956,28.375 Z " fill="#000000"/><text fill="#000000" font-family="sans-serif" font-size="14" lengthAdjust="spacing" textLength="164.9648" x="1154.63" y="38.2969">ModelixTreeChangeVisitor</text><line style="stroke:#181818;stroke-width:0.5;" x1="1126.63" x2="1321.5948" y1="48.5" y2="48.5"/><line style="stroke:#181818;stroke-width:0.5;" x1="1126.63" x2="1321.5948" y1="56.5" y2="56.5"/></g><!--class iBinding--><g id="elem_iBinding"><rect codeLine="8" fill="#F1F1F1" height="48" id="iBinding" rx="2.5" ry="2.5" style="stroke:#181818;stroke-width:0.5;" width="82.5928" x="64.63" y="566"/><ellipse cx="79.63" cy="582" fill="#B4A7E5" rx="11" ry="11" style="stroke:#181818;stroke-width:1.0;"/><path d="M80.5831,578.6406 L80.5831,585.2969 L82.3019,585.2969 Q82.9113,585.2969 83.1769,585.5313 Q83.4425,585.7656 83.4425,586.1563 Q83.4425,586.5313 83.1769,586.7656 Q82.9113,587 82.3019,587 L77.1613,587 Q76.5519,587 76.2863,586.7656 Q76.0206,586.5313 76.0206,586.1406 Q76.0206,585.7656 76.2863,585.5313 Q76.5519,585.2969 77.1613,585.2969 L78.88,585.2969 L78.88,578.6406 L77.1613,578.6406 Q76.5519,578.6406 76.2863,578.4063 Q76.0206,578.1719 76.0206,577.7813 Q76.0206,577.4063 76.2863,577.1719 Q76.5519,576.9375 77.1613,576.9375 L82.3019,576.9375 Q82.9113,576.9375 83.1769,577.1719 Q83.4425,577.4063 83.4425,577.7813 Q83.4425,578.1719 83.1769,578.4063 Q82.9113,578.6406 82.3019,578.6406 L80.5831,578.6406 Z " fill="#000000"/><text fill="#000000" font-family="sans-serif" font-size="14" font-style="italic" lengthAdjust="spacing" textLength="50.5928" x="93.63" y="587.7969">IBinding</text><line style="stroke:#181818;stroke-width:0.5;" x1="65.63" x2="146.2228" y1="598" y2="598"/><line style="stroke:#181818;stroke-width:0.5;" x1="65.63" x2="146.2228" y1="606" y2="606"/></g><!--class modelBinding--><g id="elem_modelBinding"><rect codeLine="9" fill="#F1F1F1" height="48" id="modelBinding" rx="2.5" ry="2.5" style="stroke:#181818;stroke-width:0.5;" width="116.834" x="108.63" y="674"/><ellipse cx="123.63" cy="690" fill="#ADD1B2" rx="11" ry="11" style="stroke:#181818;stroke-width:1.0;"/><path d="M126.3956,685.875 Q126.5519,685.6563 126.7394,685.5469 Q126.9269,685.4375 127.1456,685.4375 Q127.5206,685.4375 127.755,685.7031 Q127.9894,685.9531 127.9894,686.5625 L127.9894,688.0156 Q127.9894,688.625 127.755,688.8906 Q127.5206,689.1563 127.1456,689.1563 Q126.8019,689.1563 126.5988,688.9531 Q126.3956,688.7656 126.2863,688.25 Q126.2394,687.8906 126.0519,687.7031 Q125.7238,687.3281 125.1144,687.1094 Q124.505,686.8906 123.88,686.8906 Q123.1144,686.8906 122.4738,687.2188 Q121.8488,687.5469 121.3488,688.2969 Q120.8644,689.0469 120.8644,690.0781 L120.8644,691.1719 Q120.8644,692.4063 121.755,693.2344 Q122.6456,694.0469 124.2394,694.0469 Q125.1769,694.0469 125.8331,693.7969 Q126.2238,693.6406 126.6456,693.2031 Q126.9113,692.9375 127.0519,692.8594 Q127.2081,692.7813 127.4113,692.7813 Q127.7394,692.7813 127.9894,693.0469 Q128.255,693.2969 128.255,693.6406 Q128.255,693.9844 127.9113,694.3906 Q127.4113,694.9688 126.6144,695.2969 Q125.5363,695.75 124.2394,695.75 Q122.7238,695.75 121.5206,695.125 Q120.5363,694.625 119.8488,693.5625 Q119.1613,692.4844 119.1613,691.2031 L119.1613,690.0469 Q119.1613,688.7188 119.7706,687.5781 Q120.3956,686.4219 121.4894,685.8125 Q122.5831,685.1875 123.8175,685.1875 Q124.5519,685.1875 125.1925,685.3594 Q125.8488,685.5156 126.3956,685.875 Z " fill="#000000"/><text fill="#000000" font-family="sans-serif" font-size="14" lengthAdjust="spacing" textLength="84.834" x="137.63" y="695.7969">ModelBinding</text><line style="stroke:#181818;stroke-width:0.5;" x1="109.63" x2="224.464" y1="706" y2="706"/><line style="stroke:#181818;stroke-width:0.5;" x1="109.63" x2="224.464" y1="714" y2="714"/></g><!--class moduleBinding--><g id="elem_moduleBinding"><rect codeLine="10" fill="#F1F1F1" height="48" id="moduleBinding" rx="2.5" ry="2.5" style="stroke:#181818;stroke-width:0.5;" width="124.6201" x="260.63" y="674"/><ellipse cx="275.63" cy="690" fill="#ADD1B2" rx="11" ry="11" style="stroke:#181818;stroke-width:1.0;"/><path d="M278.3956,685.875 Q278.5519,685.6563 278.7394,685.5469 Q278.9269,685.4375 279.1456,685.4375 Q279.5206,685.4375 279.755,685.7031 Q279.9894,685.9531 279.9894,686.5625 L279.9894,688.0156 Q279.9894,688.625 279.755,688.8906 Q279.5206,689.1563 279.1456,689.1563 Q278.8019,689.1563 278.5988,688.9531 Q278.3956,688.7656 278.2863,688.25 Q278.2394,687.8906 278.0519,687.7031 Q277.7238,687.3281 277.1144,687.1094 Q276.505,686.8906 275.88,686.8906 Q275.1144,686.8906 274.4738,687.2188 Q273.8488,687.5469 273.3488,688.2969 Q272.8644,689.0469 272.8644,690.0781 L272.8644,691.1719 Q272.8644,692.4063 273.755,693.2344 Q274.6456,694.0469 276.2394,694.0469 Q277.1769,694.0469 277.8331,693.7969 Q278.2238,693.6406 278.6456,693.2031 Q278.9113,692.9375 279.0519,692.8594 Q279.2081,692.7813 279.4113,692.7813 Q279.7394,692.7813 279.9894,693.0469 Q280.255,693.2969 280.255,693.6406 Q280.255,693.9844 279.9113,694.3906 Q279.4113,694.9688 278.6144,695.2969 Q277.5363,695.75 276.2394,695.75 Q274.7238,695.75 273.5206,695.125 Q272.5363,694.625 271.8488,693.5625 Q271.1613,692.4844 271.1613,691.2031 L271.1613,690.0469 Q271.1613,688.7188 271.7706,687.5781 Q272.3956,686.4219 273.4894,685.8125 Q274.5831,685.1875 275.8175,685.1875 Q276.5519,685.1875 277.1925,685.3594 Q277.8488,685.5156 278.3956,685.875 Z " fill="#000000"/><text fill="#000000" font-family="sans-serif" font-size="14" lengthAdjust="spacing" textLength="92.6201" x="289.63" y="695.7969">ModuleBinding</text><line style="stroke:#181818;stroke-width:0.5;" x1="261.63" x2="384.2501" y1="706" y2="706"/><line style="stroke:#181818;stroke-width:0.5;" x1="261.63" x2="384.2501" y1="714" y2="714"/></g><!--class injectableService--><g id="elem_injectableService"><rect codeLine="12" fill="#F1F1F1" height="48" id="injectableService" rx="2.5" ry="2.5" style="stroke:#181818;stroke-width:0.5;" width="138.6133" x="853.63" y="458"/><ellipse cx="868.63" cy="474" fill="#B4A7E5" rx="11" ry="11" style="stroke:#181818;stroke-width:1.0;"/><path d="M869.5831,470.6406 L869.5831,477.2969 L871.3019,477.2969 Q871.9113,477.2969 872.1769,477.5313 Q872.4425,477.7656 872.4425,478.1563 Q872.4425,478.5313 872.1769,478.7656 Q871.9113,479 871.3019,479 L866.1613,479 Q865.5519,479 865.2863,478.7656 Q865.0206,478.5313 865.0206,478.1406 Q865.0206,477.7656 865.2863,477.5313 Q865.5519,477.2969 866.1613,477.2969 L867.88,477.2969 L867.88,470.6406 L866.1613,470.6406 Q865.5519,470.6406 865.2863,470.4063 Q865.0206,470.1719 865.0206,469.7813 Q865.0206,469.4063 865.2863,469.1719 Q865.5519,468.9375 866.1613,468.9375 L871.3019,468.9375 Q871.9113,468.9375 872.1769,469.1719 Q872.4425,469.4063 872.4425,469.7813 Q872.4425,470.1719 872.1769,470.4063 Q871.9113,470.6406 871.3019,470.6406 L869.5831,470.6406 Z " fill="#000000"/><text fill="#000000" font-family="sans-serif" font-size="14" font-style="italic" lengthAdjust="spacing" textLength="106.6133" x="882.63" y="479.7969">InjectableService</text><line style="stroke:#181818;stroke-width:0.5;" x1="854.63" x2="991.2433" y1="490" y2="490"/><line style="stroke:#181818;stroke-width:0.5;" x1="854.63" x2="991.2433" y1="498" y2="498"/></g><!--class serviceLocator--><g id="elem_serviceLocator"><rect codeLine="13" fill="#F1F1F1" height="48" id="serviceLocator" rx="2.5" ry="2.5" style="stroke:#181818;stroke-width:0.5;" width="125.3789" x="1023.63" y="350"/><ellipse cx="1038.63" cy="366" fill="#ADD1B2" rx="11" ry="11" style="stroke:#181818;stroke-width:1.0;"/><path d="M1041.3956,361.875 Q1041.5519,361.6563 1041.7394,361.5469 Q1041.9269,361.4375 1042.1456,361.4375 Q1042.5206,361.4375 1042.755,361.7031 Q1042.9894,361.9531 1042.9894,362.5625 L1042.9894,364.0156 Q1042.9894,364.625 1042.755,364.8906 Q1042.5206,365.1563 1042.1456,365.1563 Q1041.8019,365.1563 1041.5988,364.9531 Q1041.3956,364.7656 1041.2863,364.25 Q1041.2394,363.8906 1041.0519,363.7031 Q1040.7238,363.3281 1040.1144,363.1094 Q1039.505,362.8906 1038.88,362.8906 Q1038.1144,362.8906 1037.4738,363.2188 Q1036.8488,363.5469 1036.3488,364.2969 Q1035.8644,365.0469 1035.8644,366.0781 L1035.8644,367.1719 Q1035.8644,368.4063 1036.755,369.2344 Q1037.6456,370.0469 1039.2394,370.0469 Q1040.1769,370.0469 1040.8331,369.7969 Q1041.2238,369.6406 1041.6456,369.2031 Q1041.9113,368.9375 1042.0519,368.8594 Q1042.2081,368.7813 1042.4113,368.7813 Q1042.7394,368.7813 1042.9894,369.0469 Q1043.255,369.2969 1043.255,369.6406 Q1043.255,369.9844 1042.9113,370.3906 Q1042.4113,370.9688 1041.6144,371.2969 Q1040.5363,371.75 1039.2394,371.75 Q1037.7238,371.75 1036.5206,371.125 Q1035.5363,370.625 1034.8488,369.5625 Q1034.1613,368.4844 1034.1613,367.2031 L1034.1613,366.0469 Q1034.1613,364.7188 1034.7706,363.5781 Q1035.3956,362.4219 1036.4894,361.8125 Q1037.5831,361.1875 1038.8175,361.1875 Q1039.5519,361.1875 1040.1925,361.3594 Q1040.8488,361.5156 1041.3956,361.875 Z " fill="#000000"/><text fill="#000000" font-family="sans-serif" font-size="14" lengthAdjust="spacing" textLength="93.3789" x="1052.63" y="371.7969">ServiceLocator</text><line style="stroke:#181818;stroke-width:0.5;" x1="1024.63" x2="1148.0089" y1="382" y2="382"/><line style="stroke:#181818;stroke-width:0.5;" x1="1024.63" x2="1148.0089" y1="390" y2="390"/></g><!--class bindingsRegistry--><g id="elem_bindingsRegistry"><rect codeLine="14" fill="#F1F1F1" height="48" id="bindingsRegistry" rx="2.5" ry="2.5" style="stroke:#181818;stroke-width:0.5;" width="137.0479" x="254.63" y="566"/><ellipse cx="269.63" cy="582" fill="#ADD1B2" rx="11" ry="11" style="stroke:#181818;stroke-width:1.0;"/><path d="M272.3956,577.875 Q272.5519,577.6563 272.7394,577.5469 Q272.9269,577.4375 273.1456,577.4375 Q273.5206,577.4375 273.755,577.7031 Q273.9894,577.9531 273.9894,578.5625 L273.9894,580.0156 Q273.9894,580.625 273.755,580.8906 Q273.5206,581.1563 273.1456,581.1563 Q272.8019,581.1563 272.5988,580.9531 Q272.3956,580.7656 272.2863,580.25 Q272.2394,579.8906 272.0519,579.7031 Q271.7238,579.3281 271.1144,579.1094 Q270.505,578.8906 269.88,578.8906 Q269.1144,578.8906 268.4738,579.2188 Q267.8488,579.5469 267.3488,580.2969 Q266.8644,581.0469 266.8644,582.0781 L266.8644,583.1719 Q266.8644,584.4063 267.755,585.2344 Q268.6456,586.0469 270.2394,586.0469 Q271.1769,586.0469 271.8331,585.7969 Q272.2238,585.6406 272.6456,585.2031 Q272.9113,584.9375 273.0519,584.8594 Q273.2081,584.7813 273.4113,584.7813 Q273.7394,584.7813 273.9894,585.0469 Q274.255,585.2969 274.255,585.6406 Q274.255,585.9844 273.9113,586.3906 Q273.4113,586.9688 272.6144,587.2969 Q271.5363,587.75 270.2394,587.75 Q268.7238,587.75 267.5206,587.125 Q266.5363,586.625 265.8488,585.5625 Q265.1613,584.4844 265.1613,583.2031 L265.1613,582.0469 Q265.1613,580.7188 265.7706,579.5781 Q266.3956,578.4219 267.4894,577.8125 Q268.5831,577.1875 269.8175,577.1875 Q270.5519,577.1875 271.1925,577.3594 Q271.8488,577.5156 272.3956,577.875 Z " fill="#000000"/><text fill="#000000" font-family="sans-serif" font-size="14" lengthAdjust="spacing" textLength="105.0479" x="283.63" y="587.7969">BindingsRegistry</text><line style="stroke:#181818;stroke-width:0.5;" x1="255.63" x2="390.6779" y1="598" y2="598"/><line style="stroke:#181818;stroke-width:0.5;" x1="255.63" x2="390.6779" y1="606" y2="606"/></g><!--class syncQueue--><g id="elem_syncQueue"><rect codeLine="15" fill="#F1F1F1" height="48" id="syncQueue" rx="2.5" ry="2.5" style="stroke:#181818;stroke-width:0.5;" width="105.1582" x="1295.63" y="566"/><ellipse cx="1310.63" cy="582" fill="#ADD1B2" rx="11" ry="11" style="stroke:#181818;stroke-width:1.0;"/><path d="M1313.3956,577.875 Q1313.5519,577.6563 1313.7394,577.5469 Q1313.9269,577.4375 1314.1456,577.4375 Q1314.5206,577.4375 1314.755,577.7031 Q1314.9894,577.9531 1314.9894,578.5625 L1314.9894,580.0156 Q1314.9894,580.625 1314.755,580.8906 Q1314.5206,581.1563 1314.1456,581.1563 Q1313.8019,581.1563 1313.5988,580.9531 Q1313.3956,580.7656 1313.2863,580.25 Q1313.2394,579.8906 1313.0519,579.7031 Q1312.7238,579.3281 1312.1144,579.1094 Q1311.505,578.8906 1310.88,578.8906 Q1310.1144,578.8906 1309.4738,579.2188 Q1308.8488,579.5469 1308.3488,580.2969 Q1307.8644,581.0469 1307.8644,582.0781 L1307.8644,583.1719 Q1307.8644,584.4063 1308.755,585.2344 Q1309.6456,586.0469 1311.2394,586.0469 Q1312.1769,586.0469 1312.8331,585.7969 Q1313.2238,585.6406 1313.6456,585.2031 Q1313.9113,584.9375 1314.0519,584.8594 Q1314.2081,584.7813 1314.4113,584.7813 Q1314.7394,584.7813 1314.9894,585.0469 Q1315.255,585.2969 1315.255,585.6406 Q1315.255,585.9844 1314.9113,586.3906 Q1314.4113,586.9688 1313.6144,587.2969 Q1312.5363,587.75 1311.2394,587.75 Q1309.7238,587.75 1308.5206,587.125 Q1307.5363,586.625 1306.8488,585.5625 Q1306.1613,584.4844 1306.1613,583.2031 L1306.1613,582.0469 Q1306.1613,580.7188 1306.7706,579.5781 Q1307.3956,578.4219 1308.4894,577.8125 Q1309.5831,577.1875 1310.8175,577.1875 Q1311.5519,577.1875 1312.1925,577.3594 Q1312.8488,577.5156 1313.3956,577.875 Z " fill="#000000"/><text fill="#000000" font-family="sans-serif" font-size="14" lengthAdjust="spacing" textLength="73.1582" x="1324.63" y="587.7969">SyncQueue</text><line style="stroke:#181818;stroke-width:0.5;" x1="1296.63" x2="1399.7882" y1="598" y2="598"/><line style="stroke:#181818;stroke-width:0.5;" x1="1296.63" x2="1399.7882" y1="606" y2="606"/></g><!--class futuresWaitQueue--><g id="elem_futuresWaitQueue"><rect codeLine="16" fill="#F1F1F1" height="48" id="futuresWaitQueue" rx="2.5" ry="2.5" style="stroke:#181818;stroke-width:0.5;" width="149.4961" x="1006.63" y="674"/><ellipse cx="1021.63" cy="690" fill="#ADD1B2" rx="11" ry="11" style="stroke:#181818;stroke-width:1.0;"/><path d="M1024.3956,685.875 Q1024.5519,685.6563 1024.7394,685.5469 Q1024.9269,685.4375 1025.1456,685.4375 Q1025.5206,685.4375 1025.755,685.7031 Q1025.9894,685.9531 1025.9894,686.5625 L1025.9894,688.0156 Q1025.9894,688.625 1025.755,688.8906 Q1025.5206,689.1563 1025.1456,689.1563 Q1024.8019,689.1563 1024.5988,688.9531 Q1024.3956,688.7656 1024.2863,688.25 Q1024.2394,687.8906 1024.0519,687.7031 Q1023.7238,687.3281 1023.1144,687.1094 Q1022.505,686.8906 1021.88,686.8906 Q1021.1144,686.8906 1020.4738,687.2188 Q1019.8488,687.5469 1019.3488,688.2969 Q1018.8644,689.0469 1018.8644,690.0781 L1018.8644,691.1719 Q1018.8644,692.4063 1019.755,693.2344 Q1020.6456,694.0469 1022.2394,694.0469 Q1023.1769,694.0469 1023.8331,693.7969 Q1024.2238,693.6406 1024.6456,693.2031 Q1024.9113,692.9375 1025.0519,692.8594 Q1025.2081,692.7813 1025.4113,692.7813 Q1025.7394,692.7813 1025.9894,693.0469 Q1026.255,693.2969 1026.255,693.6406 Q1026.255,693.9844 1025.9113,694.3906 Q1025.4113,694.9688 1024.6144,695.2969 Q1023.5363,695.75 1022.2394,695.75 Q1020.7238,695.75 1019.5206,695.125 Q1018.5363,694.625 1017.8488,693.5625 Q1017.1613,692.4844 1017.1613,691.2031 L1017.1613,690.0469 Q1017.1613,688.7188 1017.7706,687.5781 Q1018.3956,686.4219 1019.4894,685.8125 Q1020.5831,685.1875 1021.8175,685.1875 Q1022.5519,685.1875 1023.1925,685.3594 Q1023.8488,685.5156 1024.3956,685.875 Z " fill="#000000"/><text fill="#000000" font-family="sans-serif" font-size="14" lengthAdjust="spacing" textLength="117.4961" x="1035.63" y="695.7969">FuturesWaitQueue</text><line style="stroke:#181818;stroke-width:0.5;" x1="1007.63" x2="1155.1261" y1="706" y2="706"/><line style="stroke:#181818;stroke-width:0.5;" x1="1007.63" x2="1155.1261" y1="714" y2="714"/></g><!--class nodeMap--><g id="elem_nodeMap"><rect codeLine="17" fill="#F1F1F1" height="48" id="nodeMap" rx="2.5" ry="2.5" style="stroke:#181818;stroke-width:0.5;" width="150.2617" x="754.13" y="566"/><ellipse cx="769.13" cy="582" fill="#ADD1B2" rx="11" ry="11" style="stroke:#181818;stroke-width:1.0;"/><path d="M771.8956,577.875 Q772.0519,577.6563 772.2394,577.5469 Q772.4269,577.4375 772.6456,577.4375 Q773.0206,577.4375 773.255,577.7031 Q773.4894,577.9531 773.4894,578.5625 L773.4894,580.0156 Q773.4894,580.625 773.255,580.8906 Q773.0206,581.1563 772.6456,581.1563 Q772.3019,581.1563 772.0988,580.9531 Q771.8956,580.7656 771.7863,580.25 Q771.7394,579.8906 771.5519,579.7031 Q771.2238,579.3281 770.6144,579.1094 Q770.005,578.8906 769.38,578.8906 Q768.6144,578.8906 767.9738,579.2188 Q767.3488,579.5469 766.8488,580.2969 Q766.3644,581.0469 766.3644,582.0781 L766.3644,583.1719 Q766.3644,584.4063 767.255,585.2344 Q768.1456,586.0469 769.7394,586.0469 Q770.6769,586.0469 771.3331,585.7969 Q771.7238,585.6406 772.1456,585.2031 Q772.4113,584.9375 772.5519,584.8594 Q772.7081,584.7813 772.9113,584.7813 Q773.2394,584.7813 773.4894,585.0469 Q773.755,585.2969 773.755,585.6406 Q773.755,585.9844 773.4113,586.3906 Q772.9113,586.9688 772.1144,587.2969 Q771.0363,587.75 769.7394,587.75 Q768.2238,587.75 767.0206,587.125 Q766.0363,586.625 765.3488,585.5625 Q764.6613,584.4844 764.6613,583.2031 L764.6613,582.0469 Q764.6613,580.7188 765.2706,579.5781 Q765.8956,578.4219 766.9894,577.8125 Q768.0831,577.1875 769.3175,577.1875 Q770.0519,577.1875 770.6925,577.3594 Q771.3488,577.5156 771.8956,577.875 Z " fill="#000000"/><text fill="#000000" font-family="sans-serif" font-size="14" lengthAdjust="spacing" textLength="118.2617" x="783.13" y="587.7969">MpsToModelixMap</text><line style="stroke:#181818;stroke-width:0.5;" x1="755.13" x2="903.3917" y1="598" y2="598"/><line style="stroke:#181818;stroke-width:0.5;" x1="755.13" x2="903.3917" y1="606" y2="606"/></g><!--class moduleTransformer--><g id="elem_moduleTransformer"><rect codeLine="19" fill="#F1F1F1" height="48" id="moduleTransformer" rx="2.5" ry="2.5" style="stroke:#181818;stroke-width:0.5;" width="154.1514" x="439.13" y="134"/><ellipse cx="454.13" cy="150" fill="#ADD1B2" rx="11" ry="11" style="stroke:#181818;stroke-width:1.0;"/><path d="M456.8956,145.875 Q457.0519,145.6563 457.2394,145.5469 Q457.4269,145.4375 457.6456,145.4375 Q458.0206,145.4375 458.255,145.7031 Q458.4894,145.9531 458.4894,146.5625 L458.4894,148.0156 Q458.4894,148.625 458.255,148.8906 Q458.0206,149.1563 457.6456,149.1563 Q457.3019,149.1563 457.0988,148.9531 Q456.8956,148.7656 456.7863,148.25 Q456.7394,147.8906 456.5519,147.7031 Q456.2238,147.3281 455.6144,147.1094 Q455.005,146.8906 454.38,146.8906 Q453.6144,146.8906 452.9738,147.2188 Q452.3488,147.5469 451.8488,148.2969 Q451.3644,149.0469 451.3644,150.0781 L451.3644,151.1719 Q451.3644,152.4063 452.255,153.2344 Q453.1456,154.0469 454.7394,154.0469 Q455.6769,154.0469 456.3331,153.7969 Q456.7238,153.6406 457.1456,153.2031 Q457.4113,152.9375 457.5519,152.8594 Q457.7081,152.7813 457.9113,152.7813 Q458.2394,152.7813 458.4894,153.0469 Q458.755,153.2969 458.755,153.6406 Q458.755,153.9844 458.4113,154.3906 Q457.9113,154.9688 457.1144,155.2969 Q456.0363,155.75 454.7394,155.75 Q453.2238,155.75 452.0206,155.125 Q451.0363,154.625 450.3488,153.5625 Q449.6613,152.4844 449.6613,151.2031 L449.6613,150.0469 Q449.6613,148.7188 450.2706,147.5781 Q450.8956,146.4219 451.9894,145.8125 Q453.0831,145.1875 454.3175,145.1875 Q455.0519,145.1875 455.6925,145.3594 Q456.3488,145.5156 456.8956,145.875 Z " fill="#000000"/><text fill="#000000" font-family="sans-serif" font-size="14" lengthAdjust="spacing" textLength="122.1514" x="468.13" y="155.7969">ModuleTransformer</text><line style="stroke:#181818;stroke-width:0.5;" x1="440.13" x2="592.2814" y1="166" y2="166"/><line style="stroke:#181818;stroke-width:0.5;" x1="440.13" x2="592.2814" y1="174" y2="174"/></g><!--class modelTransformer--><g id="elem_modelTransformer"><rect codeLine="20" fill="#F1F1F1" height="48" id="modelTransformer" rx="2.5" ry="2.5" style="stroke:#181818;stroke-width:0.5;" width="146.3652" x="691.13" y="134"/><ellipse cx="706.13" cy="150" fill="#ADD1B2" rx="11" ry="11" style="stroke:#181818;stroke-width:1.0;"/><path d="M708.8956,145.875 Q709.0519,145.6563 709.2394,145.5469 Q709.4269,145.4375 709.6456,145.4375 Q710.0206,145.4375 710.255,145.7031 Q710.4894,145.9531 710.4894,146.5625 L710.4894,148.0156 Q710.4894,148.625 710.255,148.8906 Q710.0206,149.1563 709.6456,149.1563 Q709.3019,149.1563 709.0988,148.9531 Q708.8956,148.7656 708.7863,148.25 Q708.7394,147.8906 708.5519,147.7031 Q708.2238,147.3281 707.6144,147.1094 Q707.005,146.8906 706.38,146.8906 Q705.6144,146.8906 704.9738,147.2188 Q704.3488,147.5469 703.8488,148.2969 Q703.3644,149.0469 703.3644,150.0781 L703.3644,151.1719 Q703.3644,152.4063 704.255,153.2344 Q705.1456,154.0469 706.7394,154.0469 Q707.6769,154.0469 708.3331,153.7969 Q708.7238,153.6406 709.1456,153.2031 Q709.4113,152.9375 709.5519,152.8594 Q709.7081,152.7813 709.9113,152.7813 Q710.2394,152.7813 710.4894,153.0469 Q710.755,153.2969 710.755,153.6406 Q710.755,153.9844 710.4113,154.3906 Q709.9113,154.9688 709.1144,155.2969 Q708.0363,155.75 706.7394,155.75 Q705.2238,155.75 704.0206,155.125 Q703.0363,154.625 702.3488,153.5625 Q701.6613,152.4844 701.6613,151.2031 L701.6613,150.0469 Q701.6613,148.7188 702.2706,147.5781 Q702.8956,146.4219 703.9894,145.8125 Q705.0831,145.1875 706.3175,145.1875 Q707.0519,145.1875 707.6925,145.3594 Q708.3488,145.5156 708.8956,145.875 Z " fill="#000000"/><text fill="#000000" font-family="sans-serif" font-size="14" lengthAdjust="spacing" textLength="114.3652" x="720.13" y="155.7969">ModelTransformer</text><line style="stroke:#181818;stroke-width:0.5;" x1="692.13" x2="836.4952" y1="166" y2="166"/><line style="stroke:#181818;stroke-width:0.5;" x1="692.13" x2="836.4952" y1="174" y2="174"/></g><!--class nodeTransformer--><g id="elem_nodeTransformer"><rect codeLine="21" fill="#F1F1F1" height="48" id="nodeTransformer" rx="2.5" ry="2.5" style="stroke:#181818;stroke-width:0.5;" width="141.7031" x="1219.13" y="134"/><ellipse cx="1234.13" cy="150" fill="#ADD1B2" rx="11" ry="11" style="stroke:#181818;stroke-width:1.0;"/><path d="M1236.8956,145.875 Q1237.0519,145.6563 1237.2394,145.5469 Q1237.4269,145.4375 1237.6456,145.4375 Q1238.0206,145.4375 1238.255,145.7031 Q1238.4894,145.9531 1238.4894,146.5625 L1238.4894,148.0156 Q1238.4894,148.625 1238.255,148.8906 Q1238.0206,149.1563 1237.6456,149.1563 Q1237.3019,149.1563 1237.0988,148.9531 Q1236.8956,148.7656 1236.7863,148.25 Q1236.7394,147.8906 1236.5519,147.7031 Q1236.2238,147.3281 1235.6144,147.1094 Q1235.005,146.8906 1234.38,146.8906 Q1233.6144,146.8906 1232.9738,147.2188 Q1232.3488,147.5469 1231.8488,148.2969 Q1231.3644,149.0469 1231.3644,150.0781 L1231.3644,151.1719 Q1231.3644,152.4063 1232.255,153.2344 Q1233.1456,154.0469 1234.7394,154.0469 Q1235.6769,154.0469 1236.3331,153.7969 Q1236.7238,153.6406 1237.1456,153.2031 Q1237.4113,152.9375 1237.5519,152.8594 Q1237.7081,152.7813 1237.9113,152.7813 Q1238.2394,152.7813 1238.4894,153.0469 Q1238.755,153.2969 1238.755,153.6406 Q1238.755,153.9844 1238.4113,154.3906 Q1237.9113,154.9688 1237.1144,155.2969 Q1236.0363,155.75 1234.7394,155.75 Q1233.2238,155.75 1232.0206,155.125 Q1231.0363,154.625 1230.3488,153.5625 Q1229.6613,152.4844 1229.6613,151.2031 L1229.6613,150.0469 Q1229.6613,148.7188 1230.2706,147.5781 Q1230.8956,146.4219 1231.9894,145.8125 Q1233.0831,145.1875 1234.3175,145.1875 Q1235.0519,145.1875 1235.6925,145.3594 Q1236.3488,145.5156 1236.8956,145.875 Z " fill="#000000"/><text fill="#000000" font-family="sans-serif" font-size="14" lengthAdjust="spacing" textLength="109.7031" x="1248.13" y="155.7969">NodeTransformer</text><line style="stroke:#181818;stroke-width:0.5;" x1="1220.13" x2="1359.8331" y1="166" y2="166"/><line style="stroke:#181818;stroke-width:0.5;" x1="1220.13" x2="1359.8331" y1="174" y2="174"/></g><!--class solutionProducer--><g id="elem_solutionProducer"><rect codeLine="23" fill="#F1F1F1" height="48" id="solutionProducer" rx="2.5" ry="2.5" style="stroke:#181818;stroke-width:0.5;" width="139.3994" x="75.63" y="458"/><ellipse cx="90.63" cy="474" fill="#ADD1B2" rx="11" ry="11" style="stroke:#181818;stroke-width:1.0;"/><path d="M93.3956,469.875 Q93.5519,469.6563 93.7394,469.5469 Q93.9269,469.4375 94.1456,469.4375 Q94.5206,469.4375 94.755,469.7031 Q94.9894,469.9531 94.9894,470.5625 L94.9894,472.0156 Q94.9894,472.625 94.755,472.8906 Q94.5206,473.1563 94.1456,473.1563 Q93.8019,473.1563 93.5988,472.9531 Q93.3956,472.7656 93.2863,472.25 Q93.2394,471.8906 93.0519,471.7031 Q92.7238,471.3281 92.1144,471.1094 Q91.505,470.8906 90.88,470.8906 Q90.1144,470.8906 89.4738,471.2188 Q88.8488,471.5469 88.3488,472.2969 Q87.8644,473.0469 87.8644,474.0781 L87.8644,475.1719 Q87.8644,476.4063 88.755,477.2344 Q89.6456,478.0469 91.2394,478.0469 Q92.1769,478.0469 92.8331,477.7969 Q93.2238,477.6406 93.6456,477.2031 Q93.9113,476.9375 94.0519,476.8594 Q94.2081,476.7813 94.4113,476.7813 Q94.7394,476.7813 94.9894,477.0469 Q95.255,477.2969 95.255,477.6406 Q95.255,477.9844 94.9113,478.3906 Q94.4113,478.9688 93.6144,479.2969 Q92.5363,479.75 91.2394,479.75 Q89.7238,479.75 88.5206,479.125 Q87.5363,478.625 86.8488,477.5625 Q86.1613,476.4844 86.1613,475.2031 L86.1613,474.0469 Q86.1613,472.7188 86.7706,471.5781 Q87.3956,470.4219 88.4894,469.8125 Q89.5831,469.1875 90.8175,469.1875 Q91.5519,469.1875 92.1925,469.3594 Q92.8488,469.5156 93.3956,469.875 Z " fill="#000000"/><text fill="#000000" font-family="sans-serif" font-size="14" lengthAdjust="spacing" textLength="107.3994" x="104.63" y="479.7969">SolutionProducer</text><line style="stroke:#181818;stroke-width:0.5;" x1="76.63" x2="214.0294" y1="490" y2="490"/><line style="stroke:#181818;stroke-width:0.5;" x1="76.63" x2="214.0294" y1="498" y2="498"/></g><!--class sNodeFactory--><g id="elem_sNodeFactory"><rect codeLine="24" fill="#F1F1F1" height="48" id="sNodeFactory" rx="2.5" ry="2.5" style="stroke:#181818;stroke-width:0.5;" width="121.4824" x="1423.63" y="242"/><ellipse cx="1438.63" cy="258" fill="#ADD1B2" rx="11" ry="11" style="stroke:#181818;stroke-width:1.0;"/><path d="M1441.3956,253.875 Q1441.5519,253.6563 1441.7394,253.5469 Q1441.9269,253.4375 1442.1456,253.4375 Q1442.5206,253.4375 1442.755,253.7031 Q1442.9894,253.9531 1442.9894,254.5625 L1442.9894,256.0156 Q1442.9894,256.625 1442.755,256.8906 Q1442.5206,257.1563 1442.1456,257.1563 Q1441.8019,257.1563 1441.5988,256.9531 Q1441.3956,256.7656 1441.2863,256.25 Q1441.2394,255.8906 1441.0519,255.7031 Q1440.7238,255.3281 1440.1144,255.1094 Q1439.505,254.8906 1438.88,254.8906 Q1438.1144,254.8906 1437.4738,255.2188 Q1436.8488,255.5469 1436.3488,256.2969 Q1435.8644,257.0469 1435.8644,258.0781 L1435.8644,259.1719 Q1435.8644,260.4063 1436.755,261.2344 Q1437.6456,262.0469 1439.2394,262.0469 Q1440.1769,262.0469 1440.8331,261.7969 Q1441.2238,261.6406 1441.6456,261.2031 Q1441.9113,260.9375 1442.0519,260.8594 Q1442.2081,260.7813 1442.4113,260.7813 Q1442.7394,260.7813 1442.9894,261.0469 Q1443.255,261.2969 1443.255,261.6406 Q1443.255,261.9844 1442.9113,262.3906 Q1442.4113,262.9688 1441.6144,263.2969 Q1440.5363,263.75 1439.2394,263.75 Q1437.7238,263.75 1436.5206,263.125 Q1435.5363,262.625 1434.8488,261.5625 Q1434.1613,260.4844 1434.1613,259.2031 L1434.1613,258.0469 Q1434.1613,256.7188 1434.7706,255.5781 Q1435.3956,254.4219 1436.4894,253.8125 Q1437.5831,253.1875 1438.8175,253.1875 Q1439.5519,253.1875 1440.1925,253.3594 Q1440.8488,253.5156 1441.3956,253.875 Z " fill="#000000"/><text fill="#000000" font-family="sans-serif" font-size="14" lengthAdjust="spacing" textLength="89.4824" x="1452.63" y="263.7969">SNodeFactory</text><line style="stroke:#181818;stroke-width:0.5;" x1="1424.63" x2="1544.1124" y1="274" y2="274"/><line style="stroke:#181818;stroke-width:0.5;" x1="1424.63" x2="1544.1124" y1="282" y2="282"/></g><!--class resolvableModelImport--><g id="elem_resolvableModelImport"><rect codeLine="26" fill="#F1F1F1" height="48" id="resolvableModelImport" rx="2.5" ry="2.5" style="stroke:#181818;stroke-width:0.5;" width="179.0684" x="853.63" y="242"/><ellipse cx="868.63" cy="258" fill="#ADD1B2" rx="11" ry="11" style="stroke:#181818;stroke-width:1.0;"/><path d="M871.3956,253.875 Q871.5519,253.6563 871.7394,253.5469 Q871.9269,253.4375 872.1456,253.4375 Q872.5206,253.4375 872.755,253.7031 Q872.9894,253.9531 872.9894,254.5625 L872.9894,256.0156 Q872.9894,256.625 872.755,256.8906 Q872.5206,257.1563 872.1456,257.1563 Q871.8019,257.1563 871.5988,256.9531 Q871.3956,256.7656 871.2863,256.25 Q871.2394,255.8906 871.0519,255.7031 Q870.7238,255.3281 870.1144,255.1094 Q869.505,254.8906 868.88,254.8906 Q868.1144,254.8906 867.4738,255.2188 Q866.8488,255.5469 866.3488,256.2969 Q865.8644,257.0469 865.8644,258.0781 L865.8644,259.1719 Q865.8644,260.4063 866.755,261.2344 Q867.6456,262.0469 869.2394,262.0469 Q870.1769,262.0469 870.8331,261.7969 Q871.2238,261.6406 871.6456,261.2031 Q871.9113,260.9375 872.0519,260.8594 Q872.2081,260.7813 872.4113,260.7813 Q872.7394,260.7813 872.9894,261.0469 Q873.255,261.2969 873.255,261.6406 Q873.255,261.9844 872.9113,262.3906 Q872.4113,262.9688 871.6144,263.2969 Q870.5363,263.75 869.2394,263.75 Q867.7238,263.75 866.5206,263.125 Q865.5363,262.625 864.8488,261.5625 Q864.1613,260.4844 864.1613,259.2031 L864.1613,258.0469 Q864.1613,256.7188 864.7706,255.5781 Q865.3956,254.4219 866.4894,253.8125 Q867.5831,253.1875 868.8175,253.1875 Q869.5519,253.1875 870.1925,253.3594 Q870.8488,253.5156 871.3956,253.875 Z " fill="#000000"/><text fill="#000000" font-family="sans-serif" font-size="14" lengthAdjust="spacing" textLength="147.0684" x="882.63" y="263.7969">ResolvableModelImport</text><line style="stroke:#181818;stroke-width:0.5;" x1="854.63" x2="1031.6984" y1="274" y2="274"/><line style="stroke:#181818;stroke-width:0.5;" x1="854.63" x2="1031.6984" y1="282" y2="282"/></g><!--class resolvableReference--><g id="elem_resolvableReference"><rect codeLine="27" fill="#F1F1F1" height="48" id="resolvableReference" rx="2.5" ry="2.5" style="stroke:#181818;stroke-width:0.5;" width="165.8545" x="1525.13" y="350"/><ellipse cx="1540.13" cy="366" fill="#ADD1B2" rx="11" ry="11" style="stroke:#181818;stroke-width:1.0;"/><path d="M1542.8956,361.875 Q1543.0519,361.6563 1543.2394,361.5469 Q1543.4269,361.4375 1543.6456,361.4375 Q1544.0206,361.4375 1544.255,361.7031 Q1544.4894,361.9531 1544.4894,362.5625 L1544.4894,364.0156 Q1544.4894,364.625 1544.255,364.8906 Q1544.0206,365.1563 1543.6456,365.1563 Q1543.3019,365.1563 1543.0988,364.9531 Q1542.8956,364.7656 1542.7863,364.25 Q1542.7394,363.8906 1542.5519,363.7031 Q1542.2238,363.3281 1541.6144,363.1094 Q1541.005,362.8906 1540.38,362.8906 Q1539.6144,362.8906 1538.9738,363.2188 Q1538.3488,363.5469 1537.8488,364.2969 Q1537.3644,365.0469 1537.3644,366.0781 L1537.3644,367.1719 Q1537.3644,368.4063 1538.255,369.2344 Q1539.1456,370.0469 1540.7394,370.0469 Q1541.6769,370.0469 1542.3331,369.7969 Q1542.7238,369.6406 1543.1456,369.2031 Q1543.4113,368.9375 1543.5519,368.8594 Q1543.7081,368.7813 1543.9113,368.7813 Q1544.2394,368.7813 1544.4894,369.0469 Q1544.755,369.2969 1544.755,369.6406 Q1544.755,369.9844 1544.4113,370.3906 Q1543.9113,370.9688 1543.1144,371.2969 Q1542.0363,371.75 1540.7394,371.75 Q1539.2238,371.75 1538.0206,371.125 Q1537.0363,370.625 1536.3488,369.5625 Q1535.6613,368.4844 1535.6613,367.2031 L1535.6613,366.0469 Q1535.6613,364.7188 1536.2706,363.5781 Q1536.8956,362.4219 1537.9894,361.8125 Q1539.0831,361.1875 1540.3175,361.1875 Q1541.0519,361.1875 1541.6925,361.3594 Q1542.3488,361.5156 1542.8956,361.875 Z " fill="#000000"/><text fill="#000000" font-family="sans-serif" font-size="14" lengthAdjust="spacing" textLength="133.8545" x="1554.13" y="371.7969">ResolvableReference</text><line style="stroke:#181818;stroke-width:0.5;" x1="1526.13" x2="1689.9845" y1="382" y2="382"/><line style="stroke:#181818;stroke-width:0.5;" x1="1526.13" x2="1689.9845" y1="390" y2="390"/></g><g id="elem_GMN66"><path d="M529.63,27 L529.63,54.291 A0,0 0 0 0 529.63,54.291 L708.1407,54.291 A0,0 0 0 0 708.1407,54.291 L708.1407,45 L743.36,40.5 L708.1407,37 L708.1407,37 L698.1407,27 L529.63,27 A0,0 0 0 0 529.63,27 " fill="#FEFFDD" style="stroke:#181818;stroke-width:0.5;"/><path d="M698.1407,27 L698.1407,37 L708.1407,37 L698.1407,27 " fill="#FEFFDD" style="stroke:#181818;stroke-width:0.5;"/><text fill="#000000" font-family="sans-serif" font-size="13" lengthAdjust="spacing" textLength="157.5107" x="535.63" y="46.0283">start: treeChanged(...): Unit</text></g><!--reverse link injectableService to bindingsRegistry--><g id="link_injectableService_bindingsRegistry"><path codeLine="30" d="M835.6943,498.4503 C719.8943,518.9003 506.98,556.52 391.84,576.86 " fill="none" id="injectableService-backto-bindingsRegistry" style="stroke:#181818;stroke-width:1.0;stroke-dasharray:7.0,7.0;"/><polygon fill="none" points="853.42,495.32,834.6508,492.5417,836.7377,504.3589,853.42,495.32" style="stroke:#181818;stroke-width:1.0;"/></g><!--reverse link injectableService to syncQueue--><g id="link_injectableService_syncQueue"><path codeLine="31" d="M1010.3051,504.7455 C1095.1951,525.9155 1219.22,556.85 1295.52,575.88 " fill="none" id="injectableService-backto-syncQueue" style="stroke:#181818;stroke-width:1.0;stroke-dasharray:7.0,7.0;"/><polygon fill="none" points="992.84,500.39,1008.8533,510.5672,1011.7569,498.9238,992.84,500.39" style="stroke:#181818;stroke-width:1.0;"/></g><!--reverse link injectableService to futuresWaitQueue--><g id="link_injectableService_futuresWaitQueue"><path codeLine="32" d="M951.0316,520.7907 C981.4216,561.9507 1033.57,632.58 1063.94,673.72 " fill="none" id="injectableService-backto-futuresWaitQueue" style="stroke:#181818;stroke-width:1.0;stroke-dasharray:7.0,7.0;"/><polygon fill="none" points="940.34,506.31,946.2047,524.3545,955.8585,517.2268,940.34,506.31" style="stroke:#181818;stroke-width:1.0;"/></g><!--reverse link injectableService to nodeMap--><g id="link_injectableService_nodeMap"><path codeLine="33" d="M890.7918,519.4714 C875.1418,537.1314 865.54,547.94 849.81,565.68 " fill="none" id="injectableService-backto-nodeMap" style="stroke:#181818;stroke-width:1.0;stroke-dasharray:7.0,7.0;"/><polygon fill="none" points="902.73,506,886.3013,515.4921,895.2823,523.4508,902.73,506" style="stroke:#181818;stroke-width:1.0;"/></g><!--link serviceLocator to bindingsRegistry--><g id="link_serviceLocator_bindingsRegistry"><path codeLine="35" d="M1011.816,395.8412 C870.296,435.5412 544.5671,526.8897 397.5971,568.1097 " fill="none" id="serviceLocator-bindingsRegistry" style="stroke:#181818;stroke-width:1.0;"/><polygon fill="#181818" points="1023.37,392.6,1016.5126,390.3693,1011.816,395.8412,1018.6734,398.0719,1023.37,392.6" style="stroke:#181818;stroke-width:1.0;"/><polygon fill="#181818" points="391.82,569.73,401.5658,571.151,396.6342,568.3798,399.4054,563.4482,391.82,569.73" style="stroke:#181818;stroke-width:1.0;"/></g><!--link serviceLocator to syncQueue--><g id="link_serviceLocator_syncQueue"><path codeLine="36" d="M1160.2715,391.85 C1203.1015,403.9 1247.24,422.07 1285.13,458 C1316.63,487.87 1332.6052,530.967 1340.7752,559.817 " fill="none" id="serviceLocator-syncQueue" style="stroke:#181818;stroke-width:1.0;"/><polygon fill="#181818" points="1148.72,388.6,1153.4124,394.0755,1160.2715,391.85,1155.5791,386.3745,1148.72,388.6" style="stroke:#181818;stroke-width:1.0;"/><polygon fill="#181818" points="1342.41,565.59,1343.8064,555.8406,1341.0476,560.7792,1336.1091,558.0204,1342.41,565.59" style="stroke:#181818;stroke-width:1.0;"/></g><!--link serviceLocator to futuresWaitQueue--><g id="link_serviceLocator_futuresWaitQueue"><path codeLine="37" d="M1085.5837,410.1586 C1084.6637,469.4186 1082.5138,608.1107 1081.5838,667.6207 " fill="none" id="serviceLocator-futuresWaitQueue" style="stroke:#181818;stroke-width:1.0;"/><polygon fill="#181818" points="1085.77,398.16,1081.6773,404.0972,1085.5837,410.1586,1089.6764,404.2214,1085.77,398.16" style="stroke:#181818;stroke-width:1.0;"/><polygon fill="#181818" points="1081.49,673.62,1085.6301,664.6836,1081.5681,668.6206,1077.6311,664.5586,1081.49,673.62" style="stroke:#181818;stroke-width:1.0;"/></g><!--link serviceLocator to nodeMap--><g id="link_serviceLocator_nodeMap"><path codeLine="38" d="M1011.5921,378.0369 C952.9721,383.5169 879.96,400.56 836.13,458 C812.44,489.05 816.1479,531.4117 821.9679,559.8717 " fill="none" id="serviceLocator-nodeMap" style="stroke:#181818;stroke-width:1.0;"/><polygon fill="#181818" points="1023.54,376.92,1017.1937,373.4958,1011.5921,378.0369,1017.9384,381.4611,1023.54,376.92" style="stroke:#181818;stroke-width:1.0;"/><polygon fill="#181818" points="823.17,565.75,825.2857,556.1311,822.1682,560.8514,817.4479,557.7339,823.17,565.75" style="stroke:#181818;stroke-width:1.0;"/></g><!--link serviceLocator to injectableService--><g id="link_serviceLocator_injectableService"><path codeLine="39" d="M1050.76,398 C1023.52,415.72 986.01,440.11 958.71,457.86 " fill="none" id="serviceLocator-injectableService" style="stroke:#181818;stroke-width:1.0;stroke-dasharray:7.0,7.0;"/></g><!--reverse link iBinding to modelBinding--><g id="link_iBinding_modelBinding"><path codeLine="41" d="M128.3461,629.6022 C138.5061,647.2622 143.5,655.94 153.71,673.68 " fill="none" id="iBinding-backto-modelBinding" style="stroke:#181818;stroke-width:1.0;stroke-dasharray:7.0,7.0;"/><polygon fill="none" points="119.37,614,123.1454,632.5943,133.5469,626.6102,119.37,614" style="stroke:#181818;stroke-width:1.0;"/></g><!--reverse link iBinding to moduleBinding--><g id="link_iBinding_moduleBinding"><path codeLine="42" d="M163.8831,619.2114 C200.5631,637.1314 237.8,655.32 276.03,673.99 " fill="none" id="iBinding-backto-moduleBinding" style="stroke:#181818;stroke-width:1.0;stroke-dasharray:7.0,7.0;"/><polygon fill="none" points="147.71,611.31,161.2493,624.6024,166.5169,613.8203,147.71,611.31" style="stroke:#181818;stroke-width:1.0;"/></g><!--link bindingsRegistry to modelBinding--><g id="link_bindingsRegistry_modelBinding"><path codeLine="44" d="M279.3555,620.7457 C253.2855,638.4657 232.2732,652.7385 206.1432,670.4885 " fill="none" id="bindingsRegistry-modelBinding" style="stroke:#181818;stroke-width:1.0;"/><polygon fill="#181818" points="289.28,614,282.0692,614.0647,279.3555,620.7457,286.5663,620.681,289.28,614" style="stroke:#181818;stroke-width:1.0;"/><polygon fill="#181818" points="201.18,673.86,210.8724,672.1116,205.316,671.0504,206.3771,665.494,201.18,673.86" style="stroke:#181818;stroke-width:1.0;"/></g><!--link bindingsRegistry to moduleBinding--><g id="link_bindingsRegistry_moduleBinding"><path codeLine="45" d="M323.13,626 C323.13,643.66 323.13,649.94 323.13,667.68 " fill="none" id="bindingsRegistry-moduleBinding" style="stroke:#181818;stroke-width:1.0;"/><polygon fill="#181818" points="323.13,614,319.13,620,323.13,626,327.13,620,323.13,614" style="stroke:#181818;stroke-width:1.0;"/><polygon fill="#181818" points="323.13,673.68,327.13,664.68,323.13,668.68,319.13,664.68,323.13,673.68" style="stroke:#181818;stroke-width:1.0;"/></g><!--link moduleTransformer to serviceLocator--><g id="link_moduleTransformer_serviceLocator"><path codeLine="47" d="M558.15,182.02 C610.91,210.24 704.75,258.24 789.13,290 C868.18,319.75 956.7436,342.9585 1017.5636,357.4585 " fill="none" id="moduleTransformer-to-serviceLocator" style="stroke:#181818;stroke-width:1.0;"/><polygon fill="#181818" points="1023.4,358.85,1015.573,352.8719,1018.5363,357.6905,1013.7177,360.6538,1023.4,358.85" style="stroke:#181818;stroke-width:1.0;"/></g><!--link moduleTransformer to bindingsRegistry--><g id="link_moduleTransformer_bindingsRegistry"><path codeLine="48" d="M438.79,159.07 C361.96,162.99 244.57,179.86 166.13,242 C82,308.65 82.79,353.54 58.13,458 C53.23,478.76 45.5,488.81 58.13,506 C81.57,537.91 178.1337,561.8775 248.5637,575.7875 " fill="none" id="moduleTransformer-to-bindingsRegistry" style="stroke:#181818;stroke-width:1.0;"/><polygon fill="#181818" points="254.45,576.95,246.3956,571.282,249.5448,575.9812,244.8455,579.1304,254.45,576.95" style="stroke:#181818;stroke-width:1.0;"/></g><!--link moduleTransformer to modelTransformer--><g id="link_moduleTransformer_modelTransformer"><path codeLine="49" d="M605.15,158 C637.76,158 652.38,158 685,158 " fill="none" id="moduleTransformer-modelTransformer" style="stroke:#181818;stroke-width:1.0;"/><polygon fill="#181818" points="593.15,158,599.15,162,605.15,158,599.15,154,593.15,158" style="stroke:#181818;stroke-width:1.0;"/><polygon fill="#181818" points="691,158,682,154,686,158,682,162,691,158" style="stroke:#181818;stroke-width:1.0;"/></g><!--link moduleTransformer to syncQueue--><g id="link_moduleTransformer_syncQueue"><path codeLine="50" d="M539.51,182.14 C568.85,210.27 621.58,257.95 673.13,290 C785.73,359.99 1151.5754,509.8761 1289.9754,565.6861 " fill="none" id="moduleTransformer-to-syncQueue" style="stroke:#181818;stroke-width:1.0;"/><polygon fill="#181818" points="1295.54,567.93,1288.6891,560.8544,1290.9028,566.0601,1285.6971,568.2738,1295.54,567.93" style="stroke:#181818;stroke-width:1.0;"/></g><!--link moduleTransformer to futuresWaitQueue--><g id="link_moduleTransformer_futuresWaitQueue"><path codeLine="51" d="M517.42,182.22 C522.92,257.45 550.93,496.37 688.13,614 C735.18,654.34 900.3964,678.0197 1000.6464,689.1197 " fill="none" id="moduleTransformer-to-futuresWaitQueue" style="stroke:#181818;stroke-width:1.0;"/><polygon fill="#181818" points="1006.61,689.78,998.1049,684.8138,1001.6404,689.2297,997.2245,692.7652,1006.61,689.78" style="stroke:#181818;stroke-width:1.0;"/></g><!--link moduleTransformer to nodeMap--><g id="link_moduleTransformer_nodeMap"><path codeLine="52" d="M522.25,182.42 C529.68,209.19 543.44,253.95 561.13,290 C620.56,411.09 738.6086,516.1599 794.9886,562.0999 " fill="none" id="moduleTransformer-to-nodeMap" style="stroke:#181818;stroke-width:1.0;"/><polygon fill="#181818" points="799.64,565.89,795.1896,557.104,795.7639,562.7316,790.1362,563.3058,799.64,565.89" style="stroke:#181818;stroke-width:1.0;"/></g><!--link moduleTransformer to solutionProducer--><g id="link_moduleTransformer_solutionProducer"><path codeLine="53" d="M427.2475,172.5482 C346.4175,186.1982 238.49,209.26 206.13,242 C146.98,301.85 142.548,404.6319 143.748,451.9719 " fill="none" id="moduleTransformer-solutionProducer" style="stroke:#181818;stroke-width:1.0;"/><polygon fill="#181818" points="439.08,170.55,432.4977,167.6049,427.2475,172.5482,433.8298,175.4932,439.08,170.55" style="stroke:#181818;stroke-width:1.0;"/><polygon fill="#181818" points="143.9,457.97,147.6707,448.8715,143.7733,452.9716,139.6732,449.0743,143.9,457.97" style="stroke:#181818;stroke-width:1.0;"/></g><!--link moduleTransformer to iBinding--><g id="link_moduleTransformer_iBinding"><path codeLine="54" d="M438.97,166.23 C335.64,177.33 159.58,201.61 110.13,242 C16.46,318.51 6,391.23 44.13,506 C51.73,528.87 64.3121,546.1111 78.4421,561.5711 " fill="none" id="moduleTransformer-to-iBinding" style="stroke:#181818;stroke-width:1.0;stroke-dasharray:7.0,7.0;"/><polygon fill="#181818" points="82.49,566,79.3708,556.6581,79.1168,562.3093,73.4656,562.0553,82.49,566" style="stroke:#181818;stroke-width:1.0;"/></g><!--link modelTransformer to nodeTransformer--><g id="link_modelTransformer_nodeTransformer"><path codeLine="56" d="M849.33,158 C976.53,158 1085.74,158 1212.94,158 " fill="none" id="modelTransformer-nodeTransformer" style="stroke:#181818;stroke-width:1.0;"/><polygon fill="#181818" points="837.33,158,843.33,162,849.33,158,843.33,154,837.33,158" style="stroke:#181818;stroke-width:1.0;"/><polygon fill="#181818" points="1218.94,158,1209.94,154,1213.94,158,1209.94,162,1218.94,158" style="stroke:#181818;stroke-width:1.0;"/></g><!--link modelTransformer to bindingsRegistry--><g id="link_modelTransformer_bindingsRegistry"><path codeLine="57" d="M691.04,172.5 C595.71,190.72 438.7,223.08 419.13,242 C326.11,331.93 320.6191,497.3014 321.9791,559.6114 " fill="none" id="modelTransformer-to-bindingsRegistry" style="stroke:#181818;stroke-width:1.0;"/><polygon fill="#181818" points="322.11,565.61,325.9127,556.5249,322.0009,560.6112,317.9146,556.6994,322.11,565.61" style="stroke:#181818;stroke-width:1.0;"/></g><!--link modelTransformer to serviceLocator--><g id="link_modelTransformer_serviceLocator"><path codeLine="58" d="M770.96,182.07 C780.76,211.26 801.53,261.19 836.13,290 C889.9,334.78 962.7898,354.646 1017.4898,364.216 " fill="none" id="modelTransformer-to-serviceLocator" style="stroke:#181818;stroke-width:1.0;"/><polygon fill="#181818" points="1023.4,365.25,1015.224,359.7588,1018.4748,364.3883,1013.8453,367.6391,1023.4,365.25" style="stroke:#181818;stroke-width:1.0;"/></g><!--link modelTransformer to syncQueue--><g id="link_modelTransformer_syncQueue"><path codeLine="59" d="M837.19,172.23 C896.74,184.86 981.85,207.19 1050.13,242 C1189.53,313.07 1248.91,323.07 1328.13,458 C1347.82,491.53 1350.3689,531.8816 1349.7289,559.5116 " fill="none" id="modelTransformer-to-syncQueue" style="stroke:#181818;stroke-width:1.0;"/><polygon fill="#181818" points="1349.59,565.51,1353.7973,556.605,1349.7058,560.5113,1345.7995,556.4198,1349.59,565.51" style="stroke:#181818;stroke-width:1.0;"/></g><!--link modelTransformer to futuresWaitQueue--><g id="link_modelTransformer_futuresWaitQueue"><path codeLine="60" d="M751.99,182.08 C713.06,259.5 601.56,510.89 737.13,614 C815.74,673.78 925.2717,690.8352 1000.3617,695.5352 " fill="none" id="modelTransformer-to-futuresWaitQueue" style="stroke:#181818;stroke-width:1.0;"/><polygon fill="#181818" points="1006.35,695.91,997.6175,691.3556,1001.3598,695.5977,997.1177,699.34,1006.35,695.91" style="stroke:#181818;stroke-width:1.0;"/></g><!--link modelTransformer to nodeMap--><g id="link_modelTransformer_nodeMap"><path codeLine="61" d="M766.64,182.24 C772.81,238.2 789.81,384.75 811.13,506 C814.71,526.33 818.407,543.4045 822.247,559.9945 " fill="none" id="modelTransformer-to-nodeMap" style="stroke:#181818;stroke-width:1.0;"/><polygon fill="#181818" points="823.6,565.84,825.4674,556.1698,822.4725,560.9688,817.6735,557.9738,823.6,565.84" style="stroke:#181818;stroke-width:1.0;"/></g><!--link modelTransformer to modelBinding--><g id="link_modelTransformer_modelBinding"><path codeLine="62" d="M723.45,182.09 C628.27,237.74 387.73,387.91 237.13,566 C208.83,599.47 189.5098,640.7059 178.2098,668.3559 " fill="none" id="modelTransformer-to-modelBinding" style="stroke:#181818;stroke-width:1.0;stroke-dasharray:7.0,7.0;"/><polygon fill="#181818" points="175.94,673.91,183.0475,667.0921,177.8315,669.2816,175.642,664.0657,175.94,673.91" style="stroke:#181818;stroke-width:1.0;"/></g><!--link modelTransformer to resolvableModelImport--><g id="link_modelTransformer_resolvableModelImport"><path codeLine="63" d="M813.2951,188.115 C843.2151,205.835 868.917,221.0532 898.897,238.8032 " fill="none" id="modelTransformer-resolvableModelImport" style="stroke:#181818;stroke-width:1.0;"/><polygon fill="#181818" points="802.97,182,806.0942,188.4992,813.2951,188.115,810.1709,181.6158,802.97,182" style="stroke:#181818;stroke-width:1.0;"/><polygon fill="#181818" points="904.06,241.86,898.3534,233.8329,899.7575,239.3127,894.2777,240.7168,904.06,241.86" style="stroke:#181818;stroke-width:1.0;"/></g><!--link nodeTransformer to serviceLocator--><g id="link_nodeTransformer_serviceLocator"><path codeLine="65" d="M1273.12,182.29 C1252.92,209.33 1217.61,254.72 1183.13,290 C1161.91,311.72 1140.2926,330.1961 1120.4426,346.1861 " fill="none" id="nodeTransformer-to-serviceLocator" style="stroke:#181818;stroke-width:1.0;stroke-dasharray:7.0,7.0;"/><polygon fill="#181818" points="1115.77,349.95,1125.2881,347.4191,1119.6638,346.8134,1120.2695,341.1891,1115.77,349.95" style="stroke:#181818;stroke-width:1.0;"/></g><!--link nodeTransformer to syncQueue--><g id="link_nodeTransformer_syncQueue"><path codeLine="66" d="M1361.2,163.85 C1467.49,175.52 1663.46,215.19 1739.13,350 C1818.38,491.18 1530.4687,557.8875 1406.6287,579.7375 " fill="none" id="nodeTransformer-to-syncQueue" style="stroke:#181818;stroke-width:1.0;"/><polygon fill="#181818" points="1400.72,580.78,1410.2781,583.1554,1405.6439,579.9112,1408.8881,575.2771,1400.72,580.78" style="stroke:#181818;stroke-width:1.0;"/></g><!--link nodeTransformer to nodeMap--><g id="link_nodeTransformer_nodeMap"><path codeLine="67" d="M1283.23,182.15 C1268.47,228.29 1229.9,332.86 1166.13,398 C1130.41,434.49 1109.69,428.31 1068.13,458 C1040.91,477.45 1038.47,488.21 1010.13,506 C972.07,529.9 931.5365,548.6417 895.3965,563.5517 " fill="none" id="nodeTransformer-to-nodeMap" style="stroke:#181818;stroke-width:1.0;"/><polygon fill="#181818" points="889.85,565.84,899.6953,566.1053,894.4721,563.9331,896.6442,558.7099,889.85,565.84" style="stroke:#181818;stroke-width:1.0;"/></g><!--link nodeTransformer to sNodeFactory--><g id="link_nodeTransformer_sNodeFactory"><path codeLine="68" d="M1332.23,182 C1364.66,199.72 1404.0245,221.2334 1436.5145,238.9834 " fill="none" id="nodeTransformer-to-sNodeFactory" style="stroke:#181818;stroke-width:1.0;"/><polygon fill="#181818" points="1441.78,241.86,1435.7996,234.0348,1437.3921,239.4628,1431.9641,241.0554,1441.78,241.86" style="stroke:#181818;stroke-width:1.0;"/></g><!--link sNodeFactory to serviceLocator--><g id="link_sNodeFactory_serviceLocator"><path codeLine="70" d="M1423.25,283.21 C1348.89,303.02 1229.5479,334.8059 1154.4479,354.8059 " fill="none" id="sNodeFactory-to-serviceLocator" style="stroke:#181818;stroke-width:1.0;stroke-dasharray:7.0,7.0;"/><polygon fill="#181818" points="1148.65,356.35,1158.3763,357.8992,1153.4816,355.0633,1156.3175,350.1686,1148.65,356.35" style="stroke:#181818;stroke-width:1.0;"/></g><!--link sNodeFactory to syncQueue--><g id="link_sNodeFactory_syncQueue"><path codeLine="71" d="M1544.95,276.75 C1624.94,292.46 1750.76,328.88 1709.13,398 C1641.55,510.22 1489.348,558.598 1406.598,577.588 " fill="none" id="sNodeFactory-to-syncQueue" style="stroke:#181818;stroke-width:1.0;"/><polygon fill="#181818" points="1400.75,578.93,1410.4167,580.8156,1405.6233,577.8116,1408.6273,573.0183,1400.75,578.93" style="stroke:#181818;stroke-width:1.0;"/></g><!--link sNodeFactory to futuresWaitQueue--><g id="link_sNodeFactory_futuresWaitQueue"><path codeLine="72" d="M1487.4,290.15 C1494.71,351.85 1505.46,521.87 1418.13,614 C1382.64,651.45 1249.774,675.1122 1161.754,687.2222 " fill="none" id="sNodeFactory-to-futuresWaitQueue" style="stroke:#181818;stroke-width:1.0;"/><polygon fill="#181818" points="1155.81,688.04,1165.2712,690.776,1160.7633,687.3585,1164.1808,682.8506,1155.81,688.04" style="stroke:#181818;stroke-width:1.0;"/></g><!--link sNodeFactory to resolvableReference--><g id="link_sNodeFactory_resolvableReference"><path codeLine="73" d="M1520.1598,297.7993 C1540.8098,315.4593 1555.5395,328.041 1576.2895,345.781 " fill="none" id="sNodeFactory-resolvableReference" style="stroke:#181818;stroke-width:1.0;"/><polygon fill="#181818" points="1511.04,290,1513.0001,296.9396,1520.1598,297.7993,1518.1997,290.8597,1511.04,290" style="stroke:#181818;stroke-width:1.0;"/><polygon fill="#181818" points="1580.85,349.68,1576.6086,340.7912,1577.0496,346.4309,1571.4099,346.8719,1580.85,349.68" style="stroke:#181818;stroke-width:1.0;"/></g><!--link sNodeFactory to nodeMap--><g id="link_sNodeFactory_nodeMap"><path codeLine="74" d="M1449.83,290.03 C1380.7,335.74 1218.69,439.25 1072.13,506 C1017.46,530.9 958.7563,550.8208 909.9763,565.7808 " fill="none" id="sNodeFactory-to-nodeMap" style="stroke:#181818;stroke-width:1.0;"/><polygon fill="#181818" points="904.24,567.54,914.0173,568.7254,909.0202,566.074,911.6716,561.077,904.24,567.54" style="stroke:#181818;stroke-width:1.0;"/></g><!--link syncQueue to futuresWaitQueue--><g id="link_syncQueue_futuresWaitQueue"><path codeLine="76" d="M1295.38,611.94 C1250.4,629.8 1191.3969,653.2268 1144.9069,671.6768 " fill="none" id="syncQueue-to-futuresWaitQueue" style="stroke:#181818;stroke-width:1.0;"/><polygon fill="#181818" points="1139.33,673.89,1149.1708,674.2881,1143.9774,672.0456,1146.2198,666.8522,1139.33,673.89" style="stroke:#181818;stroke-width:1.0;"/></g><!--link ModelixBranchListener to serviceLocator--><g id="link_ModelixBranchListener_serviceLocator"><path codeLine="78" d="M943.71,74.33 C973.45,112.53 1021.25,178.5 1050.13,242 C1066.54,278.07 1075.7784,317.3196 1080.9684,344.0996 " fill="none" id="ModelixBranchListener-to-serviceLocator" style="stroke:#181818;stroke-width:1.0;stroke-dasharray:7.0,7.0;"/><polygon fill="#181818" points="1082.11,349.99,1084.3246,340.3934,1081.1587,345.0813,1076.4707,341.9154,1082.11,349.99" style="stroke:#181818;stroke-width:1.0;"/></g><!--link ModelixBranchListener to modelixTreeChangeVisitor--><g id="link_ModelixBranchListener_modelixTreeChangeVisitor"><path codeLine="79" d="M1102.72,40.5 C1114.27,40.5 1107.82,40.5 1119.37,40.5 " fill="none" id="ModelixBranchListener-modelixTreeChangeVisitor" style="stroke:#181818;stroke-width:1.0;"/><polygon fill="#181818" points="1090.72,40.5,1096.72,44.5,1102.72,40.5,1096.72,36.5,1090.72,40.5" style="stroke:#181818;stroke-width:1.0;"/><polygon fill="#181818" points="1125.37,40.5,1116.37,36.5,1120.37,40.5,1116.37,44.5,1125.37,40.5" style="stroke:#181818;stroke-width:1.0;"/></g><!--link modelixTreeChangeVisitor to serviceLocator--><g id="link_modelixTreeChangeVisitor_serviceLocator"><path codeLine="81" d="M1214.54,64.55 C1189.29,125.19 1123.5361,283.1609 1098.1561,344.1209 " fill="none" id="modelixTreeChangeVisitor-to-serviceLocator" style="stroke:#181818;stroke-width:1.0;stroke-dasharray:7.0,7.0;"/><polygon fill="#181818" points="1095.85,349.66,1103.002,342.8888,1097.7718,345.0441,1095.6165,339.8139,1095.85,349.66" style="stroke:#181818;stroke-width:1.0;"/></g><!--link modelixTreeChangeVisitor to syncQueue--><g id="link_modelixTreeChangeVisitor_syncQueue"><path codeLine="82" d="M1322.88,53.92 C1507.43,79.92 1886.13,147.56 1886.13,265 C1886.13,265 1886.13,265 1886.13,375 C1886.13,470.74 1801.83,465.39 1715.13,506 C1610.13,555.18 1480.2631,575.4057 1406.8331,583.5857 " fill="none" id="modelixTreeChangeVisitor-to-syncQueue" style="stroke:#181818;stroke-width:1.0;"/><polygon fill="#181818" points="1400.87,584.25,1410.2575,587.229,1405.8393,583.6964,1409.3718,579.2782,1400.87,584.25" style="stroke:#181818;stroke-width:1.0;"/></g><!--link modelixTreeChangeVisitor to nodeTransformer--><g id="link_modelixTreeChangeVisitor_nodeTransformer"><path codeLine="83" d="M1237.33,64.6 C1248.84,84.74 1262.4718,108.6013 1273.9818,128.7313 " fill="none" id="modelixTreeChangeVisitor-to-nodeTransformer" style="stroke:#181818;stroke-width:1.0;"/><polygon fill="#181818" points="1276.96,133.94,1275.9651,124.1415,1274.4781,129.5994,1269.0202,128.1125,1276.96,133.94" style="stroke:#181818;stroke-width:1.0;"/></g><!--link modelixTreeChangeVisitor to modelTransformer--><g id="link_modelixTreeChangeVisitor_modelTransformer"><path codeLine="84" d="M1143.42,64.52 C1131.6,67.77 1119.57,71.02 1108.13,74 C1014.94,98.29 912.7436,122.5888 842.9836,138.8388 " fill="none" id="modelixTreeChangeVisitor-to-modelTransformer" style="stroke:#181818;stroke-width:1.0;"/><polygon fill="#181818" points="837.14,140.2,846.8128,142.0539,842.0096,139.0657,844.9979,134.2625,837.14,140.2" style="stroke:#181818;stroke-width:1.0;"/></g><!--link modelixTreeChangeVisitor to moduleTransformer--><g id="link_modelixTreeChangeVisitor_moduleTransformer"><path codeLine="85" d="M1147.43,64.57 C1134.39,68.03 1120.93,71.34 1108.13,74 C917.5,113.69 866.92,106.64 674.13,134 C647.78,137.74 624.9172,141.0443 599.1972,144.7943 " fill="none" id="modelixTreeChangeVisitor-to-moduleTransformer" style="stroke:#181818;stroke-width:1.0;"/><polygon fill="#181818" points="593.26,145.66,602.7429,148.3197,598.2077,144.9386,601.5887,140.4034,593.26,145.66" style="stroke:#181818;stroke-width:1.0;"/></g><!--SRC=[VPPHRziW4CVV-HGeBzcwnXyWcZgfLIj5QgijpRPdwfnJ9WSYmDsgRTzzs34sSCUU7Ev-t1r_ECBoLZdf9DWbgrjXBN_GUsZbhsiZLFroBwq31OR_PX-uCm0tBq8TOFzEj_kT7wxvflzykkGAVaQ6zsl-LKd7_h8nwc8CkvjYV9DMEcqMN5X-B3WPayg1QKGDVB6vbcelrM6O8ST14Zu6Zf4XWheMCcgsfDdK3wYTU6xX2SohhE6SDhU6qEFmNjSYBCecfW2EkUmM3bvRypQWpvbnYlgcwYyTTEVaDeo2-wvpdG7xNKWtKqrcd1P_iZizxiA3E0siyaF_cwK2xVpMsqQR8vX8fCYQY4xGYJ70ZzwUiogrJNKywRPpKglFngUkHzXcnWdk8z-9sejyLjD6XYda5lpyrtxdXgetnvCsRi0DvS7Jjj200JKU18FjZ2stq8g-HDzCwAJmZt-g2kzqWPltkW2WRIvmqnQdnv5Vh5PNk1eAcakXlAWE2Wf5P3vV7cue5bhxN7_InyWLDs- -c7FgP7uHYUEWuyu75T9kfY6a9yOkGatnkI-ad8Id_KXw6WlYKxMiXZnvOs6oggxcAvVbzG-BodiPGIM1C8Mr9fXO7EocjC5K94tgxDURd1nYoNu-VNMmJ8eXMhQc74cNH7b3hUJCvCQBHrJkn9zrUEx2xHqJcGZpLOZYpDTGo4M7P_JpWrW53KxjHRucIXugVf4bJby98tkY15Etmd_fx4-PBH-rwzznodzu2utZkg6VSsjkdJ1kdJpfggeApxP_]--></g></svg>
