<svg xmlns="http://www.w3.org/2000/svg" xmlns:xlink="http://www.w3.org/1999/xlink" contentStyleType="text/css" height="1017px" preserveAspectRatio="none" style="width:3051px;height:1017px;background:#FFFFFF;" version="1.1" viewBox="0 0 3051 1017" width="3051px" zoomAndPan="magnify"><defs/><g><!--class ISyncService--><g id="elem_ISyncService"><rect codeLine="2" fill="#F1F1F1" height="66.6211" id="ISyncService" rx="2.5" ry="2.5" style="stroke:#181818;stroke-width:0.5;" width="850.8584" x="272.5" y="403.33"/><ellipse cx="652.8311" cy="419.33" fill="#B4A7E5" rx="11" ry="11" style="stroke:#181818;stroke-width:1.0;"/><path d="M653.7842,415.9706 L653.7842,422.6269 L655.5029,422.6269 Q656.1123,422.6269 656.3779,422.8613 Q656.6436,423.0956 656.6436,423.4863 Q656.6436,423.8613 656.3779,424.0956 Q656.1123,424.33 655.5029,424.33 L650.3623,424.33 Q649.7529,424.33 649.4873,424.0956 Q649.2217,423.8613 649.2217,423.4706 Q649.2217,423.0956 649.4873,422.8613 Q649.7529,422.6269 650.3623,422.6269 L652.0811,422.6269 L652.0811,415.9706 L650.3623,415.9706 Q649.7529,415.9706 649.4873,415.7363 Q649.2217,415.5019 649.2217,415.1113 Q649.2217,414.7363 649.4873,414.5019 Q649.7529,414.2675 650.3623,414.2675 L655.5029,414.2675 Q656.1123,414.2675 656.3779,414.5019 Q656.6436,414.7363 656.6436,415.1113 Q656.6436,415.5019 656.3779,415.7363 Q656.1123,415.9706 655.5029,415.9706 L653.7842,415.9706 Z " fill="#000000"/><text fill="#000000" font-family="sans-serif" font-size="14" font-style="italic" lengthAdjust="spacing" textLength="81.6963" x="673.3311" y="425.1269">ISyncService</text><line style="stroke:#181818;stroke-width:0.5;" x1="273.5" x2="1122.3584" y1="435.33" y2="435.33"/><line style="stroke:#181818;stroke-width:0.5;" x1="273.5" x2="1122.3584" y1="443.33" y2="443.33"/><ellipse cx="283.5" cy="458.1405" fill="#84BE84" rx="3" ry="3" style="stroke:#038048;stroke-width:1.0;"/><text fill="#000000" font-family="sans-serif" font-size="14" font-style="italic" lengthAdjust="spacing" textLength="824.8584" x="292.5" y="462.4374">bindModuleFromServer(client: ModelClientV2, branchReference: BranchReference, module: ModuleIdWithName): Iterable&lt;IBinding&gt;</text></g><!--class syncServiceImpl--><g id="elem_syncServiceImpl"><rect codeLine="5" fill="#F1F1F1" height="48" id="syncServiceImpl" rx="2.5" ry="2.5" style="stroke:#181818;stroke-width:0.5;" width="136.2549" x="1153" y="530.33"/><ellipse cx="1168" cy="546.33" fill="#ADD1B2" rx="11" ry="11" style="stroke:#181818;stroke-width:1.0;"/><path d="M1170.7656,542.205 Q1170.9219,541.9863 1171.1094,541.8769 Q1171.2969,541.7675 1171.5156,541.7675 Q1171.8906,541.7675 1172.125,542.0331 Q1172.3594,542.2831 1172.3594,542.8925 L1172.3594,544.3456 Q1172.3594,544.955 1172.125,545.2206 Q1171.8906,545.4863 1171.5156,545.4863 Q1171.1719,545.4863 1170.9688,545.2831 Q1170.7656,545.0956 1170.6563,544.58 Q1170.6094,544.2206 1170.4219,544.0331 Q1170.0938,543.6581 1169.4844,543.4394 Q1168.875,543.2206 1168.25,543.2206 Q1167.4844,543.2206 1166.8438,543.5488 Q1166.2188,543.8769 1165.7188,544.6269 Q1165.2344,545.3769 1165.2344,546.4081 L1165.2344,547.5019 Q1165.2344,548.7363 1166.125,549.5644 Q1167.0156,550.3769 1168.6094,550.3769 Q1169.5469,550.3769 1170.2031,550.1269 Q1170.5938,549.9706 1171.0156,549.5331 Q1171.2813,549.2675 1171.4219,549.1894 Q1171.5781,549.1113 1171.7813,549.1113 Q1172.1094,549.1113 1172.3594,549.3769 Q1172.625,549.6269 1172.625,549.9706 Q1172.625,550.3144 1172.2813,550.7206 Q1171.7813,551.2988 1170.9844,551.6269 Q1169.9063,552.08 1168.6094,552.08 Q1167.0938,552.08 1165.8906,551.455 Q1164.9063,550.955 1164.2188,549.8925 Q1163.5313,548.8144 1163.5313,547.5331 L1163.5313,546.3769 Q1163.5313,545.0488 1164.1406,543.9081 Q1164.7656,542.7519 1165.8594,542.1425 Q1166.9531,541.5175 1168.1875,541.5175 Q1168.9219,541.5175 1169.5625,541.6894 Q1170.2188,541.8456 1170.7656,542.205 Z " fill="#000000"/><text fill="#000000" font-family="sans-serif" font-size="14" lengthAdjust="spacing" textLength="104.2549" x="1182" y="552.1269">SyncServiceImpl</text><line style="stroke:#181818;stroke-width:0.5;" x1="1154" x2="1288.2549" y1="562.33" y2="562.33"/><line style="stroke:#181818;stroke-width:0.5;" x1="1154" x2="1288.2549" y1="570.33" y2="570.33"/></g><!--class iBinding--><g id="elem_iBinding"><rect codeLine="7" fill="#F1F1F1" height="48" id="iBinding" rx="2.5" ry="2.5" style="stroke:#181818;stroke-width:0.5;" width="82.5928" x="289.5" y="854.33"/><ellipse cx="304.5" cy="870.33" fill="#B4A7E5" rx="11" ry="11" style="stroke:#181818;stroke-width:1.0;"/><path d="M305.4531,866.9706 L305.4531,873.6269 L307.1719,873.6269 Q307.7813,873.6269 308.0469,873.8613 Q308.3125,874.0956 308.3125,874.4863 Q308.3125,874.8613 308.0469,875.0956 Q307.7813,875.33 307.1719,875.33 L302.0313,875.33 Q301.4219,875.33 301.1563,875.0956 Q300.8906,874.8613 300.8906,874.4706 Q300.8906,874.0956 301.1563,873.8613 Q301.4219,873.6269 302.0313,873.6269 L303.75,873.6269 L303.75,866.9706 L302.0313,866.9706 Q301.4219,866.9706 301.1563,866.7363 Q300.8906,866.5019 300.8906,866.1113 Q300.8906,865.7363 301.1563,865.5019 Q301.4219,865.2675 302.0313,865.2675 L307.1719,865.2675 Q307.7813,865.2675 308.0469,865.5019 Q308.3125,865.7363 308.3125,866.1113 Q308.3125,866.5019 308.0469,866.7363 Q307.7813,866.9706 307.1719,866.9706 L305.4531,866.9706 Z " fill="#000000"/><text fill="#000000" font-family="sans-serif" font-size="14" font-style="italic" lengthAdjust="spacing" textLength="50.5928" x="318.5" y="876.1269">IBinding</text><line style="stroke:#181818;stroke-width:0.5;" x1="290.5" x2="371.0928" y1="886.33" y2="886.33"/><line style="stroke:#181818;stroke-width:0.5;" x1="290.5" x2="371.0928" y1="894.33" y2="894.33"/></g><!--class modelBinding--><g id="elem_modelBinding"><rect codeLine="8" fill="#F1F1F1" height="48" id="modelBinding" rx="2.5" ry="2.5" style="stroke:#181818;stroke-width:0.5;" width="116.834" x="1156.5" y="962.33"/><ellipse cx="1171.5" cy="978.33" fill="#ADD1B2" rx="11" ry="11" style="stroke:#181818;stroke-width:1.0;"/><path d="M1174.2656,974.205 Q1174.4219,973.9863 1174.6094,973.8769 Q1174.7969,973.7675 1175.0156,973.7675 Q1175.3906,973.7675 1175.625,974.0331 Q1175.8594,974.2831 1175.8594,974.8925 L1175.8594,976.3456 Q1175.8594,976.955 1175.625,977.2206 Q1175.3906,977.4863 1175.0156,977.4863 Q1174.6719,977.4863 1174.4688,977.2831 Q1174.2656,977.0956 1174.1563,976.58 Q1174.1094,976.2206 1173.9219,976.0331 Q1173.5938,975.6581 1172.9844,975.4394 Q1172.375,975.2206 1171.75,975.2206 Q1170.9844,975.2206 1170.3438,975.5488 Q1169.7188,975.8769 1169.2188,976.6269 Q1168.7344,977.3769 1168.7344,978.4081 L1168.7344,979.5019 Q1168.7344,980.7363 1169.625,981.5644 Q1170.5156,982.3769 1172.1094,982.3769 Q1173.0469,982.3769 1173.7031,982.1269 Q1174.0938,981.9706 1174.5156,981.5331 Q1174.7813,981.2675 1174.9219,981.1894 Q1175.0781,981.1113 1175.2813,981.1113 Q1175.6094,981.1113 1175.8594,981.3769 Q1176.125,981.6269 1176.125,981.9706 Q1176.125,982.3144 1175.7813,982.7206 Q1175.2813,983.2988 1174.4844,983.6269 Q1173.4063,984.08 1172.1094,984.08 Q1170.5938,984.08 1169.3906,983.455 Q1168.4063,982.955 1167.7188,981.8925 Q1167.0313,980.8144 1167.0313,979.5331 L1167.0313,978.3769 Q1167.0313,977.0488 1167.6406,975.9081 Q1168.2656,974.7519 1169.3594,974.1425 Q1170.4531,973.5175 1171.6875,973.5175 Q1172.4219,973.5175 1173.0625,973.6894 Q1173.7188,973.8456 1174.2656,974.205 Z " fill="#000000"/><text fill="#000000" font-family="sans-serif" font-size="14" lengthAdjust="spacing" textLength="84.834" x="1185.5" y="984.1269">ModelBinding</text><line style="stroke:#181818;stroke-width:0.5;" x1="1157.5" x2="1272.334" y1="994.33" y2="994.33"/><line style="stroke:#181818;stroke-width:0.5;" x1="1157.5" x2="1272.334" y1="1002.33" y2="1002.33"/></g><!--class moduleBinding--><g id="elem_moduleBinding"><rect codeLine="9" fill="#F1F1F1" height="48" id="moduleBinding" rx="2.5" ry="2.5" style="stroke:#181818;stroke-width:0.5;" width="124.6201" x="753.5" y="962.33"/><ellipse cx="768.5" cy="978.33" fill="#ADD1B2" rx="11" ry="11" style="stroke:#181818;stroke-width:1.0;"/><path d="M771.2656,974.205 Q771.4219,973.9863 771.6094,973.8769 Q771.7969,973.7675 772.0156,973.7675 Q772.3906,973.7675 772.625,974.0331 Q772.8594,974.2831 772.8594,974.8925 L772.8594,976.3456 Q772.8594,976.955 772.625,977.2206 Q772.3906,977.4863 772.0156,977.4863 Q771.6719,977.4863 771.4688,977.2831 Q771.2656,977.0956 771.1563,976.58 Q771.1094,976.2206 770.9219,976.0331 Q770.5938,975.6581 769.9844,975.4394 Q769.375,975.2206 768.75,975.2206 Q767.9844,975.2206 767.3438,975.5488 Q766.7188,975.8769 766.2188,976.6269 Q765.7344,977.3769 765.7344,978.4081 L765.7344,979.5019 Q765.7344,980.7363 766.625,981.5644 Q767.5156,982.3769 769.1094,982.3769 Q770.0469,982.3769 770.7031,982.1269 Q771.0938,981.9706 771.5156,981.5331 Q771.7813,981.2675 771.9219,981.1894 Q772.0781,981.1113 772.2813,981.1113 Q772.6094,981.1113 772.8594,981.3769 Q773.125,981.6269 773.125,981.9706 Q773.125,982.3144 772.7813,982.7206 Q772.2813,983.2988 771.4844,983.6269 Q770.4063,984.08 769.1094,984.08 Q767.5938,984.08 766.3906,983.455 Q765.4063,982.955 764.7188,981.8925 Q764.0313,980.8144 764.0313,979.5331 L764.0313,978.3769 Q764.0313,977.0488 764.6406,975.9081 Q765.2656,974.7519 766.3594,974.1425 Q767.4531,973.5175 768.6875,973.5175 Q769.4219,973.5175 770.0625,973.6894 Q770.7188,973.8456 771.2656,974.205 Z " fill="#000000"/><text fill="#000000" font-family="sans-serif" font-size="14" lengthAdjust="spacing" textLength="92.6201" x="782.5" y="984.1269">ModuleBinding</text><line style="stroke:#181818;stroke-width:0.5;" x1="754.5" x2="877.1201" y1="994.33" y2="994.33"/><line style="stroke:#181818;stroke-width:0.5;" x1="754.5" x2="877.1201" y1="1002.33" y2="1002.33"/></g><!--class injectableService--><g id="elem_injectableService"><rect codeLine="11" fill="#F1F1F1" height="48" id="injectableService" rx="2.5" ry="2.5" style="stroke:#181818;stroke-width:0.5;" width="138.6133" x="1940.5" y="412.83"/><ellipse cx="1955.5" cy="428.83" fill="#B4A7E5" rx="11" ry="11" style="stroke:#181818;stroke-width:1.0;"/><path d="M1956.4531,425.4706 L1956.4531,432.1269 L1958.1719,432.1269 Q1958.7813,432.1269 1959.0469,432.3613 Q1959.3125,432.5956 1959.3125,432.9863 Q1959.3125,433.3613 1959.0469,433.5956 Q1958.7813,433.83 1958.1719,433.83 L1953.0313,433.83 Q1952.4219,433.83 1952.1563,433.5956 Q1951.8906,433.3613 1951.8906,432.9706 Q1951.8906,432.5956 1952.1563,432.3613 Q1952.4219,432.1269 1953.0313,432.1269 L1954.75,432.1269 L1954.75,425.4706 L1953.0313,425.4706 Q1952.4219,425.4706 1952.1563,425.2363 Q1951.8906,425.0019 1951.8906,424.6113 Q1951.8906,424.2363 1952.1563,424.0019 Q1952.4219,423.7675 1953.0313,423.7675 L1958.1719,423.7675 Q1958.7813,423.7675 1959.0469,424.0019 Q1959.3125,424.2363 1959.3125,424.6113 Q1959.3125,425.0019 1959.0469,425.2363 Q1958.7813,425.4706 1958.1719,425.4706 L1956.4531,425.4706 Z " fill="#000000"/><text fill="#000000" font-family="sans-serif" font-size="14" font-style="italic" lengthAdjust="spacing" textLength="106.6133" x="1969.5" y="434.6269">InjectableService</text><line style="stroke:#181818;stroke-width:0.5;" x1="1941.5" x2="2078.1133" y1="444.83" y2="444.83"/><line style="stroke:#181818;stroke-width:0.5;" x1="1941.5" x2="2078.1133" y1="452.83" y2="452.83"/></g><!--class serviceLocator--><g id="elem_serviceLocator"><rect codeLine="12" fill="#F1F1F1" height="48" id="serviceLocator" rx="2.5" ry="2.5" style="stroke:#181818;stroke-width:0.5;" width="125.3789" x="1633.5" y="295.33"/><ellipse cx="1648.5" cy="311.33" fill="#ADD1B2" rx="11" ry="11" style="stroke:#181818;stroke-width:1.0;"/><path d="M1651.2656,307.205 Q1651.4219,306.9863 1651.6094,306.8769 Q1651.7969,306.7675 1652.0156,306.7675 Q1652.3906,306.7675 1652.625,307.0331 Q1652.8594,307.2831 1652.8594,307.8925 L1652.8594,309.3456 Q1652.8594,309.955 1652.625,310.2206 Q1652.3906,310.4863 1652.0156,310.4863 Q1651.6719,310.4863 1651.4688,310.2831 Q1651.2656,310.0956 1651.1563,309.58 Q1651.1094,309.2206 1650.9219,309.0331 Q1650.5938,308.6581 1649.9844,308.4394 Q1649.375,308.2206 1648.75,308.2206 Q1647.9844,308.2206 1647.3438,308.5488 Q1646.7188,308.8769 1646.2188,309.6269 Q1645.7344,310.3769 1645.7344,311.4081 L1645.7344,312.5019 Q1645.7344,313.7363 1646.625,314.5644 Q1647.5156,315.3769 1649.1094,315.3769 Q1650.0469,315.3769 1650.7031,315.1269 Q1651.0938,314.9706 1651.5156,314.5331 Q1651.7813,314.2675 1651.9219,314.1894 Q1652.0781,314.1113 1652.2813,314.1113 Q1652.6094,314.1113 1652.8594,314.3769 Q1653.125,314.6269 1653.125,314.9706 Q1653.125,315.3144 1652.7813,315.7206 Q1652.2813,316.2988 1651.4844,316.6269 Q1650.4063,317.08 1649.1094,317.08 Q1647.5938,317.08 1646.3906,316.455 Q1645.4063,315.955 1644.7188,314.8925 Q1644.0313,313.8144 1644.0313,312.5331 L1644.0313,311.3769 Q1644.0313,310.0488 1644.6406,308.9081 Q1645.2656,307.7519 1646.3594,307.1425 Q1647.4531,306.5175 1648.6875,306.5175 Q1649.4219,306.5175 1650.0625,306.6894 Q1650.7188,306.8456 1651.2656,307.205 Z " fill="#000000"/><text fill="#000000" font-family="sans-serif" font-size="14" lengthAdjust="spacing" textLength="93.3789" x="1662.5" y="317.1269">ServiceLocator</text><line style="stroke:#181818;stroke-width:0.5;" x1="1634.5" x2="1757.8789" y1="327.33" y2="327.33"/><line style="stroke:#181818;stroke-width:0.5;" x1="1634.5" x2="1757.8789" y1="335.33" y2="335.33"/></g><!--class bindingsRegistry--><g id="elem_bindingsRegistry"><rect codeLine="13" fill="#F1F1F1" height="48" id="bindingsRegistry" rx="2.5" ry="2.5" style="stroke:#181818;stroke-width:0.5;" width="137.0479" x="1146.5" y="854.33"/><ellipse cx="1161.5" cy="870.33" fill="#ADD1B2" rx="11" ry="11" style="stroke:#181818;stroke-width:1.0;"/><path d="M1164.2656,866.205 Q1164.4219,865.9863 1164.6094,865.8769 Q1164.7969,865.7675 1165.0156,865.7675 Q1165.3906,865.7675 1165.625,866.0331 Q1165.8594,866.2831 1165.8594,866.8925 L1165.8594,868.3456 Q1165.8594,868.955 1165.625,869.2206 Q1165.3906,869.4863 1165.0156,869.4863 Q1164.6719,869.4863 1164.4688,869.2831 Q1164.2656,869.0956 1164.1563,868.58 Q1164.1094,868.2206 1163.9219,868.0331 Q1163.5938,867.6581 1162.9844,867.4394 Q1162.375,867.2206 1161.75,867.2206 Q1160.9844,867.2206 1160.3438,867.5488 Q1159.7188,867.8769 1159.2188,868.6269 Q1158.7344,869.3769 1158.7344,870.4081 L1158.7344,871.5019 Q1158.7344,872.7363 1159.625,873.5644 Q1160.5156,874.3769 1162.1094,874.3769 Q1163.0469,874.3769 1163.7031,874.1269 Q1164.0938,873.9706 1164.5156,873.5331 Q1164.7813,873.2675 1164.9219,873.1894 Q1165.0781,873.1113 1165.2813,873.1113 Q1165.6094,873.1113 1165.8594,873.3769 Q1166.125,873.6269 1166.125,873.9706 Q1166.125,874.3144 1165.7813,874.7206 Q1165.2813,875.2988 1164.4844,875.6269 Q1163.4063,876.08 1162.1094,876.08 Q1160.5938,876.08 1159.3906,875.455 Q1158.4063,874.955 1157.7188,873.8925 Q1157.0313,872.8144 1157.0313,871.5331 L1157.0313,870.3769 Q1157.0313,869.0488 1157.6406,867.9081 Q1158.2656,866.7519 1159.3594,866.1425 Q1160.4531,865.5175 1161.6875,865.5175 Q1162.4219,865.5175 1163.0625,865.6894 Q1163.7188,865.8456 1164.2656,866.205 Z " fill="#000000"/><text fill="#000000" font-family="sans-serif" font-size="14" lengthAdjust="spacing" textLength="105.0479" x="1175.5" y="876.1269">BindingsRegistry</text><line style="stroke:#181818;stroke-width:0.5;" x1="1147.5" x2="1282.5479" y1="886.33" y2="886.33"/><line style="stroke:#181818;stroke-width:0.5;" x1="1147.5" x2="1282.5479" y1="894.33" y2="894.33"/></g><!--class branchRegistry--><g id="elem_branchRegistry"><rect codeLine="14" fill="#F1F1F1" height="48" id="branchRegistry" rx="2.5" ry="2.5" style="stroke:#181818;stroke-width:0.5;" width="127.7031" x="1402" y="638.33"/><ellipse cx="1417" cy="654.33" fill="#ADD1B2" rx="11" ry="11" style="stroke:#181818;stroke-width:1.0;"/><path d="M1419.7656,650.205 Q1419.9219,649.9863 1420.1094,649.8769 Q1420.2969,649.7675 1420.5156,649.7675 Q1420.8906,649.7675 1421.125,650.0331 Q1421.3594,650.2831 1421.3594,650.8925 L1421.3594,652.3456 Q1421.3594,652.955 1421.125,653.2206 Q1420.8906,653.4863 1420.5156,653.4863 Q1420.1719,653.4863 1419.9688,653.2831 Q1419.7656,653.0956 1419.6563,652.58 Q1419.6094,652.2206 1419.4219,652.0331 Q1419.0938,651.6581 1418.4844,651.4394 Q1417.875,651.2206 1417.25,651.2206 Q1416.4844,651.2206 1415.8438,651.5488 Q1415.2188,651.8769 1414.7188,652.6269 Q1414.2344,653.3769 1414.2344,654.4081 L1414.2344,655.5019 Q1414.2344,656.7363 1415.125,657.5644 Q1416.0156,658.3769 1417.6094,658.3769 Q1418.5469,658.3769 1419.2031,658.1269 Q1419.5938,657.9706 1420.0156,657.5331 Q1420.2813,657.2675 1420.4219,657.1894 Q1420.5781,657.1113 1420.7813,657.1113 Q1421.1094,657.1113 1421.3594,657.3769 Q1421.625,657.6269 1421.625,657.9706 Q1421.625,658.3144 1421.2813,658.7206 Q1420.7813,659.2988 1419.9844,659.6269 Q1418.9063,660.08 1417.6094,660.08 Q1416.0938,660.08 1414.8906,659.455 Q1413.9063,658.955 1413.2188,657.8925 Q1412.5313,656.8144 1412.5313,655.5331 L1412.5313,654.3769 Q1412.5313,653.0488 1413.1406,651.9081 Q1413.7656,650.7519 1414.8594,650.1425 Q1415.9531,649.5175 1417.1875,649.5175 Q1417.9219,649.5175 1418.5625,649.6894 Q1419.2188,649.8456 1419.7656,650.205 Z " fill="#000000"/><text fill="#000000" font-family="sans-serif" font-size="14" lengthAdjust="spacing" textLength="95.7031" x="1431" y="660.1269">BranchRegistry</text><line style="stroke:#181818;stroke-width:0.5;" x1="1403" x2="1528.7031" y1="670.33" y2="670.33"/><line style="stroke:#181818;stroke-width:0.5;" x1="1403" x2="1528.7031" y1="678.33" y2="678.33"/></g><!--class syncQueue--><g id="elem_syncQueue"><rect codeLine="15" fill="#F1F1F1" height="48" id="syncQueue" rx="2.5" ry="2.5" style="stroke:#181818;stroke-width:0.5;" width="105.1582" x="1692.5" y="530.33"/><ellipse cx="1707.5" cy="546.33" fill="#ADD1B2" rx="11" ry="11" style="stroke:#181818;stroke-width:1.0;"/><path d="M1710.2656,542.205 Q1710.4219,541.9863 1710.6094,541.8769 Q1710.7969,541.7675 1711.0156,541.7675 Q1711.3906,541.7675 1711.625,542.0331 Q1711.8594,542.2831 1711.8594,542.8925 L1711.8594,544.3456 Q1711.8594,544.955 1711.625,545.2206 Q1711.3906,545.4863 1711.0156,545.4863 Q1710.6719,545.4863 1710.4688,545.2831 Q1710.2656,545.0956 1710.1563,544.58 Q1710.1094,544.2206 1709.9219,544.0331 Q1709.5938,543.6581 1708.9844,543.4394 Q1708.375,543.2206 1707.75,543.2206 Q1706.9844,543.2206 1706.3438,543.5488 Q1705.7188,543.8769 1705.2188,544.6269 Q1704.7344,545.3769 1704.7344,546.4081 L1704.7344,547.5019 Q1704.7344,548.7363 1705.625,549.5644 Q1706.5156,550.3769 1708.1094,550.3769 Q1709.0469,550.3769 1709.7031,550.1269 Q1710.0938,549.9706 1710.5156,549.5331 Q1710.7813,549.2675 1710.9219,549.1894 Q1711.0781,549.1113 1711.2813,549.1113 Q1711.6094,549.1113 1711.8594,549.3769 Q1712.125,549.6269 1712.125,549.9706 Q1712.125,550.3144 1711.7813,550.7206 Q1711.2813,551.2988 1710.4844,551.6269 Q1709.4063,552.08 1708.1094,552.08 Q1706.5938,552.08 1705.3906,551.455 Q1704.4063,550.955 1703.7188,549.8925 Q1703.0313,548.8144 1703.0313,547.5331 L1703.0313,546.3769 Q1703.0313,545.0488 1703.6406,543.9081 Q1704.2656,542.7519 1705.3594,542.1425 Q1706.4531,541.5175 1707.6875,541.5175 Q1708.4219,541.5175 1709.0625,541.6894 Q1709.7188,541.8456 1710.2656,542.205 Z " fill="#000000"/><text fill="#000000" font-family="sans-serif" font-size="14" lengthAdjust="spacing" textLength="73.1582" x="1721.5" y="552.1269">SyncQueue</text><line style="stroke:#181818;stroke-width:0.5;" x1="1693.5" x2="1796.6582" y1="562.33" y2="562.33"/><line style="stroke:#181818;stroke-width:0.5;" x1="1693.5" x2="1796.6582" y1="570.33" y2="570.33"/></g><!--class futuresWaitQueue--><g id="elem_futuresWaitQueue"><rect codeLine="16" fill="#F1F1F1" height="48" id="futuresWaitQueue" rx="2.5" ry="2.5" style="stroke:#181818;stroke-width:0.5;" width="149.4961" x="2129.5" y="638.33"/><ellipse cx="2144.5" cy="654.33" fill="#ADD1B2" rx="11" ry="11" style="stroke:#181818;stroke-width:1.0;"/><path d="M2147.2656,650.205 Q2147.4219,649.9863 2147.6094,649.8769 Q2147.7969,649.7675 2148.0156,649.7675 Q2148.3906,649.7675 2148.625,650.0331 Q2148.8594,650.2831 2148.8594,650.8925 L2148.8594,652.3456 Q2148.8594,652.955 2148.625,653.2206 Q2148.3906,653.4863 2148.0156,653.4863 Q2147.6719,653.4863 2147.4688,653.2831 Q2147.2656,653.0956 2147.1563,652.58 Q2147.1094,652.2206 2146.9219,652.0331 Q2146.5938,651.6581 2145.9844,651.4394 Q2145.375,651.2206 2144.75,651.2206 Q2143.9844,651.2206 2143.3438,651.5488 Q2142.7188,651.8769 2142.2188,652.6269 Q2141.7344,653.3769 2141.7344,654.4081 L2141.7344,655.5019 Q2141.7344,656.7363 2142.625,657.5644 Q2143.5156,658.3769 2145.1094,658.3769 Q2146.0469,658.3769 2146.7031,658.1269 Q2147.0938,657.9706 2147.5156,657.5331 Q2147.7813,657.2675 2147.9219,657.1894 Q2148.0781,657.1113 2148.2813,657.1113 Q2148.6094,657.1113 2148.8594,657.3769 Q2149.125,657.6269 2149.125,657.9706 Q2149.125,658.3144 2148.7813,658.7206 Q2148.2813,659.2988 2147.4844,659.6269 Q2146.4063,660.08 2145.1094,660.08 Q2143.5938,660.08 2142.3906,659.455 Q2141.4063,658.955 2140.7188,657.8925 Q2140.0313,656.8144 2140.0313,655.5331 L2140.0313,654.3769 Q2140.0313,653.0488 2140.6406,651.9081 Q2141.2656,650.7519 2142.3594,650.1425 Q2143.4531,649.5175 2144.6875,649.5175 Q2145.4219,649.5175 2146.0625,649.6894 Q2146.7188,649.8456 2147.2656,650.205 Z " fill="#000000"/><text fill="#000000" font-family="sans-serif" font-size="14" lengthAdjust="spacing" textLength="117.4961" x="2158.5" y="660.1269">FuturesWaitQueue</text><line style="stroke:#181818;stroke-width:0.5;" x1="2130.5" x2="2277.9961" y1="670.33" y2="670.33"/><line style="stroke:#181818;stroke-width:0.5;" x1="2130.5" x2="2277.9961" y1="678.33" y2="678.33"/></g><!--class nodeMap--><g id="elem_nodeMap"><rect codeLine="17" fill="#F1F1F1" height="48" id="nodeMap" rx="2.5" ry="2.5" style="stroke:#181818;stroke-width:0.5;" width="150.2617" x="2335" y="530.33"/><ellipse cx="2350" cy="546.33" fill="#ADD1B2" rx="11" ry="11" style="stroke:#181818;stroke-width:1.0;"/><path d="M2352.7656,542.205 Q2352.9219,541.9863 2353.1094,541.8769 Q2353.2969,541.7675 2353.5156,541.7675 Q2353.8906,541.7675 2354.125,542.0331 Q2354.3594,542.2831 2354.3594,542.8925 L2354.3594,544.3456 Q2354.3594,544.955 2354.125,545.2206 Q2353.8906,545.4863 2353.5156,545.4863 Q2353.1719,545.4863 2352.9688,545.2831 Q2352.7656,545.0956 2352.6563,544.58 Q2352.6094,544.2206 2352.4219,544.0331 Q2352.0938,543.6581 2351.4844,543.4394 Q2350.875,543.2206 2350.25,543.2206 Q2349.4844,543.2206 2348.8438,543.5488 Q2348.2188,543.8769 2347.7188,544.6269 Q2347.2344,545.3769 2347.2344,546.4081 L2347.2344,547.5019 Q2347.2344,548.7363 2348.125,549.5644 Q2349.0156,550.3769 2350.6094,550.3769 Q2351.5469,550.3769 2352.2031,550.1269 Q2352.5938,549.9706 2353.0156,549.5331 Q2353.2813,549.2675 2353.4219,549.1894 Q2353.5781,549.1113 2353.7813,549.1113 Q2354.1094,549.1113 2354.3594,549.3769 Q2354.625,549.6269 2354.625,549.9706 Q2354.625,550.3144 2354.2813,550.7206 Q2353.7813,551.2988 2352.9844,551.6269 Q2351.9063,552.08 2350.6094,552.08 Q2349.0938,552.08 2347.8906,551.455 Q2346.9063,550.955 2346.2188,549.8925 Q2345.5313,548.8144 2345.5313,547.5331 L2345.5313,546.3769 Q2345.5313,545.0488 2346.1406,543.9081 Q2346.7656,542.7519 2347.8594,542.1425 Q2348.9531,541.5175 2350.1875,541.5175 Q2350.9219,541.5175 2351.5625,541.6894 Q2352.2188,541.8456 2352.7656,542.205 Z " fill="#000000"/><text fill="#000000" font-family="sans-serif" font-size="14" lengthAdjust="spacing" textLength="118.2617" x="2364" y="552.1269">MpsToModelixMap</text><line style="stroke:#181818;stroke-width:0.5;" x1="2336" x2="2484.2617" y1="562.33" y2="562.33"/><line style="stroke:#181818;stroke-width:0.5;" x1="2336" x2="2484.2617" y1="570.33" y2="570.33"/></g><!--class modelixBranchListener--><g id="elem_modelixBranchListener"><rect codeLine="19" fill="#F1F1F1" height="48" id="modelixBranchListener" rx="2.5" ry="2.5" style="stroke:#181818;stroke-width:0.5;" width="174.4063" x="1268" y="746.33"/><ellipse cx="1283" cy="762.33" fill="#ADD1B2" rx="11" ry="11" style="stroke:#181818;stroke-width:1.0;"/><path d="M1285.7656,758.205 Q1285.9219,757.9863 1286.1094,757.8769 Q1286.2969,757.7675 1286.5156,757.7675 Q1286.8906,757.7675 1287.125,758.0331 Q1287.3594,758.2831 1287.3594,758.8925 L1287.3594,760.3456 Q1287.3594,760.955 1287.125,761.2206 Q1286.8906,761.4863 1286.5156,761.4863 Q1286.1719,761.4863 1285.9688,761.2831 Q1285.7656,761.0956 1285.6563,760.58 Q1285.6094,760.2206 1285.4219,760.0331 Q1285.0938,759.6581 1284.4844,759.4394 Q1283.875,759.2206 1283.25,759.2206 Q1282.4844,759.2206 1281.8438,759.5488 Q1281.2188,759.8769 1280.7188,760.6269 Q1280.2344,761.3769 1280.2344,762.4081 L1280.2344,763.5019 Q1280.2344,764.7363 1281.125,765.5644 Q1282.0156,766.3769 1283.6094,766.3769 Q1284.5469,766.3769 1285.2031,766.1269 Q1285.5938,765.9706 1286.0156,765.5331 Q1286.2813,765.2675 1286.4219,765.1894 Q1286.5781,765.1113 1286.7813,765.1113 Q1287.1094,765.1113 1287.3594,765.3769 Q1287.625,765.6269 1287.625,765.9706 Q1287.625,766.3144 1287.2813,766.7206 Q1286.7813,767.2988 1285.9844,767.6269 Q1284.9063,768.08 1283.6094,768.08 Q1282.0938,768.08 1280.8906,767.455 Q1279.9063,766.955 1279.2188,765.8925 Q1278.5313,764.8144 1278.5313,763.5331 L1278.5313,762.3769 Q1278.5313,761.0488 1279.1406,759.9081 Q1279.7656,758.7519 1280.8594,758.1425 Q1281.9531,757.5175 1283.1875,757.5175 Q1283.9219,757.5175 1284.5625,757.6894 Q1285.2188,757.8456 1285.7656,758.205 Z " fill="#000000"/><text fill="#000000" font-family="sans-serif" font-size="14" lengthAdjust="spacing" textLength="142.4063" x="1297" y="768.1269">ModelixBranchListener</text><line style="stroke:#181818;stroke-width:0.5;" x1="1269" x2="1441.4063" y1="778.33" y2="778.33"/><line style="stroke:#181818;stroke-width:0.5;" x1="1269" x2="1441.4063" y1="786.33" y2="786.33"/></g><!--class repositoryChangeListener--><g id="elem_repositoryChangeListener"><rect codeLine="20" fill="#F1F1F1" height="48" id="repositoryChangeListener" rx="2.5" ry="2.5" style="stroke:#181818;stroke-width:0.5;" width="197.7646" x="1477" y="746.33"/><ellipse cx="1492" cy="762.33" fill="#ADD1B2" rx="11" ry="11" style="stroke:#181818;stroke-width:1.0;"/><path d="M1494.7656,758.205 Q1494.9219,757.9863 1495.1094,757.8769 Q1495.2969,757.7675 1495.5156,757.7675 Q1495.8906,757.7675 1496.125,758.0331 Q1496.3594,758.2831 1496.3594,758.8925 L1496.3594,760.3456 Q1496.3594,760.955 1496.125,761.2206 Q1495.8906,761.4863 1495.5156,761.4863 Q1495.1719,761.4863 1494.9688,761.2831 Q1494.7656,761.0956 1494.6563,760.58 Q1494.6094,760.2206 1494.4219,760.0331 Q1494.0938,759.6581 1493.4844,759.4394 Q1492.875,759.2206 1492.25,759.2206 Q1491.4844,759.2206 1490.8438,759.5488 Q1490.2188,759.8769 1489.7188,760.6269 Q1489.2344,761.3769 1489.2344,762.4081 L1489.2344,763.5019 Q1489.2344,764.7363 1490.125,765.5644 Q1491.0156,766.3769 1492.6094,766.3769 Q1493.5469,766.3769 1494.2031,766.1269 Q1494.5938,765.9706 1495.0156,765.5331 Q1495.2813,765.2675 1495.4219,765.1894 Q1495.5781,765.1113 1495.7813,765.1113 Q1496.1094,765.1113 1496.3594,765.3769 Q1496.625,765.6269 1496.625,765.9706 Q1496.625,766.3144 1496.2813,766.7206 Q1495.7813,767.2988 1494.9844,767.6269 Q1493.9063,768.08 1492.6094,768.08 Q1491.0938,768.08 1489.8906,767.455 Q1488.9063,766.955 1488.2188,765.8925 Q1487.5313,764.8144 1487.5313,763.5331 L1487.5313,762.3769 Q1487.5313,761.0488 1488.1406,759.9081 Q1488.7656,758.7519 1489.8594,758.1425 Q1490.9531,757.5175 1492.1875,757.5175 Q1492.9219,757.5175 1493.5625,757.6894 Q1494.2188,757.8456 1494.7656,758.205 Z " fill="#000000"/><text fill="#000000" font-family="sans-serif" font-size="14" lengthAdjust="spacing" textLength="165.7646" x="1506" y="768.1269">RepositoryChangeListener</text><line style="stroke:#181818;stroke-width:0.5;" x1="1478" x2="1673.7646" y1="778.33" y2="778.33"/><line style="stroke:#181818;stroke-width:0.5;" x1="1478" x2="1673.7646" y1="786.33" y2="786.33"/></g><!--class iTreeToSTreeTransformer--><g id="elem_iTreeToSTreeTransformer"><rect codeLine="22" fill="#F1F1F1" height="48" id="iTreeToSTreeTransformer" rx="2.5" ry="2.5" style="stroke:#181818;stroke-width:0.5;" width="195.3721" x="1008.5" y="79.33"/><ellipse cx="1023.5" cy="95.33" fill="#ADD1B2" rx="11" ry="11" style="stroke:#181818;stroke-width:1.0;"/><path d="M1026.2656,91.205 Q1026.4219,90.9863 1026.6094,90.8769 Q1026.7969,90.7675 1027.0156,90.7675 Q1027.3906,90.7675 1027.625,91.0331 Q1027.8594,91.2831 1027.8594,91.8925 L1027.8594,93.3456 Q1027.8594,93.955 1027.625,94.2206 Q1027.3906,94.4863 1027.0156,94.4863 Q1026.6719,94.4863 1026.4688,94.2831 Q1026.2656,94.0956 1026.1563,93.58 Q1026.1094,93.2206 1025.9219,93.0331 Q1025.5938,92.6581 1024.9844,92.4394 Q1024.375,92.2206 1023.75,92.2206 Q1022.9844,92.2206 1022.3438,92.5488 Q1021.7188,92.8769 1021.2188,93.6269 Q1020.7344,94.3769 1020.7344,95.4081 L1020.7344,96.5019 Q1020.7344,97.7363 1021.625,98.5644 Q1022.5156,99.3769 1024.1094,99.3769 Q1025.0469,99.3769 1025.7031,99.1269 Q1026.0938,98.9706 1026.5156,98.5331 Q1026.7813,98.2675 1026.9219,98.1894 Q1027.0781,98.1113 1027.2813,98.1113 Q1027.6094,98.1113 1027.8594,98.3769 Q1028.125,98.6269 1028.125,98.9706 Q1028.125,99.3144 1027.7813,99.7206 Q1027.2813,100.2988 1026.4844,100.6269 Q1025.4063,101.08 1024.1094,101.08 Q1022.5938,101.08 1021.3906,100.455 Q1020.4063,99.955 1019.7188,98.8925 Q1019.0313,97.8144 1019.0313,96.5331 L1019.0313,95.3769 Q1019.0313,94.0488 1019.6406,92.9081 Q1020.2656,91.7519 1021.3594,91.1425 Q1022.4531,90.5175 1023.6875,90.5175 Q1024.4219,90.5175 1025.0625,90.6894 Q1025.7188,90.8456 1026.2656,91.205 Z " fill="#000000"/><text fill="#000000" font-family="sans-serif" font-size="14" lengthAdjust="spacing" textLength="163.3721" x="1037.5" y="101.1269">ITreeToSTreeTransformer</text><line style="stroke:#181818;stroke-width:0.5;" x1="1009.5" x2="1202.8721" y1="111.33" y2="111.33"/><line style="stroke:#181818;stroke-width:0.5;" x1="1009.5" x2="1202.8721" y1="119.33" y2="119.33"/></g><!--class moduleTransformer--><g id="elem_moduleTransformer"><rect codeLine="23" fill="#F1F1F1" height="48" id="moduleTransformer" rx="2.5" ry="2.5" style="stroke:#181818;stroke-width:0.5;" width="154.1514" x="1541" y="79.33"/><ellipse cx="1556" cy="95.33" fill="#ADD1B2" rx="11" ry="11" style="stroke:#181818;stroke-width:1.0;"/><path d="M1558.7656,91.205 Q1558.9219,90.9863 1559.1094,90.8769 Q1559.2969,90.7675 1559.5156,90.7675 Q1559.8906,90.7675 1560.125,91.0331 Q1560.3594,91.2831 1560.3594,91.8925 L1560.3594,93.3456 Q1560.3594,93.955 1560.125,94.2206 Q1559.8906,94.4863 1559.5156,94.4863 Q1559.1719,94.4863 1558.9688,94.2831 Q1558.7656,94.0956 1558.6563,93.58 Q1558.6094,93.2206 1558.4219,93.0331 Q1558.0938,92.6581 1557.4844,92.4394 Q1556.875,92.2206 1556.25,92.2206 Q1555.4844,92.2206 1554.8438,92.5488 Q1554.2188,92.8769 1553.7188,93.6269 Q1553.2344,94.3769 1553.2344,95.4081 L1553.2344,96.5019 Q1553.2344,97.7363 1554.125,98.5644 Q1555.0156,99.3769 1556.6094,99.3769 Q1557.5469,99.3769 1558.2031,99.1269 Q1558.5938,98.9706 1559.0156,98.5331 Q1559.2813,98.2675 1559.4219,98.1894 Q1559.5781,98.1113 1559.7813,98.1113 Q1560.1094,98.1113 1560.3594,98.3769 Q1560.625,98.6269 1560.625,98.9706 Q1560.625,99.3144 1560.2813,99.7206 Q1559.7813,100.2988 1558.9844,100.6269 Q1557.9063,101.08 1556.6094,101.08 Q1555.0938,101.08 1553.8906,100.455 Q1552.9063,99.955 1552.2188,98.8925 Q1551.5313,97.8144 1551.5313,96.5331 L1551.5313,95.3769 Q1551.5313,94.0488 1552.1406,92.9081 Q1552.7656,91.7519 1553.8594,91.1425 Q1554.9531,90.5175 1556.1875,90.5175 Q1556.9219,90.5175 1557.5625,90.6894 Q1558.2188,90.8456 1558.7656,91.205 Z " fill="#000000"/><text fill="#000000" font-family="sans-serif" font-size="14" lengthAdjust="spacing" textLength="122.1514" x="1570" y="101.1269">ModuleTransformer</text><line style="stroke:#181818;stroke-width:0.5;" x1="1542" x2="1694.1514" y1="111.33" y2="111.33"/><line style="stroke:#181818;stroke-width:0.5;" x1="1542" x2="1694.1514" y1="119.33" y2="119.33"/></g><!--class modelTransformer--><g id="elem_modelTransformer"><rect codeLine="24" fill="#F1F1F1" height="48" id="modelTransformer" rx="2.5" ry="2.5" style="stroke:#181818;stroke-width:0.5;" width="146.3652" x="2268" y="79.33"/><ellipse cx="2283" cy="95.33" fill="#ADD1B2" rx="11" ry="11" style="stroke:#181818;stroke-width:1.0;"/><path d="M2285.7656,91.205 Q2285.9219,90.9863 2286.1094,90.8769 Q2286.2969,90.7675 2286.5156,90.7675 Q2286.8906,90.7675 2287.125,91.0331 Q2287.3594,91.2831 2287.3594,91.8925 L2287.3594,93.3456 Q2287.3594,93.955 2287.125,94.2206 Q2286.8906,94.4863 2286.5156,94.4863 Q2286.1719,94.4863 2285.9688,94.2831 Q2285.7656,94.0956 2285.6563,93.58 Q2285.6094,93.2206 2285.4219,93.0331 Q2285.0938,92.6581 2284.4844,92.4394 Q2283.875,92.2206 2283.25,92.2206 Q2282.4844,92.2206 2281.8438,92.5488 Q2281.2188,92.8769 2280.7188,93.6269 Q2280.2344,94.3769 2280.2344,95.4081 L2280.2344,96.5019 Q2280.2344,97.7363 2281.125,98.5644 Q2282.0156,99.3769 2283.6094,99.3769 Q2284.5469,99.3769 2285.2031,99.1269 Q2285.5938,98.9706 2286.0156,98.5331 Q2286.2813,98.2675 2286.4219,98.1894 Q2286.5781,98.1113 2286.7813,98.1113 Q2287.1094,98.1113 2287.3594,98.3769 Q2287.625,98.6269 2287.625,98.9706 Q2287.625,99.3144 2287.2813,99.7206 Q2286.7813,100.2988 2285.9844,100.6269 Q2284.9063,101.08 2283.6094,101.08 Q2282.0938,101.08 2280.8906,100.455 Q2279.9063,99.955 2279.2188,98.8925 Q2278.5313,97.8144 2278.5313,96.5331 L2278.5313,95.3769 Q2278.5313,94.0488 2279.1406,92.9081 Q2279.7656,91.7519 2280.8594,91.1425 Q2281.9531,90.5175 2283.1875,90.5175 Q2283.9219,90.5175 2284.5625,90.6894 Q2285.2188,90.8456 2285.7656,91.205 Z " fill="#000000"/><text fill="#000000" font-family="sans-serif" font-size="14" lengthAdjust="spacing" textLength="114.3652" x="2297" y="101.1269">ModelTransformer</text><line style="stroke:#181818;stroke-width:0.5;" x1="2269" x2="2413.3652" y1="111.33" y2="111.33"/><line style="stroke:#181818;stroke-width:0.5;" x1="2269" x2="2413.3652" y1="119.33" y2="119.33"/></g><!--class nodeTransformer--><g id="elem_nodeTransformer"><rect codeLine="25" fill="#F1F1F1" height="48" id="nodeTransformer" rx="2.5" ry="2.5" style="stroke:#181818;stroke-width:0.5;" width="141.7031" x="2449" y="79.33"/><ellipse cx="2464" cy="95.33" fill="#ADD1B2" rx="11" ry="11" style="stroke:#181818;stroke-width:1.0;"/><path d="M2466.7656,91.205 Q2466.9219,90.9863 2467.1094,90.8769 Q2467.2969,90.7675 2467.5156,90.7675 Q2467.8906,90.7675 2468.125,91.0331 Q2468.3594,91.2831 2468.3594,91.8925 L2468.3594,93.3456 Q2468.3594,93.955 2468.125,94.2206 Q2467.8906,94.4863 2467.5156,94.4863 Q2467.1719,94.4863 2466.9688,94.2831 Q2466.7656,94.0956 2466.6563,93.58 Q2466.6094,93.2206 2466.4219,93.0331 Q2466.0938,92.6581 2465.4844,92.4394 Q2464.875,92.2206 2464.25,92.2206 Q2463.4844,92.2206 2462.8438,92.5488 Q2462.2188,92.8769 2461.7188,93.6269 Q2461.2344,94.3769 2461.2344,95.4081 L2461.2344,96.5019 Q2461.2344,97.7363 2462.125,98.5644 Q2463.0156,99.3769 2464.6094,99.3769 Q2465.5469,99.3769 2466.2031,99.1269 Q2466.5938,98.9706 2467.0156,98.5331 Q2467.2813,98.2675 2467.4219,98.1894 Q2467.5781,98.1113 2467.7813,98.1113 Q2468.1094,98.1113 2468.3594,98.3769 Q2468.625,98.6269 2468.625,98.9706 Q2468.625,99.3144 2468.2813,99.7206 Q2467.7813,100.2988 2466.9844,100.6269 Q2465.9063,101.08 2464.6094,101.08 Q2463.0938,101.08 2461.8906,100.455 Q2460.9063,99.955 2460.2188,98.8925 Q2459.5313,97.8144 2459.5313,96.5331 L2459.5313,95.3769 Q2459.5313,94.0488 2460.1406,92.9081 Q2460.7656,91.7519 2461.8594,91.1425 Q2462.9531,90.5175 2464.1875,90.5175 Q2464.9219,90.5175 2465.5625,90.6894 Q2466.2188,90.8456 2466.7656,91.205 Z " fill="#000000"/><text fill="#000000" font-family="sans-serif" font-size="14" lengthAdjust="spacing" textLength="109.7031" x="2478" y="101.1269">NodeTransformer</text><line style="stroke:#181818;stroke-width:0.5;" x1="2450" x2="2589.7031" y1="111.33" y2="111.33"/><line style="stroke:#181818;stroke-width:0.5;" x1="2450" x2="2589.7031" y1="119.33" y2="119.33"/></g><!--class solutionProducer--><g id="elem_solutionProducer"><rect codeLine="27" fill="#F1F1F1" height="48" id="solutionProducer" rx="2.5" ry="2.5" style="stroke:#181818;stroke-width:0.5;" width="139.3994" x="1730.5" y="79.33"/><ellipse cx="1745.5" cy="95.33" fill="#ADD1B2" rx="11" ry="11" style="stroke:#181818;stroke-width:1.0;"/><path d="M1748.2656,91.205 Q1748.4219,90.9863 1748.6094,90.8769 Q1748.7969,90.7675 1749.0156,90.7675 Q1749.3906,90.7675 1749.625,91.0331 Q1749.8594,91.2831 1749.8594,91.8925 L1749.8594,93.3456 Q1749.8594,93.955 1749.625,94.2206 Q1749.3906,94.4863 1749.0156,94.4863 Q1748.6719,94.4863 1748.4688,94.2831 Q1748.2656,94.0956 1748.1563,93.58 Q1748.1094,93.2206 1747.9219,93.0331 Q1747.5938,92.6581 1746.9844,92.4394 Q1746.375,92.2206 1745.75,92.2206 Q1744.9844,92.2206 1744.3438,92.5488 Q1743.7188,92.8769 1743.2188,93.6269 Q1742.7344,94.3769 1742.7344,95.4081 L1742.7344,96.5019 Q1742.7344,97.7363 1743.625,98.5644 Q1744.5156,99.3769 1746.1094,99.3769 Q1747.0469,99.3769 1747.7031,99.1269 Q1748.0938,98.9706 1748.5156,98.5331 Q1748.7813,98.2675 1748.9219,98.1894 Q1749.0781,98.1113 1749.2813,98.1113 Q1749.6094,98.1113 1749.8594,98.3769 Q1750.125,98.6269 1750.125,98.9706 Q1750.125,99.3144 1749.7813,99.7206 Q1749.2813,100.2988 1748.4844,100.6269 Q1747.4063,101.08 1746.1094,101.08 Q1744.5938,101.08 1743.3906,100.455 Q1742.4063,99.955 1741.7188,98.8925 Q1741.0313,97.8144 1741.0313,96.5331 L1741.0313,95.3769 Q1741.0313,94.0488 1741.6406,92.9081 Q1742.2656,91.7519 1743.3594,91.1425 Q1744.4531,90.5175 1745.6875,90.5175 Q1746.4219,90.5175 1747.0625,90.6894 Q1747.7188,90.8456 1748.2656,91.205 Z " fill="#000000"/><text fill="#000000" font-family="sans-serif" font-size="14" lengthAdjust="spacing" textLength="107.3994" x="1759.5" y="101.1269">SolutionProducer</text><line style="stroke:#181818;stroke-width:0.5;" x1="1731.5" x2="1868.8994" y1="111.33" y2="111.33"/><line style="stroke:#181818;stroke-width:0.5;" x1="1731.5" x2="1868.8994" y1="119.33" y2="119.33"/></g><!--class sNodeFactory--><g id="elem_sNodeFactory"><rect codeLine="28" fill="#F1F1F1" height="48" id="sNodeFactory" rx="2.5" ry="2.5" style="stroke:#181818;stroke-width:0.5;" width="121.4824" x="2555.5" y="187.33"/><ellipse cx="2570.5" cy="203.33" fill="#ADD1B2" rx="11" ry="11" style="stroke:#181818;stroke-width:1.0;"/><path d="M2573.2656,199.205 Q2573.4219,198.9863 2573.6094,198.8769 Q2573.7969,198.7675 2574.0156,198.7675 Q2574.3906,198.7675 2574.625,199.0331 Q2574.8594,199.2831 2574.8594,199.8925 L2574.8594,201.3456 Q2574.8594,201.955 2574.625,202.2206 Q2574.3906,202.4863 2574.0156,202.4863 Q2573.6719,202.4863 2573.4688,202.2831 Q2573.2656,202.0956 2573.1563,201.58 Q2573.1094,201.2206 2572.9219,201.0331 Q2572.5938,200.6581 2571.9844,200.4394 Q2571.375,200.2206 2570.75,200.2206 Q2569.9844,200.2206 2569.3438,200.5488 Q2568.7188,200.8769 2568.2188,201.6269 Q2567.7344,202.3769 2567.7344,203.4081 L2567.7344,204.5019 Q2567.7344,205.7363 2568.625,206.5644 Q2569.5156,207.3769 2571.1094,207.3769 Q2572.0469,207.3769 2572.7031,207.1269 Q2573.0938,206.9706 2573.5156,206.5331 Q2573.7813,206.2675 2573.9219,206.1894 Q2574.0781,206.1113 2574.2813,206.1113 Q2574.6094,206.1113 2574.8594,206.3769 Q2575.125,206.6269 2575.125,206.9706 Q2575.125,207.3144 2574.7813,207.7206 Q2574.2813,208.2988 2573.4844,208.6269 Q2572.4063,209.08 2571.1094,209.08 Q2569.5938,209.08 2568.3906,208.455 Q2567.4063,207.955 2566.7188,206.8925 Q2566.0313,205.8144 2566.0313,204.5331 L2566.0313,203.3769 Q2566.0313,202.0488 2566.6406,200.9081 Q2567.2656,199.7519 2568.3594,199.1425 Q2569.4531,198.5175 2570.6875,198.5175 Q2571.4219,198.5175 2572.0625,198.6894 Q2572.7188,198.8456 2573.2656,199.205 Z " fill="#000000"/><text fill="#000000" font-family="sans-serif" font-size="14" lengthAdjust="spacing" textLength="89.4824" x="2584.5" y="209.1269">SNodeFactory</text><line style="stroke:#181818;stroke-width:0.5;" x1="2556.5" x2="2675.9824" y1="219.33" y2="219.33"/><line style="stroke:#181818;stroke-width:0.5;" x1="2556.5" x2="2675.9824" y1="227.33" y2="227.33"/></g><!--class resolvableModelImport--><g id="elem_resolvableModelImport"><rect codeLine="30" fill="#F1F1F1" height="48" id="resolvableModelImport" rx="2.5" ry="2.5" style="stroke:#181818;stroke-width:0.5;" width="179.0684" x="2127.5" y="187.33"/><ellipse cx="2142.5" cy="203.33" fill="#ADD1B2" rx="11" ry="11" style="stroke:#181818;stroke-width:1.0;"/><path d="M2145.2656,199.205 Q2145.4219,198.9863 2145.6094,198.8769 Q2145.7969,198.7675 2146.0156,198.7675 Q2146.3906,198.7675 2146.625,199.0331 Q2146.8594,199.2831 2146.8594,199.8925 L2146.8594,201.3456 Q2146.8594,201.955 2146.625,202.2206 Q2146.3906,202.4863 2146.0156,202.4863 Q2145.6719,202.4863 2145.4688,202.2831 Q2145.2656,202.0956 2145.1563,201.58 Q2145.1094,201.2206 2144.9219,201.0331 Q2144.5938,200.6581 2143.9844,200.4394 Q2143.375,200.2206 2142.75,200.2206 Q2141.9844,200.2206 2141.3438,200.5488 Q2140.7188,200.8769 2140.2188,201.6269 Q2139.7344,202.3769 2139.7344,203.4081 L2139.7344,204.5019 Q2139.7344,205.7363 2140.625,206.5644 Q2141.5156,207.3769 2143.1094,207.3769 Q2144.0469,207.3769 2144.7031,207.1269 Q2145.0938,206.9706 2145.5156,206.5331 Q2145.7813,206.2675 2145.9219,206.1894 Q2146.0781,206.1113 2146.2813,206.1113 Q2146.6094,206.1113 2146.8594,206.3769 Q2147.125,206.6269 2147.125,206.9706 Q2147.125,207.3144 2146.7813,207.7206 Q2146.2813,208.2988 2145.4844,208.6269 Q2144.4063,209.08 2143.1094,209.08 Q2141.5938,209.08 2140.3906,208.455 Q2139.4063,207.955 2138.7188,206.8925 Q2138.0313,205.8144 2138.0313,204.5331 L2138.0313,203.3769 Q2138.0313,202.0488 2138.6406,200.9081 Q2139.2656,199.7519 2140.3594,199.1425 Q2141.4531,198.5175 2142.6875,198.5175 Q2143.4219,198.5175 2144.0625,198.6894 Q2144.7188,198.8456 2145.2656,199.205 Z " fill="#000000"/><text fill="#000000" font-family="sans-serif" font-size="14" lengthAdjust="spacing" textLength="147.0684" x="2156.5" y="209.1269">ResolvableModelImport</text><line style="stroke:#181818;stroke-width:0.5;" x1="2128.5" x2="2305.5684" y1="219.33" y2="219.33"/><line style="stroke:#181818;stroke-width:0.5;" x1="2128.5" x2="2305.5684" y1="227.33" y2="227.33"/></g><!--class resolvableReference--><g id="elem_resolvableReference"><rect codeLine="31" fill="#F1F1F1" height="48" id="resolvableReference" rx="2.5" ry="2.5" style="stroke:#181818;stroke-width:0.5;" width="165.8545" x="2612" y="295.33"/><ellipse cx="2627" cy="311.33" fill="#ADD1B2" rx="11" ry="11" style="stroke:#181818;stroke-width:1.0;"/><path d="M2629.7656,307.205 Q2629.9219,306.9863 2630.1094,306.8769 Q2630.2969,306.7675 2630.5156,306.7675 Q2630.8906,306.7675 2631.125,307.0331 Q2631.3594,307.2831 2631.3594,307.8925 L2631.3594,309.3456 Q2631.3594,309.955 2631.125,310.2206 Q2630.8906,310.4863 2630.5156,310.4863 Q2630.1719,310.4863 2629.9688,310.2831 Q2629.7656,310.0956 2629.6563,309.58 Q2629.6094,309.2206 2629.4219,309.0331 Q2629.0938,308.6581 2628.4844,308.4394 Q2627.875,308.2206 2627.25,308.2206 Q2626.4844,308.2206 2625.8438,308.5488 Q2625.2188,308.8769 2624.7188,309.6269 Q2624.2344,310.3769 2624.2344,311.4081 L2624.2344,312.5019 Q2624.2344,313.7363 2625.125,314.5644 Q2626.0156,315.3769 2627.6094,315.3769 Q2628.5469,315.3769 2629.2031,315.1269 Q2629.5938,314.9706 2630.0156,314.5331 Q2630.2813,314.2675 2630.4219,314.1894 Q2630.5781,314.1113 2630.7813,314.1113 Q2631.1094,314.1113 2631.3594,314.3769 Q2631.625,314.6269 2631.625,314.9706 Q2631.625,315.3144 2631.2813,315.7206 Q2630.7813,316.2988 2629.9844,316.6269 Q2628.9063,317.08 2627.6094,317.08 Q2626.0938,317.08 2624.8906,316.455 Q2623.9063,315.955 2623.2188,314.8925 Q2622.5313,313.8144 2622.5313,312.5331 L2622.5313,311.3769 Q2622.5313,310.0488 2623.1406,308.9081 Q2623.7656,307.7519 2624.8594,307.1425 Q2625.9531,306.5175 2627.1875,306.5175 Q2627.9219,306.5175 2628.5625,306.6894 Q2629.2188,306.8456 2629.7656,307.205 Z " fill="#000000"/><text fill="#000000" font-family="sans-serif" font-size="14" lengthAdjust="spacing" textLength="133.8545" x="2641" y="317.1269">ResolvableReference</text><line style="stroke:#181818;stroke-width:0.5;" x1="2613" x2="2776.8545" y1="327.33" y2="327.33"/><line style="stroke:#181818;stroke-width:0.5;" x1="2613" x2="2776.8545" y1="335.33" y2="335.33"/></g><g id="elem_GMN81"><path d="M537,540.83 L537,568.121 A0,0 0 0 0 537,568.121 L858.5806,568.121 A0,0 0 0 0 858.5806,568.121 L858.5806,550.83 L848.5806,540.83 L702,540.83 L698,470.62 L694,540.83 L537,540.83 A0,0 0 0 0 537,540.83 " fill="#FEFFDD" style="stroke:#181818;stroke-width:0.5;"/><path d="M848.5806,540.83 L848.5806,550.83 L858.5806,550.83 L848.5806,540.83 " fill="#FEFFDD" style="stroke:#181818;stroke-width:0.5;"/><text fill="#000000" font-family="sans-serif" font-size="13" lengthAdjust="spacing" textLength="300.5806" x="543" y="559.8583">start: bindModuleFromServer(...): Iterable&lt;IBinding&gt;</text></g><!--reverse link ISyncService to syncServiceImpl--><g id="link_ISyncService_syncServiceImpl"><path codeLine="34" d="M862.9967,474.2708 C963.9067,496.5508 1075.41,521.18 1152.97,538.31 " fill="none" id="ISyncService-backto-syncServiceImpl" style="stroke:#181818;stroke-width:1.0;stroke-dasharray:7.0,7.0;"/><polygon fill="none" points="845.42,470.39,861.7031,480.1297,864.2903,468.4119,845.42,470.39" style="stroke:#181818;stroke-width:1.0;"/></g><!--reverse link injectableService to syncServiceImpl--><g id="link_injectableService_syncServiceImpl"><path codeLine="35" d="M1922.5198,450.6374 C1772.4498,472.6074 1438.04,521.56 1289.25,543.34 " fill="none" id="injectableService-backto-syncServiceImpl" style="stroke:#181818;stroke-width:1.0;stroke-dasharray:7.0,7.0;"/><polygon fill="none" points="1940.33,448.03,1921.6507,444.7007,1923.389,456.5741,1940.33,448.03" style="stroke:#181818;stroke-width:1.0;"/></g><!--reverse link injectableService to bindingsRegistry--><g id="link_injectableService_bindingsRegistry"><path codeLine="36" d="M1988.1783,476.549 C1950.8383,541.399 1844.24,710.14 1693,794.33 C1623.82,832.84 1398.46,859.55 1283.62,871.02 " fill="none" id="injectableService-backto-bindingsRegistry" style="stroke:#181818;stroke-width:1.0;stroke-dasharray:7.0,7.0;"/><polygon fill="none" points="1997.16,460.95,1982.9786,473.5551,1993.3779,479.5429,1997.16,460.95" style="stroke:#181818;stroke-width:1.0;"/></g><!--reverse link injectableService to branchRegistry--><g id="link_injectableService_branchRegistry"><path codeLine="37" d="M1971.4713,472.8812 C1936.2013,504.1512 1882.17,547.61 1815,578.33 C1720.98,621.33 1602.15,643.46 1530.21,653.71 " fill="none" id="injectableService-backto-branchRegistry" style="stroke:#181818;stroke-width:1.0;stroke-dasharray:7.0,7.0;"/><polygon fill="none" points="1984.94,460.94,1967.4909,468.3917,1975.4517,477.3708,1984.94,460.94" style="stroke:#181818;stroke-width:1.0;"/></g><!--reverse link injectableService to syncQueue--><g id="link_injectableService_syncQueue"><path codeLine="38" d="M1940.5085,468.1204 C1894.2885,488.2604 1844.09,510.14 1797.9,530.27 " fill="none" id="injectableService-backto-syncQueue" style="stroke:#181818;stroke-width:1.0;stroke-dasharray:7.0,7.0;"/><polygon fill="none" points="1957.01,460.93,1938.1117,462.6199,1942.9053,473.6209,1957.01,460.93" style="stroke:#181818;stroke-width:1.0;"/></g><!--reverse link injectableService to futuresWaitQueue--><g id="link_injectableService_futuresWaitQueue"><path codeLine="39" d="M2032.6929,476.4957 C2050.0529,505.5057 2072.86,540.46 2107,578.33 C2127.03,600.55 2152.91,622.42 2172.9,638.13 " fill="none" id="injectableService-backto-futuresWaitQueue" style="stroke:#181818;stroke-width:1.0;stroke-dasharray:7.0,7.0;"/><polygon fill="none" points="2023.45,461.05,2027.5444,479.5766,2037.8415,473.4147,2023.45,461.05" style="stroke:#181818;stroke-width:1.0;"/></g><!--reverse link injectableService to nodeMap--><g id="link_injectableService_nodeMap"><path codeLine="40" d="M2096.964,462.9417 C2168.264,483.5217 2261.39,510.42 2334.67,531.58 " fill="none" id="injectableService-backto-nodeMap" style="stroke:#181818;stroke-width:1.0;stroke-dasharray:7.0,7.0;"/><polygon fill="none" points="2079.67,457.95,2095.3001,468.7064,2098.6279,457.1771,2079.67,457.95" style="stroke:#181818;stroke-width:1.0;"/></g><!--reverse link iBinding to modelBinding--><g id="link_iBinding_modelBinding"><path codeLine="42" d="M390.622,886.4825 C534.102,903.6825 989.47,958.29 1156.22,978.28 " fill="none" id="iBinding-backto-modelBinding" style="stroke:#181818;stroke-width:1.0;stroke-dasharray:7.0,7.0;"/><polygon fill="none" points="372.75,884.34,389.9079,892.4398,391.3362,880.5251,372.75,884.34" style="stroke:#181818;stroke-width:1.0;"/></g><!--reverse link iBinding to moduleBinding--><g id="link_iBinding_moduleBinding"><path codeLine="43" d="M390.3547,892.3041 C475.7147,910.9641 652.97,949.7 753.47,971.66 " fill="none" id="iBinding-backto-moduleBinding" style="stroke:#181818;stroke-width:1.0;stroke-dasharray:7.0,7.0;"/><polygon fill="none" points="372.77,888.46,389.0734,898.1657,391.6361,886.4425,372.77,888.46" style="stroke:#181818;stroke-width:1.0;"/></g><!--link serviceLocator to syncServiceImpl--><g id="link_serviceLocator_syncServiceImpl"><path codeLine="45" d="M1621.439,326.8743 C1551.609,334.9243 1449.24,353.72 1364,403.33 C1308.03,435.91 1263.5334,491.9306 1239.9934,525.2306 " fill="none" id="serviceLocator-syncServiceImpl" style="stroke:#181818;stroke-width:1.0;"/><polygon fill="#181818" points="1633.36,325.5,1626.9414,322.2134,1621.439,326.8743,1627.8576,330.1608,1633.36,325.5" style="stroke:#181818;stroke-width:1.0;"/><polygon fill="#181818" points="1236.53,530.13,1244.9915,525.0898,1239.4162,526.0471,1238.4589,520.4719,1236.53,530.13" style="stroke:#181818;stroke-width:1.0;"/></g><!--link serviceLocator to bindingsRegistry--><g id="link_serviceLocator_bindingsRegistry"><path codeLine="46" d="M1621.3448,324.0367 C1345.9848,337.7467 268.43,392.1 255,403.33 C202.4,447.31 219,484.77 219,553.33 C219,553.33 219,553.33 219,663.33 C219,853.35 914.7003,875.0941 1140.1503,877.1941 " fill="none" id="serviceLocator-bindingsRegistry" style="stroke:#181818;stroke-width:1.0;"/><polygon fill="#181818" points="1633.33,323.44,1627.1385,319.7433,1621.3448,324.0367,1627.5363,327.7334,1633.33,323.44" style="stroke:#181818;stroke-width:1.0;"/><polygon fill="#181818" points="1146.15,877.25,1137.1876,873.1663,1141.1502,877.2034,1137.1131,881.166,1146.15,877.25" style="stroke:#181818;stroke-width:1.0;"/></g><!--link serviceLocator to branchRegistry--><g id="link_serviceLocator_branchRegistry"><path codeLine="47" d="M1621.6357,334.3991 C1579.0657,345.3091 1536.75,363.41 1506,403.33 C1451.37,474.25 1456.5455,583.338 1462.0755,632.218 " fill="none" id="serviceLocator-branchRegistry" style="stroke:#181818;stroke-width:1.0;"/><polygon fill="#181818" points="1633.26,331.42,1626.4548,329.0348,1621.6357,334.3991,1628.4409,336.7843,1633.26,331.42" style="stroke:#181818;stroke-width:1.0;"/><polygon fill="#181818" points="1462.75,638.18,1465.7129,628.7874,1462.1879,633.2117,1457.7636,629.6867,1462.75,638.18" style="stroke:#181818;stroke-width:1.0;"/></g><!--link serviceLocator to syncQueue--><g id="link_serviceLocator_syncQueue"><path codeLine="48" d="M1699.8001,355.3327 C1703.1801,384.9627 1708.7,425.93 1719,470.33 C1723.74,490.78 1729.0583,507.8129 1734.6983,524.3029 " fill="none" id="serviceLocator-syncQueue" style="stroke:#181818;stroke-width:1.0;"/><polygon fill="#181818" points="1698.44,343.41,1695.1458,349.8247,1699.8001,355.3327,1703.0943,348.918,1698.44,343.41" style="stroke:#181818;stroke-width:1.0;"/><polygon fill="#181818" points="1736.64,529.98,1737.5122,520.1698,1735.0219,525.2491,1729.9427,522.7588,1736.64,529.98" style="stroke:#181818;stroke-width:1.0;"/></g><!--link serviceLocator to futuresWaitQueue--><g id="link_serviceLocator_futuresWaitQueue"><path codeLine="49" d="M1770.455,327.397 C1869.895,337.787 2046.11,361.26 2097,403.33 C2171.56,464.97 2194.1113,581.2707 2200.7813,632.2307 " fill="none" id="serviceLocator-futuresWaitQueue" style="stroke:#181818;stroke-width:1.0;"/><polygon fill="#181818" points="1758.52,326.15,1764.0718,330.7519,1770.455,327.397,1764.9032,322.7952,1758.52,326.15" style="stroke:#181818;stroke-width:1.0;"/><polygon fill="#181818" points="2201.56,638.18,2204.3582,628.737,2200.9111,633.2223,2196.4258,629.7752,2201.56,638.18" style="stroke:#181818;stroke-width:1.0;"/></g><!--link serviceLocator to nodeMap--><g id="link_serviceLocator_nodeMap"><path codeLine="50" d="M1770.5098,325.3516 C1861.2798,332.8016 2021.71,351.96 2159,403.33 C2244.82,435.44 2329.5688,493.282 2374.9488,526.702 " fill="none" id="serviceLocator-nodeMap" style="stroke:#181818;stroke-width:1.0;"/><polygon fill="#181818" points="1758.55,324.37,1764.2027,328.8474,1770.5098,325.3516,1764.8571,320.8742,1758.55,324.37" style="stroke:#181818;stroke-width:1.0;"/><polygon fill="#181818" points="2379.78,530.26,2374.9051,521.7022,2375.754,527.295,2370.1612,528.1439,2379.78,530.26" style="stroke:#181818;stroke-width:1.0;"/></g><!--link serviceLocator to injectableService--><g id="link_serviceLocator_injectableService"><path codeLine="51" d="M1758.79,343.43 C1813.55,363.57 1892.59,392.64 1947.32,412.77 " fill="none" id="serviceLocator-injectableService" style="stroke:#181818;stroke-width:1.0;stroke-dasharray:7.0,7.0;"/></g><!--link syncServiceImpl to bindingsRegistry--><g id="link_syncServiceImpl_bindingsRegistry"><path codeLine="53" d="M1220.57,578.49 C1219.46,637.75 1216.6509,788.441 1215.5509,847.951 " fill="none" id="syncServiceImpl-to-bindingsRegistry" style="stroke:#181818;stroke-width:1.0;"/><polygon fill="#181818" points="1215.44,853.95,1219.6056,845.0255,1215.5324,848.9509,1211.607,844.8776,1215.44,853.95" style="stroke:#181818;stroke-width:1.0;"/></g><!--link syncServiceImpl to branchRegistry--><g id="link_syncServiceImpl_branchRegistry"><path codeLine="54" d="M1274.16,578.33 C1315.12,596.05 1365.9832,618.0577 1407.0132,635.8077 " fill="none" id="syncServiceImpl-to-branchRegistry" style="stroke:#181818;stroke-width:1.0;"/><polygon fill="#181818" points="1412.52,638.19,1405.848,630.9454,1407.931,636.2048,1402.6716,638.2878,1412.52,638.19" style="stroke:#181818;stroke-width:1.0;"/></g><!--link syncServiceImpl to iTreeToSTreeTransformer--><g id="link_syncServiceImpl_iTreeToSTreeTransformer"><path codeLine="55" d="M1209.13,530.01 C1177.55,467.48 1092.98,296.63 1080,235.33 C1072.03,197.68 1083.13,159.3521 1093.46,133.1421 " fill="none" id="syncServiceImpl-to-iTreeToSTreeTransformer" style="stroke:#181818;stroke-width:1.0;stroke-dasharray:7.0,7.0;"/><polygon fill="#181818" points="1095.66,127.56,1088.6385,134.4665,1093.8266,132.2117,1096.0813,137.3998,1095.66,127.56" style="stroke:#181818;stroke-width:1.0;"/></g><!--link branchRegistry to repositoryChangeListener--><g id="link_branchRegistry_repositoryChangeListener"><path codeLine="57" d="M1489.87,686.33 C1508.19,703.99 1529.0695,724.1067 1547.4795,741.8467 " fill="none" id="branchRegistry-to-repositoryChangeListener" style="stroke:#181818;stroke-width:1.0;"/><polygon fill="#181818" points="1551.8,746.01,1548.0947,736.8847,1548.1996,742.5406,1542.5437,742.6454,1551.8,746.01" style="stroke:#181818;stroke-width:1.0;"/></g><!--link branchRegistry to modelixBranchListener--><g id="link_branchRegistry_modelixBranchListener"><path codeLine="58" d="M1441.91,686.33 C1423.42,703.99 1402.3396,724.1266 1383.7596,741.8666 " fill="none" id="branchRegistry-to-modelixBranchListener" style="stroke:#181818;stroke-width:1.0;"/><polygon fill="#181818" points="1379.42,746.01,1388.6917,742.688,1383.0363,742.5572,1383.1671,736.9018,1379.42,746.01" style="stroke:#181818;stroke-width:1.0;"/></g><!--link bindingsRegistry to modelBinding--><g id="link_bindingsRegistry_modelBinding"><path codeLine="60" d="M1215,914.33 C1215,931.99 1215,938.27 1215,956.01 " fill="none" id="bindingsRegistry-modelBinding" style="stroke:#181818;stroke-width:1.0;"/><polygon fill="#181818" points="1215,902.33,1211,908.33,1215,914.33,1219,908.33,1215,902.33" style="stroke:#181818;stroke-width:1.0;"/><polygon fill="#181818" points="1215,962.01,1219,953.01,1215,957.01,1211,953.01,1215,962.01" style="stroke:#181818;stroke-width:1.0;"/></g><!--link bindingsRegistry to moduleBinding--><g id="link_bindingsRegistry_moduleBinding"><path codeLine="61" d="M1134.8124,900.6314 C1059.6124,920.6114 957.3789,947.7697 884.5689,967.1097 " fill="none" id="bindingsRegistry-moduleBinding" style="stroke:#181818;stroke-width:1.0;"/><polygon fill="#181818" points="1146.41,897.55,1139.5841,895.2248,1134.8124,900.6314,1141.6383,902.9566,1146.41,897.55" style="stroke:#181818;stroke-width:1.0;"/><polygon fill="#181818" points="878.77,968.65,888.4953,970.2055,883.6024,967.3664,886.4415,962.4736,878.77,968.65" style="stroke:#181818;stroke-width:1.0;"/></g><!--link repositoryChangeListener to serviceLocator--><g id="link_repositoryChangeListener_serviceLocator"><path codeLine="63" d="M1582.16,746.27 C1602.77,669.17 1667.5909,426.6266 1688.2509,349.3166 " fill="none" id="repositoryChangeListener-to-serviceLocator" style="stroke:#181818;stroke-width:1.0;stroke-dasharray:7.0,7.0;"/><polygon fill="#181818" points="1689.8,343.52,1683.612,351.1822,1688.5091,348.3505,1691.3408,353.2476,1689.8,343.52" style="stroke:#181818;stroke-width:1.0;"/></g><!--link repositoryChangeListener to bindingsRegistry--><g id="link_repositoryChangeListener_bindingsRegistry"><path codeLine="64" d="M1497.67,794.33 C1433.9,813.05 1350.527,837.5396 1289.497,855.4596 " fill="none" id="repositoryChangeListener-to-bindingsRegistry" style="stroke:#181818;stroke-width:1.0;"/><polygon fill="#181818" points="1283.74,857.15,1293.5024,858.4524,1288.5375,855.7413,1291.2485,850.7764,1283.74,857.15" style="stroke:#181818;stroke-width:1.0;"/></g><!--link modelixBranchListener to serviceLocator--><g id="link_modelixBranchListener_serviceLocator"><path codeLine="66" d="M1354.95,745.93 C1356.1,681.85 1368.24,501.73 1465,403.33 C1509.89,357.68 1575.7544,338.0803 1627.3844,328.8103 " fill="none" id="modelixBranchListener-to-serviceLocator" style="stroke:#181818;stroke-width:1.0;stroke-dasharray:7.0,7.0;"/><polygon fill="#181818" points="1633.29,327.75,1623.7248,325.4034,1628.3687,328.6336,1625.1385,333.2775,1633.29,327.75" style="stroke:#181818;stroke-width:1.0;"/></g><!--link iTreeToSTreeTransformer to serviceLocator--><g id="link_iTreeToSTreeTransformer_serviceLocator"><path codeLine="68" d="M1169.42,127.33 C1283.11,168.57 1514.6397,252.5438 1627.7397,293.5738 " fill="none" id="iTreeToSTreeTransformer-to-serviceLocator" style="stroke:#181818;stroke-width:1.0;stroke-dasharray:7.0,7.0;"/><polygon fill="#181818" points="1633.38,295.62,1626.2836,288.7905,1628.6797,293.9149,1623.5554,296.311,1633.38,295.62" style="stroke:#181818;stroke-width:1.0;"/></g><!--link iTreeToSTreeTransformer to moduleTransformer--><g id="link_iTreeToSTreeTransformer_moduleTransformer"><path codeLine="69" d="M1216,103.33 C1328.26,103.33 1422.52,103.33 1534.78,103.33 " fill="none" id="iTreeToSTreeTransformer-moduleTransformer" style="stroke:#181818;stroke-width:1.0;"/><polygon fill="#181818" points="1204,103.33,1210,107.33,1216,103.33,1210,99.33,1204,103.33" style="stroke:#181818;stroke-width:1.0;"/><polygon fill="#181818" points="1540.78,103.33,1531.78,99.33,1535.78,103.33,1531.78,107.33,1540.78,103.33" style="stroke:#181818;stroke-width:1.0;"/></g><!--link iTreeToSTreeTransformer to syncQueue--><g id="link_iTreeToSTreeTransformer_syncQueue"><path codeLine="70" d="M1139.01,127.52 C1249.03,204.83 1597.5507,449.7206 1707.2807,526.8206 " fill="none" id="iTreeToSTreeTransformer-to-syncQueue" style="stroke:#181818;stroke-width:1.0;"/><polygon fill="#181818" points="1712.19,530.27,1707.1257,521.823,1708.0989,527.3955,1702.5264,528.3687,1712.19,530.27" style="stroke:#181818;stroke-width:1.0;"/></g><!--link iTreeToSTreeTransformer to iBinding--><g id="link_iTreeToSTreeTransformer_iBinding"><path codeLine="71" d="M1008.38,113.04 C739.17,138.37 6,216.68 6,318.33 C6,318.33 6,318.33 6,663.33 C6,724.89 6.55,751.74 51,794.33 C116.99,857.56 228.86,872.9 289.29,876.44 " fill="none" id="iTreeToSTreeTransformer-iBinding" style="stroke:#181818;stroke-width:1.0;stroke-dasharray:7.0,7.0;"/></g><!--link moduleTransformer to serviceLocator--><g id="link_moduleTransformer_serviceLocator"><path codeLine="73" d="M1626.5,127.64 C1641.5,168.8 1670.4659,248.2726 1685.4559,289.4126 " fill="none" id="moduleTransformer-to-serviceLocator" style="stroke:#181818;stroke-width:1.0;"/><polygon fill="#181818" points="1687.51,295.05,1688.1872,285.2244,1685.7983,290.3521,1680.6706,287.9632,1687.51,295.05" style="stroke:#181818;stroke-width:1.0;"/></g><!--link moduleTransformer to modelTransformer--><g id="link_moduleTransformer_modelTransformer"><path codeLine="74" d="M1667.5351,73.4679 C1688.4851,61.9479 1704.73,55.19 1730.5,49.33 C1920.88,6 2146.2002,51.0413 2261.8402,80.8713 " fill="none" id="moduleTransformer-modelTransformer" style="stroke:#181818;stroke-width:1.0;"/><polygon fill="#181818" points="1657.02,79.25,1664.2049,79.864,1667.5351,73.4679,1660.3502,72.8539,1657.02,79.25" style="stroke:#181818;stroke-width:1.0;"/><polygon fill="#181818" points="2267.65,82.37,2259.9344,76.2488,2262.8085,81.1211,2257.9362,83.9952,2267.65,82.37" style="stroke:#181818;stroke-width:1.0;"/></g><!--link moduleTransformer to syncQueue--><g id="link_moduleTransformer_syncQueue"><path codeLine="75" d="M1613.57,127.64 C1606.23,171.06 1594.39,266.86 1616,343.33 C1637.29,418.68 1690.2084,489.0094 1720.8584,525.6194 " fill="none" id="moduleTransformer-to-syncQueue" style="stroke:#181818;stroke-width:1.0;"/><polygon fill="#181818" points="1724.71,530.22,1721.9996,520.7514,1721.5003,526.3862,1715.8656,525.8869,1724.71,530.22" style="stroke:#181818;stroke-width:1.0;"/></g><!--link moduleTransformer to futuresWaitQueue--><g id="link_moduleTransformer_futuresWaitQueue"><path codeLine="76" d="M1686.65,127.35 C1797.13,167.47 2015.45,259.88 2149,403.33 C2191.54,449.02 2195.34,469.42 2209,530.33 C2213.67,551.15 2209.64,557.01 2209,578.33 C2208.39,598.53 2207.3711,615.4748 2206.2011,632.1048 " fill="none" id="moduleTransformer-to-futuresWaitQueue" style="stroke:#181818;stroke-width:1.0;"/><polygon fill="#181818" points="2205.78,638.09,2210.4018,629.3929,2206.1309,633.1023,2202.4215,628.8315,2205.78,638.09" style="stroke:#181818;stroke-width:1.0;"/></g><!--link moduleTransformer to bindingsRegistry--><g id="link_moduleTransformer_bindingsRegistry"><path codeLine="77" d="M1583.33,127.42 C1506.17,177.41 1312.77,295.04 1132,343.33 C933.63,396.32 376.88,283.71 210,403.33 C151.37,445.36 148,481.19 148,553.33 C148,553.33 148,553.33 148,663.33 C148,745.98 205.05,759.49 280,794.33 C434.06,865.93 951.3901,875.9203 1140.2901,877.1703 " fill="none" id="moduleTransformer-to-bindingsRegistry" style="stroke:#181818;stroke-width:1.0;"/><polygon fill="#181818" points="1146.29,877.21,1137.3167,873.1505,1141.2901,877.1769,1137.2637,881.1504,1146.29,877.21" style="stroke:#181818;stroke-width:1.0;"/></g><!--link moduleTransformer to nodeMap--><g id="link_moduleTransformer_nodeMap"><path codeLine="78" d="M1695.22,123.18 C1701.23,124.6 1707.21,126 1713,127.33 C1834.48,155.33 1872.62,137.74 1987,187.33 C2142.41,254.7 2179.69,285.11 2301,403.33 C2341.58,442.87 2374.7904,493.7966 2393.5204,524.9766 " fill="none" id="moduleTransformer-to-nodeMap" style="stroke:#181818;stroke-width:1.0;"/><polygon fill="#181818" points="2396.61,530.12,2395.4044,520.3452,2394.0353,525.8339,2388.5466,524.4647,2396.61,530.12" style="stroke:#181818;stroke-width:1.0;"/></g><!--link moduleTransformer to solutionProducer--><g id="link_moduleTransformer_solutionProducer"><path codeLine="79" d="M1707.14,103.33 C1718.88,103.33 1712.62,103.33 1724.36,103.33 " fill="none" id="moduleTransformer-solutionProducer" style="stroke:#181818;stroke-width:1.0;"/><polygon fill="#181818" points="1695.14,103.33,1701.14,107.33,1707.14,103.33,1701.14,99.33,1695.14,103.33" style="stroke:#181818;stroke-width:1.0;"/><polygon fill="#181818" points="1730.36,103.33,1721.36,99.33,1725.36,103.33,1721.36,107.33,1730.36,103.33" style="stroke:#181818;stroke-width:1.0;"/></g><!--link moduleTransformer to iBinding--><g id="link_moduleTransformer_iBinding"><path codeLine="80" d="M1540.6,110.98 C1269.92,135.6 370.16,229.24 148,403.33 C89.94,448.82 77,479.57 77,553.33 C77,553.33 77,553.33 77,663.33 C77,773.03 211.6379,835.8288 283.6979,861.8988 " fill="none" id="moduleTransformer-to-iBinding" style="stroke:#181818;stroke-width:1.0;stroke-dasharray:7.0,7.0;"/><polygon fill="#181818" points="289.34,863.94,282.2376,857.1168,284.6382,862.239,279.516,864.6396,289.34,863.94" style="stroke:#181818;stroke-width:1.0;"/></g><!--link modelTransformer to nodeTransformer--><g id="link_modelTransformer_nodeTransformer"><path codeLine="82" d="M2426.07,103.33 C2437.65,103.33 2431.24,103.33 2442.83,103.33 " fill="none" id="modelTransformer-nodeTransformer" style="stroke:#181818;stroke-width:1.0;"/><polygon fill="#181818" points="2414.07,103.33,2420.07,107.33,2426.07,103.33,2420.07,99.33,2414.07,103.33" style="stroke:#181818;stroke-width:1.0;"/><polygon fill="#181818" points="2448.83,103.33,2439.83,99.33,2443.83,103.33,2439.83,107.33,2448.83,103.33" style="stroke:#181818;stroke-width:1.0;"/></g><!--link modelTransformer to serviceLocator--><g id="link_modelTransformer_serviceLocator"><path codeLine="83" d="M2267.87,108.08 C2136.07,116 1865.05,137.92 1786,187.33 C1744.94,213 1720.2468,259.5265 1707.2868,289.7165 " fill="none" id="modelTransformer-to-serviceLocator" style="stroke:#181818;stroke-width:1.0;"/><polygon fill="#181818" points="1704.92,295.23,1712.1459,288.5377,1706.8924,290.6355,1704.7946,285.3819,1704.92,295.23" style="stroke:#181818;stroke-width:1.0;"/></g><!--link modelTransformer to syncQueue--><g id="link_modelTransformer_syncQueue"><path codeLine="84" d="M2267.81,122.32 C2147.74,155.86 1910.28,239.83 1790,403.33 C1761.56,441.98 1751.6788,492.6844 1747.8288,524.1444 " fill="none" id="modelTransformer-to-syncQueue" style="stroke:#181818;stroke-width:1.0;"/><polygon fill="#181818" points="1747.1,530.1,1752.1636,521.6525,1747.7074,525.137,1744.2229,520.6808,1747.1,530.1" style="stroke:#181818;stroke-width:1.0;"/></g><!--link modelTransformer to futuresWaitQueue--><g id="link_modelTransformer_futuresWaitQueue"><path codeLine="85" d="M2414.47,123.05 C2420.4,124.51 2426.3,125.96 2432,127.33 C2623.14,173.36 2831,121.73 2831,318.33 C2831,318.33 2831,318.33 2831,437.83 C2831,553.9 2450.8811,624.5231 2284.6311,649.9431 " fill="none" id="modelTransformer-to-futuresWaitQueue" style="stroke:#181818;stroke-width:1.0;"/><polygon fill="#181818" points="2278.7,650.85,2288.2012,653.4437,2283.6426,650.0943,2286.992,645.5356,2278.7,650.85" style="stroke:#181818;stroke-width:1.0;"/></g><!--link modelTransformer to bindingsRegistry--><g id="link_modelTransformer_bindingsRegistry"><path codeLine="86" d="M2414.37,123.49 C2420.32,124.86 2426.25,126.16 2432,127.33 C2600.81,161.81 2669.94,94.36 2815,187.33 C2873.84,225.04 2902,248.44 2902,318.33 C2902,318.33 2902,318.33 2902,663.33 C2902,829.3 1606.2785,868.6845 1289.7485,875.8345 " fill="none" id="modelTransformer-to-bindingsRegistry" style="stroke:#181818;stroke-width:1.0;stroke-dasharray:7.0,7.0;"/><polygon fill="#181818" points="1283.75,875.97,1292.838,879.7657,1288.7487,875.8571,1292.6574,871.7678,1283.75,875.97" style="stroke:#181818;stroke-width:1.0;"/></g><!--link modelTransformer to nodeMap--><g id="link_modelTransformer_nodeMap"><path codeLine="87" d="M2344.56,127.52 C2356.44,204.83 2393.6985,447.2396 2405.5485,524.3396 " fill="none" id="modelTransformer-to-nodeMap" style="stroke:#181818;stroke-width:1.0;"/><polygon fill="#181818" points="2406.46,530.27,2409.0464,520.7668,2405.7004,525.328,2401.1392,521.9821,2406.46,530.27" style="stroke:#181818;stroke-width:1.0;"/></g><!--link modelTransformer to modelBinding--><g id="link_modelTransformer_modelBinding"><path codeLine="88" d="M2414.35,123.62 C2420.3,124.95 2426.24,126.21 2432,127.33 C2625.32,164.85 2703.04,84.53 2871,187.33 C2985.78,257.58 3044,301.26 3044,435.83 C3044,435.83 3044,435.83 3044,771.33 C3044,954.01 1592.0496,980.9988 1279.5296,984.7088 " fill="none" id="modelTransformer-to-modelBinding" style="stroke:#181818;stroke-width:1.0;stroke-dasharray:7.0,7.0;"/><polygon fill="#181818" points="1273.53,984.78,1282.5768,988.6729,1278.5296,984.7206,1282.4819,980.6734,1273.53,984.78" style="stroke:#181818;stroke-width:1.0;"/></g><!--link modelTransformer to resolvableModelImport--><g id="link_modelTransformer_resolvableModelImport"><path codeLine="89" d="M2304.9702,135.1293 C2284.3202,152.7893 2269.5905,165.371 2248.8405,183.111 " fill="none" id="modelTransformer-resolvableModelImport" style="stroke:#181818;stroke-width:1.0;"/><polygon fill="#181818" points="2314.09,127.33,2306.9303,128.1897,2304.9702,135.1293,2312.1299,134.2696,2314.09,127.33" style="stroke:#181818;stroke-width:1.0;"/><polygon fill="#181818" points="2244.28,187.01,2253.7201,184.2019,2248.0804,183.7609,2248.5214,178.1212,2244.28,187.01" style="stroke:#181818;stroke-width:1.0;"/></g><!--link nodeTransformer to serviceLocator--><g id="link_nodeTransformer_serviceLocator"><path codeLine="91" d="M2493.99,127.53 C2458.39,157.84 2391.22,210.01 2324,235.33 C2221.21,274.05 1902.4716,302.411 1764.7316,313.211 " fill="none" id="nodeTransformer-to-serviceLocator" style="stroke:#181818;stroke-width:1.0;stroke-dasharray:7.0,7.0;"/><polygon fill="#181818" points="1758.75,313.68,1768.0351,316.9642,1763.7347,313.2892,1767.4098,308.9887,1758.75,313.68" style="stroke:#181818;stroke-width:1.0;"/></g><!--link nodeTransformer to syncQueue--><g id="link_nodeTransformer_syncQueue"><path codeLine="92" d="M2504.09,127.52 C2482.36,157.32 2440.52,208.4 2392,235.33 C2283.38,295.61 2237.98,259.61 2119,295.33 C1990.85,333.8 1941.07,318.02 1838,403.33 C1832.36,407.99 1786.4535,484.0529 1761.9335,524.9829 " fill="none" id="nodeTransformer-to-syncQueue" style="stroke:#181818;stroke-width:1.0;"/><polygon fill="#181818" points="1758.85,530.13,1766.9066,524.465,1761.4196,525.8408,1760.0438,520.3538,1758.85,530.13" style="stroke:#181818;stroke-width:1.0;"/></g><!--link nodeTransformer to nodeMap--><g id="link_nodeTransformer_nodeMap"><path codeLine="93" d="M2589.4,127.38 C2689.22,164.55 2855.18,243.75 2796,343.33 C2728.86,456.29 2583.1167,510.7614 2491.1467,535.3314 " fill="none" id="nodeTransformer-to-nodeMap" style="stroke:#181818;stroke-width:1.0;"/><polygon fill="#181818" points="2485.35,536.88,2495.0775,538.4216,2490.1806,535.5895,2493.0127,530.6926,2485.35,536.88" style="stroke:#181818;stroke-width:1.0;"/></g><!--link nodeTransformer to sNodeFactory--><g id="link_nodeTransformer_sNodeFactory"><path codeLine="94" d="M2540.83,127.33 C2556.82,144.99 2574.7818,164.8232 2590.8518,182.5632 " fill="none" id="nodeTransformer-to-sNodeFactory" style="stroke:#181818;stroke-width:1.0;"/><polygon fill="#181818" points="2594.88,187.01,2591.8023,177.6544,2591.5232,183.3044,2585.8732,183.0253,2594.88,187.01" style="stroke:#181818;stroke-width:1.0;"/></g><!--link sNodeFactory to serviceLocator--><g id="link_sNodeFactory_serviceLocator"><path codeLine="96" d="M2555.29,221.62 C2525.68,226.02 2489.51,231.21 2457,235.33 C2198.25,268.14 1894.9612,298.8323 1764.7012,311.6523 " fill="none" id="sNodeFactory-to-serviceLocator" style="stroke:#181818;stroke-width:1.0;stroke-dasharray:7.0,7.0;"/><polygon fill="#181818" points="1758.73,312.24,1768.0785,315.3393,1763.706,311.7503,1767.2949,307.3777,1758.73,312.24" style="stroke:#181818;stroke-width:1.0;"/></g><!--link sNodeFactory to syncQueue--><g id="link_sNodeFactory_syncQueue"><path codeLine="97" d="M2555.37,228.28 C2391.78,271.43 1951.73,388.21 1923,403.33 C1918.71,405.59 1825.298,484.9399 1776.578,526.4299 " fill="none" id="sNodeFactory-to-syncQueue" style="stroke:#181818;stroke-width:1.0;"/><polygon fill="#181818" points="1772.01,530.32,1781.4555,527.5301,1775.8167,527.0782,1776.2686,521.4394,1772.01,530.32" style="stroke:#181818;stroke-width:1.0;"/></g><!--link sNodeFactory to futuresWaitQueue--><g id="link_sNodeFactory_futuresWaitQueue"><path codeLine="98" d="M2610.21,235.57 C2590.91,312.2 2528.63,553.42 2503,578.33 C2443.02,636.62 2351.8018,654.2636 2284.5918,659.5036 " fill="none" id="sNodeFactory-to-futuresWaitQueue" style="stroke:#181818;stroke-width:1.0;"/><polygon fill="#181818" points="2278.61,659.97,2287.8937,663.2583,2283.5949,659.5814,2287.2719,655.2825,2278.61,659.97" style="stroke:#181818;stroke-width:1.0;"/></g><!--link sNodeFactory to resolvableReference--><g id="link_sNodeFactory_resolvableReference"><path codeLine="99" d="M2640.3103,244.9522 C2653.4703,262.6122 2660.8148,272.459 2674.0348,290.199 " fill="none" id="sNodeFactory-resolvableReference" style="stroke:#181818;stroke-width:1.0;"/><polygon fill="#181818" points="2633.14,235.33,2633.5178,242.5312,2640.3103,244.9522,2639.9326,237.751,2633.14,235.33" style="stroke:#181818;stroke-width:1.0;"/><polygon fill="#181818" points="2677.62,295.01,2675.4495,285.4033,2674.6323,291.0008,2669.0348,290.1836,2677.62,295.01" style="stroke:#181818;stroke-width:1.0;"/></g><!--link sNodeFactory to nodeMap--><g id="link_sNodeFactory_nodeMap"><path codeLine="100" d="M2588.54,235.37 C2571.09,251.01 2548.88,272.86 2533,295.33 C2503.94,336.46 2445.9805,469.0738 2422.2605,524.5038 " fill="none" id="sNodeFactory-to-nodeMap" style="stroke:#181818;stroke-width:1.0;"/><polygon fill="#181818" points="2419.9,530.02,2427.1182,523.3194,2421.8671,525.4232,2419.7633,520.1721,2419.9,530.02" style="stroke:#181818;stroke-width:1.0;"/></g><!--link syncQueue to branchRegistry--><g id="link_syncQueue_branchRegistry"><path codeLine="102" d="M1692.19,575.39 C1645.12,593.28 1581.8191,617.3297 1532.4491,636.0797 " fill="none" id="syncQueue-to-branchRegistry" style="stroke:#181818;stroke-width:1.0;"/><polygon fill="#181818" points="1526.84,638.21,1536.6738,638.754,1531.5143,636.4348,1533.8335,631.2752,1526.84,638.21" style="stroke:#181818;stroke-width:1.0;"/></g><!--link syncQueue to futuresWaitQueue--><g id="link_syncQueue_futuresWaitQueue"><path codeLine="103" d="M1797.65,567.49 C1879.13,586.31 2030.2139,621.2 2123.4039,642.72 " fill="none" id="syncQueue-to-futuresWaitQueue" style="stroke:#181818;stroke-width:1.0;"/><polygon fill="#181818" points="2129.25,644.07,2121.3808,638.1475,2124.3782,642.945,2119.5808,645.9424,2129.25,644.07" style="stroke:#181818;stroke-width:1.0;"/></g><!--SRC=[bLTDRzmW4BtpAr0kswQ93pskeXmIDT9AITJkHksPTMOJAXjMm4Q9qlptijZ630oLUhAPUVFrO0Qn-AQST1BiWadbmEn42torULFj1ioBz8jtzkLTRAqpedKVV2lLuvr-F7HmOtH_n83vr7OIb5johu3kEYn-VZtZMoDK-xo67HXGBIpv5HQSyJvu2eR-kthy9TtplUZXyvAlV39Ysy75wig7bEhfadsmjXFMyfCalLM_xqwuiDnY6KlAEPbS1A0S5vEpa7GAw1D10l89PgXPWgEftz2wO-vZFaFON1gB6PQtkXLEcw4M99g0OooxXYVfj-CjGBUPC897gbCe4gLS_ZZ00IABOJMfRmxkOC3-4jBDg5qcZ2pjxOCEVChNEx4FMEMN_fyXkkNhaD-jJmKKc9dtN3EPhM6lhVHil5q_2_K4oD9Kb37ewi40FEXD-7Z_TgTDFnfBMeTtFZVgSoagZq0ZuGI-z_8Sgx0ibh3HtS59hRuR7xeTmJOJHl3HyurlM3tklKq4RERKsxySZsJ8shUDDcuabD2KPh6JCwCePsonXauSK_G31esLYpzDKpHjqIJ_1IjweOR3ZV2FeCFfhW2ABgZWOWTCasSGep5JgDBPWiS1Fpq_lomeeJ057oG8ar6BDLH8QGiQAD34GQRpjPPpaMMrSReM2fJLaa6QvhBQxGpR1dVLiK9WwU75yhG7Dj3MLo7f4QYb4chAheigbkIHaPbJVbc5EmfRWvx6qbBoQsXy-EhXvpkT5Su79pYx4dGwxKgQLiLNJ8ZM5_r0mugDe65Juz0f5_E_X8L3dzA3QWnUyYkd0D4K4fYKcb9DCODHnsGfOafV2I-b2zHVHCcXjwaRZcLKK4SxX-32AUsKAsc9BkPqHSL6-cmqvwfoBgU8Z8JvnYxynEihnghDsbbPn6QBU-sEZmpbFtohdTCzrplqqbXowuJnpmZoZT4q3Vqg-0i0]--></g></svg>
