<svg xmlns="http://www.w3.org/2000/svg" xmlns:xlink="http://www.w3.org/1999/xlink" contentStyleType="text/css" height="494px" preserveAspectRatio="none" style="width:1253px;height:494px;background:#FFFFFF;" version="1.1" viewBox="0 0 1253 494" width="1253px" zoomAndPan="magnify"><defs/><g><!--class modelSyncGui--><g id="elem_modelSyncGui"><rect codeLine="2" fill="#F1F1F1" height="48" id="modelSyncGui" rx="2.5" ry="2.5" style="stroke:#181818;stroke-width:0.5;" width="123.041" x="681.5" y="7"/><ellipse cx="696.5" cy="23" fill="#ADD1B2" rx="11" ry="11" style="stroke:#181818;stroke-width:1.0;"/><path d="M699.2656,18.875 Q699.4219,18.6563 699.6094,18.5469 Q699.7969,18.4375 700.0156,18.4375 Q700.3906,18.4375 700.625,18.7031 Q700.8594,18.9531 700.8594,19.5625 L700.8594,21.0156 Q700.8594,21.625 700.625,21.8906 Q700.3906,22.1563 700.0156,22.1563 Q699.6719,22.1563 699.4688,21.9531 Q699.2656,21.7656 699.1563,21.25 Q699.1094,20.8906 698.9219,20.7031 Q698.5938,20.3281 697.9844,20.1094 Q697.375,19.8906 696.75,19.8906 Q695.9844,19.8906 695.3438,20.2188 Q694.7188,20.5469 694.2188,21.2969 Q693.7344,22.0469 693.7344,23.0781 L693.7344,24.1719 Q693.7344,25.4063 694.625,26.2344 Q695.5156,27.0469 697.1094,27.0469 Q698.0469,27.0469 698.7031,26.7969 Q699.0938,26.6406 699.5156,26.2031 Q699.7813,25.9375 699.9219,25.8594 Q700.0781,25.7813 700.2813,25.7813 Q700.6094,25.7813 700.8594,26.0469 Q701.125,26.2969 701.125,26.6406 Q701.125,26.9844 700.7813,27.3906 Q700.2813,27.9688 699.4844,28.2969 Q698.4063,28.75 697.1094,28.75 Q695.5938,28.75 694.3906,28.125 Q693.4063,27.625 692.7188,26.5625 Q692.0313,25.4844 692.0313,24.2031 L692.0313,23.0469 Q692.0313,21.7188 692.6406,20.5781 Q693.2656,19.4219 694.3594,18.8125 Q695.4531,18.1875 696.6875,18.1875 Q697.4219,18.1875 698.0625,18.3594 Q698.7188,18.5156 699.2656,18.875 Z " fill="#000000"/><text fill="#000000" font-family="sans-serif" font-size="14" lengthAdjust="spacing" textLength="91.041" x="710.5" y="28.7969">ModelSyncGui</text><line style="stroke:#181818;stroke-width:0.5;" x1="682.5" x2="803.541" y1="39" y2="39"/><line style="stroke:#181818;stroke-width:0.5;" x1="682.5" x2="803.541" y1="47" y2="47"/></g><!--class modelSyncService--><g id="elem_modelSyncService"><rect codeLine="3" fill="#F1F1F1" height="48" id="modelSyncService" rx="2.5" ry="2.5" style="stroke:#181818;stroke-width:0.5;" width="147.9375" x="463" y="115"/><ellipse cx="478" cy="131" fill="#ADD1B2" rx="11" ry="11" style="stroke:#181818;stroke-width:1.0;"/><path d="M480.7656,126.875 Q480.9219,126.6563 481.1094,126.5469 Q481.2969,126.4375 481.5156,126.4375 Q481.8906,126.4375 482.125,126.7031 Q482.3594,126.9531 482.3594,127.5625 L482.3594,129.0156 Q482.3594,129.625 482.125,129.8906 Q481.8906,130.1563 481.5156,130.1563 Q481.1719,130.1563 480.9688,129.9531 Q480.7656,129.7656 480.6563,129.25 Q480.6094,128.8906 480.4219,128.7031 Q480.0938,128.3281 479.4844,128.1094 Q478.875,127.8906 478.25,127.8906 Q477.4844,127.8906 476.8438,128.2188 Q476.2188,128.5469 475.7188,129.2969 Q475.2344,130.0469 475.2344,131.0781 L475.2344,132.1719 Q475.2344,133.4063 476.125,134.2344 Q477.0156,135.0469 478.6094,135.0469 Q479.5469,135.0469 480.2031,134.7969 Q480.5938,134.6406 481.0156,134.2031 Q481.2813,133.9375 481.4219,133.8594 Q481.5781,133.7813 481.7813,133.7813 Q482.1094,133.7813 482.3594,134.0469 Q482.625,134.2969 482.625,134.6406 Q482.625,134.9844 482.2813,135.3906 Q481.7813,135.9688 480.9844,136.2969 Q479.9063,136.75 478.6094,136.75 Q477.0938,136.75 475.8906,136.125 Q474.9063,135.625 474.2188,134.5625 Q473.5313,133.4844 473.5313,132.2031 L473.5313,131.0469 Q473.5313,129.7188 474.1406,128.5781 Q474.7656,127.4219 475.8594,126.8125 Q476.9531,126.1875 478.1875,126.1875 Q478.9219,126.1875 479.5625,126.3594 Q480.2188,126.5156 480.7656,126.875 Z " fill="#000000"/><text fill="#000000" font-family="sans-serif" font-size="14" lengthAdjust="spacing" textLength="115.9375" x="492" y="136.7969">ModelSyncService</text><line style="stroke:#181818;stroke-width:0.5;" x1="464" x2="609.9375" y1="147" y2="147"/><line style="stroke:#181818;stroke-width:0.5;" x1="464" x2="609.9375" y1="155" y2="155"/></g><!--class iSyncService--><g id="elem_iSyncService"><rect codeLine="5" fill="#F1F1F1" height="48" id="iSyncService" rx="2.5" ry="2.5" style="stroke:#181818;stroke-width:0.5;" width="113.6963" x="67" y="223"/><ellipse cx="82" cy="239" fill="#B4A7E5" rx="11" ry="11" style="stroke:#181818;stroke-width:1.0;"/><path d="M82.9531,235.6406 L82.9531,242.2969 L84.6719,242.2969 Q85.2813,242.2969 85.5469,242.5313 Q85.8125,242.7656 85.8125,243.1563 Q85.8125,243.5313 85.5469,243.7656 Q85.2813,244 84.6719,244 L79.5313,244 Q78.9219,244 78.6563,243.7656 Q78.3906,243.5313 78.3906,243.1406 Q78.3906,242.7656 78.6563,242.5313 Q78.9219,242.2969 79.5313,242.2969 L81.25,242.2969 L81.25,235.6406 L79.5313,235.6406 Q78.9219,235.6406 78.6563,235.4063 Q78.3906,235.1719 78.3906,234.7813 Q78.3906,234.4063 78.6563,234.1719 Q78.9219,233.9375 79.5313,233.9375 L84.6719,233.9375 Q85.2813,233.9375 85.5469,234.1719 Q85.8125,234.4063 85.8125,234.7813 Q85.8125,235.1719 85.5469,235.4063 Q85.2813,235.6406 84.6719,235.6406 L82.9531,235.6406 Z " fill="#000000"/><text fill="#000000" font-family="sans-serif" font-size="14" font-style="italic" lengthAdjust="spacing" textLength="81.6963" x="96" y="244.7969">ISyncService</text><line style="stroke:#181818;stroke-width:0.5;" x1="68" x2="179.6963" y1="255" y2="255"/><line style="stroke:#181818;stroke-width:0.5;" x1="68" x2="179.6963" y1="263" y2="263"/></g><!--class syncServiceImpl--><g id="elem_syncServiceImpl"><rect codeLine="6" fill="#F1F1F1" height="48" id="syncServiceImpl" rx="2.5" ry="2.5" style="stroke:#181818;stroke-width:0.5;" width="136.2549" x="166" y="439"/><ellipse cx="181" cy="455" fill="#ADD1B2" rx="11" ry="11" style="stroke:#181818;stroke-width:1.0;"/><path d="M183.7656,450.875 Q183.9219,450.6563 184.1094,450.5469 Q184.2969,450.4375 184.5156,450.4375 Q184.8906,450.4375 185.125,450.7031 Q185.3594,450.9531 185.3594,451.5625 L185.3594,453.0156 Q185.3594,453.625 185.125,453.8906 Q184.8906,454.1563 184.5156,454.1563 Q184.1719,454.1563 183.9688,453.9531 Q183.7656,453.7656 183.6563,453.25 Q183.6094,452.8906 183.4219,452.7031 Q183.0938,452.3281 182.4844,452.1094 Q181.875,451.8906 181.25,451.8906 Q180.4844,451.8906 179.8438,452.2188 Q179.2188,452.5469 178.7188,453.2969 Q178.2344,454.0469 178.2344,455.0781 L178.2344,456.1719 Q178.2344,457.4063 179.125,458.2344 Q180.0156,459.0469 181.6094,459.0469 Q182.5469,459.0469 183.2031,458.7969 Q183.5938,458.6406 184.0156,458.2031 Q184.2813,457.9375 184.4219,457.8594 Q184.5781,457.7813 184.7813,457.7813 Q185.1094,457.7813 185.3594,458.0469 Q185.625,458.2969 185.625,458.6406 Q185.625,458.9844 185.2813,459.3906 Q184.7813,459.9688 183.9844,460.2969 Q182.9063,460.75 181.6094,460.75 Q180.0938,460.75 178.8906,460.125 Q177.9063,459.625 177.2188,458.5625 Q176.5313,457.4844 176.5313,456.2031 L176.5313,455.0469 Q176.5313,453.7188 177.1406,452.5781 Q177.7656,451.4219 178.8594,450.8125 Q179.9531,450.1875 181.1875,450.1875 Q181.9219,450.1875 182.5625,450.3594 Q183.2188,450.5156 183.7656,450.875 Z " fill="#000000"/><text fill="#000000" font-family="sans-serif" font-size="14" lengthAdjust="spacing" textLength="104.2549" x="195" y="460.7969">SyncServiceImpl</text><line style="stroke:#181818;stroke-width:0.5;" x1="167" x2="301.2549" y1="471" y2="471"/><line style="stroke:#181818;stroke-width:0.5;" x1="167" x2="301.2549" y1="479" y2="479"/></g><!--class serviceLocator--><g id="elem_serviceLocator"><rect codeLine="8" fill="#F1F1F1" height="48" id="serviceLocator" rx="2.5" ry="2.5" style="stroke:#181818;stroke-width:0.5;" width="125.3789" x="452.5" y="223"/><ellipse cx="467.5" cy="239" fill="#ADD1B2" rx="11" ry="11" style="stroke:#181818;stroke-width:1.0;"/><path d="M470.2656,234.875 Q470.4219,234.6563 470.6094,234.5469 Q470.7969,234.4375 471.0156,234.4375 Q471.3906,234.4375 471.625,234.7031 Q471.8594,234.9531 471.8594,235.5625 L471.8594,237.0156 Q471.8594,237.625 471.625,237.8906 Q471.3906,238.1563 471.0156,238.1563 Q470.6719,238.1563 470.4688,237.9531 Q470.2656,237.7656 470.1563,237.25 Q470.1094,236.8906 469.9219,236.7031 Q469.5938,236.3281 468.9844,236.1094 Q468.375,235.8906 467.75,235.8906 Q466.9844,235.8906 466.3438,236.2188 Q465.7188,236.5469 465.2188,237.2969 Q464.7344,238.0469 464.7344,239.0781 L464.7344,240.1719 Q464.7344,241.4063 465.625,242.2344 Q466.5156,243.0469 468.1094,243.0469 Q469.0469,243.0469 469.7031,242.7969 Q470.0938,242.6406 470.5156,242.2031 Q470.7813,241.9375 470.9219,241.8594 Q471.0781,241.7813 471.2813,241.7813 Q471.6094,241.7813 471.8594,242.0469 Q472.125,242.2969 472.125,242.6406 Q472.125,242.9844 471.7813,243.3906 Q471.2813,243.9688 470.4844,244.2969 Q469.4063,244.75 468.1094,244.75 Q466.5938,244.75 465.3906,244.125 Q464.4063,243.625 463.7188,242.5625 Q463.0313,241.4844 463.0313,240.2031 L463.0313,239.0469 Q463.0313,237.7188 463.6406,236.5781 Q464.2656,235.4219 465.3594,234.8125 Q466.4531,234.1875 467.6875,234.1875 Q468.4219,234.1875 469.0625,234.3594 Q469.7188,234.5156 470.2656,234.875 Z " fill="#000000"/><text fill="#000000" font-family="sans-serif" font-size="14" lengthAdjust="spacing" textLength="93.3789" x="481.5" y="244.7969">ServiceLocator</text><line style="stroke:#181818;stroke-width:0.5;" x1="453.5" x2="576.8789" y1="255" y2="255"/><line style="stroke:#181818;stroke-width:0.5;" x1="453.5" x2="576.8789" y1="263" y2="263"/></g><!--class bindingsRegistry--><g id="elem_bindingsRegistry"><rect codeLine="9" fill="#F1F1F1" height="48" id="bindingsRegistry" rx="2.5" ry="2.5" style="stroke:#181818;stroke-width:0.5;" width="137.0479" x="874.5" y="439"/><ellipse cx="889.5" cy="455" fill="#ADD1B2" rx="11" ry="11" style="stroke:#181818;stroke-width:1.0;"/><path d="M892.2656,450.875 Q892.4219,450.6563 892.6094,450.5469 Q892.7969,450.4375 893.0156,450.4375 Q893.3906,450.4375 893.625,450.7031 Q893.8594,450.9531 893.8594,451.5625 L893.8594,453.0156 Q893.8594,453.625 893.625,453.8906 Q893.3906,454.1563 893.0156,454.1563 Q892.6719,454.1563 892.4688,453.9531 Q892.2656,453.7656 892.1563,453.25 Q892.1094,452.8906 891.9219,452.7031 Q891.5938,452.3281 890.9844,452.1094 Q890.375,451.8906 889.75,451.8906 Q888.9844,451.8906 888.3438,452.2188 Q887.7188,452.5469 887.2188,453.2969 Q886.7344,454.0469 886.7344,455.0781 L886.7344,456.1719 Q886.7344,457.4063 887.625,458.2344 Q888.5156,459.0469 890.1094,459.0469 Q891.0469,459.0469 891.7031,458.7969 Q892.0938,458.6406 892.5156,458.2031 Q892.7813,457.9375 892.9219,457.8594 Q893.0781,457.7813 893.2813,457.7813 Q893.6094,457.7813 893.8594,458.0469 Q894.125,458.2969 894.125,458.6406 Q894.125,458.9844 893.7813,459.3906 Q893.2813,459.9688 892.4844,460.2969 Q891.4063,460.75 890.1094,460.75 Q888.5938,460.75 887.3906,460.125 Q886.4063,459.625 885.7188,458.5625 Q885.0313,457.4844 885.0313,456.2031 L885.0313,455.0469 Q885.0313,453.7188 885.6406,452.5781 Q886.2656,451.4219 887.3594,450.8125 Q888.4531,450.1875 889.6875,450.1875 Q890.4219,450.1875 891.0625,450.3594 Q891.7188,450.5156 892.2656,450.875 Z " fill="#000000"/><text fill="#000000" font-family="sans-serif" font-size="14" lengthAdjust="spacing" textLength="105.0479" x="903.5" y="460.7969">BindingsRegistry</text><line style="stroke:#181818;stroke-width:0.5;" x1="875.5" x2="1010.5479" y1="471" y2="471"/><line style="stroke:#181818;stroke-width:0.5;" x1="875.5" x2="1010.5479" y1="479" y2="479"/></g><!--class branchRegistry--><g id="elem_branchRegistry"><rect codeLine="10" fill="#F1F1F1" height="48" id="branchRegistry" rx="2.5" ry="2.5" style="stroke:#181818;stroke-width:0.5;" width="127.7031" x="445" y="439"/><ellipse cx="460" cy="455" fill="#ADD1B2" rx="11" ry="11" style="stroke:#181818;stroke-width:1.0;"/><path d="M462.7656,450.875 Q462.9219,450.6563 463.1094,450.5469 Q463.2969,450.4375 463.5156,450.4375 Q463.8906,450.4375 464.125,450.7031 Q464.3594,450.9531 464.3594,451.5625 L464.3594,453.0156 Q464.3594,453.625 464.125,453.8906 Q463.8906,454.1563 463.5156,454.1563 Q463.1719,454.1563 462.9688,453.9531 Q462.7656,453.7656 462.6563,453.25 Q462.6094,452.8906 462.4219,452.7031 Q462.0938,452.3281 461.4844,452.1094 Q460.875,451.8906 460.25,451.8906 Q459.4844,451.8906 458.8438,452.2188 Q458.2188,452.5469 457.7188,453.2969 Q457.2344,454.0469 457.2344,455.0781 L457.2344,456.1719 Q457.2344,457.4063 458.125,458.2344 Q459.0156,459.0469 460.6094,459.0469 Q461.5469,459.0469 462.2031,458.7969 Q462.5938,458.6406 463.0156,458.2031 Q463.2813,457.9375 463.4219,457.8594 Q463.5781,457.7813 463.7813,457.7813 Q464.1094,457.7813 464.3594,458.0469 Q464.625,458.2969 464.625,458.6406 Q464.625,458.9844 464.2813,459.3906 Q463.7813,459.9688 462.9844,460.2969 Q461.9063,460.75 460.6094,460.75 Q459.0938,460.75 457.8906,460.125 Q456.9063,459.625 456.2188,458.5625 Q455.5313,457.4844 455.5313,456.2031 L455.5313,455.0469 Q455.5313,453.7188 456.1406,452.5781 Q456.7656,451.4219 457.8594,450.8125 Q458.9531,450.1875 460.1875,450.1875 Q460.9219,450.1875 461.5625,450.3594 Q462.2188,450.5156 462.7656,450.875 Z " fill="#000000"/><text fill="#000000" font-family="sans-serif" font-size="14" lengthAdjust="spacing" textLength="95.7031" x="474" y="460.7969">BranchRegistry</text><line style="stroke:#181818;stroke-width:0.5;" x1="446" x2="571.7031" y1="471" y2="471"/><line style="stroke:#181818;stroke-width:0.5;" x1="446" x2="571.7031" y1="479" y2="479"/></g><!--class bindingsComboBoxRefresher--><g id="elem_bindingsComboBoxRefresher"><rect codeLine="12" fill="#F1F1F1" height="48" id="bindingsComboBoxRefresher" rx="2.5" ry="2.5" style="stroke:#181818;stroke-width:0.5;" width="216.4268" x="646" y="115"/><ellipse cx="661" cy="131" fill="#ADD1B2" rx="11" ry="11" style="stroke:#181818;stroke-width:1.0;"/><path d="M663.7656,126.875 Q663.9219,126.6563 664.1094,126.5469 Q664.2969,126.4375 664.5156,126.4375 Q664.8906,126.4375 665.125,126.7031 Q665.3594,126.9531 665.3594,127.5625 L665.3594,129.0156 Q665.3594,129.625 665.125,129.8906 Q664.8906,130.1563 664.5156,130.1563 Q664.1719,130.1563 663.9688,129.9531 Q663.7656,129.7656 663.6563,129.25 Q663.6094,128.8906 663.4219,128.7031 Q663.0938,128.3281 662.4844,128.1094 Q661.875,127.8906 661.25,127.8906 Q660.4844,127.8906 659.8438,128.2188 Q659.2188,128.5469 658.7188,129.2969 Q658.2344,130.0469 658.2344,131.0781 L658.2344,132.1719 Q658.2344,133.4063 659.125,134.2344 Q660.0156,135.0469 661.6094,135.0469 Q662.5469,135.0469 663.2031,134.7969 Q663.5938,134.6406 664.0156,134.2031 Q664.2813,133.9375 664.4219,133.8594 Q664.5781,133.7813 664.7813,133.7813 Q665.1094,133.7813 665.3594,134.0469 Q665.625,134.2969 665.625,134.6406 Q665.625,134.9844 665.2813,135.3906 Q664.7813,135.9688 663.9844,136.2969 Q662.9063,136.75 661.6094,136.75 Q660.0938,136.75 658.8906,136.125 Q657.9063,135.625 657.2188,134.5625 Q656.5313,133.4844 656.5313,132.2031 L656.5313,131.0469 Q656.5313,129.7188 657.1406,128.5781 Q657.7656,127.4219 658.8594,126.8125 Q659.9531,126.1875 661.1875,126.1875 Q661.9219,126.1875 662.5625,126.3594 Q663.2188,126.5156 663.7656,126.875 Z " fill="#000000"/><text fill="#000000" font-family="sans-serif" font-size="14" lengthAdjust="spacing" textLength="184.4268" x="675" y="136.7969">BindingsComboBoxRefresher</text><line style="stroke:#181818;stroke-width:0.5;" x1="647" x2="861.4268" y1="147" y2="147"/><line style="stroke:#181818;stroke-width:0.5;" x1="647" x2="861.4268" y1="155" y2="155"/></g><!--class bindingsSortComparator--><g id="elem_bindingsSortComparator"><rect codeLine="13" fill="#F1F1F1" height="48" id="bindingsSortComparator" rx="2.5" ry="2.5" style="stroke:#181818;stroke-width:0.5;" width="178.2959" x="712" y="223"/><ellipse cx="727" cy="239" fill="#ADD1B2" rx="11" ry="11" style="stroke:#181818;stroke-width:1.0;"/><path d="M729.7656,234.875 Q729.9219,234.6563 730.1094,234.5469 Q730.2969,234.4375 730.5156,234.4375 Q730.8906,234.4375 731.125,234.7031 Q731.3594,234.9531 731.3594,235.5625 L731.3594,237.0156 Q731.3594,237.625 731.125,237.8906 Q730.8906,238.1563 730.5156,238.1563 Q730.1719,238.1563 729.9688,237.9531 Q729.7656,237.7656 729.6563,237.25 Q729.6094,236.8906 729.4219,236.7031 Q729.0938,236.3281 728.4844,236.1094 Q727.875,235.8906 727.25,235.8906 Q726.4844,235.8906 725.8438,236.2188 Q725.2188,236.5469 724.7188,237.2969 Q724.2344,238.0469 724.2344,239.0781 L724.2344,240.1719 Q724.2344,241.4063 725.125,242.2344 Q726.0156,243.0469 727.6094,243.0469 Q728.5469,243.0469 729.2031,242.7969 Q729.5938,242.6406 730.0156,242.2031 Q730.2813,241.9375 730.4219,241.8594 Q730.5781,241.7813 730.7813,241.7813 Q731.1094,241.7813 731.3594,242.0469 Q731.625,242.2969 731.625,242.6406 Q731.625,242.9844 731.2813,243.3906 Q730.7813,243.9688 729.9844,244.2969 Q728.9063,244.75 727.6094,244.75 Q726.0938,244.75 724.8906,244.125 Q723.9063,243.625 723.2188,242.5625 Q722.5313,241.4844 722.5313,240.2031 L722.5313,239.0469 Q722.5313,237.7188 723.1406,236.5781 Q723.7656,235.4219 724.8594,234.8125 Q725.9531,234.1875 727.1875,234.1875 Q727.9219,234.1875 728.5625,234.3594 Q729.2188,234.5156 729.7656,234.875 Z " fill="#000000"/><text fill="#000000" font-family="sans-serif" font-size="14" lengthAdjust="spacing" textLength="146.2959" x="741" y="244.7969">BindingSortComparator</text><line style="stroke:#181818;stroke-width:0.5;" x1="713" x2="889.2959" y1="255" y2="255"/><line style="stroke:#181818;stroke-width:0.5;" x1="713" x2="889.2959" y1="263" y2="263"/></g><!--class modelSyncAction--><g id="elem_modelSyncAction"><rect codeLine="15" fill="#F1F1F1" height="48" id="modelSyncAction" rx="2.5" ry="2.5" style="stroke:#181818;stroke-width:0.5;" width="140.165" x="105" y="115"/><ellipse cx="120" cy="131" fill="#ADD1B2" rx="11" ry="11" style="stroke:#181818;stroke-width:1.0;"/><path d="M122.7656,126.875 Q122.9219,126.6563 123.1094,126.5469 Q123.2969,126.4375 123.5156,126.4375 Q123.8906,126.4375 124.125,126.7031 Q124.3594,126.9531 124.3594,127.5625 L124.3594,129.0156 Q124.3594,129.625 124.125,129.8906 Q123.8906,130.1563 123.5156,130.1563 Q123.1719,130.1563 122.9688,129.9531 Q122.7656,129.7656 122.6563,129.25 Q122.6094,128.8906 122.4219,128.7031 Q122.0938,128.3281 121.4844,128.1094 Q120.875,127.8906 120.25,127.8906 Q119.4844,127.8906 118.8438,128.2188 Q118.2188,128.5469 117.7188,129.2969 Q117.2344,130.0469 117.2344,131.0781 L117.2344,132.1719 Q117.2344,133.4063 118.125,134.2344 Q119.0156,135.0469 120.6094,135.0469 Q121.5469,135.0469 122.2031,134.7969 Q122.5938,134.6406 123.0156,134.2031 Q123.2813,133.9375 123.4219,133.8594 Q123.5781,133.7813 123.7813,133.7813 Q124.1094,133.7813 124.3594,134.0469 Q124.625,134.2969 124.625,134.6406 Q124.625,134.9844 124.2813,135.3906 Q123.7813,135.9688 122.9844,136.2969 Q121.9063,136.75 120.6094,136.75 Q119.0938,136.75 117.8906,136.125 Q116.9063,135.625 116.2188,134.5625 Q115.5313,133.4844 115.5313,132.2031 L115.5313,131.0469 Q115.5313,129.7188 116.1406,128.5781 Q116.7656,127.4219 117.8594,126.8125 Q118.9531,126.1875 120.1875,126.1875 Q120.9219,126.1875 121.5625,126.3594 Q122.2188,126.5156 122.7656,126.875 Z " fill="#000000"/><text fill="#000000" font-family="sans-serif" font-size="14" lengthAdjust="spacing" textLength="108.165" x="134" y="136.7969">ModelSyncAction</text><line style="stroke:#181818;stroke-width:0.5;" x1="106" x2="244.165" y1="147" y2="147"/><line style="stroke:#181818;stroke-width:0.5;" x1="106" x2="244.165" y1="155" y2="155"/></g><!--class moduleSyncAction--><g id="elem_moduleSyncAction"><rect codeLine="16" fill="#F1F1F1" height="48" id="moduleSyncAction" rx="2.5" ry="2.5" style="stroke:#181818;stroke-width:0.5;" width="147.9512" x="280" y="115"/><ellipse cx="295" cy="131" fill="#ADD1B2" rx="11" ry="11" style="stroke:#181818;stroke-width:1.0;"/><path d="M297.7656,126.875 Q297.9219,126.6563 298.1094,126.5469 Q298.2969,126.4375 298.5156,126.4375 Q298.8906,126.4375 299.125,126.7031 Q299.3594,126.9531 299.3594,127.5625 L299.3594,129.0156 Q299.3594,129.625 299.125,129.8906 Q298.8906,130.1563 298.5156,130.1563 Q298.1719,130.1563 297.9688,129.9531 Q297.7656,129.7656 297.6563,129.25 Q297.6094,128.8906 297.4219,128.7031 Q297.0938,128.3281 296.4844,128.1094 Q295.875,127.8906 295.25,127.8906 Q294.4844,127.8906 293.8438,128.2188 Q293.2188,128.5469 292.7188,129.2969 Q292.2344,130.0469 292.2344,131.0781 L292.2344,132.1719 Q292.2344,133.4063 293.125,134.2344 Q294.0156,135.0469 295.6094,135.0469 Q296.5469,135.0469 297.2031,134.7969 Q297.5938,134.6406 298.0156,134.2031 Q298.2813,133.9375 298.4219,133.8594 Q298.5781,133.7813 298.7813,133.7813 Q299.1094,133.7813 299.3594,134.0469 Q299.625,134.2969 299.625,134.6406 Q299.625,134.9844 299.2813,135.3906 Q298.7813,135.9688 297.9844,136.2969 Q296.9063,136.75 295.6094,136.75 Q294.0938,136.75 292.8906,136.125 Q291.9063,135.625 291.2188,134.5625 Q290.5313,133.4844 290.5313,132.2031 L290.5313,131.0469 Q290.5313,129.7188 291.1406,128.5781 Q291.7656,127.4219 292.8594,126.8125 Q293.9531,126.1875 295.1875,126.1875 Q295.9219,126.1875 296.5625,126.3594 Q297.2188,126.5156 297.7656,126.875 Z " fill="#000000"/><text fill="#000000" font-family="sans-serif" font-size="14" lengthAdjust="spacing" textLength="115.9512" x="309" y="136.7969">ModuleSyncAction</text><line style="stroke:#181818;stroke-width:0.5;" x1="281" x2="426.9512" y1="147" y2="147"/><line style="stroke:#181818;stroke-width:0.5;" x1="281" x2="426.9512" y1="155" y2="155"/></g><!--class unbindModelAction--><g id="elem_unbindModelAction"><rect codeLine="17" fill="#F1F1F1" height="48" id="unbindModelAction" rx="2.5" ry="2.5" style="stroke:#181818;stroke-width:0.5;" width="153.4063" x="1093.5" y="115"/><ellipse cx="1108.5" cy="131" fill="#ADD1B2" rx="11" ry="11" style="stroke:#181818;stroke-width:1.0;"/><path d="M1111.2656,126.875 Q1111.4219,126.6563 1111.6094,126.5469 Q1111.7969,126.4375 1112.0156,126.4375 Q1112.3906,126.4375 1112.625,126.7031 Q1112.8594,126.9531 1112.8594,127.5625 L1112.8594,129.0156 Q1112.8594,129.625 1112.625,129.8906 Q1112.3906,130.1563 1112.0156,130.1563 Q1111.6719,130.1563 1111.4688,129.9531 Q1111.2656,129.7656 1111.1563,129.25 Q1111.1094,128.8906 1110.9219,128.7031 Q1110.5938,128.3281 1109.9844,128.1094 Q1109.375,127.8906 1108.75,127.8906 Q1107.9844,127.8906 1107.3438,128.2188 Q1106.7188,128.5469 1106.2188,129.2969 Q1105.7344,130.0469 1105.7344,131.0781 L1105.7344,132.1719 Q1105.7344,133.4063 1106.625,134.2344 Q1107.5156,135.0469 1109.1094,135.0469 Q1110.0469,135.0469 1110.7031,134.7969 Q1111.0938,134.6406 1111.5156,134.2031 Q1111.7813,133.9375 1111.9219,133.8594 Q1112.0781,133.7813 1112.2813,133.7813 Q1112.6094,133.7813 1112.8594,134.0469 Q1113.125,134.2969 1113.125,134.6406 Q1113.125,134.9844 1112.7813,135.3906 Q1112.2813,135.9688 1111.4844,136.2969 Q1110.4063,136.75 1109.1094,136.75 Q1107.5938,136.75 1106.3906,136.125 Q1105.4063,135.625 1104.7188,134.5625 Q1104.0313,133.4844 1104.0313,132.2031 L1104.0313,131.0469 Q1104.0313,129.7188 1104.6406,128.5781 Q1105.2656,127.4219 1106.3594,126.8125 Q1107.4531,126.1875 1108.6875,126.1875 Q1109.4219,126.1875 1110.0625,126.3594 Q1110.7188,126.5156 1111.2656,126.875 Z " fill="#000000"/><text fill="#000000" font-family="sans-serif" font-size="14" lengthAdjust="spacing" textLength="121.4063" x="1122.5" y="136.7969">UnbindModelAction</text><line style="stroke:#181818;stroke-width:0.5;" x1="1094.5" x2="1245.9063" y1="147" y2="147"/><line style="stroke:#181818;stroke-width:0.5;" x1="1094.5" x2="1245.9063" y1="155" y2="155"/></g><!--class unbindModuleAction--><g id="elem_unbindModuleAction"><rect codeLine="18" fill="#F1F1F1" height="48" id="unbindModuleAction" rx="2.5" ry="2.5" style="stroke:#181818;stroke-width:0.5;" width="161.1924" x="897.5" y="115"/><ellipse cx="912.5" cy="131" fill="#ADD1B2" rx="11" ry="11" style="stroke:#181818;stroke-width:1.0;"/><path d="M915.2656,126.875 Q915.4219,126.6563 915.6094,126.5469 Q915.7969,126.4375 916.0156,126.4375 Q916.3906,126.4375 916.625,126.7031 Q916.8594,126.9531 916.8594,127.5625 L916.8594,129.0156 Q916.8594,129.625 916.625,129.8906 Q916.3906,130.1563 916.0156,130.1563 Q915.6719,130.1563 915.4688,129.9531 Q915.2656,129.7656 915.1563,129.25 Q915.1094,128.8906 914.9219,128.7031 Q914.5938,128.3281 913.9844,128.1094 Q913.375,127.8906 912.75,127.8906 Q911.9844,127.8906 911.3438,128.2188 Q910.7188,128.5469 910.2188,129.2969 Q909.7344,130.0469 909.7344,131.0781 L909.7344,132.1719 Q909.7344,133.4063 910.625,134.2344 Q911.5156,135.0469 913.1094,135.0469 Q914.0469,135.0469 914.7031,134.7969 Q915.0938,134.6406 915.5156,134.2031 Q915.7813,133.9375 915.9219,133.8594 Q916.0781,133.7813 916.2813,133.7813 Q916.6094,133.7813 916.8594,134.0469 Q917.125,134.2969 917.125,134.6406 Q917.125,134.9844 916.7813,135.3906 Q916.2813,135.9688 915.4844,136.2969 Q914.4063,136.75 913.1094,136.75 Q911.5938,136.75 910.3906,136.125 Q909.4063,135.625 908.7188,134.5625 Q908.0313,133.4844 908.0313,132.2031 L908.0313,131.0469 Q908.0313,129.7188 908.6406,128.5781 Q909.2656,127.4219 910.3594,126.8125 Q911.4531,126.1875 912.6875,126.1875 Q913.4219,126.1875 914.0625,126.3594 Q914.7188,126.5156 915.2656,126.875 Z " fill="#000000"/><text fill="#000000" font-family="sans-serif" font-size="14" lengthAdjust="spacing" textLength="129.1924" x="926.5" y="136.7969">UnbindModuleAction</text><line style="stroke:#181818;stroke-width:0.5;" x1="898.5" x2="1057.6924" y1="147" y2="147"/><line style="stroke:#181818;stroke-width:0.5;" x1="898.5" x2="1057.6924" y1="155" y2="155"/></g><!--class injectableService--><g id="elem_injectableService"><rect codeLine="20" fill="#F1F1F1" height="48" id="injectableService" rx="2.5" ry="2.5" style="stroke:#181818;stroke-width:0.5;" width="138.6133" x="571.5" y="331"/><ellipse cx="586.5" cy="347" fill="#B4A7E5" rx="11" ry="11" style="stroke:#181818;stroke-width:1.0;"/><path d="M587.4531,343.6406 L587.4531,350.2969 L589.1719,350.2969 Q589.7813,350.2969 590.0469,350.5313 Q590.3125,350.7656 590.3125,351.1563 Q590.3125,351.5313 590.0469,351.7656 Q589.7813,352 589.1719,352 L584.0313,352 Q583.4219,352 583.1563,351.7656 Q582.8906,351.5313 582.8906,351.1406 Q582.8906,350.7656 583.1563,350.5313 Q583.4219,350.2969 584.0313,350.2969 L585.75,350.2969 L585.75,343.6406 L584.0313,343.6406 Q583.4219,343.6406 583.1563,343.4063 Q582.8906,343.1719 582.8906,342.7813 Q582.8906,342.4063 583.1563,342.1719 Q583.4219,341.9375 584.0313,341.9375 L589.1719,341.9375 Q589.7813,341.9375 590.0469,342.1719 Q590.3125,342.4063 590.3125,342.7813 Q590.3125,343.1719 590.0469,343.4063 Q589.7813,343.6406 589.1719,343.6406 L587.4531,343.6406 Z " fill="#000000"/><text fill="#000000" font-family="sans-serif" font-size="14" font-style="italic" lengthAdjust="spacing" textLength="106.6133" x="600.5" y="352.7969">InjectableService</text><line style="stroke:#181818;stroke-width:0.5;" x1="572.5" x2="709.1133" y1="363" y2="363"/><line style="stroke:#181818;stroke-width:0.5;" x1="572.5" x2="709.1133" y1="371" y2="371"/></g><g id="elem_GMN42"><path d="M840,17.5 L840,27 L804.7,31 L840,35 L840,44.791 A0,0 0 0 0 840,44.791 L915.8945,44.791 A0,0 0 0 0 915.8945,44.791 L915.8945,27.5 L905.8945,17.5 L840,17.5 A0,0 0 0 0 840,17.5 " fill="#FEFFDD" style="stroke:#181818;stroke-width:0.5;"/><path d="M905.8945,17.5 L905.8945,27.5 L915.8945,27.5 L905.8945,17.5 " fill="#FEFFDD" style="stroke:#181818;stroke-width:0.5;"/><text fill="#000000" font-family="sans-serif" font-size="13" lengthAdjust="spacing" textLength="54.8945" x="846" y="36.5283">MPS GUI</text></g><g id="elem_GMN45"><path d="M137,17.5 L137,44.791 A0,0 0 0 0 137,44.791 L171,44.791 L175,114.62 L179,44.791 L212.8945,44.791 A0,0 0 0 0 212.8945,44.791 L212.8945,27.5 L202.8945,17.5 L137,17.5 A0,0 0 0 0 137,17.5 " fill="#FEFFDD" style="stroke:#181818;stroke-width:0.5;"/><path d="M202.8945,17.5 L202.8945,27.5 L212.8945,27.5 L202.8945,17.5 " fill="#FEFFDD" style="stroke:#181818;stroke-width:0.5;"/><text fill="#000000" font-family="sans-serif" font-size="13" lengthAdjust="spacing" textLength="54.8945" x="143" y="36.5283">MPS GUI</text></g><g id="elem_GMN48"><path d="M316,17.5 L316,44.791 A0,0 0 0 0 316,44.791 L350,44.791 L354,114.62 L358,44.791 L391.8945,44.791 A0,0 0 0 0 391.8945,44.791 L391.8945,27.5 L381.8945,17.5 L316,17.5 A0,0 0 0 0 316,17.5 " fill="#FEFFDD" style="stroke:#181818;stroke-width:0.5;"/><path d="M381.8945,17.5 L381.8945,27.5 L391.8945,27.5 L381.8945,17.5 " fill="#FEFFDD" style="stroke:#181818;stroke-width:0.5;"/><text fill="#000000" font-family="sans-serif" font-size="13" lengthAdjust="spacing" textLength="54.8945" x="322" y="36.5283">MPS GUI</text></g><g id="elem_GMN51"><path d="M1132,17.5 L1132,44.791 A0,0 0 0 0 1132,44.791 L1166,44.791 L1170,114.62 L1174,44.791 L1207.8945,44.791 A0,0 0 0 0 1207.8945,44.791 L1207.8945,27.5 L1197.8945,17.5 L1132,17.5 A0,0 0 0 0 1132,17.5 " fill="#FEFFDD" style="stroke:#181818;stroke-width:0.5;"/><path d="M1197.8945,17.5 L1197.8945,27.5 L1207.8945,27.5 L1197.8945,17.5 " fill="#FEFFDD" style="stroke:#181818;stroke-width:0.5;"/><text fill="#000000" font-family="sans-serif" font-size="13" lengthAdjust="spacing" textLength="54.8945" x="1138" y="36.5283">MPS GUI</text></g><g id="elem_GMN54"><path d="M951,17.5 L951,44.791 A0,0 0 0 0 951,44.791 L983.69,44.791 L980.43,114.62 L991.69,44.791 L1026.8945,44.791 A0,0 0 0 0 1026.8945,44.791 L1026.8945,27.5 L1016.8945,17.5 L951,17.5 A0,0 0 0 0 951,17.5 " fill="#FEFFDD" style="stroke:#181818;stroke-width:0.5;"/><path d="M1016.8945,17.5 L1016.8945,27.5 L1026.8945,27.5 L1016.8945,17.5 " fill="#FEFFDD" style="stroke:#181818;stroke-width:0.5;"/><text fill="#000000" font-family="sans-serif" font-size="13" lengthAdjust="spacing" textLength="54.8945" x="957" y="36.5283">MPS GUI</text></g><g id="elem_GMN57"><path d="M337,449.5 L337,459 L302.03,463 L337,467 L337,476.791 A0,0 0 0 0 337,476.791 L401.3481,476.791 A0,0 0 0 0 401.3481,476.791 L401.3481,459.5 L391.3481,449.5 L337,449.5 A0,0 0 0 0 337,449.5 " fill="#FEFFDD" style="stroke:#181818;stroke-width:0.5;"/><path d="M391.3481,449.5 L391.3481,459.5 L401.3481,459.5 L391.3481,449.5 " fill="#FEFFDD" style="stroke:#181818;stroke-width:0.5;"/><text fill="#000000" font-family="sans-serif" font-size="13" lengthAdjust="spacing" textLength="43.3481" x="343" y="468.5283">sync lib</text></g><g id="elem_GMN60"><path d="M613,233.5 L613,243 L577.71,247 L613,251 L613,260.791 A0,0 0 0 0 613,260.791 L677.3481,260.791 A0,0 0 0 0 677.3481,260.791 L677.3481,243.5 L667.3481,233.5 L613,233.5 A0,0 0 0 0 613,233.5 " fill="#FEFFDD" style="stroke:#181818;stroke-width:0.5;"/><path d="M667.3481,233.5 L667.3481,243.5 L677.3481,243.5 L667.3481,233.5 " fill="#FEFFDD" style="stroke:#181818;stroke-width:0.5;"/><text fill="#000000" font-family="sans-serif" font-size="13" lengthAdjust="spacing" textLength="43.3481" x="619" y="252.5283">sync lib</text></g><g id="elem_GMN63"><path d="M608,449.5 L608,459 L573.22,463 L608,467 L608,476.791 A0,0 0 0 0 608,476.791 L672.3481,476.791 A0,0 0 0 0 672.3481,476.791 L672.3481,459.5 L662.3481,449.5 L608,449.5 A0,0 0 0 0 608,449.5 " fill="#FEFFDD" style="stroke:#181818;stroke-width:0.5;"/><path d="M662.3481,449.5 L662.3481,459.5 L672.3481,459.5 L662.3481,449.5 " fill="#FEFFDD" style="stroke:#181818;stroke-width:0.5;"/><text fill="#000000" font-family="sans-serif" font-size="13" lengthAdjust="spacing" textLength="43.3481" x="614" y="468.5283">sync lib</text></g><g id="elem_GMN66"><path d="M1047,449.5 L1047,459 L1011.53,463 L1047,467 L1047,476.791 A0,0 0 0 0 1047,476.791 L1111.3481,476.791 A0,0 0 0 0 1111.3481,476.791 L1111.3481,459.5 L1101.3481,449.5 L1047,449.5 A0,0 0 0 0 1047,449.5 " fill="#FEFFDD" style="stroke:#181818;stroke-width:0.5;"/><path d="M1101.3481,449.5 L1101.3481,459.5 L1111.3481,459.5 L1101.3481,449.5 " fill="#FEFFDD" style="stroke:#181818;stroke-width:0.5;"/><text fill="#000000" font-family="sans-serif" font-size="13" lengthAdjust="spacing" textLength="43.3481" x="1053" y="468.5283">sync lib</text></g><g id="elem_GMN69"><path d="M6,125.5 L6,152.791 A0,0 0 0 0 6,152.791 L44.2,152.791 L105.03,222.62 L52.2,152.791 L70.3481,152.791 A0,0 0 0 0 70.3481,152.791 L70.3481,135.5 L60.3481,125.5 L6,125.5 A0,0 0 0 0 6,125.5 " fill="#FEFFDD" style="stroke:#181818;stroke-width:0.5;"/><path d="M60.3481,125.5 L60.3481,135.5 L70.3481,135.5 L60.3481,125.5 " fill="#FEFFDD" style="stroke:#181818;stroke-width:0.5;"/><text fill="#000000" font-family="sans-serif" font-size="13" lengthAdjust="spacing" textLength="43.3481" x="12" y="144.5283">sync lib</text></g><g id="elem_GMN72"><path d="M746,341.5 L746,351 L710.57,355 L746,359 L746,368.791 A0,0 0 0 0 746,368.791 L810.3481,368.791 A0,0 0 0 0 810.3481,368.791 L810.3481,351.5 L800.3481,341.5 L746,341.5 A0,0 0 0 0 746,341.5 " fill="#FEFFDD" style="stroke:#181818;stroke-width:0.5;"/><path d="M800.3481,341.5 L800.3481,351.5 L810.3481,351.5 L800.3481,341.5 " fill="#FEFFDD" style="stroke:#181818;stroke-width:0.5;"/><text fill="#000000" font-family="sans-serif" font-size="13" lengthAdjust="spacing" textLength="43.3481" x="752" y="360.5283">sync lib</text></g><!--reverse link iSyncService to syncServiceImpl--><g id="link_iSyncService_syncServiceImpl"><path codeLine="23" d="M144.2098,287.3184 C165.3698,328.4784 200.88,397.58 222.03,438.72 " fill="none" id="iSyncService-backto-syncServiceImpl" style="stroke:#181818;stroke-width:1.0;stroke-dasharray:7.0,7.0;"/><polygon fill="none" points="135.98,271.31,138.8737,290.0617,149.546,284.5752,135.98,271.31" style="stroke:#181818;stroke-width:1.0;"/></g><!--reverse link injectableService to syncServiceImpl--><g id="link_injectableService_syncServiceImpl"><path codeLine="24" d="M554.0147,378.2834 C488.9647,394.9734 406.57,416.23 320,439 C314.17,440.53 308.12,442.13 302.05,443.74 " fill="none" id="injectableService-backto-syncServiceImpl" style="stroke:#181818;stroke-width:1.0;stroke-dasharray:7.0,7.0;"/><polygon fill="none" points="571.45,373.81,552.5236,372.4716,555.5059,384.0952,571.45,373.81" style="stroke:#181818;stroke-width:1.0;"/></g><!--reverse link injectableService to bindingsRegistry--><g id="link_injectableService_bindingsRegistry"><path codeLine="25" d="M723.5142,384.9614 C774.0842,402.7114 826.74,421.19 877.34,438.95 " fill="none" id="injectableService-backto-bindingsRegistry" style="stroke:#181818;stroke-width:1.0;stroke-dasharray:7.0,7.0;"/><polygon fill="none" points="706.53,379,721.527,390.6228,725.5013,379.3,706.53,379" style="stroke:#181818;stroke-width:1.0;"/></g><!--reverse link injectableService to branchRegistry--><g id="link_injectableService_branchRegistry"><path codeLine="26" d="M598.3256,390.271 C576.3356,407.931 560.13,420.94 538.04,438.68 " fill="none" id="injectableService-backto-branchRegistry" style="stroke:#181818;stroke-width:1.0;stroke-dasharray:7.0,7.0;"/><polygon fill="none" points="612.36,379,594.5686,385.5928,602.0825,394.9491,612.36,379" style="stroke:#181818;stroke-width:1.0;"/></g><!--link serviceLocator to syncServiceImpl--><g id="link_serviceLocator_syncServiceImpl"><path codeLine="28" d="M475.1126,278.3796 C421.0426,319.5496 322.9633,394.2447 268.9833,435.3547 " fill="none" id="serviceLocator-syncServiceImpl" style="stroke:#181818;stroke-width:1.0;"/><polygon fill="#181818" points="484.66,271.11,477.4631,271.5623,475.1126,278.3796,482.3095,277.9273,484.66,271.11" style="stroke:#181818;stroke-width:1.0;"/><polygon fill="#181818" points="264.21,438.99,273.7935,436.7193,268.1878,435.9606,268.9465,430.3549,264.21,438.99" style="stroke:#181818;stroke-width:1.0;"/></g><!--link serviceLocator to bindingsRegistry--><g id="link_serviceLocator_bindingsRegistry"><path codeLine="29" d="M589.3128,269.1898 C595.4728,270.8998 590.07,269.39 596,271 C698.79,298.88 737.3,275.18 828,331 C872.84,358.6 906.6041,404.1602 925.7141,433.7402 " fill="none" id="serviceLocator-bindingsRegistry" style="stroke:#181818;stroke-width:1.0;"/><polygon fill="#181818" points="577.75,265.98,582.4614,271.4391,589.3128,269.1898,584.6013,263.7306,577.75,265.98" style="stroke:#181818;stroke-width:1.0;"/><polygon fill="#181818" points="928.97,438.78,927.446,429.0498,926.2567,434.5802,920.7263,433.391,928.97,438.78" style="stroke:#181818;stroke-width:1.0;"/></g><!--link serviceLocator to branchRegistry--><g id="link_serviceLocator_branchRegistry"><path codeLine="30" d="M514.0119,283.3052 C512.8519,324.4652 510.9791,391.5824 509.8191,432.7224 " fill="none" id="serviceLocator-branchRegistry" style="stroke:#181818;stroke-width:1.0;"/><polygon fill="#181818" points="514.35,271.31,510.1826,277.1949,514.0119,283.3052,518.1794,277.4203,514.35,271.31" style="stroke:#181818;stroke-width:1.0;"/><polygon fill="#181818" points="509.65,438.72,513.9021,429.8363,509.7909,433.722,505.9053,429.6108,509.65,438.72" style="stroke:#181818;stroke-width:1.0;"/></g><!--link serviceLocator to injectableService--><g id="link_serviceLocator_injectableService"><path codeLine="31" d="M542.34,271 C563.33,288.66 592.19,312.94 613.28,330.68 " fill="none" id="serviceLocator-injectableService" style="stroke:#181818;stroke-width:1.0;stroke-dasharray:7.0,7.0;"/></g><!--link modelSyncGui to modelSyncService--><g id="link_modelSyncGui_modelSyncService"><path codeLine="33" d="M698.3,55 C663.87,72.72 621.8053,94.365 587.3053,112.115 " fill="none" id="modelSyncGui-to-modelSyncService" style="stroke:#181818;stroke-width:1.0;"/><polygon fill="#181818" points="581.97,114.86,591.8029,114.2994,586.4161,112.5725,588.1429,107.1857,581.97,114.86" style="stroke:#181818;stroke-width:1.0;"/></g><!--link modelSyncService to serviceLocator--><g id="link_modelSyncService_serviceLocator"><path codeLine="34" d="M532.23,163 C528.56,180.66 524.7387,199.0651 521.0587,216.8051 " fill="none" id="modelSyncService-to-serviceLocator" style="stroke:#181818;stroke-width:1.0;stroke-dasharray:7.0,7.0;"/><polygon fill="#181818" points="519.84,222.68,525.5847,214.6801,520.8556,217.7842,517.7514,213.0551,519.84,222.68" style="stroke:#181818;stroke-width:1.0;"/></g><!--link modelSyncService to iSyncService--><g id="link_modelSyncService_iSyncService"><path codeLine="35" d="M462.69,159.07 C381.87,179.82 260.2617,211.0286 186.9217,229.8486 " fill="none" id="modelSyncService-to-iSyncService" style="stroke:#181818;stroke-width:1.0;"/><polygon fill="#181818" points="181.11,231.34,190.8218,232.9774,185.9531,230.0972,188.8333,225.2285,181.11,231.34" style="stroke:#181818;stroke-width:1.0;"/></g><!--link modelSyncGui to bindingsComboBoxRefresher--><g id="link_modelSyncGui_bindingsComboBoxRefresher"><path codeLine="37" d="M734.0831,66.9861 C733.2331,84.6461 734.8347,91.1242 739.3347,108.8642 " fill="none" id="modelSyncGui-bindingsComboBoxRefresher" style="stroke:#181818;stroke-width:1.0;"/><polygon fill="#181818" points="734.66,55,730.3762,60.8008,734.0831,66.9861,738.3669,61.1854,734.66,55" style="stroke:#181818;stroke-width:1.0;"/><polygon fill="#181818" points="740.81,114.68,742.4743,104.9728,739.5806,109.8335,734.7199,106.9398,740.81,114.68" style="stroke:#181818;stroke-width:1.0;"/></g><!--link bindingsComboBoxRefresher to modelSyncGui--><g id="link_bindingsComboBoxRefresher_modelSyncGui"><path codeLine="38" d="M762.99,114.68 C763.95,96.94 762.957,78.4598 758.277,60.7998 " fill="none" id="bindingsComboBoxRefresher-to-modelSyncGui" style="stroke:#181818;stroke-width:1.0;"/><polygon fill="#181818" points="756.74,55,755.1789,64.7244,758.0208,59.8332,762.912,62.675,756.74,55" style="stroke:#181818;stroke-width:1.0;"/></g><!--link bindingsComboBoxRefresher to serviceLocator--><g id="link_bindingsComboBoxRefresher_serviceLocator"><path codeLine="39" d="M702.14,163 C662.19,180.72 612.685,202.6779 572.655,220.4279 " fill="none" id="bindingsComboBoxRefresher-to-serviceLocator" style="stroke:#181818;stroke-width:1.0;stroke-dasharray:7.0,7.0;"/><polygon fill="#181818" points="567.17,222.86,577.0189,222.8684,571.7408,220.8332,573.776,215.5552,567.17,222.86" style="stroke:#181818;stroke-width:1.0;"/></g><!--link bindingsComboBoxRefresher to bindingsRegistry--><g id="link_bindingsComboBoxRefresher_bindingsRegistry"><path codeLine="40" d="M827.64,163.14 C857.14,176.11 888.66,195.39 908,223 C954.79,289.81 951.2893,387.091 946.6193,432.841 " fill="none" id="bindingsComboBoxRefresher-to-bindingsRegistry" style="stroke:#181818;stroke-width:1.0;"/><polygon fill="#181818" points="946.01,438.81,950.9033,430.2627,946.5177,433.8358,942.9446,429.4503,946.01,438.81" style="stroke:#181818;stroke-width:1.0;"/></g><!--link bindingsComboBoxRefresher to bindingsSortComparator--><g id="link_bindingsComboBoxRefresher_bindingsSortComparator"><path codeLine="41" d="M764.2,163 C772.03,180.66 780.3569,199.4555 788.2269,217.1955 " fill="none" id="bindingsComboBoxRefresher-to-bindingsSortComparator" style="stroke:#181818;stroke-width:1.0;"/><polygon fill="#181818" points="790.66,222.68,790.6667,212.8311,788.6324,218.1096,783.354,216.0753,790.66,222.68" style="stroke:#181818;stroke-width:1.0;"/></g><!--link modelSyncAction to serviceLocator--><g id="link_modelSyncAction_serviceLocator"><path codeLine="43" d="M245.04,161.83 C306.08,180.86 388.0518,206.4245 446.7618,224.7245 " fill="none" id="modelSyncAction-to-serviceLocator" style="stroke:#181818;stroke-width:1.0;stroke-dasharray:7.0,7.0;"/><polygon fill="#181818" points="452.49,226.51,445.0881,220.013,447.7165,225.0221,442.7074,227.6506,452.49,226.51" style="stroke:#181818;stroke-width:1.0;"/></g><!--link modelSyncAction to branchRegistry--><g id="link_modelSyncAction_branchRegistry"><path codeLine="44" d="M199.02,163.16 C260.5,222.42 418.7004,374.9457 480.4304,434.4557 " fill="none" id="modelSyncAction-to-branchRegistry" style="stroke:#181818;stroke-width:1.0;stroke-dasharray:7.0,7.0;"/><polygon fill="#181818" points="484.75,438.62,481.0468,429.4939,481.1503,435.1498,475.4944,435.2534,484.75,438.62" style="stroke:#181818;stroke-width:1.0;"/></g><!--link modelSyncAction to syncServiceImpl--><g id="link_modelSyncAction_syncServiceImpl"><path codeLine="45" d="M117.2,163.08 C91.75,176.5 64.41,196.14 50,223 C39.92,241.8 42.02,251.22 50,271 C80.05,345.51 149.7464,403.7042 194.1864,435.4242 " fill="none" id="modelSyncAction-to-syncServiceImpl" style="stroke:#181818;stroke-width:1.0;stroke-dasharray:7.0,7.0;"/><polygon fill="#181818" points="199.07,438.91,194.0685,430.4256,195.0003,436.0052,189.4208,436.9371,199.07,438.91" style="stroke:#181818;stroke-width:1.0;"/></g><!--link moduleSyncAction to serviceLocator--><g id="link_moduleSyncAction_serviceLocator"><path codeLine="47" d="M388.93,163 C415.85,180.72 447.8781,201.8114 474.8481,219.5614 " fill="none" id="moduleSyncAction-to-serviceLocator" style="stroke:#181818;stroke-width:1.0;stroke-dasharray:7.0,7.0;"/><polygon fill="#181818" points="479.86,222.86,474.5411,214.5709,475.6834,220.1112,470.1431,221.2535,479.86,222.86" style="stroke:#181818;stroke-width:1.0;"/></g><!--link moduleSyncAction to branchRegistry--><g id="link_moduleSyncAction_branchRegistry"><path codeLine="48" d="M365.15,163.16 C393.68,222.42 466.4973,373.7039 495.1473,433.2139 " fill="none" id="moduleSyncAction-to-branchRegistry" style="stroke:#181818;stroke-width:1.0;stroke-dasharray:7.0,7.0;"/><polygon fill="#181818" points="497.75,438.62,497.4501,428.7757,495.5811,434.1149,490.2419,432.2459,497.75,438.62" style="stroke:#181818;stroke-width:1.0;"/></g><!--link moduleSyncAction to syncServiceImpl--><g id="link_moduleSyncAction_syncServiceImpl"><path codeLine="49" d="M345.37,163.16 C323.28,222.42 266.9855,373.4878 244.8055,432.9978 " fill="none" id="moduleSyncAction-to-syncServiceImpl" style="stroke:#181818;stroke-width:1.0;stroke-dasharray:7.0,7.0;"/><polygon fill="#181818" points="242.71,438.62,249.6013,431.5837,244.4562,433.9348,242.105,428.7897,242.71,438.62" style="stroke:#181818;stroke-width:1.0;"/></g><!--link unbindModelAction to serviceLocator--><g id="link_unbindModelAction_serviceLocator"><path codeLine="51" d="M1093.46,159.5 C1087.57,160.77 1081.7,161.95 1076,163 C864.56,201.95 806.69,180.18 596,223 C589.98,224.22 589.5786,224.196 583.3786,225.756 " fill="none" id="unbindModelAction-to-serviceLocator" style="stroke:#181818;stroke-width:1.0;stroke-dasharray:7.0,7.0;"/><polygon fill="#181818" points="577.56,227.22,587.264,228.903,582.4089,226,585.3119,221.1448,577.56,227.22" style="stroke:#181818;stroke-width:1.0;"/></g><!--link unbindModelAction to bindingsRegistry--><g id="link_unbindModelAction_bindingsRegistry"><path codeLine="52" d="M1153.67,163.16 C1111.89,222.42 1004.8975,374.2064 962.9375,433.7164 " fill="none" id="unbindModelAction-to-bindingsRegistry" style="stroke:#181818;stroke-width:1.0;stroke-dasharray:7.0,7.0;"/><polygon fill="#181818" points="959.48,438.62,967.9354,433.5696,962.3613,434.5336,961.3972,428.9595,959.48,438.62" style="stroke:#181818;stroke-width:1.0;"/></g><!--link unbindModuleAction to serviceLocator--><g id="link_unbindModuleAction_serviceLocator"><path codeLine="54" d="M897.28,159.1 C891.44,160.43 885.63,161.75 880,163 C754.08,191.07 721.24,192.03 596,223 C590.04,224.47 589.6546,224.5235 583.4746,226.1835 " fill="none" id="unbindModuleAction-to-serviceLocator" style="stroke:#181818;stroke-width:1.0;stroke-dasharray:7.0,7.0;"/><polygon fill="#181818" points="577.68,227.74,587.4096,229.2683,582.5088,226.4429,585.3342,221.5422,577.68,227.74" style="stroke:#181818;stroke-width:1.0;"/></g><!--link unbindModuleAction to bindingsRegistry--><g id="link_unbindModuleAction_bindingsRegistry"><path codeLine="55" d="M979.16,163.28 C980.85,206.27 982.46,300.84 969,379 C965.44,399.68 960.1332,416.7422 954.1532,433.1622 " fill="none" id="unbindModuleAction-to-bindingsRegistry" style="stroke:#181818;stroke-width:1.0;stroke-dasharray:7.0,7.0;"/><polygon fill="#181818" points="952.1,438.8,958.9383,431.7122,953.811,434.1019,951.4213,428.9746,952.1,438.8" style="stroke:#181818;stroke-width:1.0;"/></g><!--SRC=[bPNTQW8n48NlynJ1cuM2VG0fGYr5X5gAYm-GZL5JraIIM2hquRi_kitC9BQzMZZvScOocSaMpoRee9KlcAo5ztoqj1jLbsSZvoSzuiBpGoGGg5JkGqi5mOl8c3P1kQsGYeyMcDOnUR6DfCNXM7USXneRs5vxiL84wteKI5Tmfir6cvrVgPtsmPqxj4BY03jXv1wYG6BOziaUAZkpdokrTShlbGF-P1LjBwqB3NCKRZZ5TIjSOgJqZp9eQs3bUor2JxMYB12lyDgqWJltY3vXbU2DMOeVPDW5vbt98AecWRWLiCfOiLArQBStZHbt2d_ukhydFK4C_eMHNiXng15Wk_6xyNXAGgOO4Yy9mM08QR9952sULDwQa8d4GcCqnMD3cDO9J2iC1Cv4-psx0ZDi7vSycaZpjY-fyTzmF7Dei6wMAqBGvILTyBE6vp8JYp8qMC87HoDpdGgNXaXf6HtwcswGedR5gmtj3yaq7-xqRX-utO9EcV3bMyddwqNF17i4HE-UXK1vqXGv-I_OSAGV3gMFRc3I2RpM5UP0qR8OlFGyXegBmSivukdEUf479oA_0G00]--></g></svg>
