<svg xmlns="http://www.w3.org/2000/svg" xmlns:xlink="http://www.w3.org/1999/xlink" contentStyleType="text/css" height="386px" preserveAspectRatio="none" style="width:1163px;height:386px;background:#FFFFFF;" version="1.1" viewBox="0 0 1163 386" width="1163px" zoomAndPan="magnify"><defs/><g><!--class modelSyncGui--><g id="elem_modelSyncGui"><rect codeLine="2" fill="#F1F1F1" height="48" id="modelSyncGui" rx="2.5" ry="2.5" style="stroke:#181818;stroke-width:0.5;" width="123.041" x="979.5" y="7"/><ellipse cx="994.5" cy="23" fill="#ADD1B2" rx="11" ry="11" style="stroke:#181818;stroke-width:1.0;"/><path d="M997.2656,18.875 Q997.4219,18.6563 997.6094,18.5469 Q997.7969,18.4375 998.0156,18.4375 Q998.3906,18.4375 998.625,18.7031 Q998.8594,18.9531 998.8594,19.5625 L998.8594,21.0156 Q998.8594,21.625 998.625,21.8906 Q998.3906,22.1563 998.0156,22.1563 Q997.6719,22.1563 997.4688,21.9531 Q997.2656,21.7656 997.1563,21.25 Q997.1094,20.8906 996.9219,20.7031 Q996.5938,20.3281 995.9844,20.1094 Q995.375,19.8906 994.75,19.8906 Q993.9844,19.8906 993.3438,20.2188 Q992.7188,20.5469 992.2188,21.2969 Q991.7344,22.0469 991.7344,23.0781 L991.7344,24.1719 Q991.7344,25.4063 992.625,26.2344 Q993.5156,27.0469 995.1094,27.0469 Q996.0469,27.0469 996.7031,26.7969 Q997.0938,26.6406 997.5156,26.2031 Q997.7813,25.9375 997.9219,25.8594 Q998.0781,25.7813 998.2813,25.7813 Q998.6094,25.7813 998.8594,26.0469 Q999.125,26.2969 999.125,26.6406 Q999.125,26.9844 998.7813,27.3906 Q998.2813,27.9688 997.4844,28.2969 Q996.4063,28.75 995.1094,28.75 Q993.5938,28.75 992.3906,28.125 Q991.4063,27.625 990.7188,26.5625 Q990.0313,25.4844 990.0313,24.2031 L990.0313,23.0469 Q990.0313,21.7188 990.6406,20.5781 Q991.2656,19.4219 992.3594,18.8125 Q993.4531,18.1875 994.6875,18.1875 Q995.4219,18.1875 996.0625,18.3594 Q996.7188,18.5156 997.2656,18.875 Z " fill="#000000"/><text fill="#000000" font-family="sans-serif" font-size="14" lengthAdjust="spacing" textLength="91.041" x="1008.5" y="28.7969">ModelSyncGui</text><line style="stroke:#181818;stroke-width:0.5;" x1="980.5" x2="1101.541" y1="39" y2="39"/><line style="stroke:#181818;stroke-width:0.5;" x1="980.5" x2="1101.541" y1="47" y2="47"/></g><!--class modelSyncService--><g id="elem_modelSyncService"><rect codeLine="3" fill="#F1F1F1" height="48" id="modelSyncService" rx="2.5" ry="2.5" style="stroke:#181818;stroke-width:0.5;" width="147.9375" x="750" y="115"/><ellipse cx="765" cy="131" fill="#ADD1B2" rx="11" ry="11" style="stroke:#181818;stroke-width:1.0;"/><path d="M767.7656,126.875 Q767.9219,126.6563 768.1094,126.5469 Q768.2969,126.4375 768.5156,126.4375 Q768.8906,126.4375 769.125,126.7031 Q769.3594,126.9531 769.3594,127.5625 L769.3594,129.0156 Q769.3594,129.625 769.125,129.8906 Q768.8906,130.1563 768.5156,130.1563 Q768.1719,130.1563 767.9688,129.9531 Q767.7656,129.7656 767.6563,129.25 Q767.6094,128.8906 767.4219,128.7031 Q767.0938,128.3281 766.4844,128.1094 Q765.875,127.8906 765.25,127.8906 Q764.4844,127.8906 763.8438,128.2188 Q763.2188,128.5469 762.7188,129.2969 Q762.2344,130.0469 762.2344,131.0781 L762.2344,132.1719 Q762.2344,133.4063 763.125,134.2344 Q764.0156,135.0469 765.6094,135.0469 Q766.5469,135.0469 767.2031,134.7969 Q767.5938,134.6406 768.0156,134.2031 Q768.2813,133.9375 768.4219,133.8594 Q768.5781,133.7813 768.7813,133.7813 Q769.1094,133.7813 769.3594,134.0469 Q769.625,134.2969 769.625,134.6406 Q769.625,134.9844 769.2813,135.3906 Q768.7813,135.9688 767.9844,136.2969 Q766.9063,136.75 765.6094,136.75 Q764.0938,136.75 762.8906,136.125 Q761.9063,135.625 761.2188,134.5625 Q760.5313,133.4844 760.5313,132.2031 L760.5313,131.0469 Q760.5313,129.7188 761.1406,128.5781 Q761.7656,127.4219 762.8594,126.8125 Q763.9531,126.1875 765.1875,126.1875 Q765.9219,126.1875 766.5625,126.3594 Q767.2188,126.5156 767.7656,126.875 Z " fill="#000000"/><text fill="#000000" font-family="sans-serif" font-size="14" lengthAdjust="spacing" textLength="115.9375" x="779" y="136.7969">ModelSyncService</text><line style="stroke:#181818;stroke-width:0.5;" x1="751" x2="896.9375" y1="147" y2="147"/><line style="stroke:#181818;stroke-width:0.5;" x1="751" x2="896.9375" y1="155" y2="155"/></g><!--class iSyncService--><g id="elem_iSyncService"><rect codeLine="5" fill="#F1F1F1" height="48" id="iSyncService" rx="2.5" ry="2.5" style="stroke:#181818;stroke-width:0.5;" width="113.6963" x="758" y="223"/><ellipse cx="773" cy="239" fill="#B4A7E5" rx="11" ry="11" style="stroke:#181818;stroke-width:1.0;"/><path d="M773.9531,235.6406 L773.9531,242.2969 L775.6719,242.2969 Q776.2813,242.2969 776.5469,242.5313 Q776.8125,242.7656 776.8125,243.1563 Q776.8125,243.5313 776.5469,243.7656 Q776.2813,244 775.6719,244 L770.5313,244 Q769.9219,244 769.6563,243.7656 Q769.3906,243.5313 769.3906,243.1406 Q769.3906,242.7656 769.6563,242.5313 Q769.9219,242.2969 770.5313,242.2969 L772.25,242.2969 L772.25,235.6406 L770.5313,235.6406 Q769.9219,235.6406 769.6563,235.4063 Q769.3906,235.1719 769.3906,234.7813 Q769.3906,234.4063 769.6563,234.1719 Q769.9219,233.9375 770.5313,233.9375 L775.6719,233.9375 Q776.2813,233.9375 776.5469,234.1719 Q776.8125,234.4063 776.8125,234.7813 Q776.8125,235.1719 776.5469,235.4063 Q776.2813,235.6406 775.6719,235.6406 L773.9531,235.6406 Z " fill="#000000"/><text fill="#000000" font-family="sans-serif" font-size="14" font-style="italic" lengthAdjust="spacing" textLength="81.6963" x="787" y="244.7969">ISyncService</text><line style="stroke:#181818;stroke-width:0.5;" x1="759" x2="870.6963" y1="255" y2="255"/><line style="stroke:#181818;stroke-width:0.5;" x1="759" x2="870.6963" y1="263" y2="263"/></g><!--class syncServiceImpl--><g id="elem_syncServiceImpl"><rect codeLine="6" fill="#F1F1F1" height="48" id="syncServiceImpl" rx="2.5" ry="2.5" style="stroke:#181818;stroke-width:0.5;" width="136.2549" x="310" y="331"/><ellipse cx="325" cy="347" fill="#ADD1B2" rx="11" ry="11" style="stroke:#181818;stroke-width:1.0;"/><path d="M327.7656,342.875 Q327.9219,342.6563 328.1094,342.5469 Q328.2969,342.4375 328.5156,342.4375 Q328.8906,342.4375 329.125,342.7031 Q329.3594,342.9531 329.3594,343.5625 L329.3594,345.0156 Q329.3594,345.625 329.125,345.8906 Q328.8906,346.1563 328.5156,346.1563 Q328.1719,346.1563 327.9688,345.9531 Q327.7656,345.7656 327.6563,345.25 Q327.6094,344.8906 327.4219,344.7031 Q327.0938,344.3281 326.4844,344.1094 Q325.875,343.8906 325.25,343.8906 Q324.4844,343.8906 323.8438,344.2188 Q323.2188,344.5469 322.7188,345.2969 Q322.2344,346.0469 322.2344,347.0781 L322.2344,348.1719 Q322.2344,349.4063 323.125,350.2344 Q324.0156,351.0469 325.6094,351.0469 Q326.5469,351.0469 327.2031,350.7969 Q327.5938,350.6406 328.0156,350.2031 Q328.2813,349.9375 328.4219,349.8594 Q328.5781,349.7813 328.7813,349.7813 Q329.1094,349.7813 329.3594,350.0469 Q329.625,350.2969 329.625,350.6406 Q329.625,350.9844 329.2813,351.3906 Q328.7813,351.9688 327.9844,352.2969 Q326.9063,352.75 325.6094,352.75 Q324.0938,352.75 322.8906,352.125 Q321.9063,351.625 321.2188,350.5625 Q320.5313,349.4844 320.5313,348.2031 L320.5313,347.0469 Q320.5313,345.7188 321.1406,344.5781 Q321.7656,343.4219 322.8594,342.8125 Q323.9531,342.1875 325.1875,342.1875 Q325.9219,342.1875 326.5625,342.3594 Q327.2188,342.5156 327.7656,342.875 Z " fill="#000000"/><text fill="#000000" font-family="sans-serif" font-size="14" lengthAdjust="spacing" textLength="104.2549" x="339" y="352.7969">SyncServiceImpl</text><line style="stroke:#181818;stroke-width:0.5;" x1="311" x2="445.2549" y1="363" y2="363"/><line style="stroke:#181818;stroke-width:0.5;" x1="311" x2="445.2549" y1="371" y2="371"/></g><!--class serviceLocator--><g id="elem_serviceLocator"><rect codeLine="8" fill="#F1F1F1" height="48" id="serviceLocator" rx="2.5" ry="2.5" style="stroke:#181818;stroke-width:0.5;" width="125.3789" x="347.5" y="223"/><ellipse cx="362.5" cy="239" fill="#ADD1B2" rx="11" ry="11" style="stroke:#181818;stroke-width:1.0;"/><path d="M365.2656,234.875 Q365.4219,234.6563 365.6094,234.5469 Q365.7969,234.4375 366.0156,234.4375 Q366.3906,234.4375 366.625,234.7031 Q366.8594,234.9531 366.8594,235.5625 L366.8594,237.0156 Q366.8594,237.625 366.625,237.8906 Q366.3906,238.1563 366.0156,238.1563 Q365.6719,238.1563 365.4688,237.9531 Q365.2656,237.7656 365.1563,237.25 Q365.1094,236.8906 364.9219,236.7031 Q364.5938,236.3281 363.9844,236.1094 Q363.375,235.8906 362.75,235.8906 Q361.9844,235.8906 361.3438,236.2188 Q360.7188,236.5469 360.2188,237.2969 Q359.7344,238.0469 359.7344,239.0781 L359.7344,240.1719 Q359.7344,241.4063 360.625,242.2344 Q361.5156,243.0469 363.1094,243.0469 Q364.0469,243.0469 364.7031,242.7969 Q365.0938,242.6406 365.5156,242.2031 Q365.7813,241.9375 365.9219,241.8594 Q366.0781,241.7813 366.2813,241.7813 Q366.6094,241.7813 366.8594,242.0469 Q367.125,242.2969 367.125,242.6406 Q367.125,242.9844 366.7813,243.3906 Q366.2813,243.9688 365.4844,244.2969 Q364.4063,244.75 363.1094,244.75 Q361.5938,244.75 360.3906,244.125 Q359.4063,243.625 358.7188,242.5625 Q358.0313,241.4844 358.0313,240.2031 L358.0313,239.0469 Q358.0313,237.7188 358.6406,236.5781 Q359.2656,235.4219 360.3594,234.8125 Q361.4531,234.1875 362.6875,234.1875 Q363.4219,234.1875 364.0625,234.3594 Q364.7188,234.5156 365.2656,234.875 Z " fill="#000000"/><text fill="#000000" font-family="sans-serif" font-size="14" lengthAdjust="spacing" textLength="93.3789" x="376.5" y="244.7969">ServiceLocator</text><line style="stroke:#181818;stroke-width:0.5;" x1="348.5" x2="471.8789" y1="255" y2="255"/><line style="stroke:#181818;stroke-width:0.5;" x1="348.5" x2="471.8789" y1="263" y2="263"/></g><!--class bindingsRegistry--><g id="elem_bindingsRegistry"><rect codeLine="9" fill="#F1F1F1" height="48" id="bindingsRegistry" rx="2.5" ry="2.5" style="stroke:#181818;stroke-width:0.5;" width="137.0479" x="580.5" y="331"/><ellipse cx="595.5" cy="347" fill="#ADD1B2" rx="11" ry="11" style="stroke:#181818;stroke-width:1.0;"/><path d="M598.2656,342.875 Q598.4219,342.6563 598.6094,342.5469 Q598.7969,342.4375 599.0156,342.4375 Q599.3906,342.4375 599.625,342.7031 Q599.8594,342.9531 599.8594,343.5625 L599.8594,345.0156 Q599.8594,345.625 599.625,345.8906 Q599.3906,346.1563 599.0156,346.1563 Q598.6719,346.1563 598.4688,345.9531 Q598.2656,345.7656 598.1563,345.25 Q598.1094,344.8906 597.9219,344.7031 Q597.5938,344.3281 596.9844,344.1094 Q596.375,343.8906 595.75,343.8906 Q594.9844,343.8906 594.3438,344.2188 Q593.7188,344.5469 593.2188,345.2969 Q592.7344,346.0469 592.7344,347.0781 L592.7344,348.1719 Q592.7344,349.4063 593.625,350.2344 Q594.5156,351.0469 596.1094,351.0469 Q597.0469,351.0469 597.7031,350.7969 Q598.0938,350.6406 598.5156,350.2031 Q598.7813,349.9375 598.9219,349.8594 Q599.0781,349.7813 599.2813,349.7813 Q599.6094,349.7813 599.8594,350.0469 Q600.125,350.2969 600.125,350.6406 Q600.125,350.9844 599.7813,351.3906 Q599.2813,351.9688 598.4844,352.2969 Q597.4063,352.75 596.1094,352.75 Q594.5938,352.75 593.3906,352.125 Q592.4063,351.625 591.7188,350.5625 Q591.0313,349.4844 591.0313,348.2031 L591.0313,347.0469 Q591.0313,345.7188 591.6406,344.5781 Q592.2656,343.4219 593.3594,342.8125 Q594.4531,342.1875 595.6875,342.1875 Q596.4219,342.1875 597.0625,342.3594 Q597.7188,342.5156 598.2656,342.875 Z " fill="#000000"/><text fill="#000000" font-family="sans-serif" font-size="14" lengthAdjust="spacing" textLength="105.0479" x="609.5" y="352.7969">BindingsRegistry</text><line style="stroke:#181818;stroke-width:0.5;" x1="581.5" x2="716.5479" y1="363" y2="363"/><line style="stroke:#181818;stroke-width:0.5;" x1="581.5" x2="716.5479" y1="371" y2="371"/></g><!--class branchRegistry--><g id="elem_branchRegistry"><rect codeLine="10" fill="#F1F1F1" height="48" id="branchRegistry" rx="2.5" ry="2.5" style="stroke:#181818;stroke-width:0.5;" width="127.7031" x="48" y="331"/><ellipse cx="63" cy="347" fill="#ADD1B2" rx="11" ry="11" style="stroke:#181818;stroke-width:1.0;"/><path d="M65.7656,342.875 Q65.9219,342.6563 66.1094,342.5469 Q66.2969,342.4375 66.5156,342.4375 Q66.8906,342.4375 67.125,342.7031 Q67.3594,342.9531 67.3594,343.5625 L67.3594,345.0156 Q67.3594,345.625 67.125,345.8906 Q66.8906,346.1563 66.5156,346.1563 Q66.1719,346.1563 65.9688,345.9531 Q65.7656,345.7656 65.6563,345.25 Q65.6094,344.8906 65.4219,344.7031 Q65.0938,344.3281 64.4844,344.1094 Q63.875,343.8906 63.25,343.8906 Q62.4844,343.8906 61.8438,344.2188 Q61.2188,344.5469 60.7188,345.2969 Q60.2344,346.0469 60.2344,347.0781 L60.2344,348.1719 Q60.2344,349.4063 61.125,350.2344 Q62.0156,351.0469 63.6094,351.0469 Q64.5469,351.0469 65.2031,350.7969 Q65.5938,350.6406 66.0156,350.2031 Q66.2813,349.9375 66.4219,349.8594 Q66.5781,349.7813 66.7813,349.7813 Q67.1094,349.7813 67.3594,350.0469 Q67.625,350.2969 67.625,350.6406 Q67.625,350.9844 67.2813,351.3906 Q66.7813,351.9688 65.9844,352.2969 Q64.9063,352.75 63.6094,352.75 Q62.0938,352.75 60.8906,352.125 Q59.9063,351.625 59.2188,350.5625 Q58.5313,349.4844 58.5313,348.2031 L58.5313,347.0469 Q58.5313,345.7188 59.1406,344.5781 Q59.7656,343.4219 60.8594,342.8125 Q61.9531,342.1875 63.1875,342.1875 Q63.9219,342.1875 64.5625,342.3594 Q65.2188,342.5156 65.7656,342.875 Z " fill="#000000"/><text fill="#000000" font-family="sans-serif" font-size="14" lengthAdjust="spacing" textLength="95.7031" x="77" y="352.7969">BranchRegistry</text><line style="stroke:#181818;stroke-width:0.5;" x1="49" x2="174.7031" y1="363" y2="363"/><line style="stroke:#181818;stroke-width:0.5;" x1="49" x2="174.7031" y1="371" y2="371"/></g><!--class bindingsComboBoxRefresher--><g id="elem_bindingsComboBoxRefresher"><rect codeLine="12" fill="#F1F1F1" height="48" id="bindingsComboBoxRefresher" rx="2.5" ry="2.5" style="stroke:#181818;stroke-width:0.5;" width="216.4268" x="933" y="115"/><ellipse cx="948" cy="131" fill="#ADD1B2" rx="11" ry="11" style="stroke:#181818;stroke-width:1.0;"/><path d="M950.7656,126.875 Q950.9219,126.6563 951.1094,126.5469 Q951.2969,126.4375 951.5156,126.4375 Q951.8906,126.4375 952.125,126.7031 Q952.3594,126.9531 952.3594,127.5625 L952.3594,129.0156 Q952.3594,129.625 952.125,129.8906 Q951.8906,130.1563 951.5156,130.1563 Q951.1719,130.1563 950.9688,129.9531 Q950.7656,129.7656 950.6563,129.25 Q950.6094,128.8906 950.4219,128.7031 Q950.0938,128.3281 949.4844,128.1094 Q948.875,127.8906 948.25,127.8906 Q947.4844,127.8906 946.8438,128.2188 Q946.2188,128.5469 945.7188,129.2969 Q945.2344,130.0469 945.2344,131.0781 L945.2344,132.1719 Q945.2344,133.4063 946.125,134.2344 Q947.0156,135.0469 948.6094,135.0469 Q949.5469,135.0469 950.2031,134.7969 Q950.5938,134.6406 951.0156,134.2031 Q951.2813,133.9375 951.4219,133.8594 Q951.5781,133.7813 951.7813,133.7813 Q952.1094,133.7813 952.3594,134.0469 Q952.625,134.2969 952.625,134.6406 Q952.625,134.9844 952.2813,135.3906 Q951.7813,135.9688 950.9844,136.2969 Q949.9063,136.75 948.6094,136.75 Q947.0938,136.75 945.8906,136.125 Q944.9063,135.625 944.2188,134.5625 Q943.5313,133.4844 943.5313,132.2031 L943.5313,131.0469 Q943.5313,129.7188 944.1406,128.5781 Q944.7656,127.4219 945.8594,126.8125 Q946.9531,126.1875 948.1875,126.1875 Q948.9219,126.1875 949.5625,126.3594 Q950.2188,126.5156 950.7656,126.875 Z " fill="#000000"/><text fill="#000000" font-family="sans-serif" font-size="14" lengthAdjust="spacing" textLength="184.4268" x="962" y="136.7969">BindingsComboBoxRefresher</text><line style="stroke:#181818;stroke-width:0.5;" x1="934" x2="1148.4268" y1="147" y2="147"/><line style="stroke:#181818;stroke-width:0.5;" x1="934" x2="1148.4268" y1="155" y2="155"/></g><!--class bindingsSortComparator--><g id="elem_bindingsSortComparator"><rect codeLine="13" fill="#F1F1F1" height="48" id="bindingsSortComparator" rx="2.5" ry="2.5" style="stroke:#181818;stroke-width:0.5;" width="178.2959" x="978" y="223"/><ellipse cx="993" cy="239" fill="#ADD1B2" rx="11" ry="11" style="stroke:#181818;stroke-width:1.0;"/><path d="M995.7656,234.875 Q995.9219,234.6563 996.1094,234.5469 Q996.2969,234.4375 996.5156,234.4375 Q996.8906,234.4375 997.125,234.7031 Q997.3594,234.9531 997.3594,235.5625 L997.3594,237.0156 Q997.3594,237.625 997.125,237.8906 Q996.8906,238.1563 996.5156,238.1563 Q996.1719,238.1563 995.9688,237.9531 Q995.7656,237.7656 995.6563,237.25 Q995.6094,236.8906 995.4219,236.7031 Q995.0938,236.3281 994.4844,236.1094 Q993.875,235.8906 993.25,235.8906 Q992.4844,235.8906 991.8438,236.2188 Q991.2188,236.5469 990.7188,237.2969 Q990.2344,238.0469 990.2344,239.0781 L990.2344,240.1719 Q990.2344,241.4063 991.125,242.2344 Q992.0156,243.0469 993.6094,243.0469 Q994.5469,243.0469 995.2031,242.7969 Q995.5938,242.6406 996.0156,242.2031 Q996.2813,241.9375 996.4219,241.8594 Q996.5781,241.7813 996.7813,241.7813 Q997.1094,241.7813 997.3594,242.0469 Q997.625,242.2969 997.625,242.6406 Q997.625,242.9844 997.2813,243.3906 Q996.7813,243.9688 995.9844,244.2969 Q994.9063,244.75 993.6094,244.75 Q992.0938,244.75 990.8906,244.125 Q989.9063,243.625 989.2188,242.5625 Q988.5313,241.4844 988.5313,240.2031 L988.5313,239.0469 Q988.5313,237.7188 989.1406,236.5781 Q989.7656,235.4219 990.8594,234.8125 Q991.9531,234.1875 993.1875,234.1875 Q993.9219,234.1875 994.5625,234.3594 Q995.2188,234.5156 995.7656,234.875 Z " fill="#000000"/><text fill="#000000" font-family="sans-serif" font-size="14" lengthAdjust="spacing" textLength="146.2959" x="1007" y="244.7969">BindingSortComparator</text><line style="stroke:#181818;stroke-width:0.5;" x1="979" x2="1155.2959" y1="255" y2="255"/><line style="stroke:#181818;stroke-width:0.5;" x1="979" x2="1155.2959" y1="263" y2="263"/></g><!--class modelSyncAction--><g id="elem_modelSyncAction"><rect codeLine="15" fill="#F1F1F1" height="48" id="modelSyncAction" rx="2.5" ry="2.5" style="stroke:#181818;stroke-width:0.5;" width="140.165" x="190" y="115"/><ellipse cx="205" cy="131" fill="#ADD1B2" rx="11" ry="11" style="stroke:#181818;stroke-width:1.0;"/><path d="M207.7656,126.875 Q207.9219,126.6563 208.1094,126.5469 Q208.2969,126.4375 208.5156,126.4375 Q208.8906,126.4375 209.125,126.7031 Q209.3594,126.9531 209.3594,127.5625 L209.3594,129.0156 Q209.3594,129.625 209.125,129.8906 Q208.8906,130.1563 208.5156,130.1563 Q208.1719,130.1563 207.9688,129.9531 Q207.7656,129.7656 207.6563,129.25 Q207.6094,128.8906 207.4219,128.7031 Q207.0938,128.3281 206.4844,128.1094 Q205.875,127.8906 205.25,127.8906 Q204.4844,127.8906 203.8438,128.2188 Q203.2188,128.5469 202.7188,129.2969 Q202.2344,130.0469 202.2344,131.0781 L202.2344,132.1719 Q202.2344,133.4063 203.125,134.2344 Q204.0156,135.0469 205.6094,135.0469 Q206.5469,135.0469 207.2031,134.7969 Q207.5938,134.6406 208.0156,134.2031 Q208.2813,133.9375 208.4219,133.8594 Q208.5781,133.7813 208.7813,133.7813 Q209.1094,133.7813 209.3594,134.0469 Q209.625,134.2969 209.625,134.6406 Q209.625,134.9844 209.2813,135.3906 Q208.7813,135.9688 207.9844,136.2969 Q206.9063,136.75 205.6094,136.75 Q204.0938,136.75 202.8906,136.125 Q201.9063,135.625 201.2188,134.5625 Q200.5313,133.4844 200.5313,132.2031 L200.5313,131.0469 Q200.5313,129.7188 201.1406,128.5781 Q201.7656,127.4219 202.8594,126.8125 Q203.9531,126.1875 205.1875,126.1875 Q205.9219,126.1875 206.5625,126.3594 Q207.2188,126.5156 207.7656,126.875 Z " fill="#000000"/><text fill="#000000" font-family="sans-serif" font-size="14" lengthAdjust="spacing" textLength="108.165" x="219" y="136.7969">ModelSyncAction</text><line style="stroke:#181818;stroke-width:0.5;" x1="191" x2="329.165" y1="147" y2="147"/><line style="stroke:#181818;stroke-width:0.5;" x1="191" x2="329.165" y1="155" y2="155"/></g><!--class moduleSyncAction--><g id="elem_moduleSyncAction"><rect codeLine="16" fill="#F1F1F1" height="48" id="moduleSyncAction" rx="2.5" ry="2.5" style="stroke:#181818;stroke-width:0.5;" width="147.9512" x="7" y="115"/><ellipse cx="22" cy="131" fill="#ADD1B2" rx="11" ry="11" style="stroke:#181818;stroke-width:1.0;"/><path d="M24.7656,126.875 Q24.9219,126.6563 25.1094,126.5469 Q25.2969,126.4375 25.5156,126.4375 Q25.8906,126.4375 26.125,126.7031 Q26.3594,126.9531 26.3594,127.5625 L26.3594,129.0156 Q26.3594,129.625 26.125,129.8906 Q25.8906,130.1563 25.5156,130.1563 Q25.1719,130.1563 24.9688,129.9531 Q24.7656,129.7656 24.6563,129.25 Q24.6094,128.8906 24.4219,128.7031 Q24.0938,128.3281 23.4844,128.1094 Q22.875,127.8906 22.25,127.8906 Q21.4844,127.8906 20.8438,128.2188 Q20.2188,128.5469 19.7188,129.2969 Q19.2344,130.0469 19.2344,131.0781 L19.2344,132.1719 Q19.2344,133.4063 20.125,134.2344 Q21.0156,135.0469 22.6094,135.0469 Q23.5469,135.0469 24.2031,134.7969 Q24.5938,134.6406 25.0156,134.2031 Q25.2813,133.9375 25.4219,133.8594 Q25.5781,133.7813 25.7813,133.7813 Q26.1094,133.7813 26.3594,134.0469 Q26.625,134.2969 26.625,134.6406 Q26.625,134.9844 26.2813,135.3906 Q25.7813,135.9688 24.9844,136.2969 Q23.9063,136.75 22.6094,136.75 Q21.0938,136.75 19.8906,136.125 Q18.9063,135.625 18.2188,134.5625 Q17.5313,133.4844 17.5313,132.2031 L17.5313,131.0469 Q17.5313,129.7188 18.1406,128.5781 Q18.7656,127.4219 19.8594,126.8125 Q20.9531,126.1875 22.1875,126.1875 Q22.9219,126.1875 23.5625,126.3594 Q24.2188,126.5156 24.7656,126.875 Z " fill="#000000"/><text fill="#000000" font-family="sans-serif" font-size="14" lengthAdjust="spacing" textLength="115.9512" x="36" y="136.7969">ModuleSyncAction</text><line style="stroke:#181818;stroke-width:0.5;" x1="8" x2="153.9512" y1="147" y2="147"/><line style="stroke:#181818;stroke-width:0.5;" x1="8" x2="153.9512" y1="155" y2="155"/></g><!--class unbindModelAction--><g id="elem_unbindModelAction"><rect codeLine="17" fill="#F1F1F1" height="48" id="unbindModelAction" rx="2.5" ry="2.5" style="stroke:#181818;stroke-width:0.5;" width="153.4063" x="561.5" y="115"/><ellipse cx="576.5" cy="131" fill="#ADD1B2" rx="11" ry="11" style="stroke:#181818;stroke-width:1.0;"/><path d="M579.2656,126.875 Q579.4219,126.6563 579.6094,126.5469 Q579.7969,126.4375 580.0156,126.4375 Q580.3906,126.4375 580.625,126.7031 Q580.8594,126.9531 580.8594,127.5625 L580.8594,129.0156 Q580.8594,129.625 580.625,129.8906 Q580.3906,130.1563 580.0156,130.1563 Q579.6719,130.1563 579.4688,129.9531 Q579.2656,129.7656 579.1563,129.25 Q579.1094,128.8906 578.9219,128.7031 Q578.5938,128.3281 577.9844,128.1094 Q577.375,127.8906 576.75,127.8906 Q575.9844,127.8906 575.3438,128.2188 Q574.7188,128.5469 574.2188,129.2969 Q573.7344,130.0469 573.7344,131.0781 L573.7344,132.1719 Q573.7344,133.4063 574.625,134.2344 Q575.5156,135.0469 577.1094,135.0469 Q578.0469,135.0469 578.7031,134.7969 Q579.0938,134.6406 579.5156,134.2031 Q579.7813,133.9375 579.9219,133.8594 Q580.0781,133.7813 580.2813,133.7813 Q580.6094,133.7813 580.8594,134.0469 Q581.125,134.2969 581.125,134.6406 Q581.125,134.9844 580.7813,135.3906 Q580.2813,135.9688 579.4844,136.2969 Q578.4063,136.75 577.1094,136.75 Q575.5938,136.75 574.3906,136.125 Q573.4063,135.625 572.7188,134.5625 Q572.0313,133.4844 572.0313,132.2031 L572.0313,131.0469 Q572.0313,129.7188 572.6406,128.5781 Q573.2656,127.4219 574.3594,126.8125 Q575.4531,126.1875 576.6875,126.1875 Q577.4219,126.1875 578.0625,126.3594 Q578.7188,126.5156 579.2656,126.875 Z " fill="#000000"/><text fill="#000000" font-family="sans-serif" font-size="14" lengthAdjust="spacing" textLength="121.4063" x="590.5" y="136.7969">UnbindModelAction</text><line style="stroke:#181818;stroke-width:0.5;" x1="562.5" x2="713.9063" y1="147" y2="147"/><line style="stroke:#181818;stroke-width:0.5;" x1="562.5" x2="713.9063" y1="155" y2="155"/></g><!--class unbindModuleAction--><g id="elem_unbindModuleAction"><rect codeLine="18" fill="#F1F1F1" height="48" id="unbindModuleAction" rx="2.5" ry="2.5" style="stroke:#181818;stroke-width:0.5;" width="161.1924" x="365.5" y="115"/><ellipse cx="380.5" cy="131" fill="#ADD1B2" rx="11" ry="11" style="stroke:#181818;stroke-width:1.0;"/><path d="M383.2656,126.875 Q383.4219,126.6563 383.6094,126.5469 Q383.7969,126.4375 384.0156,126.4375 Q384.3906,126.4375 384.625,126.7031 Q384.8594,126.9531 384.8594,127.5625 L384.8594,129.0156 Q384.8594,129.625 384.625,129.8906 Q384.3906,130.1563 384.0156,130.1563 Q383.6719,130.1563 383.4688,129.9531 Q383.2656,129.7656 383.1563,129.25 Q383.1094,128.8906 382.9219,128.7031 Q382.5938,128.3281 381.9844,128.1094 Q381.375,127.8906 380.75,127.8906 Q379.9844,127.8906 379.3438,128.2188 Q378.7188,128.5469 378.2188,129.2969 Q377.7344,130.0469 377.7344,131.0781 L377.7344,132.1719 Q377.7344,133.4063 378.625,134.2344 Q379.5156,135.0469 381.1094,135.0469 Q382.0469,135.0469 382.7031,134.7969 Q383.0938,134.6406 383.5156,134.2031 Q383.7813,133.9375 383.9219,133.8594 Q384.0781,133.7813 384.2813,133.7813 Q384.6094,133.7813 384.8594,134.0469 Q385.125,134.2969 385.125,134.6406 Q385.125,134.9844 384.7813,135.3906 Q384.2813,135.9688 383.4844,136.2969 Q382.4063,136.75 381.1094,136.75 Q379.5938,136.75 378.3906,136.125 Q377.4063,135.625 376.7188,134.5625 Q376.0313,133.4844 376.0313,132.2031 L376.0313,131.0469 Q376.0313,129.7188 376.6406,128.5781 Q377.2656,127.4219 378.3594,126.8125 Q379.4531,126.1875 380.6875,126.1875 Q381.4219,126.1875 382.0625,126.3594 Q382.7188,126.5156 383.2656,126.875 Z " fill="#000000"/><text fill="#000000" font-family="sans-serif" font-size="14" lengthAdjust="spacing" textLength="129.1924" x="394.5" y="136.7969">UnbindModuleAction</text><line style="stroke:#181818;stroke-width:0.5;" x1="366.5" x2="525.6924" y1="147" y2="147"/><line style="stroke:#181818;stroke-width:0.5;" x1="366.5" x2="525.6924" y1="155" y2="155"/></g><g id="elem_GMN37"><path d="M868,17.5 L868,44.791 A0,0 0 0 0 868,44.791 L943.8945,44.791 A0,0 0 0 0 943.8945,44.791 L943.8945,35.5 L979.39,31 L943.8945,27.5 L943.8945,27.5 L933.8945,17.5 L868,17.5 A0,0 0 0 0 868,17.5 " fill="#FEFFDD" style="stroke:#181818;stroke-width:0.5;"/><path d="M933.8945,17.5 L933.8945,27.5 L943.8945,27.5 L933.8945,17.5 " fill="#FEFFDD" style="stroke:#181818;stroke-width:0.5;"/><text fill="#000000" font-family="sans-serif" font-size="13" lengthAdjust="spacing" textLength="54.8945" x="874" y="36.5283">MPS GUI</text></g><g id="elem_GMN40"><path d="M222,17.5 L222,44.791 A0,0 0 0 0 222,44.791 L256,44.791 L260,114.62 L264,44.791 L297.8945,44.791 A0,0 0 0 0 297.8945,44.791 L297.8945,27.5 L287.8945,17.5 L222,17.5 A0,0 0 0 0 222,17.5 " fill="#FEFFDD" style="stroke:#181818;stroke-width:0.5;"/><path d="M287.8945,17.5 L287.8945,27.5 L297.8945,27.5 L287.8945,17.5 " fill="#FEFFDD" style="stroke:#181818;stroke-width:0.5;"/><text fill="#000000" font-family="sans-serif" font-size="13" lengthAdjust="spacing" textLength="54.8945" x="228" y="36.5283">MPS GUI</text></g><g id="elem_GMN43"><path d="M43,17.5 L43,44.791 A0,0 0 0 0 43,44.791 L77,44.791 L81,114.62 L85,44.791 L118.8945,44.791 A0,0 0 0 0 118.8945,44.791 L118.8945,27.5 L108.8945,17.5 L43,17.5 A0,0 0 0 0 43,17.5 " fill="#FEFFDD" style="stroke:#181818;stroke-width:0.5;"/><path d="M108.8945,17.5 L108.8945,27.5 L118.8945,27.5 L108.8945,17.5 " fill="#FEFFDD" style="stroke:#181818;stroke-width:0.5;"/><text fill="#000000" font-family="sans-serif" font-size="13" lengthAdjust="spacing" textLength="54.8945" x="49" y="36.5283">MPS GUI</text></g><g id="elem_GMN46"><path d="M600,17.5 L600,44.791 A0,0 0 0 0 600,44.791 L634,44.791 L638,114.62 L642,44.791 L675.8945,44.791 A0,0 0 0 0 675.8945,44.791 L675.8945,27.5 L665.8945,17.5 L600,17.5 A0,0 0 0 0 600,17.5 " fill="#FEFFDD" style="stroke:#181818;stroke-width:0.5;"/><path d="M665.8945,17.5 L665.8945,27.5 L675.8945,27.5 L665.8945,17.5 " fill="#FEFFDD" style="stroke:#181818;stroke-width:0.5;"/><text fill="#000000" font-family="sans-serif" font-size="13" lengthAdjust="spacing" textLength="54.8945" x="606" y="36.5283">MPS GUI</text></g><g id="elem_GMN49"><path d="M408,17.5 L408,44.791 A0,0 0 0 0 408,44.791 L442,44.791 L446,114.62 L450,44.791 L483.8945,44.791 A0,0 0 0 0 483.8945,44.791 L483.8945,27.5 L473.8945,17.5 L408,17.5 A0,0 0 0 0 408,17.5 " fill="#FEFFDD" style="stroke:#181818;stroke-width:0.5;"/><path d="M473.8945,17.5 L473.8945,27.5 L483.8945,27.5 L473.8945,17.5 " fill="#FEFFDD" style="stroke:#181818;stroke-width:0.5;"/><text fill="#000000" font-family="sans-serif" font-size="13" lengthAdjust="spacing" textLength="54.8945" x="414" y="36.5283">MPS GUI</text></g><g id="elem_GMN52"><path d="M481,341.5 L481,351 L446.03,355 L481,359 L481,368.791 A0,0 0 0 0 481,368.791 L545.3481,368.791 A0,0 0 0 0 545.3481,368.791 L545.3481,351.5 L535.3481,341.5 L481,341.5 A0,0 0 0 0 481,341.5 " fill="#FEFFDD" style="stroke:#181818;stroke-width:0.5;"/><path d="M535.3481,341.5 L535.3481,351.5 L545.3481,351.5 L535.3481,341.5 " fill="#FEFFDD" style="stroke:#181818;stroke-width:0.5;"/><text fill="#000000" font-family="sans-serif" font-size="13" lengthAdjust="spacing" textLength="43.3481" x="487" y="360.5283">sync lib</text></g><g id="elem_GMN55"><path d="M579,233.5 L579,243 L472.81,247 L579,251 L579,260.791 A0,0 0 0 0 579,260.791 L643.3481,260.791 A0,0 0 0 0 643.3481,260.791 L643.3481,243.5 L633.3481,233.5 L579,233.5 A0,0 0 0 0 579,233.5 " fill="#FEFFDD" style="stroke:#181818;stroke-width:0.5;"/><path d="M633.3481,233.5 L633.3481,243.5 L643.3481,243.5 L633.3481,233.5 " fill="#FEFFDD" style="stroke:#181818;stroke-width:0.5;"/><text fill="#000000" font-family="sans-serif" font-size="13" lengthAdjust="spacing" textLength="43.3481" x="585" y="252.5283">sync lib</text></g><g id="elem_GMN58"><path d="M211,341.5 L211,351 L176.22,355 L211,359 L211,368.791 A0,0 0 0 0 211,368.791 L275.3481,368.791 A0,0 0 0 0 275.3481,368.791 L275.3481,351.5 L265.3481,341.5 L211,341.5 A0,0 0 0 0 211,341.5 " fill="#FEFFDD" style="stroke:#181818;stroke-width:0.5;"/><path d="M265.3481,341.5 L265.3481,351.5 L275.3481,351.5 L265.3481,341.5 " fill="#FEFFDD" style="stroke:#181818;stroke-width:0.5;"/><text fill="#000000" font-family="sans-serif" font-size="13" lengthAdjust="spacing" textLength="43.3481" x="217" y="360.5283">sync lib</text></g><g id="elem_GMN61"><path d="M753,341.5 L753,351 L717.53,355 L753,359 L753,368.791 A0,0 0 0 0 753,368.791 L817.3481,368.791 A0,0 0 0 0 817.3481,368.791 L817.3481,351.5 L807.3481,341.5 L753,341.5 A0,0 0 0 0 753,341.5 " fill="#FEFFDD" style="stroke:#181818;stroke-width:0.5;"/><path d="M807.3481,341.5 L807.3481,351.5 L817.3481,351.5 L807.3481,341.5 " fill="#FEFFDD" style="stroke:#181818;stroke-width:0.5;"/><text fill="#000000" font-family="sans-serif" font-size="13" lengthAdjust="spacing" textLength="43.3481" x="759" y="360.5283">sync lib</text></g><g id="elem_GMN64"><path d="M852,341.5 L852,368.791 A0,0 0 0 0 852,368.791 L916.3481,368.791 A0,0 0 0 0 916.3481,368.791 L916.3481,351.5 L906.3481,341.5 L879.75,341.5 L829.97,271 L871.75,341.5 L852,341.5 A0,0 0 0 0 852,341.5 " fill="#FEFFDD" style="stroke:#181818;stroke-width:0.5;"/><path d="M906.3481,341.5 L906.3481,351.5 L916.3481,351.5 L906.3481,341.5 " fill="#FEFFDD" style="stroke:#181818;stroke-width:0.5;"/><text fill="#000000" font-family="sans-serif" font-size="13" lengthAdjust="spacing" textLength="43.3481" x="858" y="360.5283">sync lib</text></g><!--reverse link iSyncService to syncServiceImpl--><g id="link_iSyncService_syncServiceImpl"><path codeLine="21" d="M740.3074,264.8581 C670.5474,280.7081 566.63,304.77 463,331 C457.52,332.39 451.84,333.86 446.15,335.35 " fill="none" id="iSyncService-backto-syncServiceImpl" style="stroke:#181818;stroke-width:1.0;stroke-dasharray:7.0,7.0;"/><polygon fill="none" points="757.86,260.87,738.978,259.0072,741.6367,270.709,757.86,260.87" style="stroke:#181818;stroke-width:1.0;"/></g><!--link serviceLocator to syncServiceImpl--><g id="link_serviceLocator_syncServiceImpl"><path codeLine="22" d="M399.5927,282.4882 C394.2627,300.1482 392.1354,307.1964 386.7754,324.9364 " fill="none" id="serviceLocator-syncServiceImpl" style="stroke:#181818;stroke-width:1.0;"/><polygon fill="#181818" points="403.06,271,397.497,275.5883,399.5927,282.4882,405.1558,277.8998,403.06,271" style="stroke:#181818;stroke-width:1.0;"/><polygon fill="#181818" points="385.04,330.68,391.4721,323.2216,386.4861,325.8937,383.814,320.9077,385.04,330.68" style="stroke:#181818;stroke-width:1.0;"/></g><!--link serviceLocator to bindingsRegistry--><g id="link_serviceLocator_bindingsRegistry"><path codeLine="23" d="M472.8294,275.8655 C512.7794,293.5855 551.315,310.6779 591.345,328.4279 " fill="none" id="serviceLocator-bindingsRegistry" style="stroke:#181818;stroke-width:1.0;"/><polygon fill="#181818" points="461.86,271,465.7228,277.0892,472.8294,275.8655,468.9665,269.7763,461.86,271" style="stroke:#181818;stroke-width:1.0;"/><polygon fill="#181818" points="596.83,330.86,590.224,323.5552,592.2592,328.8332,586.9811,330.8684,596.83,330.86" style="stroke:#181818;stroke-width:1.0;"/></g><!--link serviceLocator to branchRegistry--><g id="link_serviceLocator_branchRegistry"><path codeLine="24" d="M335.8641,274.3719 C285.5741,292.2619 232.2931,311.2094 181.6831,329.2094 " fill="none" id="serviceLocator-branchRegistry" style="stroke:#181818;stroke-width:1.0;"/><polygon fill="#181818" points="347.17,270.35,340.1764,268.5923,335.8641,274.3719,342.8577,276.1296,347.17,270.35" style="stroke:#181818;stroke-width:1.0;"/><polygon fill="#181818" points="176.03,331.22,185.85,331.9729,180.7409,329.5445,183.1693,324.4354,176.03,331.22" style="stroke:#181818;stroke-width:1.0;"/></g><!--link modelSyncGui to modelSyncService--><g id="link_modelSyncGui_modelSyncService"><path codeLine="26" d="M993.91,55 C957.64,72.72 913.1013,94.4767 876.7613,112.2267 " fill="none" id="modelSyncGui-to-modelSyncService" style="stroke:#181818;stroke-width:1.0;"/><polygon fill="#181818" points="871.37,114.86,881.2124,114.5042,875.8627,112.6656,877.7013,107.3159,871.37,114.86" style="stroke:#181818;stroke-width:1.0;"/></g><!--link modelSyncService to serviceLocator--><g id="link_modelSyncService_serviceLocator"><path codeLine="27" d="M749.99,158.95 C670.91,179.2 546.93,210.94 472.55,229.98 " fill="none" id="modelSyncService-serviceLocator" style="stroke:#181818;stroke-width:1.0;stroke-dasharray:7.0,7.0;"/></g><!--link modelSyncService to iSyncService--><g id="link_modelSyncService_iSyncService"><path codeLine="28" d="M822.05,163 C820.55,180.66 818.9989,198.9616 817.4889,216.7016 " fill="none" id="modelSyncService-to-iSyncService" style="stroke:#181818;stroke-width:1.0;"/><polygon fill="#181818" points="816.98,222.68,821.7289,214.0517,817.4041,217.698,813.7577,213.3732,816.98,222.68" style="stroke:#181818;stroke-width:1.0;"/></g><!--link modelSyncGui to bindingsComboBoxRefresher--><g id="link_modelSyncGui_bindingsComboBoxRefresher"><path codeLine="30" d="M1028.4695,66.8642 C1025.7895,84.5242 1026.6936,91.0058 1029.3436,108.7458 " fill="none" id="modelSyncGui-bindingsComboBoxRefresher" style="stroke:#181818;stroke-width:1.0;"/><polygon fill="#181818" points="1030.27,55,1025.4151,60.3319,1028.4695,66.8642,1033.3245,61.5322,1030.27,55" style="stroke:#181818;stroke-width:1.0;"/><polygon fill="#181818" points="1030.23,114.68,1032.8564,105.1878,1029.4913,109.7349,1024.9442,106.3697,1030.23,114.68" style="stroke:#181818;stroke-width:1.0;"/></g><!--link bindingsComboBoxRefresher to modelSyncGui--><g id="link_bindingsComboBoxRefresher_modelSyncGui"><path codeLine="31" d="M1052.41,114.68 C1055.21,96.94 1056.1527,78.5839 1053.3127,60.9239 " fill="none" id="bindingsComboBoxRefresher-to-modelSyncGui" style="stroke:#181818;stroke-width:1.0;"/><polygon fill="#181818" points="1052.36,55,1049.8397,64.5209,1053.1539,59.9366,1057.7382,63.2507,1052.36,55" style="stroke:#181818;stroke-width:1.0;"/></g><!--link bindingsComboBoxRefresher to serviceLocator--><g id="link_bindingsComboBoxRefresher_serviceLocator"><path codeLine="32" d="M932.96,160.01 C927.22,161.03 921.54,162.04 916,163 C756.6,190.74 568.49,220.92 472.78,236.1 " fill="none" id="bindingsComboBoxRefresher-serviceLocator" style="stroke:#181818;stroke-width:1.0;stroke-dasharray:7.0,7.0;"/></g><!--link bindingsComboBoxRefresher to bindingsRegistry--><g id="link_bindingsComboBoxRefresher_bindingsRegistry"><path codeLine="33" d="M1019.6,163.42 C992.1,192.29 941.71,241.18 890,271 C860.24,288.16 783.675,313.2667 723.505,331.7667 " fill="none" id="bindingsComboBoxRefresher-to-bindingsRegistry" style="stroke:#181818;stroke-width:1.0;"/><polygon fill="#181818" points="717.77,333.53,727.5481,334.7084,722.5492,332.0606,725.197,327.0617,717.77,333.53" style="stroke:#181818;stroke-width:1.0;"/></g><!--link bindingsComboBoxRefresher to bindingsSortComparator--><g id="link_bindingsComboBoxRefresher_bindingsSortComparator"><path codeLine="34" d="M1046.64,163 C1050.97,180.66 1055.5011,199.1126 1059.8511,216.8526 " fill="none" id="bindingsComboBoxRefresher-to-bindingsSortComparator" style="stroke:#181818;stroke-width:1.0;"/><polygon fill="#181818" points="1061.28,222.68,1063.0215,212.9863,1060.0892,217.8239,1055.2517,214.8916,1061.28,222.68" style="stroke:#181818;stroke-width:1.0;"/></g><!--link modelSyncAction to serviceLocator--><g id="link_modelSyncAction_serviceLocator"><path codeLine="36" d="M292.55,163 C317.62,180.72 352.13,205.11 377.26,222.86 " fill="none" id="modelSyncAction-serviceLocator" style="stroke:#181818;stroke-width:1.0;stroke-dasharray:7.0,7.0;"/></g><!--link modelSyncAction to branchRegistry--><g id="link_modelSyncAction_branchRegistry"><path codeLine="37" d="M243.88,163.31 C215.41,204.47 156.56,289.58 128.1,330.72 " fill="none" id="modelSyncAction-branchRegistry" style="stroke:#181818;stroke-width:1.0;stroke-dasharray:7.0,7.0;"/></g><!--link modelSyncAction to syncServiceImpl--><g id="link_modelSyncAction_syncServiceImpl"><path codeLine="38" d="M272.16,163.32 C285.94,189.61 309.2,233.59 330,271 C341.33,291.37 354.62,314.28 364.34,330.86 " fill="none" id="modelSyncAction-syncServiceImpl" style="stroke:#181818;stroke-width:1.0;stroke-dasharray:7.0,7.0;"/></g><!--link moduleSyncAction to serviceLocator--><g id="link_moduleSyncAction_serviceLocator"><path codeLine="40" d="M152.39,163 C210.5,181.72 291.73,207.9 347.35,225.82 " fill="none" id="moduleSyncAction-serviceLocator" style="stroke:#181818;stroke-width:1.0;stroke-dasharray:7.0,7.0;"/></g><!--link moduleSyncAction to branchRegistry--><g id="link_moduleSyncAction_branchRegistry"><path codeLine="41" d="M84.38,163.31 C90.34,204.47 102.67,289.58 108.63,330.72 " fill="none" id="moduleSyncAction-branchRegistry" style="stroke:#181818;stroke-width:1.0;stroke-dasharray:7.0,7.0;"/></g><!--link moduleSyncAction to syncServiceImpl--><g id="link_moduleSyncAction_syncServiceImpl"><path codeLine="42" d="M113.07,163.11 C170.21,204.28 289.02,289.88 346.07,330.99 " fill="none" id="moduleSyncAction-syncServiceImpl" style="stroke:#181818;stroke-width:1.0;stroke-dasharray:7.0,7.0;"/></g><!--link unbindModelAction to serviceLocator--><g id="link_unbindModelAction_serviceLocator"><path codeLine="44" d="M588.53,163 C550.42,180.72 497.96,205.11 459.77,222.86 " fill="none" id="unbindModelAction-serviceLocator" style="stroke:#181818;stroke-width:1.0;stroke-dasharray:7.0,7.0;"/></g><!--link unbindModelAction to bindingsRegistry--><g id="link_unbindModelAction_bindingsRegistry"><path codeLine="45" d="M646.27,163.26 C651.66,179.71 658.2,202.41 661,223 C666.11,260.57 659.55,304.5 654.3,330.74 " fill="none" id="unbindModelAction-bindingsRegistry" style="stroke:#181818;stroke-width:1.0;stroke-dasharray:7.0,7.0;"/></g><!--link unbindModuleAction to serviceLocator--><g id="link_unbindModuleAction_serviceLocator"><path codeLine="47" d="M438.19,163 C432.19,180.66 423.94,204.94 417.92,222.68 " fill="none" id="unbindModuleAction-serviceLocator" style="stroke:#181818;stroke-width:1.0;stroke-dasharray:7.0,7.0;"/></g><!--link unbindModuleAction to bindingsRegistry--><g id="link_unbindModuleAction_bindingsRegistry"><path codeLine="48" d="M465.31,163.3 C487.66,189.96 525.91,234.63 561,271 C581.12,291.86 605.12,314.35 622.97,330.65 " fill="none" id="unbindModuleAction-bindingsRegistry" style="stroke:#181818;stroke-width:1.0;stroke-dasharray:7.0,7.0;"/></g><!--SRC=[ZPJHQi8m58RlynJ1cy907q36O8uXmXp3uWEaDTL0caWInuGz_9fMQyuvhVEgvS_N_oJd_6dsRe8AIlgCbLfupoThkvCwFvjoUL8JBZol4u50kNJVgfGGl8YCAHEagqGf-MI5QPMI5zj4MjL7tN8UQgndE-t3bY9Orw50ke8BPNRAxFr6xfKFxjoY1H9xs0bJ7Y0A98PjtsnTs8NzsSZAIN-G3lYJLVHvRbrecADm_Ickdy8bHbh_MWPb3UnyfoNeIKlA0l4ARqqitBedz0ch16_CXlXUPYpRI2tYQnEoTEhy-NSs8_E5G-HFq-dBGmoPw224PfbccqU0P1WBF6uPvemWqGZ46zO1swK16Ls16uotSHobkxnlIxht68upYe9uhrat0Wrbo0F_0t28XmiHX5QYBhWKkG43jGOPqb96BySzBm1Hi-pJXlZRDis3Qra5RYkGZZbVV-LykLrrIB17G7JUen1ep315JlqFrX_endMWK_j3kttK_7ahSAqAp86MZM9mtECOwYq62nk2hIEPNkg4-WC0]--></g></svg>
