<svg xmlns="http://www.w3.org/2000/svg" xmlns:xlink="http://www.w3.org/1999/xlink" contentStyleType="text/css" height="1142px" preserveAspectRatio="none" style="width:805px;height:1142px;background:#FFFFFF;" version="1.1" viewBox="0 0 805 1142" width="805px" zoomAndPan="magnify"><defs/><g><!--class modelSyncGui--><g id="elem_modelSyncGui"><rect codeLine="2" fill="#F1F1F1" height="48" id="modelSyncGui" rx="2.5" ry="2.5" style="stroke:#181818;stroke-width:0.5;" width="123.041" x="409" y="7"/><ellipse cx="424" cy="23" fill="#ADD1B2" rx="11" ry="11" style="stroke:#181818;stroke-width:1.0;"/><path d="M426.7656,18.875 Q426.9219,18.6563 427.1094,18.5469 Q427.2969,18.4375 427.5156,18.4375 Q427.8906,18.4375 428.125,18.7031 Q428.3594,18.9531 428.3594,19.5625 L428.3594,21.0156 Q428.3594,21.625 428.125,21.8906 Q427.8906,22.1563 427.5156,22.1563 Q427.1719,22.1563 426.9688,21.9531 Q426.7656,21.7656 426.6563,21.25 Q426.6094,20.8906 426.4219,20.7031 Q426.0938,20.3281 425.4844,20.1094 Q424.875,19.8906 424.25,19.8906 Q423.4844,19.8906 422.8438,20.2188 Q422.2188,20.5469 421.7188,21.2969 Q421.2344,22.0469 421.2344,23.0781 L421.2344,24.1719 Q421.2344,25.4063 422.125,26.2344 Q423.0156,27.0469 424.6094,27.0469 Q425.5469,27.0469 426.2031,26.7969 Q426.5938,26.6406 427.0156,26.2031 Q427.2813,25.9375 427.4219,25.8594 Q427.5781,25.7813 427.7813,25.7813 Q428.1094,25.7813 428.3594,26.0469 Q428.625,26.2969 428.625,26.6406 Q428.625,26.9844 428.2813,27.3906 Q427.7813,27.9688 426.9844,28.2969 Q425.9063,28.75 424.6094,28.75 Q423.0938,28.75 421.8906,28.125 Q420.9063,27.625 420.2188,26.5625 Q419.5313,25.4844 419.5313,24.2031 L419.5313,23.0469 Q419.5313,21.7188 420.1406,20.5781 Q420.7656,19.4219 421.8594,18.8125 Q422.9531,18.1875 424.1875,18.1875 Q424.9219,18.1875 425.5625,18.3594 Q426.2188,18.5156 426.7656,18.875 Z " fill="#000000"/><text fill="#000000" font-family="sans-serif" font-size="14" lengthAdjust="spacing" textLength="91.041" x="438" y="28.7969">ModelSyncGui</text><line style="stroke:#181818;stroke-width:0.5;" x1="410" x2="531.041" y1="39" y2="39"/><line style="stroke:#181818;stroke-width:0.5;" x1="410" x2="531.041" y1="47" y2="47"/></g><!--class modelSyncService--><g id="elem_modelSyncService"><rect codeLine="3" fill="#F1F1F1" height="48" id="modelSyncService" rx="2.5" ry="2.5" style="stroke:#181818;stroke-width:0.5;" width="147.9375" x="282.5" y="439"/><ellipse cx="297.5" cy="455" fill="#ADD1B2" rx="11" ry="11" style="stroke:#181818;stroke-width:1.0;"/><path d="M300.2656,450.875 Q300.4219,450.6563 300.6094,450.5469 Q300.7969,450.4375 301.0156,450.4375 Q301.3906,450.4375 301.625,450.7031 Q301.8594,450.9531 301.8594,451.5625 L301.8594,453.0156 Q301.8594,453.625 301.625,453.8906 Q301.3906,454.1563 301.0156,454.1563 Q300.6719,454.1563 300.4688,453.9531 Q300.2656,453.7656 300.1563,453.25 Q300.1094,452.8906 299.9219,452.7031 Q299.5938,452.3281 298.9844,452.1094 Q298.375,451.8906 297.75,451.8906 Q296.9844,451.8906 296.3438,452.2188 Q295.7188,452.5469 295.2188,453.2969 Q294.7344,454.0469 294.7344,455.0781 L294.7344,456.1719 Q294.7344,457.4063 295.625,458.2344 Q296.5156,459.0469 298.1094,459.0469 Q299.0469,459.0469 299.7031,458.7969 Q300.0938,458.6406 300.5156,458.2031 Q300.7813,457.9375 300.9219,457.8594 Q301.0781,457.7813 301.2813,457.7813 Q301.6094,457.7813 301.8594,458.0469 Q302.125,458.2969 302.125,458.6406 Q302.125,458.9844 301.7813,459.3906 Q301.2813,459.9688 300.4844,460.2969 Q299.4063,460.75 298.1094,460.75 Q296.5938,460.75 295.3906,460.125 Q294.4063,459.625 293.7188,458.5625 Q293.0313,457.4844 293.0313,456.2031 L293.0313,455.0469 Q293.0313,453.7188 293.6406,452.5781 Q294.2656,451.4219 295.3594,450.8125 Q296.4531,450.1875 297.6875,450.1875 Q298.4219,450.1875 299.0625,450.3594 Q299.7188,450.5156 300.2656,450.875 Z " fill="#000000"/><text fill="#000000" font-family="sans-serif" font-size="14" lengthAdjust="spacing" textLength="115.9375" x="311.5" y="460.7969">ModelSyncService</text><line style="stroke:#181818;stroke-width:0.5;" x1="283.5" x2="429.4375" y1="471" y2="471"/><line style="stroke:#181818;stroke-width:0.5;" x1="283.5" x2="429.4375" y1="479" y2="479"/></g><!--class syncPluginState--><g id="elem_syncPluginState"><rect codeLine="4" fill="#F1F1F1" height="48" id="syncPluginState" rx="2.5" ry="2.5" style="stroke:#181818;stroke-width:0.5;" width="134.7305" x="343" y="115"/><ellipse cx="358" cy="131" fill="#ADD1B2" rx="11" ry="11" style="stroke:#181818;stroke-width:1.0;"/><path d="M360.7656,126.875 Q360.9219,126.6563 361.1094,126.5469 Q361.2969,126.4375 361.5156,126.4375 Q361.8906,126.4375 362.125,126.7031 Q362.3594,126.9531 362.3594,127.5625 L362.3594,129.0156 Q362.3594,129.625 362.125,129.8906 Q361.8906,130.1563 361.5156,130.1563 Q361.1719,130.1563 360.9688,129.9531 Q360.7656,129.7656 360.6563,129.25 Q360.6094,128.8906 360.4219,128.7031 Q360.0938,128.3281 359.4844,128.1094 Q358.875,127.8906 358.25,127.8906 Q357.4844,127.8906 356.8438,128.2188 Q356.2188,128.5469 355.7188,129.2969 Q355.2344,130.0469 355.2344,131.0781 L355.2344,132.1719 Q355.2344,133.4063 356.125,134.2344 Q357.0156,135.0469 358.6094,135.0469 Q359.5469,135.0469 360.2031,134.7969 Q360.5938,134.6406 361.0156,134.2031 Q361.2813,133.9375 361.4219,133.8594 Q361.5781,133.7813 361.7813,133.7813 Q362.1094,133.7813 362.3594,134.0469 Q362.625,134.2969 362.625,134.6406 Q362.625,134.9844 362.2813,135.3906 Q361.7813,135.9688 360.9844,136.2969 Q359.9063,136.75 358.6094,136.75 Q357.0938,136.75 355.8906,136.125 Q354.9063,135.625 354.2188,134.5625 Q353.5313,133.4844 353.5313,132.2031 L353.5313,131.0469 Q353.5313,129.7188 354.1406,128.5781 Q354.7656,127.4219 355.8594,126.8125 Q356.9531,126.1875 358.1875,126.1875 Q358.9219,126.1875 359.5625,126.3594 Q360.2188,126.5156 360.7656,126.875 Z " fill="#000000"/><text fill="#000000" font-family="sans-serif" font-size="14" lengthAdjust="spacing" textLength="102.7305" x="372" y="136.7969">SyncPluginState</text><line style="stroke:#181818;stroke-width:0.5;" x1="344" x2="476.7305" y1="147" y2="147"/><line style="stroke:#181818;stroke-width:0.5;" x1="344" x2="476.7305" y1="155" y2="155"/></g><!--class persistableState--><g id="elem_persistableState"><rect codeLine="6" fill="#F1F1F1" height="48" id="persistableState" rx="2.5" ry="2.5" style="stroke:#181818;stroke-width:0.5;" width="133.9443" x="193.5" y="223"/><ellipse cx="208.5" cy="239" fill="#ADD1B2" rx="11" ry="11" style="stroke:#181818;stroke-width:1.0;"/><path d="M211.2656,234.875 Q211.4219,234.6563 211.6094,234.5469 Q211.7969,234.4375 212.0156,234.4375 Q212.3906,234.4375 212.625,234.7031 Q212.8594,234.9531 212.8594,235.5625 L212.8594,237.0156 Q212.8594,237.625 212.625,237.8906 Q212.3906,238.1563 212.0156,238.1563 Q211.6719,238.1563 211.4688,237.9531 Q211.2656,237.7656 211.1563,237.25 Q211.1094,236.8906 210.9219,236.7031 Q210.5938,236.3281 209.9844,236.1094 Q209.375,235.8906 208.75,235.8906 Q207.9844,235.8906 207.3438,236.2188 Q206.7188,236.5469 206.2188,237.2969 Q205.7344,238.0469 205.7344,239.0781 L205.7344,240.1719 Q205.7344,241.4063 206.625,242.2344 Q207.5156,243.0469 209.1094,243.0469 Q210.0469,243.0469 210.7031,242.7969 Q211.0938,242.6406 211.5156,242.2031 Q211.7813,241.9375 211.9219,241.8594 Q212.0781,241.7813 212.2813,241.7813 Q212.6094,241.7813 212.8594,242.0469 Q213.125,242.2969 213.125,242.6406 Q213.125,242.9844 212.7813,243.3906 Q212.2813,243.9688 211.4844,244.2969 Q210.4063,244.75 209.1094,244.75 Q207.5938,244.75 206.3906,244.125 Q205.4063,243.625 204.7188,242.5625 Q204.0313,241.4844 204.0313,240.2031 L204.0313,239.0469 Q204.0313,237.7188 204.6406,236.5781 Q205.2656,235.4219 206.3594,234.8125 Q207.4531,234.1875 208.6875,234.1875 Q209.4219,234.1875 210.0625,234.3594 Q210.7188,234.5156 211.2656,234.875 Z " fill="#000000"/><text fill="#000000" font-family="sans-serif" font-size="14" lengthAdjust="spacing" textLength="101.9443" x="222.5" y="244.7969">PersistableState</text><line style="stroke:#181818;stroke-width:0.5;" x1="194.5" x2="326.4443" y1="255" y2="255"/><line style="stroke:#181818;stroke-width:0.5;" x1="194.5" x2="326.4443" y1="263" y2="263"/></g><!--class iRebindModulesSyncService--><g id="elem_iRebindModulesSyncService"><rect codeLine="8" fill="#F1F1F1" height="48" id="iRebindModulesSyncService" rx="2.5" ry="2.5" style="stroke:#181818;stroke-width:0.5;" width="210.9785" x="267" y="331"/><ellipse cx="282" cy="347" fill="#B4A7E5" rx="11" ry="11" style="stroke:#181818;stroke-width:1.0;"/><path d="M282.9531,343.6406 L282.9531,350.2969 L284.6719,350.2969 Q285.2813,350.2969 285.5469,350.5313 Q285.8125,350.7656 285.8125,351.1563 Q285.8125,351.5313 285.5469,351.7656 Q285.2813,352 284.6719,352 L279.5313,352 Q278.9219,352 278.6563,351.7656 Q278.3906,351.5313 278.3906,351.1406 Q278.3906,350.7656 278.6563,350.5313 Q278.9219,350.2969 279.5313,350.2969 L281.25,350.2969 L281.25,343.6406 L279.5313,343.6406 Q278.9219,343.6406 278.6563,343.4063 Q278.3906,343.1719 278.3906,342.7813 Q278.3906,342.4063 278.6563,342.1719 Q278.9219,341.9375 279.5313,341.9375 L284.6719,341.9375 Q285.2813,341.9375 285.5469,342.1719 Q285.8125,342.4063 285.8125,342.7813 Q285.8125,343.1719 285.5469,343.4063 Q285.2813,343.6406 284.6719,343.6406 L282.9531,343.6406 Z " fill="#000000"/><text fill="#000000" font-family="sans-serif" font-size="14" font-style="italic" lengthAdjust="spacing" textLength="178.9785" x="296" y="352.7969">IRebindModulesSyncService</text><line style="stroke:#181818;stroke-width:0.5;" x1="268" x2="476.9785" y1="363" y2="363"/><line style="stroke:#181818;stroke-width:0.5;" x1="268" x2="476.9785" y1="371" y2="371"/></g><!--class iSyncService--><g id="elem_iSyncService"><rect codeLine="10" fill="#F1F1F1" height="48" id="iSyncService" rx="2.5" ry="2.5" style="stroke:#181818;stroke-width:0.5;" width="113.6963" x="466.5" y="547"/><ellipse cx="481.5" cy="563" fill="#B4A7E5" rx="11" ry="11" style="stroke:#181818;stroke-width:1.0;"/><path d="M482.4531,559.6406 L482.4531,566.2969 L484.1719,566.2969 Q484.7813,566.2969 485.0469,566.5313 Q485.3125,566.7656 485.3125,567.1563 Q485.3125,567.5313 485.0469,567.7656 Q484.7813,568 484.1719,568 L479.0313,568 Q478.4219,568 478.1563,567.7656 Q477.8906,567.5313 477.8906,567.1406 Q477.8906,566.7656 478.1563,566.5313 Q478.4219,566.2969 479.0313,566.2969 L480.75,566.2969 L480.75,559.6406 L479.0313,559.6406 Q478.4219,559.6406 478.1563,559.4063 Q477.8906,559.1719 477.8906,558.7813 Q477.8906,558.4063 478.1563,558.1719 Q478.4219,557.9375 479.0313,557.9375 L484.1719,557.9375 Q484.7813,557.9375 485.0469,558.1719 Q485.3125,558.4063 485.3125,558.7813 Q485.3125,559.1719 485.0469,559.4063 Q484.7813,559.6406 484.1719,559.6406 L482.4531,559.6406 Z " fill="#000000"/><text fill="#000000" font-family="sans-serif" font-size="14" font-style="italic" lengthAdjust="spacing" textLength="81.6963" x="495.5" y="568.7969">ISyncService</text><line style="stroke:#181818;stroke-width:0.5;" x1="467.5" x2="579.1963" y1="579" y2="579"/><line style="stroke:#181818;stroke-width:0.5;" x1="467.5" x2="579.1963" y1="587" y2="587"/></g><!--class syncServiceImpl--><g id="elem_syncServiceImpl"><rect codeLine="11" fill="#F1F1F1" height="48" id="syncServiceImpl" rx="2.5" ry="2.5" style="stroke:#181818;stroke-width:0.5;" width="136.2549" x="384.5" y="763"/><ellipse cx="399.5" cy="779" fill="#ADD1B2" rx="11" ry="11" style="stroke:#181818;stroke-width:1.0;"/><path d="M402.2656,774.875 Q402.4219,774.6563 402.6094,774.5469 Q402.7969,774.4375 403.0156,774.4375 Q403.3906,774.4375 403.625,774.7031 Q403.8594,774.9531 403.8594,775.5625 L403.8594,777.0156 Q403.8594,777.625 403.625,777.8906 Q403.3906,778.1563 403.0156,778.1563 Q402.6719,778.1563 402.4688,777.9531 Q402.2656,777.7656 402.1563,777.25 Q402.1094,776.8906 401.9219,776.7031 Q401.5938,776.3281 400.9844,776.1094 Q400.375,775.8906 399.75,775.8906 Q398.9844,775.8906 398.3438,776.2188 Q397.7188,776.5469 397.2188,777.2969 Q396.7344,778.0469 396.7344,779.0781 L396.7344,780.1719 Q396.7344,781.4063 397.625,782.2344 Q398.5156,783.0469 400.1094,783.0469 Q401.0469,783.0469 401.7031,782.7969 Q402.0938,782.6406 402.5156,782.2031 Q402.7813,781.9375 402.9219,781.8594 Q403.0781,781.7813 403.2813,781.7813 Q403.6094,781.7813 403.8594,782.0469 Q404.125,782.2969 404.125,782.6406 Q404.125,782.9844 403.7813,783.3906 Q403.2813,783.9688 402.4844,784.2969 Q401.4063,784.75 400.1094,784.75 Q398.5938,784.75 397.3906,784.125 Q396.4063,783.625 395.7188,782.5625 Q395.0313,781.4844 395.0313,780.2031 L395.0313,779.0469 Q395.0313,777.7188 395.6406,776.5781 Q396.2656,775.4219 397.3594,774.8125 Q398.4531,774.1875 399.6875,774.1875 Q400.4219,774.1875 401.0625,774.3594 Q401.7188,774.5156 402.2656,774.875 Z " fill="#000000"/><text fill="#000000" font-family="sans-serif" font-size="14" lengthAdjust="spacing" textLength="104.2549" x="413.5" y="784.7969">SyncServiceImpl</text><line style="stroke:#181818;stroke-width:0.5;" x1="385.5" x2="519.7549" y1="795" y2="795"/><line style="stroke:#181818;stroke-width:0.5;" x1="385.5" x2="519.7549" y1="803" y2="803"/></g><!--class serviceLocator--><g id="elem_serviceLocator"><rect codeLine="13" fill="#F1F1F1" height="48" id="serviceLocator" rx="2.5" ry="2.5" style="stroke:#181818;stroke-width:0.5;" width="125.3789" x="280" y="547"/><ellipse cx="295" cy="563" fill="#ADD1B2" rx="11" ry="11" style="stroke:#181818;stroke-width:1.0;"/><path d="M297.7656,558.875 Q297.9219,558.6563 298.1094,558.5469 Q298.2969,558.4375 298.5156,558.4375 Q298.8906,558.4375 299.125,558.7031 Q299.3594,558.9531 299.3594,559.5625 L299.3594,561.0156 Q299.3594,561.625 299.125,561.8906 Q298.8906,562.1563 298.5156,562.1563 Q298.1719,562.1563 297.9688,561.9531 Q297.7656,561.7656 297.6563,561.25 Q297.6094,560.8906 297.4219,560.7031 Q297.0938,560.3281 296.4844,560.1094 Q295.875,559.8906 295.25,559.8906 Q294.4844,559.8906 293.8438,560.2188 Q293.2188,560.5469 292.7188,561.2969 Q292.2344,562.0469 292.2344,563.0781 L292.2344,564.1719 Q292.2344,565.4063 293.125,566.2344 Q294.0156,567.0469 295.6094,567.0469 Q296.5469,567.0469 297.2031,566.7969 Q297.5938,566.6406 298.0156,566.2031 Q298.2813,565.9375 298.4219,565.8594 Q298.5781,565.7813 298.7813,565.7813 Q299.1094,565.7813 299.3594,566.0469 Q299.625,566.2969 299.625,566.6406 Q299.625,566.9844 299.2813,567.3906 Q298.7813,567.9688 297.9844,568.2969 Q296.9063,568.75 295.6094,568.75 Q294.0938,568.75 292.8906,568.125 Q291.9063,567.625 291.2188,566.5625 Q290.5313,565.4844 290.5313,564.2031 L290.5313,563.0469 Q290.5313,561.7188 291.1406,560.5781 Q291.7656,559.4219 292.8594,558.8125 Q293.9531,558.1875 295.1875,558.1875 Q295.9219,558.1875 296.5625,558.3594 Q297.2188,558.5156 297.7656,558.875 Z " fill="#000000"/><text fill="#000000" font-family="sans-serif" font-size="14" lengthAdjust="spacing" textLength="93.3789" x="309" y="568.7969">ServiceLocator</text><line style="stroke:#181818;stroke-width:0.5;" x1="281" x2="404.3789" y1="579" y2="579"/><line style="stroke:#181818;stroke-width:0.5;" x1="281" x2="404.3789" y1="587" y2="587"/></g><!--class bindingsRegistry--><g id="elem_bindingsRegistry"><rect codeLine="14" fill="#F1F1F1" height="48" id="bindingsRegistry" rx="2.5" ry="2.5" style="stroke:#181818;stroke-width:0.5;" width="137.0479" x="7" y="871"/><ellipse cx="22" cy="887" fill="#ADD1B2" rx="11" ry="11" style="stroke:#181818;stroke-width:1.0;"/><path d="M24.7656,882.875 Q24.9219,882.6563 25.1094,882.5469 Q25.2969,882.4375 25.5156,882.4375 Q25.8906,882.4375 26.125,882.7031 Q26.3594,882.9531 26.3594,883.5625 L26.3594,885.0156 Q26.3594,885.625 26.125,885.8906 Q25.8906,886.1563 25.5156,886.1563 Q25.1719,886.1563 24.9688,885.9531 Q24.7656,885.7656 24.6563,885.25 Q24.6094,884.8906 24.4219,884.7031 Q24.0938,884.3281 23.4844,884.1094 Q22.875,883.8906 22.25,883.8906 Q21.4844,883.8906 20.8438,884.2188 Q20.2188,884.5469 19.7188,885.2969 Q19.2344,886.0469 19.2344,887.0781 L19.2344,888.1719 Q19.2344,889.4063 20.125,890.2344 Q21.0156,891.0469 22.6094,891.0469 Q23.5469,891.0469 24.2031,890.7969 Q24.5938,890.6406 25.0156,890.2031 Q25.2813,889.9375 25.4219,889.8594 Q25.5781,889.7813 25.7813,889.7813 Q26.1094,889.7813 26.3594,890.0469 Q26.625,890.2969 26.625,890.6406 Q26.625,890.9844 26.2813,891.3906 Q25.7813,891.9688 24.9844,892.2969 Q23.9063,892.75 22.6094,892.75 Q21.0938,892.75 19.8906,892.125 Q18.9063,891.625 18.2188,890.5625 Q17.5313,889.4844 17.5313,888.2031 L17.5313,887.0469 Q17.5313,885.7188 18.1406,884.5781 Q18.7656,883.4219 19.8594,882.8125 Q20.9531,882.1875 22.1875,882.1875 Q22.9219,882.1875 23.5625,882.3594 Q24.2188,882.5156 24.7656,882.875 Z " fill="#000000"/><text fill="#000000" font-family="sans-serif" font-size="14" lengthAdjust="spacing" textLength="105.0479" x="36" y="892.7969">BindingsRegistry</text><line style="stroke:#181818;stroke-width:0.5;" x1="8" x2="143.0479" y1="903" y2="903"/><line style="stroke:#181818;stroke-width:0.5;" x1="8" x2="143.0479" y1="911" y2="911"/></g><!--class branchRegistry--><g id="elem_branchRegistry"><rect codeLine="15" fill="#F1F1F1" height="48" id="branchRegistry" rx="2.5" ry="2.5" style="stroke:#181818;stroke-width:0.5;" width="127.7031" x="670.5" y="871"/><ellipse cx="685.5" cy="887" fill="#ADD1B2" rx="11" ry="11" style="stroke:#181818;stroke-width:1.0;"/><path d="M688.2656,882.875 Q688.4219,882.6563 688.6094,882.5469 Q688.7969,882.4375 689.0156,882.4375 Q689.3906,882.4375 689.625,882.7031 Q689.8594,882.9531 689.8594,883.5625 L689.8594,885.0156 Q689.8594,885.625 689.625,885.8906 Q689.3906,886.1563 689.0156,886.1563 Q688.6719,886.1563 688.4688,885.9531 Q688.2656,885.7656 688.1563,885.25 Q688.1094,884.8906 687.9219,884.7031 Q687.5938,884.3281 686.9844,884.1094 Q686.375,883.8906 685.75,883.8906 Q684.9844,883.8906 684.3438,884.2188 Q683.7188,884.5469 683.2188,885.2969 Q682.7344,886.0469 682.7344,887.0781 L682.7344,888.1719 Q682.7344,889.4063 683.625,890.2344 Q684.5156,891.0469 686.1094,891.0469 Q687.0469,891.0469 687.7031,890.7969 Q688.0938,890.6406 688.5156,890.2031 Q688.7813,889.9375 688.9219,889.8594 Q689.0781,889.7813 689.2813,889.7813 Q689.6094,889.7813 689.8594,890.0469 Q690.125,890.2969 690.125,890.6406 Q690.125,890.9844 689.7813,891.3906 Q689.2813,891.9688 688.4844,892.2969 Q687.4063,892.75 686.1094,892.75 Q684.5938,892.75 683.3906,892.125 Q682.4063,891.625 681.7188,890.5625 Q681.0313,889.4844 681.0313,888.2031 L681.0313,887.0469 Q681.0313,885.7188 681.6406,884.5781 Q682.2656,883.4219 683.3594,882.8125 Q684.4531,882.1875 685.6875,882.1875 Q686.4219,882.1875 687.0625,882.3594 Q687.7188,882.5156 688.2656,882.875 Z " fill="#000000"/><text fill="#000000" font-family="sans-serif" font-size="14" lengthAdjust="spacing" textLength="95.7031" x="699.5" y="892.7969">BranchRegistry</text><line style="stroke:#181818;stroke-width:0.5;" x1="671.5" x2="797.2031" y1="903" y2="903"/><line style="stroke:#181818;stroke-width:0.5;" x1="671.5" x2="797.2031" y1="911" y2="911"/></g><!--class iTreeTraversal--><g id="elem_iTreeTraversal"><rect codeLine="17" fill="#F1F1F1" height="48" id="iTreeTraversal" rx="2.5" ry="2.5" style="stroke:#181818;stroke-width:0.5;" width="123.0205" x="441" y="871"/><ellipse cx="456" cy="887" fill="#ADD1B2" rx="11" ry="11" style="stroke:#181818;stroke-width:1.0;"/><path d="M458.7656,882.875 Q458.9219,882.6563 459.1094,882.5469 Q459.2969,882.4375 459.5156,882.4375 Q459.8906,882.4375 460.125,882.7031 Q460.3594,882.9531 460.3594,883.5625 L460.3594,885.0156 Q460.3594,885.625 460.125,885.8906 Q459.8906,886.1563 459.5156,886.1563 Q459.1719,886.1563 458.9688,885.9531 Q458.7656,885.7656 458.6563,885.25 Q458.6094,884.8906 458.4219,884.7031 Q458.0938,884.3281 457.4844,884.1094 Q456.875,883.8906 456.25,883.8906 Q455.4844,883.8906 454.8438,884.2188 Q454.2188,884.5469 453.7188,885.2969 Q453.2344,886.0469 453.2344,887.0781 L453.2344,888.1719 Q453.2344,889.4063 454.125,890.2344 Q455.0156,891.0469 456.6094,891.0469 Q457.5469,891.0469 458.2031,890.7969 Q458.5938,890.6406 459.0156,890.2031 Q459.2813,889.9375 459.4219,889.8594 Q459.5781,889.7813 459.7813,889.7813 Q460.1094,889.7813 460.3594,890.0469 Q460.625,890.2969 460.625,890.6406 Q460.625,890.9844 460.2813,891.3906 Q459.7813,891.9688 458.9844,892.2969 Q457.9063,892.75 456.6094,892.75 Q455.0938,892.75 453.8906,892.125 Q452.9063,891.625 452.2188,890.5625 Q451.5313,889.4844 451.5313,888.2031 L451.5313,887.0469 Q451.5313,885.7188 452.1406,884.5781 Q452.7656,883.4219 453.8594,882.8125 Q454.9531,882.1875 456.1875,882.1875 Q456.9219,882.1875 457.5625,882.3594 Q458.2188,882.5156 458.7656,882.875 Z " fill="#000000"/><text fill="#000000" font-family="sans-serif" font-size="14" lengthAdjust="spacing" textLength="91.0205" x="470" y="892.7969">ITreeTraversal</text><line style="stroke:#181818;stroke-width:0.5;" x1="442" x2="563.0205" y1="903" y2="903"/><line style="stroke:#181818;stroke-width:0.5;" x1="442" x2="563.0205" y1="911" y2="911"/></g><!--class iBranchVisitor--><g id="elem_iBranchVisitor"><rect codeLine="18" fill="#F1F1F1" height="48" id="iBranchVisitor" rx="2.5" ry="2.5" style="stroke:#181818;stroke-width:0.5;" width="119.1445" x="444" y="979"/><ellipse cx="459" cy="995" fill="#B4A7E5" rx="11" ry="11" style="stroke:#181818;stroke-width:1.0;"/><path d="M459.9531,991.6406 L459.9531,998.2969 L461.6719,998.2969 Q462.2813,998.2969 462.5469,998.5313 Q462.8125,998.7656 462.8125,999.1563 Q462.8125,999.5313 462.5469,999.7656 Q462.2813,1000 461.6719,1000 L456.5313,1000 Q455.9219,1000 455.6563,999.7656 Q455.3906,999.5313 455.3906,999.1406 Q455.3906,998.7656 455.6563,998.5313 Q455.9219,998.2969 456.5313,998.2969 L458.25,998.2969 L458.25,991.6406 L456.5313,991.6406 Q455.9219,991.6406 455.6563,991.4063 Q455.3906,991.1719 455.3906,990.7813 Q455.3906,990.4063 455.6563,990.1719 Q455.9219,989.9375 456.5313,989.9375 L461.6719,989.9375 Q462.2813,989.9375 462.5469,990.1719 Q462.8125,990.4063 462.8125,990.7813 Q462.8125,991.1719 462.5469,991.4063 Q462.2813,991.6406 461.6719,991.6406 L459.9531,991.6406 Z " fill="#000000"/><text fill="#000000" font-family="sans-serif" font-size="14" font-style="italic" lengthAdjust="spacing" textLength="87.1445" x="473" y="1000.7969">IBranchVisitor</text><line style="stroke:#181818;stroke-width:0.5;" x1="445" x2="562.1445" y1="1011" y2="1011"/><line style="stroke:#181818;stroke-width:0.5;" x1="445" x2="562.1445" y1="1019" y2="1019"/></g><!--class mpsToModelixMapInitializerVisitor--><g id="elem_mpsToModelixMapInitializerVisitor"><rect codeLine="19" fill="#F1F1F1" height="48" id="mpsToModelixMapInitializerVisitor" rx="2.5" ry="2.5" style="stroke:#181818;stroke-width:0.5;" width="244.3994" x="438.5" y="1087"/><ellipse cx="453.5" cy="1103" fill="#ADD1B2" rx="11" ry="11" style="stroke:#181818;stroke-width:1.0;"/><path d="M456.2656,1098.875 Q456.4219,1098.6563 456.6094,1098.5469 Q456.7969,1098.4375 457.0156,1098.4375 Q457.3906,1098.4375 457.625,1098.7031 Q457.8594,1098.9531 457.8594,1099.5625 L457.8594,1101.0156 Q457.8594,1101.625 457.625,1101.8906 Q457.3906,1102.1563 457.0156,1102.1563 Q456.6719,1102.1563 456.4688,1101.9531 Q456.2656,1101.7656 456.1563,1101.25 Q456.1094,1100.8906 455.9219,1100.7031 Q455.5938,1100.3281 454.9844,1100.1094 Q454.375,1099.8906 453.75,1099.8906 Q452.9844,1099.8906 452.3438,1100.2188 Q451.7188,1100.5469 451.2188,1101.2969 Q450.7344,1102.0469 450.7344,1103.0781 L450.7344,1104.1719 Q450.7344,1105.4063 451.625,1106.2344 Q452.5156,1107.0469 454.1094,1107.0469 Q455.0469,1107.0469 455.7031,1106.7969 Q456.0938,1106.6406 456.5156,1106.2031 Q456.7813,1105.9375 456.9219,1105.8594 Q457.0781,1105.7813 457.2813,1105.7813 Q457.6094,1105.7813 457.8594,1106.0469 Q458.125,1106.2969 458.125,1106.6406 Q458.125,1106.9844 457.7813,1107.3906 Q457.2813,1107.9688 456.4844,1108.2969 Q455.4063,1108.75 454.1094,1108.75 Q452.5938,1108.75 451.3906,1108.125 Q450.4063,1107.625 449.7188,1106.5625 Q449.0313,1105.4844 449.0313,1104.2031 L449.0313,1103.0469 Q449.0313,1101.7188 449.6406,1100.5781 Q450.2656,1099.4219 451.3594,1098.8125 Q452.4531,1098.1875 453.6875,1098.1875 Q454.4219,1098.1875 455.0625,1098.3594 Q455.7188,1098.5156 456.2656,1098.875 Z " fill="#000000"/><text fill="#000000" font-family="sans-serif" font-size="14" lengthAdjust="spacing" textLength="212.3994" x="467.5" y="1108.7969">MpsToModelixMapInitializerVisitor</text><line style="stroke:#181818;stroke-width:0.5;" x1="439.5" x2="681.8994" y1="1119" y2="1119"/><line style="stroke:#181818;stroke-width:0.5;" x1="439.5" x2="681.8994" y1="1127" y2="1127"/></g><!--class iBinding--><g id="elem_iBinding"><rect codeLine="21" fill="#F1F1F1" height="48" id="iBinding" rx="2.5" ry="2.5" style="stroke:#181818;stroke-width:0.5;" width="82.5928" x="251" y="871"/><ellipse cx="266" cy="887" fill="#B4A7E5" rx="11" ry="11" style="stroke:#181818;stroke-width:1.0;"/><path d="M266.9531,883.6406 L266.9531,890.2969 L268.6719,890.2969 Q269.2813,890.2969 269.5469,890.5313 Q269.8125,890.7656 269.8125,891.1563 Q269.8125,891.5313 269.5469,891.7656 Q269.2813,892 268.6719,892 L263.5313,892 Q262.9219,892 262.6563,891.7656 Q262.3906,891.5313 262.3906,891.1406 Q262.3906,890.7656 262.6563,890.5313 Q262.9219,890.2969 263.5313,890.2969 L265.25,890.2969 L265.25,883.6406 L263.5313,883.6406 Q262.9219,883.6406 262.6563,883.4063 Q262.3906,883.1719 262.3906,882.7813 Q262.3906,882.4063 262.6563,882.1719 Q262.9219,881.9375 263.5313,881.9375 L268.6719,881.9375 Q269.2813,881.9375 269.5469,882.1719 Q269.8125,882.4063 269.8125,882.7813 Q269.8125,883.1719 269.5469,883.4063 Q269.2813,883.6406 268.6719,883.6406 L266.9531,883.6406 Z " fill="#000000"/><text fill="#000000" font-family="sans-serif" font-size="14" font-style="italic" lengthAdjust="spacing" textLength="50.5928" x="280" y="892.7969">IBinding</text><line style="stroke:#181818;stroke-width:0.5;" x1="252" x2="332.5928" y1="903" y2="903"/><line style="stroke:#181818;stroke-width:0.5;" x1="252" x2="332.5928" y1="911" y2="911"/></g><!--class modelBinding--><g id="elem_modelBinding"><rect codeLine="22" fill="#F1F1F1" height="48" id="modelBinding" rx="2.5" ry="2.5" style="stroke:#181818;stroke-width:0.5;" width="116.834" x="262" y="979"/><ellipse cx="277" cy="995" fill="#ADD1B2" rx="11" ry="11" style="stroke:#181818;stroke-width:1.0;"/><path d="M279.7656,990.875 Q279.9219,990.6563 280.1094,990.5469 Q280.2969,990.4375 280.5156,990.4375 Q280.8906,990.4375 281.125,990.7031 Q281.3594,990.9531 281.3594,991.5625 L281.3594,993.0156 Q281.3594,993.625 281.125,993.8906 Q280.8906,994.1563 280.5156,994.1563 Q280.1719,994.1563 279.9688,993.9531 Q279.7656,993.7656 279.6563,993.25 Q279.6094,992.8906 279.4219,992.7031 Q279.0938,992.3281 278.4844,992.1094 Q277.875,991.8906 277.25,991.8906 Q276.4844,991.8906 275.8438,992.2188 Q275.2188,992.5469 274.7188,993.2969 Q274.2344,994.0469 274.2344,995.0781 L274.2344,996.1719 Q274.2344,997.4063 275.125,998.2344 Q276.0156,999.0469 277.6094,999.0469 Q278.5469,999.0469 279.2031,998.7969 Q279.5938,998.6406 280.0156,998.2031 Q280.2813,997.9375 280.4219,997.8594 Q280.5781,997.7813 280.7813,997.7813 Q281.1094,997.7813 281.3594,998.0469 Q281.625,998.2969 281.625,998.6406 Q281.625,998.9844 281.2813,999.3906 Q280.7813,999.9688 279.9844,1000.2969 Q278.9063,1000.75 277.6094,1000.75 Q276.0938,1000.75 274.8906,1000.125 Q273.9063,999.625 273.2188,998.5625 Q272.5313,997.4844 272.5313,996.2031 L272.5313,995.0469 Q272.5313,993.7188 273.1406,992.5781 Q273.7656,991.4219 274.8594,990.8125 Q275.9531,990.1875 277.1875,990.1875 Q277.9219,990.1875 278.5625,990.3594 Q279.2188,990.5156 279.7656,990.875 Z " fill="#000000"/><text fill="#000000" font-family="sans-serif" font-size="14" lengthAdjust="spacing" textLength="84.834" x="291" y="1000.7969">ModelBinding</text><line style="stroke:#181818;stroke-width:0.5;" x1="263" x2="377.834" y1="1011" y2="1011"/><line style="stroke:#181818;stroke-width:0.5;" x1="263" x2="377.834" y1="1019" y2="1019"/></g><!--class moduleBinding--><g id="elem_moduleBinding"><rect codeLine="23" fill="#F1F1F1" height="48" id="moduleBinding" rx="2.5" ry="2.5" style="stroke:#181818;stroke-width:0.5;" width="124.6201" x="102" y="979"/><ellipse cx="117" cy="995" fill="#ADD1B2" rx="11" ry="11" style="stroke:#181818;stroke-width:1.0;"/><path d="M119.7656,990.875 Q119.9219,990.6563 120.1094,990.5469 Q120.2969,990.4375 120.5156,990.4375 Q120.8906,990.4375 121.125,990.7031 Q121.3594,990.9531 121.3594,991.5625 L121.3594,993.0156 Q121.3594,993.625 121.125,993.8906 Q120.8906,994.1563 120.5156,994.1563 Q120.1719,994.1563 119.9688,993.9531 Q119.7656,993.7656 119.6563,993.25 Q119.6094,992.8906 119.4219,992.7031 Q119.0938,992.3281 118.4844,992.1094 Q117.875,991.8906 117.25,991.8906 Q116.4844,991.8906 115.8438,992.2188 Q115.2188,992.5469 114.7188,993.2969 Q114.2344,994.0469 114.2344,995.0781 L114.2344,996.1719 Q114.2344,997.4063 115.125,998.2344 Q116.0156,999.0469 117.6094,999.0469 Q118.5469,999.0469 119.2031,998.7969 Q119.5938,998.6406 120.0156,998.2031 Q120.2813,997.9375 120.4219,997.8594 Q120.5781,997.7813 120.7813,997.7813 Q121.1094,997.7813 121.3594,998.0469 Q121.625,998.2969 121.625,998.6406 Q121.625,998.9844 121.2813,999.3906 Q120.7813,999.9688 119.9844,1000.2969 Q118.9063,1000.75 117.6094,1000.75 Q116.0938,1000.75 114.8906,1000.125 Q113.9063,999.625 113.2188,998.5625 Q112.5313,997.4844 112.5313,996.2031 L112.5313,995.0469 Q112.5313,993.7188 113.1406,992.5781 Q113.7656,991.4219 114.8594,990.8125 Q115.9531,990.1875 117.1875,990.1875 Q117.9219,990.1875 118.5625,990.3594 Q119.2188,990.5156 119.7656,990.875 Z " fill="#000000"/><text fill="#000000" font-family="sans-serif" font-size="14" lengthAdjust="spacing" textLength="92.6201" x="131" y="1000.7969">ModuleBinding</text><line style="stroke:#181818;stroke-width:0.5;" x1="103" x2="225.6201" y1="1011" y2="1011"/><line style="stroke:#181818;stroke-width:0.5;" x1="103" x2="225.6201" y1="1019" y2="1019"/></g><!--class injectableService--><g id="elem_injectableService"><rect codeLine="25" fill="#F1F1F1" height="48" id="injectableService" rx="2.5" ry="2.5" style="stroke:#181818;stroke-width:0.5;" width="138.6133" x="260" y="655"/><ellipse cx="275" cy="671" fill="#B4A7E5" rx="11" ry="11" style="stroke:#181818;stroke-width:1.0;"/><path d="M275.9531,667.6406 L275.9531,674.2969 L277.6719,674.2969 Q278.2813,674.2969 278.5469,674.5313 Q278.8125,674.7656 278.8125,675.1563 Q278.8125,675.5313 278.5469,675.7656 Q278.2813,676 277.6719,676 L272.5313,676 Q271.9219,676 271.6563,675.7656 Q271.3906,675.5313 271.3906,675.1406 Q271.3906,674.7656 271.6563,674.5313 Q271.9219,674.2969 272.5313,674.2969 L274.25,674.2969 L274.25,667.6406 L272.5313,667.6406 Q271.9219,667.6406 271.6563,667.4063 Q271.3906,667.1719 271.3906,666.7813 Q271.3906,666.4063 271.6563,666.1719 Q271.9219,665.9375 272.5313,665.9375 L277.6719,665.9375 Q278.2813,665.9375 278.5469,666.1719 Q278.8125,666.4063 278.8125,666.7813 Q278.8125,667.1719 278.5469,667.4063 Q278.2813,667.6406 277.6719,667.6406 L275.9531,667.6406 Z " fill="#000000"/><text fill="#000000" font-family="sans-serif" font-size="14" font-style="italic" lengthAdjust="spacing" textLength="106.6133" x="289" y="676.7969">InjectableService</text><line style="stroke:#181818;stroke-width:0.5;" x1="261" x2="397.6133" y1="687" y2="687"/><line style="stroke:#181818;stroke-width:0.5;" x1="261" x2="397.6133" y1="695" y2="695"/></g><g id="elem_GMN51"><path d="M584.5,116.5 L584.5,161.082 A0,0 0 0 0 584.5,161.082 L700.1436,161.082 A0,0 0 0 0 700.1436,161.082 L700.1436,126.5 L690.1436,116.5 L611.6,116.5 L507.82,55 L603.6,116.5 L584.5,116.5 A0,0 0 0 0 584.5,116.5 " fill="#FEFFDD" style="stroke:#181818;stroke-width:0.5;"/><path d="M690.1436,116.5 L690.1436,126.5 L700.1436,126.5 L690.1436,116.5 " fill="#FEFFDD" style="stroke:#181818;stroke-width:0.5;"/><text fill="#000000" font-family="sans-serif" font-size="13" lengthAdjust="spacing" textLength="94.6436" x="590.5" y="135.5283">mps-sync-plugin</text><text fill="#000000" font-family="sans-serif" font-size="13" lengthAdjust="spacing" textLength="39.019" x="590.5" y="152.8193">project</text></g><g id="elem_GMN54"><path d="M362.5,224.5 L362.5,269.082 A0,0 0 0 0 362.5,269.082 L478.1436,269.082 A0,0 0 0 0 478.1436,269.082 L478.1436,234.5 L468.1436,224.5 L422.47,224.5 L412.67,163 L414.47,224.5 L362.5,224.5 A0,0 0 0 0 362.5,224.5 " fill="#FEFFDD" style="stroke:#181818;stroke-width:0.5;"/><path d="M468.1436,224.5 L468.1436,234.5 L478.1436,234.5 L468.1436,224.5 " fill="#FEFFDD" style="stroke:#181818;stroke-width:0.5;"/><text fill="#000000" font-family="sans-serif" font-size="13" lengthAdjust="spacing" textLength="94.6436" x="368.5" y="243.5283">mps-sync-plugin</text><text fill="#000000" font-family="sans-serif" font-size="13" lengthAdjust="spacing" textLength="39.019" x="368.5" y="260.8193">project</text></g><g id="elem_GMN57"><path d="M465.5,440.5 L465.5,459 L430.54,463 L465.5,467 L465.5,485.082 A0,0 0 0 0 465.5,485.082 L581.1436,485.082 A0,0 0 0 0 581.1436,485.082 L581.1436,450.5 L571.1436,440.5 L465.5,440.5 A0,0 0 0 0 465.5,440.5 " fill="#FEFFDD" style="stroke:#181818;stroke-width:0.5;"/><path d="M571.1436,440.5 L571.1436,450.5 L581.1436,450.5 L571.1436,440.5 " fill="#FEFFDD" style="stroke:#181818;stroke-width:0.5;"/><text fill="#000000" font-family="sans-serif" font-size="13" lengthAdjust="spacing" textLength="94.6436" x="471.5" y="459.5283">mps-sync-plugin</text><text fill="#000000" font-family="sans-serif" font-size="13" lengthAdjust="spacing" textLength="39.019" x="471.5" y="476.8193">project</text></g><!--link modelSyncGui to modelSyncService--><g id="link_modelSyncGui_modelSyncService"><path codeLine="28" d="M480.36,55.01 C503.82,113.58 556.62,271.32 495.5,379 C479.89,406.5 456.5729,423.2715 429.2629,436.3315 " fill="none" id="modelSyncGui-to-modelSyncService" style="stroke:#181818;stroke-width:1.0;"/><polygon fill="#181818" points="423.85,438.92,433.695,438.6458,428.3608,436.7629,430.2437,431.4286,423.85,438.92" style="stroke:#181818;stroke-width:1.0;"/></g><!--link modelSyncGui to syncPluginState--><g id="link_modelSyncGui_syncPluginState"><path codeLine="29" d="M457.48,55 C447.49,72.66 436.6953,91.7183 426.6553,109.4583 " fill="none" id="modelSyncGui-to-syncPluginState" style="stroke:#181818;stroke-width:1.0;stroke-dasharray:7.0,7.0;"/><polygon fill="#181818" points="423.7,114.68,431.614,108.8176,426.1627,110.3286,424.6517,104.8772,423.7,114.68" style="stroke:#181818;stroke-width:1.0;"/></g><!--link modelSyncGui to persistableState--><g id="link_modelSyncGui_persistableState"><path codeLine="30" d="M413.21,55.08 C384.12,69.02 349.87,89.14 325.5,115 C295.72,146.6 278.6116,188.7327 269.2716,217.0127 " fill="none" id="modelSyncGui-to-persistableState" style="stroke:#181818;stroke-width:1.0;stroke-dasharray:7.0,7.0;"/><polygon fill="#181818" points="267.39,222.71,274.0107,215.4185,268.958,217.9622,266.4143,212.9096,267.39,222.71" style="stroke:#181818;stroke-width:1.0;"/></g><!--link syncPluginState to persistableState--><g id="link_syncPluginState_persistableState"><path codeLine="32" d="M377.95,163 C352.88,180.72 323.2708,201.6484 298.1408,219.3984 " fill="none" id="syncPluginState-to-persistableState" style="stroke:#181818;stroke-width:1.0;"/><polygon fill="#181818" points="293.24,222.86,302.8989,220.9349,297.324,219.9754,298.2835,214.4005,293.24,222.86" style="stroke:#181818;stroke-width:1.0;"/></g><!--reverse link iRebindModulesSyncService to iSyncService--><g id="link_iRebindModulesSyncService_iSyncService"><path codeLine="34" d="M495.5702,372.0223 C540.7302,382.8923 571.85,399.45 599.5,439 C624.73,475.1 584.41,520.04 553.52,546.8 " fill="none" id="iRebindModulesSyncService-backto-iSyncService" style="stroke:#181818;stroke-width:1.0;"/><polygon fill="none" points="478.07,367.81,494.1661,377.8557,496.9743,366.1889,478.07,367.81" style="stroke:#181818;stroke-width:1.0;"/></g><!--reverse link iRebindModulesSyncService to modelSyncService--><g id="link_iRebindModulesSyncService_modelSyncService"><path codeLine="35" d="M366.3392,396.7977 C363.6692,414.4577 362.7,420.94 360.02,438.68 " fill="none" id="iRebindModulesSyncService-backto-modelSyncService" style="stroke:#181818;stroke-width:1.0;stroke-dasharray:7.0,7.0;"/><polygon fill="none" points="369.03,379,360.4066,395.9008,372.2718,397.6947,369.03,379" style="stroke:#181818;stroke-width:1.0;"/></g><!--link modelSyncService to serviceLocator--><g id="link_modelSyncService_serviceLocator"><path codeLine="36" d="M353.46,487 C351.13,504.66 348.7046,522.9915 346.3646,540.7315 " fill="none" id="modelSyncService-to-serviceLocator" style="stroke:#181818;stroke-width:1.0;stroke-dasharray:7.0,7.0;"/><polygon fill="#181818" points="345.58,546.68,350.7226,538.2804,346.2339,541.7229,342.7913,537.2342,345.58,546.68" style="stroke:#181818;stroke-width:1.0;"/></g><!--link modelSyncService to iSyncService--><g id="link_modelSyncService_iSyncService"><path codeLine="37" d="M392.74,487 C420.65,504.72 454.014,525.8951 481.984,543.6451 " fill="none" id="modelSyncService-to-iSyncService" style="stroke:#181818;stroke-width:1.0;"/><polygon fill="#181818" points="487.05,546.86,481.5943,538.6603,482.8283,544.1809,477.3077,545.4149,487.05,546.86" style="stroke:#181818;stroke-width:1.0;"/></g><!--link serviceLocator to syncServiceImpl--><g id="link_serviceLocator_syncServiceImpl"><path codeLine="39" d="M377.0884,603.4603 C393.0484,618.9603 404.14,632.28 416.5,655 C435.43,689.81 444.0721,729.4253 448.4221,756.6153 " fill="none" id="serviceLocator-syncServiceImpl" style="stroke:#181818;stroke-width:1.0;"/><polygon fill="#181818" points="368.48,595.1,369.9974,602.1496,377.0884,603.4603,375.571,596.4107,368.48,595.1" style="stroke:#181818;stroke-width:1.0;"/><polygon fill="#181818" points="449.37,762.54,451.898,753.0211,448.5801,757.6028,443.9984,754.2849,449.37,762.54" style="stroke:#181818;stroke-width:1.0;"/></g><!--link serviceLocator to bindingsRegistry--><g id="link_serviceLocator_bindingsRegistry"><path codeLine="40" d="M300.1439,602.4286 C279.4939,617.9786 262.63,632.44 242.5,655 C187.35,716.81 188.75,743.66 140.5,811 C125.68,831.68 111.5565,849.6995 98.3065,866.1295 " fill="none" id="serviceLocator-bindingsRegistry" style="stroke:#181818;stroke-width:1.0;"/><polygon fill="#181818" points="309.73,595.21,302.5308,595.6239,300.1439,602.4286,307.3432,602.0146,309.73,595.21" style="stroke:#181818;stroke-width:1.0;"/><polygon fill="#181818" points="94.54,870.8,103.3034,866.3053,97.6788,866.9079,97.0761,861.2833,94.54,870.8" style="stroke:#181818;stroke-width:1.0;"/></g><!--link serviceLocator to branchRegistry--><g id="link_serviceLocator_branchRegistry"><path codeLine="41" d="M387.3267,601.8929 C438.4167,636.3729 525.89,697.47 602.5,763 C643.72,798.26 683.5864,839.2828 708.9364,866.3228 " fill="none" id="serviceLocator-branchRegistry" style="stroke:#181818;stroke-width:1.0;"/><polygon fill="#181818" points="377.38,595.18,380.1157,601.852,387.3267,601.8929,384.591,595.2209,377.38,595.18" style="stroke:#181818;stroke-width:1.0;"/><polygon fill="#181818" points="713.04,870.7,709.8027,861.3984,709.6203,867.0523,703.9664,866.8699,713.04,870.7" style="stroke:#181818;stroke-width:1.0;"/></g><!--link serviceLocator to injectableService--><g id="link_serviceLocator_injectableService"><path codeLine="42" d="M339.68,595 C337.51,612.66 334.54,636.94 332.36,654.68 " fill="none" id="serviceLocator-injectableService" style="stroke:#181818;stroke-width:1.0;stroke-dasharray:7.0,7.0;"/></g><!--reverse link iSyncService to syncServiceImpl--><g id="link_iSyncService_syncServiceImpl"><path codeLine="44" d="M510.1003,612.3938 C496.4403,653.5538 473.87,721.58 460.22,762.72 " fill="none" id="iSyncService-backto-syncServiceImpl" style="stroke:#181818;stroke-width:1.0;stroke-dasharray:7.0,7.0;"/><polygon fill="none" points="515.77,595.31,504.4057,610.5039,515.7949,614.2836,515.77,595.31" style="stroke:#181818;stroke-width:1.0;"/></g><!--link syncServiceImpl to branchRegistry--><g id="link_syncServiceImpl_branchRegistry"><path codeLine="45" d="M513.69,811 C560.83,828.72 620.0935,850.9992 667.3235,868.7492 " fill="none" id="syncServiceImpl-to-branchRegistry" style="stroke:#181818;stroke-width:1.0;"/><polygon fill="#181818" points="672.94,870.86,665.9225,863.9495,668.2596,869.101,663.1081,871.4381,672.94,870.86" style="stroke:#181818;stroke-width:1.0;"/></g><!--link syncServiceImpl to bindingsRegistry--><g id="link_syncServiceImpl_bindingsRegistry"><path codeLine="46" d="M384.23,807.2 C316.22,826.32 218.1559,853.8855 149.9959,873.0555 " fill="none" id="syncServiceImpl-to-bindingsRegistry" style="stroke:#181818;stroke-width:1.0;"/><polygon fill="#181818" points="144.22,874.68,153.9668,876.0939,149.0333,873.3263,151.8009,868.3927,144.22,874.68" style="stroke:#181818;stroke-width:1.0;"/></g><!--link syncServiceImpl to iTreeTraversal--><g id="link_syncServiceImpl_iTreeTraversal"><path codeLine="47" d="M463.35,811 C471.68,828.66 480.5698,847.5137 488.9398,865.2537 " fill="none" id="syncServiceImpl-to-iTreeTraversal" style="stroke:#181818;stroke-width:1.0;stroke-dasharray:7.0,7.0;"/><polygon fill="#181818" points="491.5,870.68,491.2772,860.8337,489.3665,866.158,484.0421,864.2473,491.5,870.68" style="stroke:#181818;stroke-width:1.0;"/></g><!--link syncServiceImpl to mpsToModelixMapInitializerVisitor--><g id="link_syncServiceImpl_mpsToModelixMapInitializerVisitor"><path codeLine="48" d="M513.1,811.16 C539.07,824.47 566.77,844 581.5,871 C620.11,941.75 590.5663,1036.5143 572.7663,1081.2943 " fill="none" id="syncServiceImpl-to-mpsToModelixMapInitializerVisitor" style="stroke:#181818;stroke-width:1.0;stroke-dasharray:7.0,7.0;"/><polygon fill="#181818" points="570.55,1086.87,577.5916,1079.9841,572.3969,1082.2236,570.1574,1077.029,570.55,1086.87" style="stroke:#181818;stroke-width:1.0;"/></g><!--link syncServiceImpl to modelBinding--><g id="link_syncServiceImpl_modelBinding"><path codeLine="49" d="M438.12,811.31 C412.73,852.47 363.3903,932.4735 338.0103,973.6135 " fill="none" id="syncServiceImpl-to-modelBinding" style="stroke:#181818;stroke-width:1.0;stroke-dasharray:7.0,7.0;"/><polygon fill="#181818" points="334.86,978.72,342.9897,973.1605,337.4852,974.4646,336.1811,968.9601,334.86,978.72" style="stroke:#181818;stroke-width:1.0;"/></g><!--link syncServiceImpl to moduleBinding--><g id="link_syncServiceImpl_moduleBinding"><path codeLine="50" d="M384.37,800.51 C337.42,812.08 276.06,833.36 233.5,871 C200.19,900.46 182.2305,944.2193 172.8905,973.1993 " fill="none" id="syncServiceImpl-to-moduleBinding" style="stroke:#181818;stroke-width:1.0;stroke-dasharray:7.0,7.0;"/><polygon fill="#181818" points="171.05,978.91,177.6179,971.5709,172.5838,974.1511,170.0036,969.1169,171.05,978.91" style="stroke:#181818;stroke-width:1.0;"/></g><!--reverse link injectableService to syncServiceImpl--><g id="link_injectableService_syncServiceImpl"><path codeLine="52" d="M369.8246,714.7515 C390.3146,732.4115 404.86,744.94 425.44,762.68 " fill="none" id="injectableService-backto-syncServiceImpl" style="stroke:#181818;stroke-width:1.0;stroke-dasharray:7.0,7.0;"/><polygon fill="none" points="356.19,703,365.9075,719.2963,373.7418,710.2066,356.19,703" style="stroke:#181818;stroke-width:1.0;"/></g><!--reverse link injectableService to bindingsRegistry--><g id="link_injectableService_bindingsRegistry"><path codeLine="53" d="M307.287,718.7673 C290.537,747.0473 268.37,779.39 231.5,811 C202.15,836.16 163.9,856.66 132.63,870.99 " fill="none" id="injectableService-backto-bindingsRegistry" style="stroke:#181818;stroke-width:1.0;stroke-dasharray:7.0,7.0;"/><polygon fill="none" points="316.46,703.28,302.1246,715.7096,312.4494,721.825,316.46,703.28" style="stroke:#181818;stroke-width:1.0;"/></g><!--reverse link injectableService to branchRegistry--><g id="link_injectableService_branchRegistry"><path codeLine="54" d="M414.872,709.1379 C456.482,724.1479 493.22,739.22 538.5,763 C600.28,795.45 666.71,842.78 704.19,870.78 " fill="none" id="injectableService-backto-branchRegistry" style="stroke:#181818;stroke-width:1.0;stroke-dasharray:7.0,7.0;"/><polygon fill="none" points="397.94,703.03,412.8361,714.7819,416.908,703.4939,397.94,703.03" style="stroke:#181818;stroke-width:1.0;"/></g><!--link persistableState to iRebindModulesSyncService--><g id="link_persistableState_iRebindModulesSyncService"><path codeLine="56" d="M284.8,271 C303.46,288.66 324.7627,308.8152 343.5027,326.5552 " fill="none" id="persistableState-to-iRebindModulesSyncService" style="stroke:#181818;stroke-width:1.0;stroke-dasharray:7.0,7.0;"/><polygon fill="#181818" points="347.86,330.68,344.0739,321.5879,344.2289,327.2427,338.5742,327.3977,347.86,330.68" style="stroke:#181818;stroke-width:1.0;"/></g><!--link persistableState to serviceLocator--><g id="link_persistableState_serviceLocator"><path codeLine="57" d="M254.83,271.17 C245.22,315.6 229.94,414.75 264.5,487 C275.68,510.37 291.3532,527.5664 308.3832,542.6864 " fill="none" id="persistableState-to-serviceLocator" style="stroke:#181818;stroke-width:1.0;stroke-dasharray:7.0,7.0;"/><polygon fill="#181818" points="312.87,546.67,308.7955,537.7035,309.131,543.3504,303.4841,543.6858,312.87,546.67" style="stroke:#181818;stroke-width:1.0;"/></g><!--link persistableState to branchRegistry--><g id="link_persistableState_branchRegistry"><path codeLine="58" d="M327.74,268.47 C375.37,283.76 440.34,306.22 495.5,331 C605.28,380.32 732.5,341.65 732.5,462 C732.5,462 732.5,462 732.5,680 C732.5,749.48 733.4829,825.6406 734.0529,864.8806 " fill="none" id="persistableState-to-branchRegistry" style="stroke:#181818;stroke-width:1.0;stroke-dasharray:7.0,7.0;"/><polygon fill="#181818" points="734.14,870.88,738.0089,861.8229,734.0674,865.8805,730.0097,861.939,734.14,870.88" style="stroke:#181818;stroke-width:1.0;"/></g><!--link persistableState to bindingsRegistry--><g id="link_persistableState_bindingsRegistry"><path codeLine="59" d="M230.6,271.08 C187.89,306.92 114.5,380.37 114.5,462 C114.5,462 114.5,462 114.5,680 C114.5,750.43 95.4616,826.0547 84.2216,865.0547 " fill="none" id="persistableState-to-bindingsRegistry" style="stroke:#181818;stroke-width:1.0;stroke-dasharray:7.0,7.0;"/><polygon fill="#181818" points="82.56,870.82,88.896,863.2797,83.9447,866.0156,81.2088,861.0643,82.56,870.82" style="stroke:#181818;stroke-width:1.0;"/></g><!--link iTreeTraversal to iBranchVisitor--><g id="link_iTreeTraversal_iBranchVisitor"><path codeLine="61" d="M502.72,919 C502.88,936.66 503.0525,954.9403 503.2225,972.6803 " fill="none" id="iTreeTraversal-to-iBranchVisitor" style="stroke:#181818;stroke-width:1.0;stroke-dasharray:7.0,7.0;"/><polygon fill="#181818" points="503.28,978.68,507.1936,969.6421,503.2321,973.6802,499.1939,969.7187,503.28,978.68" style="stroke:#181818;stroke-width:1.0;"/></g><!--reverse link iBranchVisitor to mpsToModelixMapInitializerVisitor--><g id="link_iBranchVisitor_mpsToModelixMapInitializerVisitor"><path codeLine="62" d="M524.3904,1042.8557 C533.8804,1060.5157 538.42,1068.94 547.96,1086.68 " fill="none" id="iBranchVisitor-backto-mpsToModelixMapInitializerVisitor" style="stroke:#181818;stroke-width:1.0;stroke-dasharray:7.0,7.0;"/><polygon fill="none" points="515.87,1027,519.1052,1045.6958,529.6756,1040.0155,515.87,1027" style="stroke:#181818;stroke-width:1.0;"/></g><!--reverse link iBinding to modelBinding--><g id="link_iBinding_modelBinding"><path codeLine="64" d="M303.1725,936.4043 C307.8325,954.0643 309.65,960.94 314.34,978.68 " fill="none" id="iBinding-backto-modelBinding" style="stroke:#181818;stroke-width:1.0;stroke-dasharray:7.0,7.0;"/><polygon fill="none" points="298.58,919,297.3711,937.9351,308.9739,934.8734,298.58,919" style="stroke:#181818;stroke-width:1.0;"/></g><!--reverse link iBinding to moduleBinding--><g id="link_iBinding_moduleBinding"><path codeLine="65" d="M250.8653,930.4791 C229.5353,948.1391 214.08,960.94 192.66,978.68 " fill="none" id="iBinding-backto-moduleBinding" style="stroke:#181818;stroke-width:1.0;stroke-dasharray:7.0,7.0;"/><polygon fill="none" points="264.73,919,247.0389,925.8576,254.6917,935.1007,264.73,919" style="stroke:#181818;stroke-width:1.0;"/></g><!--link bindingsRegistry to modelBinding--><g id="link_bindingsRegistry_modelBinding"><path codeLine="67" d="M139.6735,923.7646 C180.6335,941.4846 220.4832,958.7277 261.5132,976.4777 " fill="none" id="bindingsRegistry-modelBinding" style="stroke:#181818;stroke-width:1.0;"/><polygon fill="#181818" points="128.66,919,132.5786,925.0535,139.6735,923.7646,135.755,917.7111,128.66,919" style="stroke:#181818;stroke-width:1.0;"/><polygon fill="#181818" points="267.02,978.86,260.348,971.6154,262.431,976.8748,257.1716,978.9578,267.02,978.86" style="stroke:#181818;stroke-width:1.0;"/></g><!--link bindingsRegistry to moduleBinding--><g id="link_bindingsRegistry_moduleBinding"><path codeLine="68" d="M102.527,928.1896 C117.357,945.8496 126.1726,956.3443 141.0626,974.0843 " fill="none" id="bindingsRegistry-moduleBinding" style="stroke:#181818;stroke-width:1.0;"/><polygon fill="#181818" points="94.81,919,95.6053,926.1671,102.527,928.1896,101.7317,921.0225,94.81,919" style="stroke:#181818;stroke-width:1.0;"/><polygon fill="#181818" points="144.92,978.68,142.1977,969.2148,141.7055,974.8502,136.0701,974.358,144.92,978.68" style="stroke:#181818;stroke-width:1.0;"/></g><!--SRC=[ZPN1QiCm38RlUGhJIs2GFi0OFGp6AAnZj6MdNTpCRJKIEzZkMCSUVawSP9Rij3kL_FqKITOl9t-G5Ym8asTbnOrXivLw5zNcBCl74ymODwmEX0ZQ2Fq9fS1WBmvmAxrKfmF8ZUNMimPhsS2-26t0MBwhn1_S437BG5gXzxmKRBPSYnt8TrVHgHA6rWHJ_-9tH64JRVJIicwgiOr06zlejITLSgkqHv4qWFUkE907inO7rw4-T-YEY2EikIoF64NIc7-vrK9iDVzq9yTzgO0arBr_xoiO68e598rJRynMTQE7hnLlbj8vXrVmBNGOMr-ZyD7t9z2dzG_8PY5G1q80kTaIwa_1sUI7ABsHmcbJDSlojQYu1INTOeGBm8fY4HiT4VFv8h9t1CIM9Y5TeeJnf_pCxdwA0lls4ZkVN-XYmBfEi6qZfYqJPSrm1Bjf2RedAIPoVHB2VYU8woenIuXQZyh1pooLAOL45HEeFK2oToda-iOaey9Tc03m6f2JIP_511RrEiMH2ubQs9_9vAsSn8a7amp9csPe3naUZgyDNttuiT-SVznm_R47gpOC8leh718jqRiUnKyYuNloPsNRZxfqFsodh5KrKtlqBRzj-oZQyHTDT- -yoKQhTgWqYbnDrm8r78uMPUkdUo7m5m00]--></g></svg>
