<svg xmlns="http://www.w3.org/2000/svg" xmlns:xlink="http://www.w3.org/1999/xlink" contentStyleType="text/css" height="706px" preserveAspectRatio="none" style="width:2990px;height:706px;background:#FFFFFF;" version="1.1" viewBox="0 0 2990 706" width="2990px" zoomAndPan="magnify"><defs/><g><!--class ISyncService--><g id="elem_ISyncService"><rect codeLine="2" fill="#F1F1F1" height="85.2422" id="ISyncService" rx="2.5" ry="2.5" style="stroke:#181818;stroke-width:0.5;" width="545.8184" x="272.5" y="290.26"/><ellipse cx="500.311" cy="306.26" fill="#B4A7E5" rx="11" ry="11" style="stroke:#181818;stroke-width:1.0;"/><path d="M501.2642,302.9006 L501.2642,309.5569 L502.9829,309.5569 Q503.5923,309.5569 503.8579,309.7913 Q504.1235,310.0256 504.1235,310.4163 Q504.1235,310.7913 503.8579,311.0256 Q503.5923,311.26 502.9829,311.26 L497.8423,311.26 Q497.2329,311.26 496.9673,311.0256 Q496.7017,310.7913 496.7017,310.4006 Q496.7017,310.0256 496.9673,309.7913 Q497.2329,309.5569 497.8423,309.5569 L499.561,309.5569 L499.561,302.9006 L497.8423,302.9006 Q497.2329,302.9006 496.9673,302.6663 Q496.7017,302.4319 496.7017,302.0413 Q496.7017,301.6663 496.9673,301.4319 Q497.2329,301.1975 497.8423,301.1975 L502.9829,301.1975 Q503.5923,301.1975 503.8579,301.4319 Q504.1235,301.6663 504.1235,302.0413 Q504.1235,302.4319 503.8579,302.6663 Q503.5923,302.9006 502.9829,302.9006 L501.2642,302.9006 Z " fill="#000000"/><text fill="#000000" font-family="sans-serif" font-size="14" font-style="italic" lengthAdjust="spacing" textLength="81.6963" x="520.811" y="312.0569">ISyncService</text><line style="stroke:#181818;stroke-width:0.5;" x1="273.5" x2="817.3184" y1="322.26" y2="322.26"/><line style="stroke:#181818;stroke-width:0.5;" x1="273.5" x2="817.3184" y1="330.26" y2="330.26"/><ellipse cx="283.5" cy="345.0705" fill="#84BE84" rx="3" ry="3" style="stroke:#038048;stroke-width:1.0;"/><text fill="#000000" font-family="sans-serif" font-size="14" font-style="italic" lengthAdjust="spacing" textLength="423.3086" x="292.5" y="349.3674">bindModelFromMps(model: SModelBase, branch: IBranch): IBinding</text><ellipse cx="283.5" cy="363.6916" fill="#84BE84" rx="3" ry="3" style="stroke:#038048;stroke-width:1.0;"/><text fill="#000000" font-family="sans-serif" font-size="14" font-style="italic" lengthAdjust="spacing" textLength="519.8184" x="292.5" y="367.9885">bindModuleFromMps(module: AbstractModule, branch: IBranch): Iterable&lt;IBinding&gt;</text></g><!--class syncServiceImpl--><g id="elem_syncServiceImpl"><rect codeLine="6" fill="#F1F1F1" height="48" id="syncServiceImpl" rx="2.5" ry="2.5" style="stroke:#181818;stroke-width:0.5;" width="136.2549" x="682.5" y="435.26"/><ellipse cx="697.5" cy="451.26" fill="#ADD1B2" rx="11" ry="11" style="stroke:#181818;stroke-width:1.0;"/><path d="M700.2656,447.135 Q700.4219,446.9163 700.6094,446.8069 Q700.7969,446.6975 701.0156,446.6975 Q701.3906,446.6975 701.625,446.9631 Q701.8594,447.2131 701.8594,447.8225 L701.8594,449.2756 Q701.8594,449.885 701.625,450.1506 Q701.3906,450.4163 701.0156,450.4163 Q700.6719,450.4163 700.4688,450.2131 Q700.2656,450.0256 700.1563,449.51 Q700.1094,449.1506 699.9219,448.9631 Q699.5938,448.5881 698.9844,448.3694 Q698.375,448.1506 697.75,448.1506 Q696.9844,448.1506 696.3438,448.4788 Q695.7188,448.8069 695.2188,449.5569 Q694.7344,450.3069 694.7344,451.3381 L694.7344,452.4319 Q694.7344,453.6663 695.625,454.4944 Q696.5156,455.3069 698.1094,455.3069 Q699.0469,455.3069 699.7031,455.0569 Q700.0938,454.9006 700.5156,454.4631 Q700.7813,454.1975 700.9219,454.1194 Q701.0781,454.0413 701.2813,454.0413 Q701.6094,454.0413 701.8594,454.3069 Q702.125,454.5569 702.125,454.9006 Q702.125,455.2444 701.7813,455.6506 Q701.2813,456.2288 700.4844,456.5569 Q699.4063,457.01 698.1094,457.01 Q696.5938,457.01 695.3906,456.385 Q694.4063,455.885 693.7188,454.8225 Q693.0313,453.7444 693.0313,452.4631 L693.0313,451.3069 Q693.0313,449.9788 693.6406,448.8381 Q694.2656,447.6819 695.3594,447.0725 Q696.4531,446.4475 697.6875,446.4475 Q698.4219,446.4475 699.0625,446.6194 Q699.7188,446.7756 700.2656,447.135 Z " fill="#000000"/><text fill="#000000" font-family="sans-serif" font-size="14" lengthAdjust="spacing" textLength="104.2549" x="711.5" y="457.0569">SyncServiceImpl</text><line style="stroke:#181818;stroke-width:0.5;" x1="683.5" x2="817.7549" y1="467.26" y2="467.26"/><line style="stroke:#181818;stroke-width:0.5;" x1="683.5" x2="817.7549" y1="475.26" y2="475.26"/></g><!--class iBinding--><g id="elem_iBinding"><rect codeLine="8" fill="#F1F1F1" height="48" id="iBinding" rx="2.5" ry="2.5" style="stroke:#181818;stroke-width:0.5;" width="82.5928" x="28" y="543.26"/><ellipse cx="43" cy="559.26" fill="#B4A7E5" rx="11" ry="11" style="stroke:#181818;stroke-width:1.0;"/><path d="M43.9531,555.9006 L43.9531,562.5569 L45.6719,562.5569 Q46.2813,562.5569 46.5469,562.7913 Q46.8125,563.0256 46.8125,563.4163 Q46.8125,563.7913 46.5469,564.0256 Q46.2813,564.26 45.6719,564.26 L40.5313,564.26 Q39.9219,564.26 39.6563,564.0256 Q39.3906,563.7913 39.3906,563.4006 Q39.3906,563.0256 39.6563,562.7913 Q39.9219,562.5569 40.5313,562.5569 L42.25,562.5569 L42.25,555.9006 L40.5313,555.9006 Q39.9219,555.9006 39.6563,555.6663 Q39.3906,555.4319 39.3906,555.0413 Q39.3906,554.6663 39.6563,554.4319 Q39.9219,554.1975 40.5313,554.1975 L45.6719,554.1975 Q46.2813,554.1975 46.5469,554.4319 Q46.8125,554.6663 46.8125,555.0413 Q46.8125,555.4319 46.5469,555.6663 Q46.2813,555.9006 45.6719,555.9006 L43.9531,555.9006 Z " fill="#000000"/><text fill="#000000" font-family="sans-serif" font-size="14" font-style="italic" lengthAdjust="spacing" textLength="50.5928" x="57" y="565.0569">IBinding</text><line style="stroke:#181818;stroke-width:0.5;" x1="29" x2="109.5928" y1="575.26" y2="575.26"/><line style="stroke:#181818;stroke-width:0.5;" x1="29" x2="109.5928" y1="583.26" y2="583.26"/></g><!--class modelBinding--><g id="elem_modelBinding"><rect codeLine="9" fill="#F1F1F1" height="48" id="modelBinding" rx="2.5" ry="2.5" style="stroke:#181818;stroke-width:0.5;" width="116.834" x="167" y="651.26"/><ellipse cx="182" cy="667.26" fill="#ADD1B2" rx="11" ry="11" style="stroke:#181818;stroke-width:1.0;"/><path d="M184.7656,663.135 Q184.9219,662.9163 185.1094,662.8069 Q185.2969,662.6975 185.5156,662.6975 Q185.8906,662.6975 186.125,662.9631 Q186.3594,663.2131 186.3594,663.8225 L186.3594,665.2756 Q186.3594,665.885 186.125,666.1506 Q185.8906,666.4163 185.5156,666.4163 Q185.1719,666.4163 184.9688,666.2131 Q184.7656,666.0256 184.6563,665.51 Q184.6094,665.1506 184.4219,664.9631 Q184.0938,664.5881 183.4844,664.3694 Q182.875,664.1506 182.25,664.1506 Q181.4844,664.1506 180.8438,664.4788 Q180.2188,664.8069 179.7188,665.5569 Q179.2344,666.3069 179.2344,667.3381 L179.2344,668.4319 Q179.2344,669.6663 180.125,670.4944 Q181.0156,671.3069 182.6094,671.3069 Q183.5469,671.3069 184.2031,671.0569 Q184.5938,670.9006 185.0156,670.4631 Q185.2813,670.1975 185.4219,670.1194 Q185.5781,670.0413 185.7813,670.0413 Q186.1094,670.0413 186.3594,670.3069 Q186.625,670.5569 186.625,670.9006 Q186.625,671.2444 186.2813,671.6506 Q185.7813,672.2288 184.9844,672.5569 Q183.9063,673.01 182.6094,673.01 Q181.0938,673.01 179.8906,672.385 Q178.9063,671.885 178.2188,670.8225 Q177.5313,669.7444 177.5313,668.4631 L177.5313,667.3069 Q177.5313,665.9788 178.1406,664.8381 Q178.7656,663.6819 179.8594,663.0725 Q180.9531,662.4475 182.1875,662.4475 Q182.9219,662.4475 183.5625,662.6194 Q184.2188,662.7756 184.7656,663.135 Z " fill="#000000"/><text fill="#000000" font-family="sans-serif" font-size="14" lengthAdjust="spacing" textLength="84.834" x="196" y="673.0569">ModelBinding</text><line style="stroke:#181818;stroke-width:0.5;" x1="168" x2="282.834" y1="683.26" y2="683.26"/><line style="stroke:#181818;stroke-width:0.5;" x1="168" x2="282.834" y1="691.26" y2="691.26"/></g><!--class moduleBinding--><g id="elem_moduleBinding"><rect codeLine="10" fill="#F1F1F1" height="48" id="moduleBinding" rx="2.5" ry="2.5" style="stroke:#181818;stroke-width:0.5;" width="124.6201" x="7" y="651.26"/><ellipse cx="22" cy="667.26" fill="#ADD1B2" rx="11" ry="11" style="stroke:#181818;stroke-width:1.0;"/><path d="M24.7656,663.135 Q24.9219,662.9163 25.1094,662.8069 Q25.2969,662.6975 25.5156,662.6975 Q25.8906,662.6975 26.125,662.9631 Q26.3594,663.2131 26.3594,663.8225 L26.3594,665.2756 Q26.3594,665.885 26.125,666.1506 Q25.8906,666.4163 25.5156,666.4163 Q25.1719,666.4163 24.9688,666.2131 Q24.7656,666.0256 24.6563,665.51 Q24.6094,665.1506 24.4219,664.9631 Q24.0938,664.5881 23.4844,664.3694 Q22.875,664.1506 22.25,664.1506 Q21.4844,664.1506 20.8438,664.4788 Q20.2188,664.8069 19.7188,665.5569 Q19.2344,666.3069 19.2344,667.3381 L19.2344,668.4319 Q19.2344,669.6663 20.125,670.4944 Q21.0156,671.3069 22.6094,671.3069 Q23.5469,671.3069 24.2031,671.0569 Q24.5938,670.9006 25.0156,670.4631 Q25.2813,670.1975 25.4219,670.1194 Q25.5781,670.0413 25.7813,670.0413 Q26.1094,670.0413 26.3594,670.3069 Q26.625,670.5569 26.625,670.9006 Q26.625,671.2444 26.2813,671.6506 Q25.7813,672.2288 24.9844,672.5569 Q23.9063,673.01 22.6094,673.01 Q21.0938,673.01 19.8906,672.385 Q18.9063,671.885 18.2188,670.8225 Q17.5313,669.7444 17.5313,668.4631 L17.5313,667.3069 Q17.5313,665.9788 18.1406,664.8381 Q18.7656,663.6819 19.8594,663.0725 Q20.9531,662.4475 22.1875,662.4475 Q22.9219,662.4475 23.5625,662.6194 Q24.2188,662.7756 24.7656,663.135 Z " fill="#000000"/><text fill="#000000" font-family="sans-serif" font-size="14" lengthAdjust="spacing" textLength="92.6201" x="36" y="673.0569">ModuleBinding</text><line style="stroke:#181818;stroke-width:0.5;" x1="8" x2="130.6201" y1="683.26" y2="683.26"/><line style="stroke:#181818;stroke-width:0.5;" x1="8" x2="130.6201" y1="691.26" y2="691.26"/></g><!--class injectableService--><g id="elem_injectableService"><rect codeLine="12" fill="#F1F1F1" height="48" id="injectableService" rx="2.5" ry="2.5" style="stroke:#181818;stroke-width:0.5;" width="138.6133" x="996" y="308.76"/><ellipse cx="1011" cy="324.76" fill="#B4A7E5" rx="11" ry="11" style="stroke:#181818;stroke-width:1.0;"/><path d="M1011.9531,321.4006 L1011.9531,328.0569 L1013.6719,328.0569 Q1014.2813,328.0569 1014.5469,328.2913 Q1014.8125,328.5256 1014.8125,328.9163 Q1014.8125,329.2913 1014.5469,329.5256 Q1014.2813,329.76 1013.6719,329.76 L1008.5313,329.76 Q1007.9219,329.76 1007.6563,329.5256 Q1007.3906,329.2913 1007.3906,328.9006 Q1007.3906,328.5256 1007.6563,328.2913 Q1007.9219,328.0569 1008.5313,328.0569 L1010.25,328.0569 L1010.25,321.4006 L1008.5313,321.4006 Q1007.9219,321.4006 1007.6563,321.1663 Q1007.3906,320.9319 1007.3906,320.5413 Q1007.3906,320.1663 1007.6563,319.9319 Q1007.9219,319.6975 1008.5313,319.6975 L1013.6719,319.6975 Q1014.2813,319.6975 1014.5469,319.9319 Q1014.8125,320.1663 1014.8125,320.5413 Q1014.8125,320.9319 1014.5469,321.1663 Q1014.2813,321.4006 1013.6719,321.4006 L1011.9531,321.4006 Z " fill="#000000"/><text fill="#000000" font-family="sans-serif" font-size="14" font-style="italic" lengthAdjust="spacing" textLength="106.6133" x="1025" y="330.5569">InjectableService</text><line style="stroke:#181818;stroke-width:0.5;" x1="997" x2="1133.6133" y1="340.76" y2="340.76"/><line style="stroke:#181818;stroke-width:0.5;" x1="997" x2="1133.6133" y1="348.76" y2="348.76"/></g><!--class serviceLocator--><g id="elem_serviceLocator"><rect codeLine="13" fill="#F1F1F1" height="48" id="serviceLocator" rx="2.5" ry="2.5" style="stroke:#181818;stroke-width:0.5;" width="125.3789" x="1049" y="182.26"/><ellipse cx="1064" cy="198.26" fill="#ADD1B2" rx="11" ry="11" style="stroke:#181818;stroke-width:1.0;"/><path d="M1066.7656,194.135 Q1066.9219,193.9163 1067.1094,193.8069 Q1067.2969,193.6975 1067.5156,193.6975 Q1067.8906,193.6975 1068.125,193.9631 Q1068.3594,194.2131 1068.3594,194.8225 L1068.3594,196.2756 Q1068.3594,196.885 1068.125,197.1506 Q1067.8906,197.4163 1067.5156,197.4163 Q1067.1719,197.4163 1066.9688,197.2131 Q1066.7656,197.0256 1066.6563,196.51 Q1066.6094,196.1506 1066.4219,195.9631 Q1066.0938,195.5881 1065.4844,195.3694 Q1064.875,195.1506 1064.25,195.1506 Q1063.4844,195.1506 1062.8438,195.4788 Q1062.2188,195.8069 1061.7188,196.5569 Q1061.2344,197.3069 1061.2344,198.3381 L1061.2344,199.4319 Q1061.2344,200.6663 1062.125,201.4944 Q1063.0156,202.3069 1064.6094,202.3069 Q1065.5469,202.3069 1066.2031,202.0569 Q1066.5938,201.9006 1067.0156,201.4631 Q1067.2813,201.1975 1067.4219,201.1194 Q1067.5781,201.0413 1067.7813,201.0413 Q1068.1094,201.0413 1068.3594,201.3069 Q1068.625,201.5569 1068.625,201.9006 Q1068.625,202.2444 1068.2813,202.6506 Q1067.7813,203.2288 1066.9844,203.5569 Q1065.9063,204.01 1064.6094,204.01 Q1063.0938,204.01 1061.8906,203.385 Q1060.9063,202.885 1060.2188,201.8225 Q1059.5313,200.7444 1059.5313,199.4631 L1059.5313,198.3069 Q1059.5313,196.9788 1060.1406,195.8381 Q1060.7656,194.6819 1061.8594,194.0725 Q1062.9531,193.4475 1064.1875,193.4475 Q1064.9219,193.4475 1065.5625,193.6194 Q1066.2188,193.7756 1066.7656,194.135 Z " fill="#000000"/><text fill="#000000" font-family="sans-serif" font-size="14" lengthAdjust="spacing" textLength="93.3789" x="1078" y="204.0569">ServiceLocator</text><line style="stroke:#181818;stroke-width:0.5;" x1="1050" x2="1173.3789" y1="214.26" y2="214.26"/><line style="stroke:#181818;stroke-width:0.5;" x1="1050" x2="1173.3789" y1="222.26" y2="222.26"/></g><!--class bindingsRegistry--><g id="elem_bindingsRegistry"><rect codeLine="14" fill="#F1F1F1" height="48" id="bindingsRegistry" rx="2.5" ry="2.5" style="stroke:#181818;stroke-width:0.5;" width="137.0479" x="151" y="543.26"/><ellipse cx="166" cy="559.26" fill="#ADD1B2" rx="11" ry="11" style="stroke:#181818;stroke-width:1.0;"/><path d="M168.7656,555.135 Q168.9219,554.9163 169.1094,554.8069 Q169.2969,554.6975 169.5156,554.6975 Q169.8906,554.6975 170.125,554.9631 Q170.3594,555.2131 170.3594,555.8225 L170.3594,557.2756 Q170.3594,557.885 170.125,558.1506 Q169.8906,558.4163 169.5156,558.4163 Q169.1719,558.4163 168.9688,558.2131 Q168.7656,558.0256 168.6563,557.51 Q168.6094,557.1506 168.4219,556.9631 Q168.0938,556.5881 167.4844,556.3694 Q166.875,556.1506 166.25,556.1506 Q165.4844,556.1506 164.8438,556.4788 Q164.2188,556.8069 163.7188,557.5569 Q163.2344,558.3069 163.2344,559.3381 L163.2344,560.4319 Q163.2344,561.6663 164.125,562.4944 Q165.0156,563.3069 166.6094,563.3069 Q167.5469,563.3069 168.2031,563.0569 Q168.5938,562.9006 169.0156,562.4631 Q169.2813,562.1975 169.4219,562.1194 Q169.5781,562.0413 169.7813,562.0413 Q170.1094,562.0413 170.3594,562.3069 Q170.625,562.5569 170.625,562.9006 Q170.625,563.2444 170.2813,563.6506 Q169.7813,564.2288 168.9844,564.5569 Q167.9063,565.01 166.6094,565.01 Q165.0938,565.01 163.8906,564.385 Q162.9063,563.885 162.2188,562.8225 Q161.5313,561.7444 161.5313,560.4631 L161.5313,559.3069 Q161.5313,557.9788 162.1406,556.8381 Q162.7656,555.6819 163.8594,555.0725 Q164.9531,554.4475 166.1875,554.4475 Q166.9219,554.4475 167.5625,554.6194 Q168.2188,554.7756 168.7656,555.135 Z " fill="#000000"/><text fill="#000000" font-family="sans-serif" font-size="14" lengthAdjust="spacing" textLength="105.0479" x="180" y="565.0569">BindingsRegistry</text><line style="stroke:#181818;stroke-width:0.5;" x1="152" x2="287.0479" y1="575.26" y2="575.26"/><line style="stroke:#181818;stroke-width:0.5;" x1="152" x2="287.0479" y1="583.26" y2="583.26"/></g><!--class syncQueue--><g id="elem_syncQueue"><rect codeLine="15" fill="#F1F1F1" height="48" id="syncQueue" rx="2.5" ry="2.5" style="stroke:#181818;stroke-width:0.5;" width="105.1582" x="1509" y="435.26"/><ellipse cx="1524" cy="451.26" fill="#ADD1B2" rx="11" ry="11" style="stroke:#181818;stroke-width:1.0;"/><path d="M1526.7656,447.135 Q1526.9219,446.9163 1527.1094,446.8069 Q1527.2969,446.6975 1527.5156,446.6975 Q1527.8906,446.6975 1528.125,446.9631 Q1528.3594,447.2131 1528.3594,447.8225 L1528.3594,449.2756 Q1528.3594,449.885 1528.125,450.1506 Q1527.8906,450.4163 1527.5156,450.4163 Q1527.1719,450.4163 1526.9688,450.2131 Q1526.7656,450.0256 1526.6563,449.51 Q1526.6094,449.1506 1526.4219,448.9631 Q1526.0938,448.5881 1525.4844,448.3694 Q1524.875,448.1506 1524.25,448.1506 Q1523.4844,448.1506 1522.8438,448.4788 Q1522.2188,448.8069 1521.7188,449.5569 Q1521.2344,450.3069 1521.2344,451.3381 L1521.2344,452.4319 Q1521.2344,453.6663 1522.125,454.4944 Q1523.0156,455.3069 1524.6094,455.3069 Q1525.5469,455.3069 1526.2031,455.0569 Q1526.5938,454.9006 1527.0156,454.4631 Q1527.2813,454.1975 1527.4219,454.1194 Q1527.5781,454.0413 1527.7813,454.0413 Q1528.1094,454.0413 1528.3594,454.3069 Q1528.625,454.5569 1528.625,454.9006 Q1528.625,455.2444 1528.2813,455.6506 Q1527.7813,456.2288 1526.9844,456.5569 Q1525.9063,457.01 1524.6094,457.01 Q1523.0938,457.01 1521.8906,456.385 Q1520.9063,455.885 1520.2188,454.8225 Q1519.5313,453.7444 1519.5313,452.4631 L1519.5313,451.3069 Q1519.5313,449.9788 1520.1406,448.8381 Q1520.7656,447.6819 1521.8594,447.0725 Q1522.9531,446.4475 1524.1875,446.4475 Q1524.9219,446.4475 1525.5625,446.6194 Q1526.2188,446.7756 1526.7656,447.135 Z " fill="#000000"/><text fill="#000000" font-family="sans-serif" font-size="14" lengthAdjust="spacing" textLength="73.1582" x="1538" y="457.0569">SyncQueue</text><line style="stroke:#181818;stroke-width:0.5;" x1="1510" x2="1613.1582" y1="467.26" y2="467.26"/><line style="stroke:#181818;stroke-width:0.5;" x1="1510" x2="1613.1582" y1="475.26" y2="475.26"/></g><!--class futuresWaitQueue--><g id="elem_futuresWaitQueue"><rect codeLine="16" fill="#F1F1F1" height="48" id="futuresWaitQueue" rx="2.5" ry="2.5" style="stroke:#181818;stroke-width:0.5;" width="149.4961" x="991" y="543.26"/><ellipse cx="1006" cy="559.26" fill="#ADD1B2" rx="11" ry="11" style="stroke:#181818;stroke-width:1.0;"/><path d="M1008.7656,555.135 Q1008.9219,554.9163 1009.1094,554.8069 Q1009.2969,554.6975 1009.5156,554.6975 Q1009.8906,554.6975 1010.125,554.9631 Q1010.3594,555.2131 1010.3594,555.8225 L1010.3594,557.2756 Q1010.3594,557.885 1010.125,558.1506 Q1009.8906,558.4163 1009.5156,558.4163 Q1009.1719,558.4163 1008.9688,558.2131 Q1008.7656,558.0256 1008.6563,557.51 Q1008.6094,557.1506 1008.4219,556.9631 Q1008.0938,556.5881 1007.4844,556.3694 Q1006.875,556.1506 1006.25,556.1506 Q1005.4844,556.1506 1004.8438,556.4788 Q1004.2188,556.8069 1003.7188,557.5569 Q1003.2344,558.3069 1003.2344,559.3381 L1003.2344,560.4319 Q1003.2344,561.6663 1004.125,562.4944 Q1005.0156,563.3069 1006.6094,563.3069 Q1007.5469,563.3069 1008.2031,563.0569 Q1008.5938,562.9006 1009.0156,562.4631 Q1009.2813,562.1975 1009.4219,562.1194 Q1009.5781,562.0413 1009.7813,562.0413 Q1010.1094,562.0413 1010.3594,562.3069 Q1010.625,562.5569 1010.625,562.9006 Q1010.625,563.2444 1010.2813,563.6506 Q1009.7813,564.2288 1008.9844,564.5569 Q1007.9063,565.01 1006.6094,565.01 Q1005.0938,565.01 1003.8906,564.385 Q1002.9063,563.885 1002.2188,562.8225 Q1001.5313,561.7444 1001.5313,560.4631 L1001.5313,559.3069 Q1001.5313,557.9788 1002.1406,556.8381 Q1002.7656,555.6819 1003.8594,555.0725 Q1004.9531,554.4475 1006.1875,554.4475 Q1006.9219,554.4475 1007.5625,554.6194 Q1008.2188,554.7756 1008.7656,555.135 Z " fill="#000000"/><text fill="#000000" font-family="sans-serif" font-size="14" lengthAdjust="spacing" textLength="117.4961" x="1020" y="565.0569">FuturesWaitQueue</text><line style="stroke:#181818;stroke-width:0.5;" x1="992" x2="1139.4961" y1="575.26" y2="575.26"/><line style="stroke:#181818;stroke-width:0.5;" x1="992" x2="1139.4961" y1="583.26" y2="583.26"/></g><!--class nodeMap--><g id="elem_nodeMap"><rect codeLine="17" fill="#F1F1F1" height="48" id="nodeMap" rx="2.5" ry="2.5" style="stroke:#181818;stroke-width:0.5;" width="150.2617" x="1184.5" y="435.26"/><ellipse cx="1199.5" cy="451.26" fill="#ADD1B2" rx="11" ry="11" style="stroke:#181818;stroke-width:1.0;"/><path d="M1202.2656,447.135 Q1202.4219,446.9163 1202.6094,446.8069 Q1202.7969,446.6975 1203.0156,446.6975 Q1203.3906,446.6975 1203.625,446.9631 Q1203.8594,447.2131 1203.8594,447.8225 L1203.8594,449.2756 Q1203.8594,449.885 1203.625,450.1506 Q1203.3906,450.4163 1203.0156,450.4163 Q1202.6719,450.4163 1202.4688,450.2131 Q1202.2656,450.0256 1202.1563,449.51 Q1202.1094,449.1506 1201.9219,448.9631 Q1201.5938,448.5881 1200.9844,448.3694 Q1200.375,448.1506 1199.75,448.1506 Q1198.9844,448.1506 1198.3438,448.4788 Q1197.7188,448.8069 1197.2188,449.5569 Q1196.7344,450.3069 1196.7344,451.3381 L1196.7344,452.4319 Q1196.7344,453.6663 1197.625,454.4944 Q1198.5156,455.3069 1200.1094,455.3069 Q1201.0469,455.3069 1201.7031,455.0569 Q1202.0938,454.9006 1202.5156,454.4631 Q1202.7813,454.1975 1202.9219,454.1194 Q1203.0781,454.0413 1203.2813,454.0413 Q1203.6094,454.0413 1203.8594,454.3069 Q1204.125,454.5569 1204.125,454.9006 Q1204.125,455.2444 1203.7813,455.6506 Q1203.2813,456.2288 1202.4844,456.5569 Q1201.4063,457.01 1200.1094,457.01 Q1198.5938,457.01 1197.3906,456.385 Q1196.4063,455.885 1195.7188,454.8225 Q1195.0313,453.7444 1195.0313,452.4631 L1195.0313,451.3069 Q1195.0313,449.9788 1195.6406,448.8381 Q1196.2656,447.6819 1197.3594,447.0725 Q1198.4531,446.4475 1199.6875,446.4475 Q1200.4219,446.4475 1201.0625,446.6194 Q1201.7188,446.7756 1202.2656,447.135 Z " fill="#000000"/><text fill="#000000" font-family="sans-serif" font-size="14" lengthAdjust="spacing" textLength="118.2617" x="1213.5" y="457.0569">MpsToModelixMap</text><line style="stroke:#181818;stroke-width:0.5;" x1="1185.5" x2="1333.7617" y1="467.26" y2="467.26"/><line style="stroke:#181818;stroke-width:0.5;" x1="1185.5" x2="1333.7617" y1="475.26" y2="475.26"/></g><!--class moduleSynchronizer--><g id="elem_moduleSynchronizer"><rect codeLine="19" fill="#F1F1F1" height="48" id="moduleSynchronizer" rx="2.5" ry="2.5" style="stroke:#181818;stroke-width:0.5;" width="159.6201" x="1031.5" y="74.26"/><ellipse cx="1046.5" cy="90.26" fill="#ADD1B2" rx="11" ry="11" style="stroke:#181818;stroke-width:1.0;"/><path d="M1049.2656,86.135 Q1049.4219,85.9162 1049.6094,85.8069 Q1049.7969,85.6975 1050.0156,85.6975 Q1050.3906,85.6975 1050.625,85.9631 Q1050.8594,86.2131 1050.8594,86.8225 L1050.8594,88.2756 Q1050.8594,88.885 1050.625,89.1506 Q1050.3906,89.4162 1050.0156,89.4162 Q1049.6719,89.4162 1049.4688,89.2131 Q1049.2656,89.0256 1049.1563,88.51 Q1049.1094,88.1506 1048.9219,87.9631 Q1048.5938,87.5881 1047.9844,87.3694 Q1047.375,87.1506 1046.75,87.1506 Q1045.9844,87.1506 1045.3438,87.4787 Q1044.7188,87.8069 1044.2188,88.5569 Q1043.7344,89.3069 1043.7344,90.3381 L1043.7344,91.4319 Q1043.7344,92.6662 1044.625,93.4944 Q1045.5156,94.3069 1047.1094,94.3069 Q1048.0469,94.3069 1048.7031,94.0569 Q1049.0938,93.9006 1049.5156,93.4631 Q1049.7813,93.1975 1049.9219,93.1194 Q1050.0781,93.0412 1050.2813,93.0412 Q1050.6094,93.0412 1050.8594,93.3069 Q1051.125,93.5569 1051.125,93.9006 Q1051.125,94.2444 1050.7813,94.6506 Q1050.2813,95.2287 1049.4844,95.5569 Q1048.4063,96.01 1047.1094,96.01 Q1045.5938,96.01 1044.3906,95.385 Q1043.4063,94.885 1042.7188,93.8225 Q1042.0313,92.7444 1042.0313,91.4631 L1042.0313,90.3069 Q1042.0313,88.9787 1042.6406,87.8381 Q1043.2656,86.6819 1044.3594,86.0725 Q1045.4531,85.4475 1046.6875,85.4475 Q1047.4219,85.4475 1048.0625,85.6194 Q1048.7188,85.7756 1049.2656,86.135 Z " fill="#000000"/><text fill="#000000" font-family="sans-serif" font-size="14" lengthAdjust="spacing" textLength="127.6201" x="1060.5" y="96.0569">ModuleSynchronizer</text><line style="stroke:#181818;stroke-width:0.5;" x1="1032.5" x2="1190.1201" y1="106.26" y2="106.26"/><line style="stroke:#181818;stroke-width:0.5;" x1="1032.5" x2="1190.1201" y1="114.26" y2="114.26"/></g><!--class modelSynchronizer--><g id="elem_modelSynchronizer"><rect codeLine="20" fill="#F1F1F1" height="48" id="modelSynchronizer" rx="2.5" ry="2.5" style="stroke:#181818;stroke-width:0.5;" width="151.834" x="1384.5" y="74.26"/><ellipse cx="1399.5" cy="90.26" fill="#ADD1B2" rx="11" ry="11" style="stroke:#181818;stroke-width:1.0;"/><path d="M1402.2656,86.135 Q1402.4219,85.9162 1402.6094,85.8069 Q1402.7969,85.6975 1403.0156,85.6975 Q1403.3906,85.6975 1403.625,85.9631 Q1403.8594,86.2131 1403.8594,86.8225 L1403.8594,88.2756 Q1403.8594,88.885 1403.625,89.1506 Q1403.3906,89.4162 1403.0156,89.4162 Q1402.6719,89.4162 1402.4688,89.2131 Q1402.2656,89.0256 1402.1563,88.51 Q1402.1094,88.1506 1401.9219,87.9631 Q1401.5938,87.5881 1400.9844,87.3694 Q1400.375,87.1506 1399.75,87.1506 Q1398.9844,87.1506 1398.3438,87.4787 Q1397.7188,87.8069 1397.2188,88.5569 Q1396.7344,89.3069 1396.7344,90.3381 L1396.7344,91.4319 Q1396.7344,92.6662 1397.625,93.4944 Q1398.5156,94.3069 1400.1094,94.3069 Q1401.0469,94.3069 1401.7031,94.0569 Q1402.0938,93.9006 1402.5156,93.4631 Q1402.7813,93.1975 1402.9219,93.1194 Q1403.0781,93.0412 1403.2813,93.0412 Q1403.6094,93.0412 1403.8594,93.3069 Q1404.125,93.5569 1404.125,93.9006 Q1404.125,94.2444 1403.7813,94.6506 Q1403.2813,95.2287 1402.4844,95.5569 Q1401.4063,96.01 1400.1094,96.01 Q1398.5938,96.01 1397.3906,95.385 Q1396.4063,94.885 1395.7188,93.8225 Q1395.0313,92.7444 1395.0313,91.4631 L1395.0313,90.3069 Q1395.0313,88.9787 1395.6406,87.8381 Q1396.2656,86.6819 1397.3594,86.0725 Q1398.4531,85.4475 1399.6875,85.4475 Q1400.4219,85.4475 1401.0625,85.6194 Q1401.7188,85.7756 1402.2656,86.135 Z " fill="#000000"/><text fill="#000000" font-family="sans-serif" font-size="14" lengthAdjust="spacing" textLength="119.834" x="1413.5" y="96.0569">ModelSynchronizer</text><line style="stroke:#181818;stroke-width:0.5;" x1="1385.5" x2="1535.334" y1="106.26" y2="106.26"/><line style="stroke:#181818;stroke-width:0.5;" x1="1385.5" x2="1535.334" y1="114.26" y2="114.26"/></g><!--class nodeSynchronizer--><g id="elem_nodeSynchronizer"><rect codeLine="21" fill="#F1F1F1" height="48" id="nodeSynchronizer" rx="2.5" ry="2.5" style="stroke:#181818;stroke-width:0.5;" width="147.1719" x="1572" y="74.26"/><ellipse cx="1587" cy="90.26" fill="#ADD1B2" rx="11" ry="11" style="stroke:#181818;stroke-width:1.0;"/><path d="M1589.7656,86.135 Q1589.9219,85.9162 1590.1094,85.8069 Q1590.2969,85.6975 1590.5156,85.6975 Q1590.8906,85.6975 1591.125,85.9631 Q1591.3594,86.2131 1591.3594,86.8225 L1591.3594,88.2756 Q1591.3594,88.885 1591.125,89.1506 Q1590.8906,89.4162 1590.5156,89.4162 Q1590.1719,89.4162 1589.9688,89.2131 Q1589.7656,89.0256 1589.6563,88.51 Q1589.6094,88.1506 1589.4219,87.9631 Q1589.0938,87.5881 1588.4844,87.3694 Q1587.875,87.1506 1587.25,87.1506 Q1586.4844,87.1506 1585.8438,87.4787 Q1585.2188,87.8069 1584.7188,88.5569 Q1584.2344,89.3069 1584.2344,90.3381 L1584.2344,91.4319 Q1584.2344,92.6662 1585.125,93.4944 Q1586.0156,94.3069 1587.6094,94.3069 Q1588.5469,94.3069 1589.2031,94.0569 Q1589.5938,93.9006 1590.0156,93.4631 Q1590.2813,93.1975 1590.4219,93.1194 Q1590.5781,93.0412 1590.7813,93.0412 Q1591.1094,93.0412 1591.3594,93.3069 Q1591.625,93.5569 1591.625,93.9006 Q1591.625,94.2444 1591.2813,94.6506 Q1590.7813,95.2287 1589.9844,95.5569 Q1588.9063,96.01 1587.6094,96.01 Q1586.0938,96.01 1584.8906,95.385 Q1583.9063,94.885 1583.2188,93.8225 Q1582.5313,92.7444 1582.5313,91.4631 L1582.5313,90.3069 Q1582.5313,88.9787 1583.1406,87.8381 Q1583.7656,86.6819 1584.8594,86.0725 Q1585.9531,85.4475 1587.1875,85.4475 Q1587.9219,85.4475 1588.5625,85.6194 Q1589.2188,85.7756 1589.7656,86.135 Z " fill="#000000"/><text fill="#000000" font-family="sans-serif" font-size="14" lengthAdjust="spacing" textLength="115.1719" x="1601" y="96.0569">NodeSynchronizer</text><line style="stroke:#181818;stroke-width:0.5;" x1="1573" x2="1718.1719" y1="106.26" y2="106.26"/><line style="stroke:#181818;stroke-width:0.5;" x1="1573" x2="1718.1719" y1="114.26" y2="114.26"/></g><!--class cloudResolvableModelImport--><g id="elem_cloudResolvableModelImport"><rect codeLine="23" fill="#F1F1F1" height="48" id="cloudResolvableModelImport" rx="2.5" ry="2.5" style="stroke:#181818;stroke-width:0.5;" width="215.6475" x="1991.5" y="74.26"/><ellipse cx="2006.5" cy="90.26" fill="#ADD1B2" rx="11" ry="11" style="stroke:#181818;stroke-width:1.0;"/><path d="M2009.2656,86.135 Q2009.4219,85.9162 2009.6094,85.8069 Q2009.7969,85.6975 2010.0156,85.6975 Q2010.3906,85.6975 2010.625,85.9631 Q2010.8594,86.2131 2010.8594,86.8225 L2010.8594,88.2756 Q2010.8594,88.885 2010.625,89.1506 Q2010.3906,89.4162 2010.0156,89.4162 Q2009.6719,89.4162 2009.4688,89.2131 Q2009.2656,89.0256 2009.1563,88.51 Q2009.1094,88.1506 2008.9219,87.9631 Q2008.5938,87.5881 2007.9844,87.3694 Q2007.375,87.1506 2006.75,87.1506 Q2005.9844,87.1506 2005.3438,87.4787 Q2004.7188,87.8069 2004.2188,88.5569 Q2003.7344,89.3069 2003.7344,90.3381 L2003.7344,91.4319 Q2003.7344,92.6662 2004.625,93.4944 Q2005.5156,94.3069 2007.1094,94.3069 Q2008.0469,94.3069 2008.7031,94.0569 Q2009.0938,93.9006 2009.5156,93.4631 Q2009.7813,93.1975 2009.9219,93.1194 Q2010.0781,93.0412 2010.2813,93.0412 Q2010.6094,93.0412 2010.8594,93.3069 Q2011.125,93.5569 2011.125,93.9006 Q2011.125,94.2444 2010.7813,94.6506 Q2010.2813,95.2287 2009.4844,95.5569 Q2008.4063,96.01 2007.1094,96.01 Q2005.5938,96.01 2004.3906,95.385 Q2003.4063,94.885 2002.7188,93.8225 Q2002.0313,92.7444 2002.0313,91.4631 L2002.0313,90.3069 Q2002.0313,88.9787 2002.6406,87.8381 Q2003.2656,86.6819 2004.3594,86.0725 Q2005.4531,85.4475 2006.6875,85.4475 Q2007.4219,85.4475 2008.0625,85.6194 Q2008.7188,85.7756 2009.2656,86.135 Z " fill="#000000"/><text fill="#000000" font-family="sans-serif" font-size="14" lengthAdjust="spacing" textLength="183.6475" x="2020.5" y="96.0569">CloudResolvableModelImport</text><line style="stroke:#181818;stroke-width:0.5;" x1="1992.5" x2="2206.1475" y1="106.26" y2="106.26"/><line style="stroke:#181818;stroke-width:0.5;" x1="1992.5" x2="2206.1475" y1="114.26" y2="114.26"/></g><!--class cloudResolvableReference--><g id="elem_cloudResolvableReference"><rect codeLine="24" fill="#F1F1F1" height="48" id="cloudResolvableReference" rx="2.5" ry="2.5" style="stroke:#181818;stroke-width:0.5;" width="202.4336" x="1754.5" y="74.26"/><ellipse cx="1769.5" cy="90.26" fill="#ADD1B2" rx="11" ry="11" style="stroke:#181818;stroke-width:1.0;"/><path d="M1772.2656,86.135 Q1772.4219,85.9162 1772.6094,85.8069 Q1772.7969,85.6975 1773.0156,85.6975 Q1773.3906,85.6975 1773.625,85.9631 Q1773.8594,86.2131 1773.8594,86.8225 L1773.8594,88.2756 Q1773.8594,88.885 1773.625,89.1506 Q1773.3906,89.4162 1773.0156,89.4162 Q1772.6719,89.4162 1772.4688,89.2131 Q1772.2656,89.0256 1772.1563,88.51 Q1772.1094,88.1506 1771.9219,87.9631 Q1771.5938,87.5881 1770.9844,87.3694 Q1770.375,87.1506 1769.75,87.1506 Q1768.9844,87.1506 1768.3438,87.4787 Q1767.7188,87.8069 1767.2188,88.5569 Q1766.7344,89.3069 1766.7344,90.3381 L1766.7344,91.4319 Q1766.7344,92.6662 1767.625,93.4944 Q1768.5156,94.3069 1770.1094,94.3069 Q1771.0469,94.3069 1771.7031,94.0569 Q1772.0938,93.9006 1772.5156,93.4631 Q1772.7813,93.1975 1772.9219,93.1194 Q1773.0781,93.0412 1773.2813,93.0412 Q1773.6094,93.0412 1773.8594,93.3069 Q1774.125,93.5569 1774.125,93.9006 Q1774.125,94.2444 1773.7813,94.6506 Q1773.2813,95.2287 1772.4844,95.5569 Q1771.4063,96.01 1770.1094,96.01 Q1768.5938,96.01 1767.3906,95.385 Q1766.4063,94.885 1765.7188,93.8225 Q1765.0313,92.7444 1765.0313,91.4631 L1765.0313,90.3069 Q1765.0313,88.9787 1765.6406,87.8381 Q1766.2656,86.6819 1767.3594,86.0725 Q1768.4531,85.4475 1769.6875,85.4475 Q1770.4219,85.4475 1771.0625,85.6194 Q1771.7188,85.7756 1772.2656,86.135 Z " fill="#000000"/><text fill="#000000" font-family="sans-serif" font-size="14" lengthAdjust="spacing" textLength="170.4336" x="1783.5" y="96.0569">CloudResolvableReference</text><line style="stroke:#181818;stroke-width:0.5;" x1="1755.5" x2="1955.9336" y1="106.26" y2="106.26"/><line style="stroke:#181818;stroke-width:0.5;" x1="1755.5" x2="1955.9336" y1="114.26" y2="114.26"/></g><!--class itemAlreadySynchronized--><g id="elem_itemAlreadySynchronized"><rect codeLine="26" fill="#F1F1F1" height="48" id="itemAlreadySynchronized" rx="2.5" ry="2.5" style="stroke:#181818;stroke-width:0.5;" width="191.5234" x="2242.5" y="74.26"/><ellipse cx="2257.5" cy="90.26" fill="#A9DCDF" rx="11" ry="11" style="stroke:#181818;stroke-width:1.0;"/><path d="M2259.6875,92.0256 L2255.5469,92.0256 L2255.125,93.0569 L2255.5469,93.0569 Q2256.1563,93.0569 2256.4219,93.2912 Q2256.6875,93.5256 2256.6875,93.9162 Q2256.6875,94.2912 2256.4219,94.5256 Q2256.1563,94.76 2255.5469,94.76 L2253.25,94.76 Q2252.6406,94.76 2252.3906,94.5256 Q2252.125,94.2912 2252.125,93.9006 Q2252.125,93.5256 2252.4063,93.2912 Q2252.6719,93.0412 2253.2969,93.0569 L2255.9688,86.4006 L2254.8594,86.4006 Q2254.25,86.4006 2253.9844,86.1662 Q2253.7188,85.9319 2253.7188,85.5412 Q2253.7188,85.1662 2253.9844,84.9319 Q2254.25,84.6975 2254.8594,84.6975 L2258.5313,84.6975 L2261.9219,93.0569 Q2262.5156,93.0569 2262.7031,93.1975 Q2263.0938,93.4631 2263.0938,93.9162 Q2263.0938,94.2912 2262.8281,94.5256 Q2262.5781,94.76 2261.9688,94.76 L2259.6719,94.76 Q2259.0625,94.76 2258.7969,94.5256 Q2258.5313,94.2912 2258.5313,93.9006 Q2258.5313,93.5256 2258.7969,93.2912 Q2259.0625,93.0569 2259.6719,93.0569 L2260.0938,93.0569 L2259.6875,92.0256 Z M2258.9688,90.3225 L2257.6094,86.9475 L2256.2344,90.3225 L2258.9688,90.3225 Z " fill="#000000"/><text fill="#000000" font-family="sans-serif" font-size="14" font-style="italic" lengthAdjust="spacing" textLength="159.5234" x="2271.5" y="96.0569">ItemAlreadySynchronized</text><line style="stroke:#181818;stroke-width:0.5;" x1="2243.5" x2="2433.0234" y1="106.26" y2="106.26"/><line style="stroke:#181818;stroke-width:0.5;" x1="2243.5" x2="2433.0234" y1="114.26" y2="114.26"/></g><!--class modelAlreadySynchronized--><g id="elem_modelAlreadySynchronized"><rect codeLine="27" fill="#F1F1F1" height="48" id="modelAlreadySynchronized" rx="2.5" ry="2.5" style="stroke:#181818;stroke-width:0.5;" width="202.4268" x="2187.5" y="182.26"/><ellipse cx="2202.5" cy="198.26" fill="#ADD1B2" rx="11" ry="11" style="stroke:#181818;stroke-width:1.0;"/><path d="M2205.2656,194.135 Q2205.4219,193.9163 2205.6094,193.8069 Q2205.7969,193.6975 2206.0156,193.6975 Q2206.3906,193.6975 2206.625,193.9631 Q2206.8594,194.2131 2206.8594,194.8225 L2206.8594,196.2756 Q2206.8594,196.885 2206.625,197.1506 Q2206.3906,197.4163 2206.0156,197.4163 Q2205.6719,197.4163 2205.4688,197.2131 Q2205.2656,197.0256 2205.1563,196.51 Q2205.1094,196.1506 2204.9219,195.9631 Q2204.5938,195.5881 2203.9844,195.3694 Q2203.375,195.1506 2202.75,195.1506 Q2201.9844,195.1506 2201.3438,195.4788 Q2200.7188,195.8069 2200.2188,196.5569 Q2199.7344,197.3069 2199.7344,198.3381 L2199.7344,199.4319 Q2199.7344,200.6663 2200.625,201.4944 Q2201.5156,202.3069 2203.1094,202.3069 Q2204.0469,202.3069 2204.7031,202.0569 Q2205.0938,201.9006 2205.5156,201.4631 Q2205.7813,201.1975 2205.9219,201.1194 Q2206.0781,201.0413 2206.2813,201.0413 Q2206.6094,201.0413 2206.8594,201.3069 Q2207.125,201.5569 2207.125,201.9006 Q2207.125,202.2444 2206.7813,202.6506 Q2206.2813,203.2288 2205.4844,203.5569 Q2204.4063,204.01 2203.1094,204.01 Q2201.5938,204.01 2200.3906,203.385 Q2199.4063,202.885 2198.7188,201.8225 Q2198.0313,200.7444 2198.0313,199.4631 L2198.0313,198.3069 Q2198.0313,196.9788 2198.6406,195.8381 Q2199.2656,194.6819 2200.3594,194.0725 Q2201.4531,193.4475 2202.6875,193.4475 Q2203.4219,193.4475 2204.0625,193.6194 Q2204.7188,193.7756 2205.2656,194.135 Z " fill="#000000"/><text fill="#000000" font-family="sans-serif" font-size="14" lengthAdjust="spacing" textLength="170.4268" x="2216.5" y="204.0569">ModelAlreadySynchronized</text><line style="stroke:#181818;stroke-width:0.5;" x1="2188.5" x2="2388.9268" y1="214.26" y2="214.26"/><line style="stroke:#181818;stroke-width:0.5;" x1="2188.5" x2="2388.9268" y1="222.26" y2="222.26"/></g><!--class moduleAlreadySynchronized--><g id="elem_moduleAlreadySynchronized"><rect codeLine="28" fill="#F1F1F1" height="48" id="moduleAlreadySynchronized" rx="2.5" ry="2.5" style="stroke:#181818;stroke-width:0.5;" width="210.2129" x="1280.5" y="182.26"/><ellipse cx="1295.5" cy="198.26" fill="#ADD1B2" rx="11" ry="11" style="stroke:#181818;stroke-width:1.0;"/><path d="M1298.2656,194.135 Q1298.4219,193.9163 1298.6094,193.8069 Q1298.7969,193.6975 1299.0156,193.6975 Q1299.3906,193.6975 1299.625,193.9631 Q1299.8594,194.2131 1299.8594,194.8225 L1299.8594,196.2756 Q1299.8594,196.885 1299.625,197.1506 Q1299.3906,197.4163 1299.0156,197.4163 Q1298.6719,197.4163 1298.4688,197.2131 Q1298.2656,197.0256 1298.1563,196.51 Q1298.1094,196.1506 1297.9219,195.9631 Q1297.5938,195.5881 1296.9844,195.3694 Q1296.375,195.1506 1295.75,195.1506 Q1294.9844,195.1506 1294.3438,195.4788 Q1293.7188,195.8069 1293.2188,196.5569 Q1292.7344,197.3069 1292.7344,198.3381 L1292.7344,199.4319 Q1292.7344,200.6663 1293.625,201.4944 Q1294.5156,202.3069 1296.1094,202.3069 Q1297.0469,202.3069 1297.7031,202.0569 Q1298.0938,201.9006 1298.5156,201.4631 Q1298.7813,201.1975 1298.9219,201.1194 Q1299.0781,201.0413 1299.2813,201.0413 Q1299.6094,201.0413 1299.8594,201.3069 Q1300.125,201.5569 1300.125,201.9006 Q1300.125,202.2444 1299.7813,202.6506 Q1299.2813,203.2288 1298.4844,203.5569 Q1297.4063,204.01 1296.1094,204.01 Q1294.5938,204.01 1293.3906,203.385 Q1292.4063,202.885 1291.7188,201.8225 Q1291.0313,200.7444 1291.0313,199.4631 L1291.0313,198.3069 Q1291.0313,196.9788 1291.6406,195.8381 Q1292.2656,194.6819 1293.3594,194.0725 Q1294.4531,193.4475 1295.6875,193.4475 Q1296.4219,193.4475 1297.0625,193.6194 Q1297.7188,193.7756 1298.2656,194.135 Z " fill="#000000"/><text fill="#000000" font-family="sans-serif" font-size="14" lengthAdjust="spacing" textLength="178.2129" x="1309.5" y="204.0569">ModuleAlreadySynchronized</text><line style="stroke:#181818;stroke-width:0.5;" x1="1281.5" x2="1489.7129" y1="214.26" y2="214.26"/><line style="stroke:#181818;stroke-width:0.5;" x1="1281.5" x2="1489.7129" y1="222.26" y2="222.26"/></g><!--class itemAlreadySynchronizedException--><g id="elem_itemAlreadySynchronizedException"><rect codeLine="30" fill="#F1F1F1" height="48" id="itemAlreadySynchronizedException" rx="2.5" ry="2.5" style="stroke:#181818;stroke-width:0.5;" width="253.0059" x="2470" y="74.26"/><ellipse cx="2485" cy="90.26" fill="#A9DCDF" rx="11" ry="11" style="stroke:#181818;stroke-width:1.0;"/><path d="M2487.1875,92.0256 L2483.0469,92.0256 L2482.625,93.0569 L2483.0469,93.0569 Q2483.6563,93.0569 2483.9219,93.2912 Q2484.1875,93.5256 2484.1875,93.9162 Q2484.1875,94.2912 2483.9219,94.5256 Q2483.6563,94.76 2483.0469,94.76 L2480.75,94.76 Q2480.1406,94.76 2479.8906,94.5256 Q2479.625,94.2912 2479.625,93.9006 Q2479.625,93.5256 2479.9063,93.2912 Q2480.1719,93.0412 2480.7969,93.0569 L2483.4688,86.4006 L2482.3594,86.4006 Q2481.75,86.4006 2481.4844,86.1662 Q2481.2188,85.9319 2481.2188,85.5412 Q2481.2188,85.1662 2481.4844,84.9319 Q2481.75,84.6975 2482.3594,84.6975 L2486.0313,84.6975 L2489.4219,93.0569 Q2490.0156,93.0569 2490.2031,93.1975 Q2490.5938,93.4631 2490.5938,93.9162 Q2490.5938,94.2912 2490.3281,94.5256 Q2490.0781,94.76 2489.4688,94.76 L2487.1719,94.76 Q2486.5625,94.76 2486.2969,94.5256 Q2486.0313,94.2912 2486.0313,93.9006 Q2486.0313,93.5256 2486.2969,93.2912 Q2486.5625,93.0569 2487.1719,93.0569 L2487.5938,93.0569 L2487.1875,92.0256 Z M2486.4688,90.3225 L2485.1094,86.9475 L2483.7344,90.3225 L2486.4688,90.3225 Z " fill="#000000"/><text fill="#000000" font-family="sans-serif" font-size="14" font-style="italic" lengthAdjust="spacing" textLength="221.0059" x="2499" y="96.0569">ItemAlreadySynchronizedException</text><line style="stroke:#181818;stroke-width:0.5;" x1="2471" x2="2722.0059" y1="106.26" y2="106.26"/><line style="stroke:#181818;stroke-width:0.5;" x1="2471" x2="2722.0059" y1="114.26" y2="114.26"/></g><!--class modelAlreadySynchronizedException--><g id="elem_modelAlreadySynchronizedException"><rect codeLine="31" fill="#F1F1F1" height="48" id="modelAlreadySynchronizedException" rx="2.5" ry="2.5" style="stroke:#181818;stroke-width:0.5;" width="263.9092" x="2424.5" y="182.26"/><ellipse cx="2439.5" cy="198.26" fill="#ADD1B2" rx="11" ry="11" style="stroke:#181818;stroke-width:1.0;"/><path d="M2442.2656,194.135 Q2442.4219,193.9163 2442.6094,193.8069 Q2442.7969,193.6975 2443.0156,193.6975 Q2443.3906,193.6975 2443.625,193.9631 Q2443.8594,194.2131 2443.8594,194.8225 L2443.8594,196.2756 Q2443.8594,196.885 2443.625,197.1506 Q2443.3906,197.4163 2443.0156,197.4163 Q2442.6719,197.4163 2442.4688,197.2131 Q2442.2656,197.0256 2442.1563,196.51 Q2442.1094,196.1506 2441.9219,195.9631 Q2441.5938,195.5881 2440.9844,195.3694 Q2440.375,195.1506 2439.75,195.1506 Q2438.9844,195.1506 2438.3438,195.4788 Q2437.7188,195.8069 2437.2188,196.5569 Q2436.7344,197.3069 2436.7344,198.3381 L2436.7344,199.4319 Q2436.7344,200.6663 2437.625,201.4944 Q2438.5156,202.3069 2440.1094,202.3069 Q2441.0469,202.3069 2441.7031,202.0569 Q2442.0938,201.9006 2442.5156,201.4631 Q2442.7813,201.1975 2442.9219,201.1194 Q2443.0781,201.0413 2443.2813,201.0413 Q2443.6094,201.0413 2443.8594,201.3069 Q2444.125,201.5569 2444.125,201.9006 Q2444.125,202.2444 2443.7813,202.6506 Q2443.2813,203.2288 2442.4844,203.5569 Q2441.4063,204.01 2440.1094,204.01 Q2438.5938,204.01 2437.3906,203.385 Q2436.4063,202.885 2435.7188,201.8225 Q2435.0313,200.7444 2435.0313,199.4631 L2435.0313,198.3069 Q2435.0313,196.9788 2435.6406,195.8381 Q2436.2656,194.6819 2437.3594,194.0725 Q2438.4531,193.4475 2439.6875,193.4475 Q2440.4219,193.4475 2441.0625,193.6194 Q2441.7188,193.7756 2442.2656,194.135 Z " fill="#000000"/><text fill="#000000" font-family="sans-serif" font-size="14" lengthAdjust="spacing" textLength="231.9092" x="2453.5" y="204.0569">ModelAlreadySynchronizedException</text><line style="stroke:#181818;stroke-width:0.5;" x1="2425.5" x2="2687.4092" y1="214.26" y2="214.26"/><line style="stroke:#181818;stroke-width:0.5;" x1="2425.5" x2="2687.4092" y1="222.26" y2="222.26"/></g><!--class moduleAlreadySynchronizedException--><g id="elem_moduleAlreadySynchronizedException"><rect codeLine="32" fill="#F1F1F1" height="48" id="moduleAlreadySynchronizedException" rx="2.5" ry="2.5" style="stroke:#181818;stroke-width:0.5;" width="271.6953" x="1809.5" y="182.26"/><ellipse cx="1824.5" cy="198.26" fill="#ADD1B2" rx="11" ry="11" style="stroke:#181818;stroke-width:1.0;"/><path d="M1827.2656,194.135 Q1827.4219,193.9163 1827.6094,193.8069 Q1827.7969,193.6975 1828.0156,193.6975 Q1828.3906,193.6975 1828.625,193.9631 Q1828.8594,194.2131 1828.8594,194.8225 L1828.8594,196.2756 Q1828.8594,196.885 1828.625,197.1506 Q1828.3906,197.4163 1828.0156,197.4163 Q1827.6719,197.4163 1827.4688,197.2131 Q1827.2656,197.0256 1827.1563,196.51 Q1827.1094,196.1506 1826.9219,195.9631 Q1826.5938,195.5881 1825.9844,195.3694 Q1825.375,195.1506 1824.75,195.1506 Q1823.9844,195.1506 1823.3438,195.4788 Q1822.7188,195.8069 1822.2188,196.5569 Q1821.7344,197.3069 1821.7344,198.3381 L1821.7344,199.4319 Q1821.7344,200.6663 1822.625,201.4944 Q1823.5156,202.3069 1825.1094,202.3069 Q1826.0469,202.3069 1826.7031,202.0569 Q1827.0938,201.9006 1827.5156,201.4631 Q1827.7813,201.1975 1827.9219,201.1194 Q1828.0781,201.0413 1828.2813,201.0413 Q1828.6094,201.0413 1828.8594,201.3069 Q1829.125,201.5569 1829.125,201.9006 Q1829.125,202.2444 1828.7813,202.6506 Q1828.2813,203.2288 1827.4844,203.5569 Q1826.4063,204.01 1825.1094,204.01 Q1823.5938,204.01 1822.3906,203.385 Q1821.4063,202.885 1820.7188,201.8225 Q1820.0313,200.7444 1820.0313,199.4631 L1820.0313,198.3069 Q1820.0313,196.9788 1820.6406,195.8381 Q1821.2656,194.6819 1822.3594,194.0725 Q1823.4531,193.4475 1824.6875,193.4475 Q1825.4219,193.4475 1826.0625,193.6194 Q1826.7188,193.7756 1827.2656,194.135 Z " fill="#000000"/><text fill="#000000" font-family="sans-serif" font-size="14" lengthAdjust="spacing" textLength="239.6953" x="1838.5" y="204.0569">ModuleAlreadySynchronizedException</text><line style="stroke:#181818;stroke-width:0.5;" x1="1810.5" x2="2080.1953" y1="214.26" y2="214.26"/><line style="stroke:#181818;stroke-width:0.5;" x1="1810.5" x2="2080.1953" y1="222.26" y2="222.26"/></g><!--class nodeAlreadySynchronizedException--><g id="elem_nodeAlreadySynchronizedException"><rect codeLine="33" fill="#F1F1F1" height="48" id="nodeAlreadySynchronizedException" rx="2.5" ry="2.5" style="stroke:#181818;stroke-width:0.5;" width="259.2471" x="2724" y="182.26"/><ellipse cx="2739" cy="198.26" fill="#ADD1B2" rx="11" ry="11" style="stroke:#181818;stroke-width:1.0;"/><path d="M2741.7656,194.135 Q2741.9219,193.9163 2742.1094,193.8069 Q2742.2969,193.6975 2742.5156,193.6975 Q2742.8906,193.6975 2743.125,193.9631 Q2743.3594,194.2131 2743.3594,194.8225 L2743.3594,196.2756 Q2743.3594,196.885 2743.125,197.1506 Q2742.8906,197.4163 2742.5156,197.4163 Q2742.1719,197.4163 2741.9688,197.2131 Q2741.7656,197.0256 2741.6563,196.51 Q2741.6094,196.1506 2741.4219,195.9631 Q2741.0938,195.5881 2740.4844,195.3694 Q2739.875,195.1506 2739.25,195.1506 Q2738.4844,195.1506 2737.8438,195.4788 Q2737.2188,195.8069 2736.7188,196.5569 Q2736.2344,197.3069 2736.2344,198.3381 L2736.2344,199.4319 Q2736.2344,200.6663 2737.125,201.4944 Q2738.0156,202.3069 2739.6094,202.3069 Q2740.5469,202.3069 2741.2031,202.0569 Q2741.5938,201.9006 2742.0156,201.4631 Q2742.2813,201.1975 2742.4219,201.1194 Q2742.5781,201.0413 2742.7813,201.0413 Q2743.1094,201.0413 2743.3594,201.3069 Q2743.625,201.5569 2743.625,201.9006 Q2743.625,202.2444 2743.2813,202.6506 Q2742.7813,203.2288 2741.9844,203.5569 Q2740.9063,204.01 2739.6094,204.01 Q2738.0938,204.01 2736.8906,203.385 Q2735.9063,202.885 2735.2188,201.8225 Q2734.5313,200.7444 2734.5313,199.4631 L2734.5313,198.3069 Q2734.5313,196.9788 2735.1406,195.8381 Q2735.7656,194.6819 2736.8594,194.0725 Q2737.9531,193.4475 2739.1875,193.4475 Q2739.9219,193.4475 2740.5625,193.6194 Q2741.2188,193.7756 2741.7656,194.135 Z " fill="#000000"/><text fill="#000000" font-family="sans-serif" font-size="14" lengthAdjust="spacing" textLength="227.2471" x="2753" y="204.0569">NodeAlreadySynchronizedException</text><line style="stroke:#181818;stroke-width:0.5;" x1="2725" x2="2982.2471" y1="214.26" y2="214.26"/><line style="stroke:#181818;stroke-width:0.5;" x1="2725" x2="2982.2471" y1="222.26" y2="222.26"/></g><g id="elem_GMN72"><path d="M372,436.76 L372,481.342 A0,0 0 0 0 372,481.342 L647.3442,481.342 A0,0 0 0 0 647.3442,481.342 L647.3442,446.76 L637.3442,436.76 L519.75,436.76 L533.41,375.56 L511.75,436.76 L372,436.76 A0,0 0 0 0 372,436.76 " fill="#FEFFDD" style="stroke:#181818;stroke-width:0.5;"/><path d="M637.3442,436.76 L637.3442,446.76 L647.3442,446.76 L637.3442,436.76 " fill="#FEFFDD" style="stroke:#181818;stroke-width:0.5;"/><text fill="#000000" font-family="sans-serif" font-size="13" lengthAdjust="spacing" textLength="239.8589" x="378" y="455.7883">start: bindModelFromMps(...): IBinding, or</text><text fill="#000000" font-family="sans-serif" font-size="13" lengthAdjust="spacing" textLength="254.3442" x="378" y="473.0793">bindModuleFromMps(...): Iterable&lt;IBinding&gt;</text></g><!--reverse link ISyncService to syncServiceImpl--><g id="link_ISyncService_syncServiceImpl"><path codeLine="36" d="M629.4354,384.7328 C662.2554,404.6628 684.93,418.44 712.5,435.18 " fill="none" id="ISyncService-backto-syncServiceImpl" style="stroke:#181818;stroke-width:1.0;stroke-dasharray:7.0,7.0;"/><polygon fill="none" points="614.05,375.39,626.3212,389.8613,632.5497,379.6044,614.05,375.39" style="stroke:#181818;stroke-width:1.0;"/></g><!--reverse link injectableService to syncServiceImpl--><g id="link_injectableService_syncServiceImpl"><path codeLine="37" d="M996.2524,363.8436 C981.9324,369.9736 982.94,369.43 968.5,375.26 C916.5,396.27 856.95,418.84 813.25,435.14 " fill="none" id="injectableService-backto-syncServiceImpl" style="stroke:#181818;stroke-width:1.0;stroke-dasharray:7.0,7.0;"/><polygon fill="none" points="1012.8,356.76,993.8912,358.3277,998.6136,369.3594,1012.8,356.76" style="stroke:#181818;stroke-width:1.0;"/></g><!--reverse link injectableService to bindingsRegistry--><g id="link_injectableService_bindingsRegistry"><path codeLine="38" d="M1024.8092,368.528 C983.9892,402.468 916.32,453.29 835.5,483.26 C646.3,553.43 404.82,565.37 288.39,566.71 " fill="none" id="injectableService-backto-bindingsRegistry" style="stroke:#181818;stroke-width:1.0;stroke-dasharray:7.0,7.0;"/><polygon fill="none" points="1038.65,357.02,1020.9733,363.9144,1028.6452,373.1416,1038.65,357.02" style="stroke:#181818;stroke-width:1.0;"/></g><!--reverse link injectableService to syncQueue--><g id="link_injectableService_syncQueue"><path codeLine="39" d="M1152.7087,355.6512 C1253.1687,380.8612 1418.91,422.47 1508.85,445.04 " fill="none" id="injectableService-backto-syncQueue" style="stroke:#181818;stroke-width:1.0;stroke-dasharray:7.0,7.0;"/><polygon fill="none" points="1135.25,351.27,1151.2483,361.4707,1154.1691,349.8316,1135.25,351.27" style="stroke:#181818;stroke-width:1.0;"/></g><!--reverse link injectableService to futuresWaitQueue--><g id="link_injectableService_futuresWaitQueue"><path codeLine="40" d="M1065.5,374.9 C1065.5,419.47 1065.5,498.72 1065.5,543.21 " fill="none" id="injectableService-backto-futuresWaitQueue" style="stroke:#181818;stroke-width:1.0;stroke-dasharray:7.0,7.0;"/><polygon fill="none" points="1065.5,356.9,1059.5,374.9,1071.5,374.9,1065.5,356.9" style="stroke:#181818;stroke-width:1.0;"/></g><!--reverse link injectableService to nodeMap--><g id="link_injectableService_nodeMap"><path codeLine="41" d="M1116.6886,366.6122 C1151.5286,388.9722 1188.88,412.94 1223.66,435.26 " fill="none" id="injectableService-backto-nodeMap" style="stroke:#181818;stroke-width:1.0;stroke-dasharray:7.0,7.0;"/><polygon fill="none" points="1101.54,356.89,1113.4478,371.6617,1119.9293,361.5627,1101.54,356.89" style="stroke:#181818;stroke-width:1.0;"/></g><!--reverse link iBinding to modelBinding--><g id="link_iBinding_modelBinding"><path codeLine="43" d="M118.2385,601.376 C144.3185,619.096 165.32,633.37 191.45,651.12 " fill="none" id="iBinding-backto-modelBinding" style="stroke:#181818;stroke-width:1.0;stroke-dasharray:7.0,7.0;"/><polygon fill="none" points="103.35,591.26,114.8665,606.3388,121.6105,596.4131,103.35,591.26" style="stroke:#181818;stroke-width:1.0;"/></g><!--reverse link iBinding to moduleBinding--><g id="link_iBinding_moduleBinding"><path codeLine="44" d="M69.5,609.26 C69.5,626.92 69.5,633.2 69.5,650.94 " fill="none" id="iBinding-backto-moduleBinding" style="stroke:#181818;stroke-width:1.0;stroke-dasharray:7.0,7.0;"/><polygon fill="none" points="69.5,591.26,63.5,609.26,75.5,609.26,69.5,591.26" style="stroke:#181818;stroke-width:1.0;"/></g><!--link serviceLocator to syncServiceImpl--><g id="link_serviceLocator_syncServiceImpl"><path codeLine="46" d="M1062.6079,236.5 C1035.7979,252.75 1009.69,269.08 978.5,290.26 C905.69,339.7 827.9864,398.4826 784.9664,431.5626 " fill="none" id="serviceLocator-syncServiceImpl" style="stroke:#181818;stroke-width:1.0;"/><polygon fill="#181818" points="1072.87,230.28,1065.6656,229.9693,1062.6079,236.5,1069.8123,236.8107,1072.87,230.28" style="stroke:#181818;stroke-width:1.0;"/><polygon fill="#181818" points="780.21,435.22,789.7829,432.9048,784.1737,432.1722,784.9063,426.563,780.21,435.22" style="stroke:#181818;stroke-width:1.0;"/></g><!--link serviceLocator to bindingsRegistry--><g id="link_serviceLocator_bindingsRegistry"><path codeLine="47" d="M1036.9651,209.2412 C849.1151,214.7412 311.31,235.11 254.5,290.26 C184.84,357.89 201.7778,483.5837 212.7978,537.0037 " fill="none" id="serviceLocator-bindingsRegistry" style="stroke:#181818;stroke-width:1.0;"/><polygon fill="#181818" points="1048.96,208.89,1042.8455,205.0673,1036.9651,209.2412,1043.0796,213.0639,1048.96,208.89" style="stroke:#181818;stroke-width:1.0;"/><polygon fill="#181818" points="214.01,542.88,216.1092,533.2575,212.9998,537.9831,208.2742,534.8737,214.01,542.88" style="stroke:#181818;stroke-width:1.0;"/></g><!--link serviceLocator to syncQueue--><g id="link_serviceLocator_syncQueue"><path codeLine="48" d="M1185.6371,226.427 C1276.9671,250.067 1424.79,288.49 1427.5,290.26 C1485.18,327.82 1526.4221,393.2462 1546.5821,429.7962 " fill="none" id="serviceLocator-syncQueue" style="stroke:#181818;stroke-width:1.0;"/><polygon fill="#181818" points="1174.02,223.42,1178.8262,228.7959,1185.6371,226.427,1180.8309,221.0511,1174.02,223.42" style="stroke:#181818;stroke-width:1.0;"/><polygon fill="#181818" points="1549.48,435.05,1548.6358,425.2374,1547.0651,430.6718,1541.6307,429.1012,1549.48,435.05" style="stroke:#181818;stroke-width:1.0;"/></g><!--link serviceLocator to futuresWaitQueue--><g id="link_serviceLocator_futuresWaitQueue"><path codeLine="49" d="M1169.8996,235.8011 C1259.2596,282.0011 1425.67,384.51 1351.5,483.26 C1326.08,517.11 1222.0704,540.5768 1146.1604,553.8468 " fill="none" id="serviceLocator-futuresWaitQueue" style="stroke:#181818;stroke-width:1.0;"/><polygon fill="#181818" points="1159.24,230.29,1162.7328,236.5988,1169.8996,235.8011,1166.4069,229.4924,1159.24,230.29" style="stroke:#181818;stroke-width:1.0;"/><polygon fill="#181818" points="1140.25,554.88,1149.8044,557.2704,1145.1753,554.019,1148.4268,549.3899,1140.25,554.88" style="stroke:#181818;stroke-width:1.0;"/></g><!--link serviceLocator to nodeMap--><g id="link_serviceLocator_nodeMap"><path codeLine="50" d="M1160.932,236.9702 C1182.672,251.5702 1198.46,265.63 1214.5,290.26 C1244.32,336.06 1253.8792,395.1092 1257.2592,429.2692 " fill="none" id="serviceLocator-nodeMap" style="stroke:#181818;stroke-width:1.0;"/><polygon fill="#181818" points="1150.97,230.28,1153.7209,236.9458,1160.932,236.9702,1158.1811,230.3044,1150.97,230.28" style="stroke:#181818;stroke-width:1.0;"/><polygon fill="#181818" points="1257.85,435.24,1260.9444,425.8899,1257.3577,430.2643,1252.9833,426.6776,1257.85,435.24" style="stroke:#181818;stroke-width:1.0;"/></g><!--link serviceLocator to injectableService--><g id="link_serviceLocator_injectableService"><path codeLine="51" d="M1102.96,230.39 C1094.69,252.75 1082.25,286.44 1074,308.76 " fill="none" id="serviceLocator-injectableService" style="stroke:#181818;stroke-width:1.0;stroke-dasharray:7.0,7.0;"/></g><!--link syncServiceImpl to bindingsRegistry--><g id="link_syncServiceImpl_bindingsRegistry"><path codeLine="53" d="M682.08,479.07 C676.15,480.54 670.23,481.96 664.5,483.26 C532.09,513.27 381.6686,539.5851 293.9886,554.1751 " fill="none" id="syncServiceImpl-to-bindingsRegistry" style="stroke:#181818;stroke-width:1.0;"/><polygon fill="#181818" points="288.07,555.16,297.6045,557.6285,293.0022,554.3393,296.2914,549.737,288.07,555.16" style="stroke:#181818;stroke-width:1.0;"/></g><!--link bindingsRegistry to modelBinding--><g id="link_bindingsRegistry_modelBinding"><path codeLine="55" d="M221.4784,603.2408 C222.4784,620.9008 222.8423,627.2095 223.8423,644.9495 " fill="none" id="bindingsRegistry-modelBinding" style="stroke:#181818;stroke-width:1.0;"/><polygon fill="#181818" points="220.8,591.26,217.1456,597.4765,221.4784,603.2408,225.1328,597.0243,220.8,591.26" style="stroke:#181818;stroke-width:1.0;"/><polygon fill="#181818" points="224.18,650.94,227.6671,641.7291,223.8986,645.9479,219.6798,642.1794,224.18,650.94" style="stroke:#181818;stroke-width:1.0;"/></g><!--link bindingsRegistry to moduleBinding--><g id="link_bindingsRegistry_moduleBinding"><path codeLine="56" d="M177.1507,598.1863 C152.0807,615.9063 132.2708,629.9084 107.1408,647.6584 " fill="none" id="bindingsRegistry-moduleBinding" style="stroke:#181818;stroke-width:1.0;"/><polygon fill="#181818" points="186.95,591.26,179.7416,591.4567,177.1507,598.1863,184.3591,597.9896,186.95,591.26" style="stroke:#181818;stroke-width:1.0;"/><polygon fill="#181818" points="102.24,651.12,111.8989,649.1949,106.324,648.2354,107.2835,642.6605,102.24,651.12" style="stroke:#181818;stroke-width:1.0;"/></g><!--reverse link itemAlreadySynchronized to modelAlreadySynchronized--><g id="link_itemAlreadySynchronized_modelAlreadySynchronized"><path codeLine="58" d="M2319.971,138.5398 C2311.641,156.1998 2307.87,164.2 2299.5,181.94 " fill="none" id="itemAlreadySynchronized-backto-modelAlreadySynchronized" style="stroke:#181818;stroke-width:1.0;"/><polygon fill="none" points="2327.65,122.26,2314.5444,135.9802,2325.3976,141.0995,2327.65,122.26" style="stroke:#181818;stroke-width:1.0;"/></g><!--reverse link itemAlreadySynchronized to moduleAlreadySynchronized--><g id="link_itemAlreadySynchronized_moduleAlreadySynchronized"><path codeLine="59" d="M2224.7137,122.5797 C1961.7137,162.2297 1650.19,187.06 1490.69,198.34 " fill="none" id="itemAlreadySynchronized-backto-moduleAlreadySynchronized" style="stroke:#181818;stroke-width:1.0;"/><polygon fill="none" points="2242.45,119.51,2223.6904,116.6676,2225.7369,128.4918,2242.45,119.51" style="stroke:#181818;stroke-width:1.0;"/></g><!--reverse link itemAlreadySynchronizedException to modelAlreadySynchronizedException--><g id="link_itemAlreadySynchronizedException_modelAlreadySynchronizedException"><path codeLine="61" d="M2581.4684,139.1021 C2574.8084,156.7621 2571.99,164.2 2565.3,181.94 " fill="none" id="itemAlreadySynchronizedException-backto-modelAlreadySynchronizedException" style="stroke:#181818;stroke-width:1.0;"/><polygon fill="none" points="2587.82,122.26,2575.8544,136.9849,2587.0825,141.2193,2587.82,122.26" style="stroke:#181818;stroke-width:1.0;"/></g><!--reverse link itemAlreadySynchronizedException to moduleAlreadySynchronizedException--><g id="link_itemAlreadySynchronizedException_moduleAlreadySynchronizedException"><path codeLine="62" d="M2452.0539,122.7823 C2340.4439,140.9523 2196.04,164.47 2081.67,183.09 " fill="none" id="itemAlreadySynchronizedException-backto-moduleAlreadySynchronizedException" style="stroke:#181818;stroke-width:1.0;"/><polygon fill="none" points="2469.82,119.89,2451.0898,116.8603,2453.018,128.7043,2469.82,119.89" style="stroke:#181818;stroke-width:1.0;"/></g><!--reverse link itemAlreadySynchronizedException to nodeAlreadySynchronizedException--><g id="link_itemAlreadySynchronizedException_nodeAlreadySynchronizedException"><path codeLine="63" d="M2668.91,129.1236 C2711.87,146.8436 2754.36,164.37 2797.4,182.12 " fill="none" id="itemAlreadySynchronizedException-backto-nodeAlreadySynchronizedException" style="stroke:#181818;stroke-width:1.0;"/><polygon fill="none" points="2652.27,122.26,2666.6222,134.6703,2671.1979,123.5769,2652.27,122.26" style="stroke:#181818;stroke-width:1.0;"/></g><!--link moduleSynchronizer to serviceLocator--><g id="link_moduleSynchronizer_serviceLocator"><path codeLine="65" d="M1111.5,122.26 C1111.5,139.92 1111.5,158.2 1111.5,175.94 " fill="none" id="moduleSynchronizer-to-serviceLocator" style="stroke:#181818;stroke-width:1.0;"/><polygon fill="#181818" points="1111.5,181.94,1115.5,172.94,1111.5,176.94,1107.5,172.94,1111.5,181.94" style="stroke:#181818;stroke-width:1.0;"/></g><!--link moduleSynchronizer to modelSynchronizer--><g id="link_moduleSynchronizer_modelSynchronizer"><path codeLine="66" d="M1203.59,98.26 C1267.84,98.26 1314.09,98.26 1378.34,98.26 " fill="none" id="moduleSynchronizer-modelSynchronizer" style="stroke:#181818;stroke-width:1.0;"/><polygon fill="#181818" points="1191.59,98.26,1197.59,102.26,1203.59,98.26,1197.59,94.26,1191.59,98.26" style="stroke:#181818;stroke-width:1.0;"/><polygon fill="#181818" points="1384.34,98.26,1375.34,94.26,1379.34,98.26,1375.34,102.26,1384.34,98.26" style="stroke:#181818;stroke-width:1.0;"/></g><!--link moduleSynchronizer to syncQueue--><g id="link_moduleSynchronizer_syncQueue"><path codeLine="67" d="M1131.6,122.32 C1158.5,151.75 1209.04,202.17 1262.5,230.26 C1356.78,279.8 1414.58,219.86 1494.5,290.26 C1537.97,328.56 1552.7088,392.9736 1558.0388,429.2936 " fill="none" id="moduleSynchronizer-to-syncQueue" style="stroke:#181818;stroke-width:1.0;"/><polygon fill="#181818" points="1558.91,435.23,1561.5608,425.7446,1558.184,430.283,1553.6456,426.9062,1558.91,435.23" style="stroke:#181818;stroke-width:1.0;"/></g><!--link moduleSynchronizer to futuresWaitQueue--><g id="link_moduleSynchronizer_futuresWaitQueue"><path codeLine="68" d="M1031.47,104.71 C837.62,119.75 351.69,169.02 254.5,290.26 C55.54,538.45 749.0802,564.5321 984.6902,566.4121 " fill="none" id="moduleSynchronizer-to-futuresWaitQueue" style="stroke:#181818;stroke-width:1.0;"/><polygon fill="#181818" points="990.69,566.46,981.7222,562.3883,985.6902,566.4201,981.6584,570.3881,990.69,566.46" style="stroke:#181818;stroke-width:1.0;"/></g><!--link moduleSynchronizer to bindingsRegistry--><g id="link_moduleSynchronizer_bindingsRegistry"><path codeLine="69" d="M1031.25,102.16 C860.39,109.26 466.27,130.83 343.5,182.26 C185.12,248.61 121.09,278.28 51.5,435.26 C42.85,454.76 40.24,465.14 51.5,483.26 C73.22,518.22 108.7932,537.0068 145.0032,548.9768 " fill="none" id="moduleSynchronizer-to-bindingsRegistry" style="stroke:#181818;stroke-width:1.0;"/><polygon fill="#181818" points="150.7,550.86,143.4103,544.2373,145.9527,549.2907,140.8993,551.8331,150.7,550.86" style="stroke:#181818;stroke-width:1.0;"/></g><!--link moduleSynchronizer to nodeMap--><g id="link_moduleSynchronizer_nodeMap"><path codeLine="70" d="M1080.43,122.27 C1048.99,148.48 1008.11,192.56 1031.5,230.26 C1063.14,281.27 1107.85,250.14 1152.5,290.26 C1164.94,301.44 1216.627,386.5526 1242.627,429.9626 " fill="none" id="moduleSynchronizer-to-nodeMap" style="stroke:#181818;stroke-width:1.0;"/><polygon fill="#181818" points="1245.71,435.11,1244.5171,425.3336,1243.1409,430.8205,1237.654,429.4443,1245.71,435.11" style="stroke:#181818;stroke-width:1.0;"/></g><!--link moduleSynchronizer to iBinding--><g id="link_moduleSynchronizer_iBinding"><path codeLine="71" d="M1031.4,101.67 C843.16,108.16 377.54,129.23 231.5,182.26 C151.89,211.17 123.18,220.95 74.5,290.26 C24.25,361.8 20.06,397.4 36.5,483.26 C40.52,504.28 47.2321,521.3273 54.9321,537.5873 " fill="none" id="moduleSynchronizer-to-iBinding" style="stroke:#181818;stroke-width:1.0;stroke-dasharray:7.0,7.0;"/><polygon fill="#181818" points="57.5,543.01,57.2632,533.164,55.36,538.4911,50.033,536.5879,57.5,543.01" style="stroke:#181818;stroke-width:1.0;"/></g><!--link moduleSynchronizer to moduleAlreadySynchronized--><g id="link_moduleSynchronizer_moduleAlreadySynchronized"><path codeLine="72" d="M1170.95,122.26 C1216.76,139.98 1274.204,162.2055 1320.094,179.9555 " fill="none" id="moduleSynchronizer-to-moduleAlreadySynchronized" style="stroke:#181818;stroke-width:1.0;stroke-dasharray:7.0,7.0;"/><polygon fill="#181818" points="1325.69,182.12,1318.739,175.1426,1321.0267,180.3163,1315.853,182.6039,1325.69,182.12" style="stroke:#181818;stroke-width:1.0;"/></g><!--link moduleSynchronizer to moduleAlreadySynchronizedException--><g id="link_moduleSynchronizer_moduleAlreadySynchronizedException"><path codeLine="73" d="M1191.85,109.47 C1334.63,127.62 1628.0679,164.9133 1803.4779,187.2133 " fill="none" id="moduleSynchronizer-to-moduleAlreadySynchronizedException" style="stroke:#181818;stroke-width:1.0;stroke-dasharray:7.0,7.0;"/><polygon fill="#181818" points="1809.43,187.97,1801.0063,182.8669,1804.4699,187.3394,1799.9974,190.803,1809.43,187.97" style="stroke:#181818;stroke-width:1.0;"/></g><!--link modelSynchronizer to nodeSynchronizer--><g id="link_modelSynchronizer_nodeSynchronizer"><path codeLine="75" d="M1548.74,98.26 C1560.35,98.26 1553.96,98.26 1565.58,98.26 " fill="none" id="modelSynchronizer-nodeSynchronizer" style="stroke:#181818;stroke-width:1.0;"/><polygon fill="#181818" points="1536.74,98.26,1542.74,102.26,1548.74,98.26,1542.74,94.26,1536.74,98.26" style="stroke:#181818;stroke-width:1.0;"/><polygon fill="#181818" points="1571.58,98.26,1562.58,94.26,1566.58,98.26,1562.58,102.26,1571.58,98.26" style="stroke:#181818;stroke-width:1.0;"/></g><!--link modelSynchronizer to serviceLocator--><g id="link_modelSynchronizer_serviceLocator"><path codeLine="76" d="M1384.77,122.26 C1321.82,141.38 1239.0412,166.5267 1179.9912,184.4567 " fill="none" id="modelSynchronizer-to-serviceLocator" style="stroke:#181818;stroke-width:1.0;"/><polygon fill="#181818" points="1174.25,186.2,1184.0239,187.4126,1179.0343,184.7473,1181.6996,179.7577,1174.25,186.2" style="stroke:#181818;stroke-width:1.0;"/></g><!--link modelSynchronizer to syncQueue--><g id="link_modelSynchronizer_syncQueue"><path codeLine="77" d="M1497.47,122.39 C1543.21,153.72 1617.83,214.52 1640.5,290.26 C1651.33,326.45 1654.53,340.18 1640.5,375.26 C1630.9,399.27 1615.2597,416.4236 1597.6797,431.3036 " fill="none" id="modelSynchronizer-to-syncQueue" style="stroke:#181818;stroke-width:1.0;"/><polygon fill="#181818" points="1593.1,435.18,1602.5538,432.4186,1596.9164,431.9497,1597.3854,426.3123,1593.1,435.18" style="stroke:#181818;stroke-width:1.0;"/></g><!--link modelSynchronizer to futuresWaitQueue--><g id="link_modelSynchronizer_futuresWaitQueue"><path codeLine="78" d="M1384.31,105.85 C1276.32,116.53 1085.81,140.73 1031.5,182.26 C960.84,236.29 959.63,288.33 978.5,375.26 C992.45,439.53 1026.8932,502.9749 1047.8132,537.8449 " fill="none" id="modelSynchronizer-to-futuresWaitQueue" style="stroke:#181818;stroke-width:1.0;"/><polygon fill="#181818" points="1050.9,542.99,1049.6999,533.2145,1048.3277,538.7024,1042.8398,537.3302,1050.9,542.99" style="stroke:#181818;stroke-width:1.0;"/></g><!--link modelSynchronizer to bindingsRegistry--><g id="link_modelSynchronizer_bindingsRegistry"><path codeLine="79" d="M1384.21,108.18 C1117.94,139.64 243.74,245.97 203.5,290.26 C138.78,361.48 182.8284,484.9504 206.0184,537.5204 " fill="none" id="modelSynchronizer-to-bindingsRegistry" style="stroke:#181818;stroke-width:1.0;"/><polygon fill="#181818" points="208.44,543.01,208.4673,533.1612,206.422,538.4353,201.1478,536.39,208.44,543.01" style="stroke:#181818;stroke-width:1.0;"/></g><!--link modelSynchronizer to nodeMap--><g id="link_modelSynchronizer_nodeMap"><path codeLine="80" d="M1479.47,122.35 C1498.78,148.82 1523.72,193.31 1507.5,230.26 C1465.3,326.39 1365.4977,396.7175 1306.5477,432.0175 " fill="none" id="modelSynchronizer-to-nodeMap" style="stroke:#181818;stroke-width:1.0;"/><polygon fill="#181818" points="1301.4,435.1,1311.1765,433.908,1305.6897,432.5313,1307.0665,427.0445,1301.4,435.1" style="stroke:#181818;stroke-width:1.0;"/></g><!--link modelSynchronizer to modelBinding--><g id="link_modelSynchronizer_modelBinding"><path codeLine="81" d="M1536.73,122.18 C1624.43,153.82 1756.5,220.02 1756.5,331.76 C1756.5,331.76 1756.5,331.76 1756.5,460.26 C1756.5,611.81 570.6163,662.3199 290.1063,672.1499 " fill="none" id="modelSynchronizer-to-modelBinding" style="stroke:#181818;stroke-width:1.0;stroke-dasharray:7.0,7.0;"/><polygon fill="#181818" points="284.11,672.36,293.2446,676.0423,289.1069,672.1849,292.9644,668.0473,284.11,672.36" style="stroke:#181818;stroke-width:1.0;"/></g><!--link modelSynchronizer to cloudResolvableModelImport--><g id="link_modelSynchronizer_cloudResolvableModelImport"><path codeLine="82" d="M1509.6327,68.3674 C1530.3927,56.8474 1546.42,50.13 1572,44.26 C1738.78,6 1788.69,13.44 1957,44.26 C1988.75,50.07 2017.0904,60.2343 2043.8304,71.7643 " fill="none" id="modelSynchronizer-cloudResolvableModelImport" style="stroke:#181818;stroke-width:1.0;"/><polygon fill="#181818" points="1499.14,74.19,1506.3272,74.7763,1509.6327,68.3674,1502.4455,67.7811,1499.14,74.19" style="stroke:#181818;stroke-width:1.0;"/><polygon fill="#181818" points="2049.34,74.14,2042.6593,66.9034,2044.7486,72.1603,2039.4918,74.2495,2049.34,74.14" style="stroke:#181818;stroke-width:1.0;"/></g><!--link modelSynchronizer to modelAlreadySynchronized--><g id="link_modelSynchronizer_modelAlreadySynchronized"><path codeLine="83" d="M1536.51,118.75 C1542.57,120.03 1548.63,121.22 1554.5,122.26 C1794.47,164.64 1857.43,154.21 2099.5,182.26 C2128.07,185.57 2153.0839,188.5659 2181.5439,192.0259 " fill="none" id="modelSynchronizer-to-modelAlreadySynchronized" style="stroke:#181818;stroke-width:1.0;stroke-dasharray:7.0,7.0;"/><polygon fill="#181818" points="2187.5,192.75,2179.0485,187.6931,2182.5365,192.1466,2178.083,195.6346,2187.5,192.75" style="stroke:#181818;stroke-width:1.0;"/></g><!--link modelSynchronizer to modelAlreadySynchronizedException--><g id="link_modelSynchronizer_modelAlreadySynchronizedException"><path codeLine="84" d="M1536.72,119.06 C1542.71,120.26 1548.69,121.35 1554.5,122.26 C1929.99,180.97 2029.82,139.9 2407.5,182.26 C2412.96,182.87 2412.5773,182.788 2418.1973,183.498 " fill="none" id="modelSynchronizer-to-modelAlreadySynchronizedException" style="stroke:#181818;stroke-width:1.0;stroke-dasharray:7.0,7.0;"/><polygon fill="#181818" points="2424.15,184.25,2415.7223,179.1535,2419.1894,183.6233,2414.7196,187.0904,2424.15,184.25" style="stroke:#181818;stroke-width:1.0;"/></g><!--link nodeSynchronizer to serviceLocator--><g id="link_nodeSynchronizer_serviceLocator"><path codeLine="86" d="M1571.78,118.1 C1565.6,119.55 1559.45,120.96 1553.5,122.26 C1419.07,151.66 1266.1435,178.9047 1180.2335,193.6547 " fill="none" id="nodeSynchronizer-to-serviceLocator" style="stroke:#181818;stroke-width:1.0;stroke-dasharray:7.0,7.0;"/><polygon fill="#181818" points="1174.32,194.67,1183.8671,197.0894,1179.2479,193.8239,1182.5134,189.2047,1174.32,194.67" style="stroke:#181818;stroke-width:1.0;"/></g><!--link nodeSynchronizer to syncQueue--><g id="link_nodeSynchronizer_syncQueue"><path codeLine="87" d="M1719.2,118.24 C1725.37,119.66 1731.54,121.02 1737.5,122.26 C1901.89,156.38 2192.21,90.28 2099.5,230.26 C1988.45,397.93 1732.7181,442.0221 1620.2981,453.6621 " fill="none" id="nodeSynchronizer-to-syncQueue" style="stroke:#181818;stroke-width:1.0;"/><polygon fill="#181818" points="1614.33,454.28,1623.6941,457.3318,1619.3034,453.7651,1622.8702,449.3744,1614.33,454.28" style="stroke:#181818;stroke-width:1.0;"/></g><!--link nodeSynchronizer to nodeMap--><g id="link_nodeSynchronizer_nodeMap"><path codeLine="88" d="M1635.24,122.56 C1611.22,174.67 1546.48,301.82 1456.5,375.26 C1420.99,404.24 1379.5833,422.6566 1340.3433,435.9366 " fill="none" id="nodeSynchronizer-to-nodeMap" style="stroke:#181818;stroke-width:1.0;"/><polygon fill="#181818" points="1334.66,437.86,1344.4673,438.7638,1339.3961,436.2572,1341.9027,431.186,1334.66,437.86" style="stroke:#181818;stroke-width:1.0;"/></g><!--link nodeSynchronizer to cloudResolvableReference--><g id="link_nodeSynchronizer_cloudResolvableReference"><path codeLine="89" d="M1731.33,98.26 C1743.03,98.26 1736.73,98.26 1748.43,98.26 " fill="none" id="nodeSynchronizer-cloudResolvableReference" style="stroke:#181818;stroke-width:1.0;"/><polygon fill="#181818" points="1719.33,98.26,1725.33,102.26,1731.33,98.26,1725.33,94.26,1719.33,98.26" style="stroke:#181818;stroke-width:1.0;"/><polygon fill="#181818" points="1754.43,98.26,1745.43,94.26,1749.43,98.26,1745.43,102.26,1754.43,98.26" style="stroke:#181818;stroke-width:1.0;"/></g><!--link nodeSynchronizer to nodeAlreadySynchronizedException--><g id="link_nodeSynchronizer_nodeAlreadySynchronizedException"><path codeLine="90" d="M1719.07,118.91 C1725.28,120.19 1731.48,121.33 1737.5,122.26 C2163.92,188.2 2277.55,135.53 2706.5,182.26 C2712.15,182.88 2711.9554,182.8233 2717.7754,183.5433 " fill="none" id="nodeSynchronizer-to-nodeAlreadySynchronizedException" style="stroke:#181818;stroke-width:1.0;stroke-dasharray:7.0,7.0;"/><polygon fill="#181818" points="2723.73,184.28,2715.2892,179.2053,2718.7678,183.6661,2714.307,187.1448,2723.73,184.28" style="stroke:#181818;stroke-width:1.0;"/></g><!--link syncQueue to futuresWaitQueue--><g id="link_syncQueue_futuresWaitQueue"><path codeLine="92" d="M1508.89,471.5 C1420.38,490.42 1247.3175,527.4062 1145.9075,549.0762 " fill="none" id="syncQueue-to-futuresWaitQueue" style="stroke:#181818;stroke-width:1.0;"/><polygon fill="#181818" points="1140.04,550.33,1149.6772,552.361,1144.9296,549.2852,1148.0054,544.5376,1140.04,550.33" style="stroke:#181818;stroke-width:1.0;"/></g><!--SRC=[bLTHRziW47xdLw2yPEiQ_u2eYjHMhHHfgRHaqbxsGXpICjaG0QwQTVtlmzZOO0uxVJBSVHnt7tU7cJzmpJIZQeuOrrGUIKxnUdVc-OxALsOcx-ZREzahBKckF_2UySD676ZnA4MvEQalPJrPufqLtX55h_5U4fw_BF7wpWw-rYEpZF5do5HLKC-McItnROjfjA11uohP5_J6MLwX3vGNH2ayyvnVbwTYXed2AfGXBzYPCs61p7dQ6cl2yW2b9_10niy1gfU4k_4_DDUrxwq_pRP3QHTCC_qkSgA5R689H0xOxgMsz9aPziuMkXy8VOf-LBIY7JbsvjIFbQuaLRy8qptgE11smP_KJs5fOcyRSh9ORgPcZ4A2wbrVfE3iBvKUIxuue1t2Xr87VpAA2Cq7miwR-q9KXorLedYj6RTxcQmGKjjrULATCB2bHoefRuyoJoWHSgcFMpCcYSlRGb9oE7j-7fg4W7K1FwcrPK8PdiR8QbXxSG0FRpazQIRuM2GTQ2gaq5evXPeCCh8t0VDpRD8Sdm0XDD_IWjH3qt63FdlpBykYFXNrXK_1el8VCTVKT08GrNu2rzMzQwEDEEYPaSflb65lmrUBnIeA5i94aQOCDUv3sYX62EG27EXC8747HmF7CUWe6agQZGBAaf3WZe7hpD2yMAHRmjIgL2kOgkhnRVjwkDZEL9LUPcYwFkCxoPxRuD85K5Vkr88x9sMkIyK48Ch612xAfmJE9IwWph9L_zkJqASpuRCBGgf3jYo7qRKTm-03WK0-pO0UOXc0GIG3C8_ZWRPbfAzeEFIHFuyHcubJ-GJSEvCX-tRTWEi84r8DgXqtaHA8k_zb0hsPhk7E5_YGqVn9wFh5myq7xuNMeiJY63nxbbXf8lKoVl1aMUQzQAwnaBzv_9HfKV4pvJy0]--></g></svg>
